<?xml version="1.0" encoding="UTF-8"?>
<!DOCTYPE svg PUBLIC "-//W3C//DTD SVG 1.1//EN" "http://www.w3.org/Graphics/SVG/1.1/DTD/svg11.dtd">
<!-- Creator: CorelDRAW X8 -->
<svg xmlns="http://www.w3.org/2000/svg" xml:space="preserve" width="2550px" height="3300px" version="1.1" style="shape-rendering:geometricPrecision; text-rendering:geometricPrecision; image-rendering:optimizeQuality; fill-rule:evenodd; clip-rule:evenodd"
viewBox="0 0 2550 3300"
 xmlns:xlink="http://www.w3.org/1999/xlink"
 sodipodi:docname="3fd.svg"
 inkscape:version="1.1.1 (3bf5ae0d25, 2021-09-20)"
 xmlns:inkscape="http://www.inkscape.org/namespaces/inkscape"
 xmlns:sodipodi="http://sodipodi.sourceforge.net/DTD/sodipodi-0.dtd"
 xmlns:svg="http://www.w3.org/2000/svg">
 <defs>
  <style type="text/css">
   <![CDATA[
    .str5 {stroke:#002B64;stroke-width:18.4559}
    .str3 {stroke:#FDFCFF;stroke-width:18.4559}
    .str0 {stroke:white;stroke-width:18.4559}
    .str4 {stroke:#57A4C3;stroke-width:3.69094}
    .str2 {stroke:white;stroke-width:7.38189}
    .str1 {stroke:#FAFAFA;stroke-width:9.22795}
    .fil1 {fill:none}
    .fil21 {fill:#002B64}
    .fil5 {fill:#003399}
    .fil7 {fill:#03336E}
    .fil9 {fill:#0BA19F}
    .fil10 {fill:#0FBAB8}
    .fil13 {fill:#2F528D}
    .fil3 {fill:#336699}
    .fil18 {fill:#3F92D1}
    .fil11 {fill:#57A4C3}
    .fil19 {fill:#6B809B}
    .fil12 {fill:#6CC5EB}
    .fil6 {fill:#7DA4C4}
    .fil20 {fill:#8EABD1}
    .fil14 {fill:#93A1AD}
    .fil17 {fill:#C4C0CF}
    .fil8 {fill:#CCCCCC}
    .fil4 {fill:#D1EBFF}
    .fil15 {fill:#F4BD13}
    .fil0 {fill:white}
    .fil16 {fill:white;fill-rule:nonzero}
    .fil2 {fill:url(#id1)}
   ]]>
  </style>
    <clipPath id="id0">
     <path d="M57589 -12372c2037,0 3690,1650 3690,3690 0,2038 -1653,3691 -3690,3691 -2038,0 -3691,-1653 -3691,-3691 0,-2040 1653,-3690 3691,-3690z"/>
    </clipPath>
  <linearGradient id="id1" gradientUnits="userSpaceOnUse" x1="-8472.31" y1="-1901.1" x2="10489.5" y2="-4496.96">
   <stop offset="0" style="stop-opacity:1; stop-color:#E98125"/>
   <stop offset="1" style="stop-opacity:1; stop-color:#D0DB3D"/>
  </linearGradient>
 </defs>
 <g id="Capa_x0020_1">
  <metadata id="CorelCorpID_0Corel-Layer"/>
  <sodipodi:namedview id="namedview1630" pagecolor="#ffffff" bordercolor="#666666" borderopacity="1.0" inkscape:pageshadow="2" inkscape:pageopacity="0.0" inkscape:pagecheckerboard="0" showgrid="false" inkscape:zoom="0.057229435" inkscape:cx="1747.3526" inkscape:cy="1922.0878" inkscape:window-width="1366" inkscape:window-height="705" inkscape:window-x="-8" inkscape:window-y="-8" inkscape:window-maximized="1" inkscape:current-layer="Capa_x0020_1"/>
 </g>
 <g id="Capa_x0020_1_0">
  <metadata id="CorelCorpID_1Corel-Layer"/>
  <g id="g887" inkscape:label="Capa 1" inkscape:groupmode="layer">
   <g>
   </g>
   <g style="clip-path:url(#id0)">
    <g id="_2722448923760">
     <polygon id="polygon627" class="fil0" points="53898,-12372 61279,-12372 61279,-4991 53898,-4991 "/>
     <path id="_1" class="fil0" d="M57611 -8682c0,-12 -10,-22 -22,-22 -13,0 -22,10 -22,22 0,13 9,22 22,22 12,0 22,-9 22,-22z"/>
     <path id="_2" class="fil0" d="M57601 -8682c0,6 -6,13 -12,13 -10,0 -16,-7 -16,-13 0,-9 6,-15 16,-15 6,0 12,6 12,15zm22 0c0,-22 -16,-37 -34,-37 -19,0 -38,15 -38,37 0,19 19,35 38,35 18,0 34,-16 34,-35z"/>
     <path id="_3" class="fil0" d="M57617 -8682c0,16 -13,28 -28,28 -16,0 -28,-12 -28,-28 0,-15 12,-31 28,-31 15,0 28,16 28,31zm22 0c0,-28 -22,-50 -50,-50 -28,0 -50,22 -50,50 0,28 22,50 50,50 28,0 50,-22 50,-50z"/>
     <path id="_4" class="fil0" d="M57632 -8682c0,22 -18,44 -43,44 -25,0 -44,-22 -44,-44 0,-25 19,-44 44,-44 25,0 43,19 43,44zm22 0c0,-37 -31,-65 -65,-65 -38,0 -66,28 -66,65 0,35 28,63 66,63 34,0 65,-28 65,-63z"/>
     <path id="_5" class="fil0" d="M57645 -8682c0,31 -25,56 -56,56 -32,0 -60,-25 -60,-56 0,-31 28,-59 60,-59 31,0 56,28 56,59zm22 0c0,-44 -35,-81 -78,-81 -44,0 -78,37 -78,81 0,44 34,78 78,78 43,0 78,-34 78,-78z"/>
     <path id="_6" class="fil0" d="M57661 -8682c0,38 -32,72 -72,72 -41,0 -72,-34 -72,-72 0,-40 31,-72 72,-72 40,0 72,32 72,72zm21 0c0,-53 -43,-94 -93,-94 -53,0 -94,41 -94,94 0,50 41,94 94,94 50,0 93,-44 93,-94z"/>
     <path id="_7" class="fil0" d="M57676 -8682c0,47 -40,85 -87,85 -47,0 -88,-38 -88,-85 0,-50 41,-87 88,-87 47,0 87,37 87,87zm19 0c0,-59 -47,-109 -106,-109 -60,0 -110,50 -110,109 0,60 50,106 110,106 59,0 106,-46 106,-106z"/>
     <path id="_8" class="fil0" d="M57689 -8682c0,56 -44,100 -100,100 -57,0 -100,-44 -100,-100 0,-56 43,-103 100,-103 56,0 100,47 100,103zm22 0c0,-69 -54,-125 -122,-125 -69,0 -122,56 -122,125 0,66 53,122 122,122 68,0 122,-56 122,-122z"/>
     <path id="_9" class="fil0" d="M57704 -8682c0,63 -53,116 -115,116 -66,0 -116,-53 -116,-116 0,-65 50,-115 116,-115 62,0 115,50 115,115zm22 0c0,-78 -62,-137 -137,-137 -75,0 -138,59 -138,137 0,75 63,138 138,138 75,0 137,-63 137,-138z"/>
     <path id="_10" class="fil0" d="M57717 -8682c0,72 -56,128 -128,128 -72,0 -132,-56 -132,-128 0,-72 60,-131 132,-131 72,0 128,59 128,131zm22 0c0,-84 -66,-153 -150,-153 -85,0 -153,69 -153,153 0,81 68,150 153,150 84,0 150,-69 150,-150z"/>
     <path id="_11" class="fil0" d="M57732 -8682c0,78 -65,144 -143,144 -82,0 -144,-66 -144,-144 0,-81 62,-144 144,-144 78,0 143,63 143,144zm22 0c0,-94 -75,-165 -165,-165 -91,0 -166,71 -166,165 0,91 75,166 166,166 90,0 165,-75 165,-166z"/>
     <path id="_12" class="fil0" d="M57748 -8682c0,88 -72,156 -159,156 -88,0 -160,-68 -160,-156 0,-87 72,-159 160,-159 87,0 159,72 159,159zm22 0c0,-100 -81,-181 -181,-181 -100,0 -182,81 -182,181 0,100 82,178 182,178 100,0 181,-78 181,-178z"/>
     <path id="_13" class="fil0" d="M57761 -8682c0,94 -79,172 -172,172 -97,0 -172,-78 -172,-172 0,-97 75,-175 172,-175 93,0 172,78 172,175zm21 0c0,-109 -87,-197 -193,-197 -110,0 -194,88 -194,197 0,106 84,194 194,194 106,0 193,-88 193,-194z"/>
     <path id="_14" class="fil0" d="M57776 -8682c0,103 -84,188 -187,188 -103,0 -188,-85 -188,-188 0,-103 85,-187 188,-187 103,0 187,84 187,187zm22 0c0,-115 -94,-209 -209,-209 -116,0 -210,94 -210,209 0,116 94,210 210,210 115,0 209,-94 209,-210z"/>
     <path id="_15" class="fil0" d="M57789 -8682c0,110 -88,200 -200,200 -113,0 -203,-90 -203,-200 0,-112 90,-203 203,-203 112,0 200,91 200,203zm22 0c0,-125 -100,-225 -222,-225 -125,0 -225,100 -225,225 0,122 100,222 225,222 122,0 222,-100 222,-222z"/>
     <path id="_16" class="fil0" d="M57804 -8682c0,119 -97,216 -215,216 -119,0 -216,-97 -216,-216 0,-122 97,-219 216,-219 118,0 215,97 215,219zm22 0c0,-131 -106,-237 -237,-237 -132,0 -238,106 -238,237 0,131 106,238 238,238 131,0 237,-107 237,-238z"/>
     <path id="_17" class="fil0" d="M57820 -8682c0,125 -103,231 -231,231 -128,0 -232,-106 -232,-231 0,-128 104,-231 232,-231 128,0 231,103 231,231zm22 0c0,-140 -116,-253 -253,-253 -141,0 -253,113 -253,253 0,138 112,250 253,250 137,0 253,-112 253,-250z"/>
     <path id="_18" class="fil0" d="M57832 -8682c0,135 -109,244 -243,244 -135,0 -247,-109 -247,-244 0,-137 112,-247 247,-247 134,0 243,110 243,247zm22 0c0,-147 -118,-269 -265,-269 -147,0 -266,122 -266,269 0,147 119,266 266,266 147,0 265,-119 265,-266z"/>
     <path id="_19" class="fil0" d="M57848 -8682c0,144 -116,260 -259,260 -144,0 -260,-116 -260,-260 0,-144 116,-259 260,-259 143,0 259,115 259,259zm22 0c0,-156 -125,-281 -281,-281 -157,0 -282,125 -282,281 0,153 125,281 282,281 156,0 281,-128 281,-281z"/>
     <path id="_20" class="fil0" d="M57864 -8682c0,150 -125,272 -275,272 -153,0 -275,-122 -275,-272 0,-153 122,-275 275,-275 150,0 275,122 275,275zm18 0c0,-165 -131,-297 -293,-297 -163,0 -297,132 -297,297 0,163 134,294 297,294 162,0 293,-131 293,-294z"/>
     <path id="_21" class="fil0" d="M57876 -8682c0,160 -128,288 -287,288 -160,0 -288,-128 -288,-288 0,-159 128,-290 288,-290 159,0 287,131 287,290zm22 0c0,-172 -137,-309 -309,-309 -172,0 -310,137 -310,309 0,169 138,310 310,310 172,0 309,-141 309,-310z"/>
     <path id="_22" class="fil0" d="M57892 -8682c0,166 -138,303 -303,303 -169,0 -303,-137 -303,-303 0,-169 134,-303 303,-303 165,0 303,134 303,303zm22 0c0,-181 -147,-325 -325,-325 -178,0 -325,144 -325,325 0,178 147,325 325,325 178,0 325,-147 325,-325z"/>
     <path id="_23" class="fil0" d="M57904 -8682c0,175 -140,316 -315,316 -175,0 -319,-141 -319,-316 0,-175 144,-319 319,-319 175,0 315,144 315,319zm22 0c0,-187 -150,-340 -337,-340 -188,0 -341,153 -341,340 0,188 153,338 341,338 187,0 337,-150 337,-338z"/>
     <path id="_24" class="fil0" d="M57920 -8682c0,181 -150,331 -331,331 -185,0 -332,-150 -332,-331 0,-184 147,-331 332,-331 181,0 331,147 331,331zm22 0c0,-197 -160,-353 -353,-353 -197,0 -353,156 -353,353 0,194 156,353 353,353 193,0 353,-159 353,-353z"/>
     <path id="_25" class="fil0" d="M57936 -8682c0,191 -157,344 -347,344 -191,0 -347,-153 -347,-344 0,-190 156,-347 347,-347 190,0 347,157 347,347zm21 0c0,-203 -165,-369 -368,-369 -203,0 -369,166 -369,369 0,203 166,366 369,366 203,0 368,-163 368,-366z"/>
     <path id="_26" class="fil0" d="M57948 -8682c0,197 -159,360 -359,360 -200,0 -360,-163 -360,-360 0,-200 160,-362 360,-362 200,0 359,162 359,362zm22 0c0,-212 -172,-384 -381,-384 -213,0 -382,172 -382,384 0,210 169,381 382,381 209,0 381,-171 381,-381z"/>
     <path id="_27" class="fil0" d="M57964 -8682c0,206 -169,375 -375,375 -207,0 -375,-169 -375,-375 0,-209 168,-375 375,-375 206,0 375,166 375,375zm22 0c0,-219 -179,-397 -397,-397 -219,0 -397,178 -397,397 0,219 178,397 397,397 218,0 397,-178 397,-397z"/>
     <path id="_28" class="fil0" d="M57976 -8682c0,216 -172,388 -387,388 -216,0 -391,-172 -391,-388 0,-215 175,-390 391,-390 215,0 387,175 387,390zm22 0c0,-228 -184,-412 -409,-412 -228,0 -413,184 -413,412 0,225 185,410 413,410 225,0 409,-185 409,-410z"/>
     <path id="_29" class="fil0" d="M57992 -8682c0,222 -181,403 -403,403 -222,0 -403,-181 -403,-403 0,-225 181,-403 403,-403 222,0 403,178 403,403zm22 0c0,-234 -191,-425 -425,-425 -235,0 -425,191 -425,425 0,235 190,425 425,425 234,0 425,-190 425,-425z"/>
     <path id="_30" class="fil0" d="M58007 -8682c0,231 -187,419 -418,419 -232,0 -419,-188 -419,-419 0,-231 187,-419 419,-419 231,0 418,188 418,419zm22 0c0,-244 -197,-440 -440,-440 -244,0 -441,196 -441,440 0,241 197,438 441,438 243,0 440,-197 440,-438z"/>
     <path id="_31" class="fil0" d="M58020 -8682c0,238 -194,431 -431,431 -241,0 -435,-193 -435,-431 0,-240 194,-434 435,-434 237,0 431,194 431,434zm22 0c0,-253 -203,-456 -453,-456 -250,0 -453,203 -453,456 0,250 203,453 453,453 250,0 453,-203 453,-453z"/>
     <path id="_32" class="fil0" d="M58036 -8682c0,247 -200,447 -447,447 -247,0 -447,-200 -447,-447 0,-247 200,-447 447,-447 247,0 447,200 447,447zm21 0c0,-259 -209,-469 -468,-469 -260,0 -469,210 -469,469 0,260 209,469 469,469 259,0 468,-209 468,-469z"/>
     <path id="_33" class="fil0" d="M58051 -8682c0,253 -209,460 -462,460 -257,0 -463,-207 -463,-460 0,-256 206,-462 463,-462 253,0 462,206 462,462zm19 0c0,-269 -216,-484 -481,-484 -266,0 -485,215 -485,484 0,266 219,481 485,481 265,0 481,-215 481,-481z"/>
     <path id="_34" class="fil0" d="M58064 -8682c0,263 -213,475 -475,475 -263,0 -475,-212 -475,-475 0,-262 212,-478 475,-478 262,0 475,216 475,478zm22 0c0,-275 -222,-497 -497,-497 -275,0 -497,222 -497,497 0,275 222,497 497,497 275,0 497,-222 497,-497z"/>
     <path id="_35" class="fil0" d="M58079 -8682c0,269 -218,491 -490,491 -272,0 -491,-222 -491,-491 0,-272 219,-490 491,-490 272,0 490,218 490,490zm22 0c0,-284 -231,-512 -512,-512 -285,0 -513,228 -513,512 0,281 228,510 513,510 281,0 512,-229 512,-510z"/>
     <path id="_36" class="fil0" d="M58092 -8682c0,278 -225,503 -503,503 -278,0 -507,-225 -507,-503 0,-278 229,-506 507,-506 278,0 503,228 503,506zm22 0c0,-290 -235,-528 -525,-528 -291,0 -528,238 -528,528 0,291 237,525 528,525 290,0 525,-234 525,-525z"/>
     <path id="_37" class="fil0" d="M58107 -8682c0,285 -231,519 -518,519 -288,0 -519,-234 -519,-519 0,-287 231,-519 519,-519 287,0 518,232 518,519zm22 0c0,-300 -243,-540 -540,-540 -300,0 -541,240 -541,540 0,297 241,541 541,541 297,0 540,-244 540,-541z"/>
     <path id="_38" class="fil0" d="M58123 -8682c0,294 -241,531 -534,531 -294,0 -535,-237 -535,-531 0,-297 241,-534 535,-534 293,0 534,237 534,534zm22 0c0,-306 -250,-556 -556,-556 -307,0 -557,250 -557,556 0,306 250,553 557,553 306,0 556,-247 556,-553z"/>
     <path id="_39" class="fil0" d="M58136 -8682c0,303 -244,547 -547,547 -303,0 -547,-244 -547,-547 0,-303 244,-550 547,-550 303,0 547,247 547,550zm21 0c0,-315 -253,-572 -568,-572 -316,0 -569,257 -569,572 0,313 253,569 569,569 315,0 568,-256 568,-569z"/>
     <path id="_40" class="fil0" d="M58151 -8682c0,310 -253,563 -562,563 -313,0 -563,-253 -563,-563 0,-312 250,-562 563,-562 309,0 562,250 562,562zm22 0c0,-322 -262,-584 -584,-584 -322,0 -585,262 -585,584 0,322 263,585 585,585 322,0 584,-263 584,-585z"/>
     <path id="_41" class="fil0" d="M58164 -8682c0,319 -257,575 -575,575 -319,0 -578,-256 -578,-575 0,-319 259,-578 578,-578 318,0 575,259 575,578zm22 0c0,-331 -266,-600 -597,-600 -332,0 -600,269 -600,600 0,328 268,597 600,597 331,0 597,-269 597,-597z"/>
     <path id="_42" class="fil0" d="M58179 -8682c0,325 -265,591 -590,591 -328,0 -591,-266 -591,-591 0,-328 263,-590 591,-590 325,0 590,262 590,590zm22 0c0,-340 -275,-612 -612,-612 -338,0 -613,272 -613,612 0,338 275,613 613,613 337,0 612,-275 612,-613z"/>
     <path id="_43" class="fil0" d="M58195 -8682c0,335 -272,603 -606,603 -335,0 -607,-268 -607,-603 0,-334 272,-606 607,-606 334,0 606,272 606,606zm22 0c0,-347 -281,-628 -628,-628 -347,0 -628,281 -628,628 0,347 281,625 628,625 347,0 628,-278 628,-625z"/>
     <path id="_44" class="fil0" d="M58207 -8682c0,341 -278,619 -618,619 -344,0 -622,-278 -622,-619 0,-344 278,-622 622,-622 340,0 618,278 618,622zm22 0c0,-356 -287,-644 -640,-644 -357,0 -641,288 -641,644 0,353 284,641 641,641 353,0 640,-288 640,-641z"/>
     <path id="_45" class="fil0" d="M58223 -8682c0,350 -284,635 -634,635 -350,0 -635,-285 -635,-635 0,-350 285,-634 635,-634 350,0 634,284 634,634zm22 0c0,-362 -294,-656 -656,-656 -363,0 -657,294 -657,656 0,363 294,656 657,656 362,0 656,-293 656,-656z"/>
     <path id="_46" class="fil0" d="M58236 -8682c0,356 -288,647 -647,647 -360,0 -650,-291 -650,-647 0,-359 290,-650 650,-650 359,0 647,291 647,650zm21 0c0,-372 -300,-672 -668,-672 -372,0 -672,300 -672,672 0,369 300,669 672,669 368,0 668,-300 668,-669z"/>
     <path id="_47" class="fil0" d="M58251 -8682c0,366 -297,663 -662,663 -366,0 -663,-297 -663,-663 0,-369 297,-665 663,-665 365,0 662,296 662,665zm22 0c0,-378 -306,-684 -684,-684 -378,0 -685,306 -685,684 0,378 307,685 685,685 378,0 684,-307 684,-685z"/>
     <path id="_48" class="fil0" d="M58267 -8682c0,372 -303,678 -678,678 -375,0 -678,-306 -678,-678 0,-375 303,-678 678,-678 375,0 678,303 678,678zm22 0c0,-387 -316,-700 -700,-700 -388,0 -700,313 -700,700 0,385 312,697 700,697 384,0 700,-312 700,-697z"/>
     <path id="_49" class="fil0" d="M58279 -8682c0,381 -309,691 -690,691 -382,0 -694,-310 -694,-691 0,-384 312,-694 694,-694 381,0 690,310 690,694zm22 0c0,-394 -319,-715 -712,-715 -394,0 -716,321 -716,715 0,394 322,713 716,713 393,0 712,-319 712,-713z"/>
     <path id="_50" class="fil0" d="M58295 -8682c0,391 -316,706 -706,706 -391,0 -707,-315 -707,-706 0,-390 316,-706 707,-706 390,0 706,316 706,706zm22 0c0,-403 -325,-728 -728,-728 -403,0 -728,325 -728,728 0,400 325,728 728,728 403,0 728,-328 728,-728z"/>
     <path id="_51" class="fil0" d="M58311 -8682c0,397 -325,719 -722,719 -400,0 -722,-322 -722,-719 0,-400 322,-722 722,-722 397,0 722,322 722,722zm18 0c0,-412 -331,-744 -740,-744 -410,0 -744,332 -744,744 0,410 334,741 744,741 409,0 740,-331 740,-741z"/>
     <path id="_52" class="fil0" d="M58323 -8682c0,406 -328,735 -734,735 -407,0 -735,-329 -735,-735 0,-406 328,-737 735,-737 406,0 734,331 734,737zm22 0c0,-419 -338,-759 -756,-759 -419,0 -757,340 -757,759 0,416 338,756 757,756 418,0 756,-340 756,-756z"/>
     <path id="_53" class="fil0" d="M58339 -8682c0,413 -338,750 -750,750 -416,0 -750,-337 -750,-750 0,-415 334,-750 750,-750 412,0 750,335 750,750zm22 0c0,-428 -347,-772 -772,-772 -425,0 -772,344 -772,772 0,425 347,772 772,772 425,0 772,-347 772,-772z"/>
     <path id="_54" class="fil0" d="M58351 -8682c0,422 -340,763 -762,763 -422,0 -766,-341 -766,-763 0,-422 344,-765 766,-765 422,0 762,343 762,765zm22 0c0,-434 -350,-787 -784,-787 -435,0 -788,353 -788,787 0,435 353,785 788,785 434,0 784,-350 784,-785z"/>
     <path id="_55" class="fil0" d="M58367 -8682c0,428 -350,778 -778,778 -432,0 -778,-350 -778,-778 0,-431 346,-778 778,-778 428,0 778,347 778,778zm22 0c0,-444 -360,-800 -800,-800 -444,0 -800,356 -800,800 0,441 356,800 800,800 440,0 800,-359 800,-800z"/>
     <path id="_56" class="fil0" d="M58382 -8682c0,438 -356,791 -793,791 -438,0 -794,-353 -794,-791 0,-437 356,-794 794,-794 437,0 793,357 793,794zm22 0c0,-450 -365,-815 -815,-815 -450,0 -816,365 -816,815 0,450 366,813 816,813 450,0 815,-363 815,-813z"/>
     <path id="_57" class="fil0" d="M58395 -8682c0,444 -359,806 -806,806 -447,0 -807,-362 -807,-806 0,-447 360,-809 807,-809 447,0 806,362 806,809zm22 0c0,-459 -372,-831 -828,-831 -460,0 -828,372 -828,831 0,456 368,828 828,828 456,0 828,-372 828,-828z"/>
     <path id="_58" class="fil0" d="M58411 -8682c0,453 -369,822 -822,822 -453,0 -822,-369 -822,-822 0,-456 369,-822 822,-822 453,0 822,366 822,822zm21 0c0,-465 -378,-844 -843,-844 -466,0 -844,379 -844,844 0,466 378,844 844,844 465,0 843,-378 843,-844z"/>
     <path id="_59" class="fil0" d="M58423 -8682c0,460 -372,835 -834,835 -463,0 -838,-375 -838,-835 0,-462 375,-837 838,-837 462,0 834,375 834,837zm22 0c0,-475 -384,-859 -856,-859 -475,0 -860,384 -860,859 0,472 385,856 860,856 472,0 856,-384 856,-856z"/>
     <path id="_60" class="fil0" d="M58439 -8682c0,469 -382,850 -850,850 -469,0 -850,-381 -850,-850 0,-472 381,-853 850,-853 468,0 850,381 850,853zm22 0c0,-481 -391,-872 -872,-872 -482,0 -872,391 -872,872 0,481 390,872 872,872 481,0 872,-391 872,-872z"/>
     <path id="_61" class="fil0" d="M58454 -8682c0,478 -387,866 -865,866 -478,0 -866,-388 -866,-866 0,-478 388,-865 866,-865 478,0 865,387 865,865zm22 0c0,-490 -397,-887 -887,-887 -491,0 -888,397 -888,887 0,488 397,885 888,885 490,0 887,-397 887,-885z"/>
     <path id="_62" class="fil0" d="M58467 -8682c0,485 -394,878 -878,878 -488,0 -882,-393 -882,-878 0,-487 394,-881 882,-881 484,0 878,394 878,881zm22 0c0,-500 -403,-903 -900,-903 -497,0 -900,403 -900,903 0,497 403,900 900,900 497,0 900,-403 900,-900z"/>
     <path id="_63" class="fil0" d="M58482 -8682c0,494 -400,894 -893,894 -494,0 -894,-400 -894,-894 0,-494 400,-894 894,-894 493,0 893,400 893,894zm22 0c0,-506 -409,-915 -915,-915 -507,0 -916,409 -916,915 0,506 409,916 916,916 506,0 915,-410 915,-916z"/>
     <path id="_64" class="fil0" d="M58498 -8682c0,500 -409,906 -909,906 -503,0 -910,-406 -910,-906 0,-503 407,-909 910,-909 500,0 909,406 909,909zm19 0c0,-515 -416,-931 -928,-931 -513,0 -932,416 -932,931 0,513 419,928 932,928 512,0 928,-415 928,-928z"/>
     <path id="_65" class="fil0" d="M58511 -8682c0,510 -413,922 -922,922 -510,0 -922,-412 -922,-922 0,-509 412,-925 922,-925 509,0 922,416 922,925zm21 0c0,-522 -421,-947 -943,-947 -522,0 -944,425 -944,947 0,522 422,944 944,944 522,0 943,-422 943,-944z"/>
     <path id="_66" class="fil0" d="M58526 -8682c0,516 -419,938 -937,938 -519,0 -938,-422 -938,-938 0,-519 419,-937 938,-937 518,0 937,418 937,937zm22 0c0,-531 -431,-959 -959,-959 -532,0 -960,428 -960,959 0,528 428,960 960,960 528,0 959,-432 959,-960z"/>
     <path id="_67" class="fil0" d="M58539 -8682c0,525 -425,950 -950,950 -525,0 -953,-425 -953,-950 0,-525 428,-953 953,-953 525,0 950,428 950,953zm22 0c0,-537 -435,-975 -972,-975 -538,0 -975,438 -975,975 0,538 437,972 975,972 537,0 972,-434 972,-972z"/>
     <path id="_68" class="fil0" d="M58554 -8682c0,531 -431,966 -965,966 -535,0 -966,-435 -966,-966 0,-534 431,-965 966,-965 534,0 965,431 965,965zm22 0c0,-547 -444,-987 -987,-987 -547,0 -988,440 -988,987 0,544 441,988 988,988 543,0 987,-444 987,-988z"/>
     <path id="_69" class="fil0" d="M58570 -8682c0,541 -441,978 -981,978 -541,0 -982,-437 -982,-978 0,-544 441,-981 982,-981 540,0 981,437 981,981zm22 0c0,-553 -450,-1003 -1003,-1003 -553,0 -1003,450 -1003,1003 0,553 450,1000 1003,1000 553,0 1003,-447 1003,-1000z"/>
     <path id="_70" class="fil0" d="M58582 -8682c0,550 -443,994 -993,994 -550,0 -994,-444 -994,-994 0,-550 444,-997 994,-997 550,0 993,447 993,997zm22 0c0,-562 -453,-1019 -1015,-1019 -563,0 -1016,457 -1016,1019 0,560 453,1016 1016,1016 562,0 1015,-456 1015,-1016z"/>
     <path id="_71" class="fil0" d="M58598 -8682c0,556 -453,1010 -1009,1010 -557,0 -1010,-454 -1010,-1010 0,-559 453,-1009 1010,-1009 556,0 1009,450 1009,1009zm22 0c0,-569 -463,-1031 -1031,-1031 -569,0 -1032,462 -1032,1031 0,569 463,1031 1032,1031 568,0 1031,-462 1031,-1031z"/>
     <path id="_72" class="fil0" d="M58611 -8682c0,566 -457,1022 -1022,1022 -566,0 -1025,-456 -1025,-1022 0,-565 459,-1025 1025,-1025 565,0 1022,460 1022,1025zm21 0c0,-578 -465,-1047 -1043,-1047 -578,0 -1047,469 -1047,1047 0,575 469,1044 1047,1044 578,0 1043,-469 1043,-1044z"/>
     <path id="_73" class="fil0" d="M58626 -8682c0,572 -465,1038 -1037,1038 -575,0 -1038,-466 -1038,-1038 0,-575 463,-1037 1038,-1037 572,0 1037,462 1037,1037zm22 0c0,-587 -475,-1059 -1059,-1059 -585,0 -1060,472 -1060,1059 0,585 475,1060 1060,1060 584,0 1059,-475 1059,-1060z"/>
     <path id="_74" class="fil0" d="M58642 -8682c0,581 -472,1053 -1053,1053 -582,0 -1053,-472 -1053,-1053 0,-581 471,-1053 1053,-1053 581,0 1053,472 1053,1053zm22 0c0,-594 -482,-1075 -1075,-1075 -594,0 -1075,481 -1075,1075 0,594 481,1072 1075,1072 593,0 1075,-478 1075,-1072z"/>
     <path id="_75" class="fil0" d="M58654 -8682c0,588 -478,1066 -1065,1066 -591,0 -1069,-478 -1069,-1066 0,-590 478,-1069 1069,-1069 587,0 1065,479 1065,1069zm22 0c0,-603 -487,-1090 -1087,-1090 -603,0 -1088,487 -1088,1090 0,600 485,1088 1088,1088 600,0 1087,-488 1087,-1088z"/>
     <path id="_76" class="fil0" d="M58670 -8682c0,597 -484,1081 -1081,1081 -597,0 -1082,-484 -1082,-1081 0,-597 485,-1081 1082,-1081 597,0 1081,484 1081,1081zm22 0c0,-609 -494,-1103 -1103,-1103 -610,0 -1103,494 -1103,1103 0,610 493,1103 1103,1103 609,0 1103,-493 1103,-1103z"/>
     <path id="_77" class="fil0" d="M58686 -8682c0,603 -491,1094 -1097,1094 -607,0 -1097,-491 -1097,-1094 0,-606 490,-1097 1097,-1097 606,0 1097,491 1097,1097zm18 0c0,-619 -500,-1119 -1115,-1119 -619,0 -1119,500 -1119,1119 0,616 500,1116 1119,1116 615,0 1115,-500 1115,-1116z"/>
     <path id="_78" class="fil0" d="M58698 -8682c0,613 -497,1110 -1109,1110 -613,0 -1110,-497 -1110,-1110 0,-615 497,-1112 1110,-1112 612,0 1109,497 1109,1112zm22 0c0,-625 -506,-1131 -1131,-1131 -625,0 -1132,506 -1132,1131 0,625 507,1131 1132,1131 625,0 1131,-506 1131,-1131z"/>
     <path id="_79" class="fil0" d="M58714 -8682c0,619 -503,1125 -1125,1125 -622,0 -1125,-506 -1125,-1125 0,-622 503,-1125 1125,-1125 622,0 1125,503 1125,1125zm22 0c0,-634 -516,-1147 -1147,-1147 -635,0 -1147,513 -1147,1147 0,631 512,1147 1147,1147 631,0 1147,-516 1147,-1147z"/>
     <path id="_80" class="fil0" d="M58726 -8682c0,628 -509,1138 -1137,1138 -628,0 -1141,-510 -1141,-1138 0,-631 513,-1140 1141,-1140 628,0 1137,509 1137,1140zm22 0c0,-640 -519,-1162 -1159,-1162 -641,0 -1163,522 -1163,1162 0,641 522,1160 1163,1160 640,0 1159,-519 1159,-1160z"/>
     <path id="_81" class="fil0" d="M58742 -8682c0,638 -516,1153 -1153,1153 -638,0 -1153,-515 -1153,-1153 0,-637 515,-1153 1153,-1153 637,0 1153,516 1153,1153zm22 0c0,-650 -525,-1175 -1175,-1175 -650,0 -1175,525 -1175,1175 0,647 525,1175 1175,1175 650,0 1175,-528 1175,-1175z"/>
     <path id="_82" class="fil0" d="M58757 -8682c0,644 -525,1166 -1168,1166 -647,0 -1169,-522 -1169,-1166 0,-647 522,-1169 1169,-1169 643,0 1168,522 1168,1169zm22 0c0,-659 -534,-1190 -1190,-1190 -657,0 -1191,531 -1191,1190 0,656 534,1188 1191,1188 656,0 1190,-532 1190,-1188z"/>
     <path id="_83" class="fil0" d="M58770 -8682c0,653 -528,1181 -1181,1181 -653,0 -1182,-528 -1182,-1181 0,-653 529,-1184 1182,-1184 653,0 1181,531 1181,1184zm22 0c0,-665 -538,-1206 -1203,-1206 -666,0 -1203,541 -1203,1206 0,663 537,1203 1203,1203 665,0 1203,-540 1203,-1203z"/>
     <path id="_84" class="fil0" d="M58786 -8682c0,660 -538,1197 -1197,1197 -663,0 -1197,-537 -1197,-1197 0,-662 534,-1197 1197,-1197 659,0 1197,535 1197,1197zm21 0c0,-675 -546,-1219 -1218,-1219 -672,0 -1219,544 -1219,1219 0,672 547,1219 1219,1219 672,0 1218,-547 1218,-1219z"/>
     <path id="_85" class="fil0" d="M58798 -8682c0,669 -541,1210 -1209,1210 -669,0 -1213,-541 -1213,-1210 0,-669 544,-1212 1213,-1212 668,0 1209,543 1209,1212zm22 0c0,-681 -550,-1234 -1231,-1234 -682,0 -1235,553 -1235,1234 0,681 553,1231 1235,1231 681,0 1231,-550 1231,-1231z"/>
     <path id="_86" class="fil0" d="M58814 -8682c0,675 -550,1225 -1225,1225 -678,0 -1225,-550 -1225,-1225 0,-678 547,-1225 1225,-1225 675,0 1225,547 1225,1225zm22 0c0,-690 -560,-1247 -1247,-1247 -691,0 -1247,557 -1247,1247 0,688 556,1247 1247,1247 687,0 1247,-559 1247,-1247z"/>
     <path id="_87" class="fil0" d="M58829 -8682c0,685 -556,1238 -1240,1238 -685,0 -1241,-553 -1241,-1238 0,-684 556,-1240 1241,-1240 684,0 1240,556 1240,1240zm22 0c0,-697 -565,-1262 -1262,-1262 -697,0 -1263,565 -1263,1262 0,697 566,1260 1263,1260 697,0 1262,-563 1262,-1260z"/>
     <path id="_88" class="fil0" d="M58842 -8682c0,691 -560,1253 -1253,1253 -694,0 -1257,-562 -1257,-1253 0,-694 563,-1256 1257,-1256 693,0 1253,562 1253,1256zm22 0c0,-706 -572,-1278 -1275,-1278 -707,0 -1275,572 -1275,1278 0,703 568,1275 1275,1275 703,0 1275,-572 1275,-1275z"/>
     <path id="_89" class="fil0" d="M58857 -8682c0,700 -568,1269 -1268,1269 -700,0 -1269,-569 -1269,-1269 0,-703 569,-1269 1269,-1269 700,0 1268,566 1268,1269zm22 0c0,-712 -578,-1290 -1290,-1290 -713,0 -1291,578 -1291,1290 0,713 578,1291 1291,1291 712,0 1290,-578 1290,-1291z"/>
     <path id="_90" class="fil0" d="M58873 -8682c0,706 -575,1281 -1284,1281 -710,0 -1285,-575 -1285,-1281 0,-709 575,-1284 1285,-1284 709,0 1284,575 1284,1284zm19 0c0,-722 -585,-1306 -1303,-1306 -722,0 -1307,584 -1307,1306 0,719 585,1303 1307,1303 718,0 1303,-584 1303,-1303z"/>
     <path id="_91" class="fil0" d="M58886 -8682c0,716 -582,1297 -1297,1297 -716,0 -1297,-581 -1297,-1297 0,-719 581,-1300 1297,-1300 715,0 1297,581 1297,1300zm21 0c0,-728 -590,-1319 -1318,-1319 -728,0 -1319,591 -1319,1319 0,728 591,1319 1319,1319 728,0 1318,-591 1318,-1319z"/>
     <path id="_92" class="fil0" d="M58901 -8682c0,725 -587,1313 -1312,1313 -725,0 -1313,-588 -1313,-1313 0,-725 588,-1312 1313,-1312 725,0 1312,587 1312,1312zm22 0c0,-737 -597,-1334 -1334,-1334 -738,0 -1335,597 -1335,1334 0,735 597,1331 1335,1331 737,0 1334,-596 1334,-1331z"/>
     <path id="_93" class="fil0" d="M58914 -8682c0,731 -594,1325 -1325,1325 -735,0 -1328,-594 -1328,-1325 0,-734 593,-1328 1328,-1328 731,0 1325,594 1325,1328zm22 0c0,-747 -604,-1350 -1347,-1350 -744,0 -1350,603 -1350,1350 0,744 606,1347 1350,1347 743,0 1347,-603 1347,-1347z"/>
     <path id="_94" class="fil0" d="M58929 -8682c0,741 -600,1341 -1340,1341 -741,0 -1341,-600 -1341,-1341 0,-740 600,-1340 1341,-1340 740,0 1340,600 1340,1340zm22 0c0,-753 -609,-1362 -1362,-1362 -753,0 -1363,609 -1363,1362 0,753 610,1363 1363,1363 753,0 1362,-610 1362,-1363z"/>
     <path id="_95" class="fil0" d="M58945 -8682c0,747 -609,1353 -1356,1353 -750,0 -1357,-606 -1357,-1353 0,-750 607,-1356 1357,-1356 747,0 1356,606 1356,1356zm19 0c0,-762 -616,-1378 -1375,-1378 -760,0 -1378,616 -1378,1378 0,760 618,1375 1378,1375 759,0 1375,-615 1375,-1375z"/>
     <path id="_96" class="fil0" d="M58957 -8682c0,756 -612,1369 -1368,1369 -757,0 -1369,-613 -1369,-1369 0,-756 612,-1372 1369,-1372 756,0 1368,616 1368,1372zm22 0c0,-769 -622,-1394 -1390,-1394 -769,0 -1391,625 -1391,1394 0,769 622,1391 1391,1391 768,0 1390,-622 1390,-1391z"/>
     <path id="_97" class="fil0" d="M58973 -8682c0,763 -622,1385 -1384,1385 -766,0 -1385,-622 -1385,-1385 0,-765 619,-1384 1385,-1384 762,0 1384,619 1384,1384zm22 0c0,-778 -631,-1406 -1406,-1406 -778,0 -1407,628 -1407,1406 0,775 629,1406 1407,1406 775,0 1406,-631 1406,-1406z"/>
     <path id="_98" class="fil0" d="M58986 -8682c0,772 -625,1397 -1397,1397 -772,0 -1400,-625 -1400,-1397 0,-772 628,-1400 1400,-1400 772,0 1397,628 1397,1400zm21 0c0,-784 -634,-1422 -1418,-1422 -785,0 -1422,638 -1422,1422 0,785 637,1419 1422,1419 784,0 1418,-634 1418,-1419z"/>
     <path id="_99" class="fil0" d="M59001 -8682c0,778 -631,1413 -1412,1413 -782,0 -1413,-635 -1413,-1413 0,-781 631,-1412 1413,-1412 781,0 1412,631 1412,1412zm22 0c0,-794 -644,-1434 -1434,-1434 -794,0 -1435,640 -1435,1434 0,791 641,1435 1435,1435 790,0 1434,-644 1434,-1435z"/>
     <path id="_100" class="fil0" d="M59017 -8682c0,788 -641,1425 -1428,1425 -788,0 -1428,-637 -1428,-1425 0,-790 640,-1428 1428,-1428 787,0 1428,638 1428,1428zm22 0c0,-800 -650,-1450 -1450,-1450 -800,0 -1450,650 -1450,1450 0,800 650,1447 1450,1447 800,0 1450,-647 1450,-1447z"/>
     <path id="_101" class="fil0" d="M59029 -8682c0,797 -643,1441 -1440,1441 -797,0 -1444,-644 -1444,-1441 0,-797 647,-1444 1444,-1444 797,0 1440,647 1440,1444zm22 0c0,-809 -653,-1465 -1462,-1465 -810,0 -1463,656 -1463,1465 0,806 653,1463 1463,1463 809,0 1462,-657 1462,-1463z"/>
     <path id="_102" class="fil0" d="M59045 -8682c0,803 -653,1456 -1456,1456 -803,0 -1457,-653 -1457,-1456 0,-806 654,-1456 1457,-1456 803,0 1456,650 1456,1456zm22 0c0,-815 -663,-1478 -1478,-1478 -816,0 -1478,663 -1478,1478 0,816 662,1478 1478,1478 815,0 1478,-662 1478,-1478z"/>
     <path id="_103" class="fil0" d="M59057 -8682c0,813 -656,1469 -1468,1469 -813,0 -1472,-656 -1472,-1469 0,-812 659,-1472 1472,-1472 812,0 1468,660 1468,1472zm22 0c0,-825 -665,-1494 -1490,-1494 -825,0 -1494,669 -1494,1494 0,822 669,1491 1494,1491 825,0 1490,-669 1490,-1491z"/>
     <path id="_104" class="fil0" d="M59073 -8682c0,819 -666,1485 -1484,1485 -822,0 -1485,-666 -1485,-1485 0,-822 663,-1487 1485,-1487 818,0 1484,665 1484,1487zm22 0c0,-834 -675,-1506 -1506,-1506 -832,0 -1507,672 -1507,1506 0,831 675,1506 1507,1506 831,0 1506,-675 1506,-1506z"/>
     <path id="_105" class="fil0" d="M59089 -8682c0,828 -672,1500 -1500,1500 -828,0 -1500,-672 -1500,-1500 0,-828 672,-1500 1500,-1500 828,0 1500,672 1500,1500zm22 0c0,-840 -682,-1522 -1522,-1522 -841,0 -1522,682 -1522,1522 0,841 681,1519 1522,1519 840,0 1522,-678 1522,-1519z"/>
     <path id="_106" class="fil0" d="M59101 -8682c0,835 -678,1513 -1512,1513 -838,0 -1516,-678 -1516,-1513 0,-837 678,-1515 1516,-1515 834,0 1512,678 1512,1515zm22 0c0,-850 -687,-1537 -1534,-1537 -850,0 -1535,687 -1535,1537 0,847 685,1535 1535,1535 847,0 1534,-688 1534,-1535z"/>
     <path id="_107" class="fil0" d="M59117 -8682c0,844 -685,1528 -1528,1528 -844,0 -1528,-684 -1528,-1528 0,-844 684,-1528 1528,-1528 843,0 1528,684 1528,1528zm22 0c0,-856 -694,-1550 -1550,-1550 -857,0 -1550,694 -1550,1550 0,856 693,1550 1550,1550 856,0 1550,-694 1550,-1550z"/>
     <path id="_108" class="fil0" d="M59132 -8682c0,850 -690,1541 -1543,1541 -853,0 -1544,-691 -1544,-1541 0,-853 691,-1544 1544,-1544 853,0 1543,691 1543,1544zm19 0c0,-865 -700,-1565 -1562,-1565 -866,0 -1566,700 -1566,1565 0,863 700,1563 1566,1563 862,0 1562,-700 1562,-1563z"/>
     <path id="_109" class="fil0" d="M59145 -8682c0,860 -697,1556 -1556,1556 -860,0 -1557,-696 -1557,-1556 0,-859 697,-1559 1557,-1559 859,0 1556,700 1556,1559zm22 0c0,-872 -706,-1581 -1578,-1581 -872,0 -1578,709 -1578,1581 0,872 706,1578 1578,1578 872,0 1578,-706 1578,-1578z"/>
     <path id="_110" class="fil0" d="M59161 -8682c0,866 -704,1572 -1572,1572 -869,0 -1572,-706 -1572,-1572 0,-869 703,-1572 1572,-1572 868,0 1572,703 1572,1572zm21 0c0,-881 -715,-1594 -1593,-1594 -882,0 -1594,713 -1594,1594 0,878 712,1594 1594,1594 878,0 1593,-716 1593,-1594z"/>
     <path id="_111" class="fil0" d="M59173 -8682c0,875 -709,1585 -1584,1585 -875,0 -1588,-710 -1588,-1585 0,-878 713,-1587 1588,-1587 875,0 1584,709 1584,1587zm22 0c0,-887 -719,-1609 -1606,-1609 -888,0 -1610,722 -1610,1609 0,888 722,1606 1610,1606 887,0 1606,-718 1606,-1606z"/>
     <path id="_112" class="fil0" d="M59189 -8682c0,885 -716,1600 -1600,1600 -885,0 -1600,-715 -1600,-1600 0,-884 715,-1600 1600,-1600 884,0 1600,716 1600,1600zm22 0c0,-897 -725,-1622 -1622,-1622 -897,0 -1622,725 -1622,1622 0,894 725,1622 1622,1622 897,0 1622,-728 1622,-1622z"/>
     <path id="_113" class="fil0" d="M59204 -8682c0,891 -725,1613 -1615,1613 -894,0 -1616,-722 -1616,-1613 0,-894 722,-1615 1616,-1615 890,0 1615,721 1615,1615zm22 0c0,-906 -734,-1637 -1637,-1637 -903,0 -1638,731 -1638,1637 0,903 735,1635 1638,1635 903,0 1637,-732 1637,-1635z"/>
     <path id="_114" class="fil0" d="M59217 -8682c0,900 -728,1628 -1628,1628 -900,0 -1628,-728 -1628,-1628 0,-900 728,-1631 1628,-1631 900,0 1628,731 1628,1631zm22 0c0,-912 -738,-1653 -1650,-1653 -913,0 -1650,741 -1650,1653 0,910 737,1650 1650,1650 912,0 1650,-740 1650,-1650z"/>
     <path id="_115" class="fil0" d="M59232 -8682c0,906 -737,1644 -1643,1644 -910,0 -1644,-738 -1644,-1644 0,-909 734,-1644 1644,-1644 906,0 1643,735 1643,1644zm22 0c0,-922 -747,-1665 -1665,-1665 -919,0 -1666,743 -1666,1665 0,919 747,1666 1666,1666 918,0 1665,-747 1665,-1666z"/>
     <path id="_116" class="fil0" d="M59245 -8682c0,916 -741,1656 -1656,1656 -916,0 -1660,-740 -1660,-1656 0,-915 744,-1659 1660,-1659 915,0 1656,744 1656,1659zm22 0c0,-928 -750,-1681 -1678,-1681 -928,0 -1682,753 -1682,1681 0,928 754,1678 1682,1678 928,0 1678,-750 1678,-1678z"/>
     <path id="_117" class="fil0" d="M59261 -8682c0,922 -750,1672 -1672,1672 -925,0 -1672,-750 -1672,-1672 0,-925 747,-1675 1672,-1675 922,0 1672,750 1672,1675zm21 0c0,-937 -759,-1694 -1693,-1694 -938,0 -1694,757 -1694,1694 0,935 756,1694 1694,1694 934,0 1693,-759 1693,-1694z"/>
     <path id="_118" class="fil0" d="M59276 -8682c0,931 -756,1688 -1687,1688 -932,0 -1688,-757 -1688,-1688 0,-931 756,-1687 1688,-1687 931,0 1687,756 1687,1687zm22 0c0,-944 -766,-1709 -1709,-1709 -944,0 -1710,765 -1710,1709 0,944 766,1706 1710,1706 943,0 1709,-762 1709,-1706z"/>
     <path id="_119" class="fil0" d="M59289 -8682c0,938 -760,1700 -1700,1700 -941,0 -1703,-762 -1703,-1700 0,-940 762,-1703 1703,-1703 940,0 1700,763 1700,1703zm22 0c0,-953 -772,-1725 -1722,-1725 -953,0 -1722,772 -1722,1725 0,950 769,1722 1722,1722 950,0 1722,-772 1722,-1722z"/>
     <path id="_120" class="fil0" d="M59304 -8682c0,947 -768,1716 -1715,1716 -947,0 -1716,-769 -1716,-1716 0,-950 769,-1715 1716,-1715 947,0 1715,765 1715,1715zm22 0c0,-959 -778,-1737 -1737,-1737 -960,0 -1738,778 -1738,1737 0,960 778,1738 1738,1738 959,0 1737,-778 1737,-1738z"/>
     <path id="_121" class="fil0" d="M59320 -8682c0,953 -775,1728 -1731,1728 -957,0 -1732,-775 -1732,-1728 0,-956 775,-1731 1732,-1731 956,0 1731,775 1731,1731zm19 0c0,-969 -785,-1753 -1750,-1753 -969,0 -1753,784 -1753,1753 0,966 784,1750 1753,1750 965,0 1750,-784 1750,-1750z"/>
     <path id="_122" class="fil0" d="M59332 -8682c0,963 -781,1744 -1743,1744 -963,0 -1744,-781 -1744,-1744 0,-965 781,-1747 1744,-1747 962,0 1743,782 1743,1747zm22 0c0,-975 -790,-1765 -1765,-1765 -975,0 -1766,790 -1766,1765 0,975 791,1766 1766,1766 975,0 1765,-791 1765,-1766z"/>
     <path id="_123" class="fil0" d="M59348 -8682c0,972 -787,1760 -1759,1760 -972,0 -1760,-788 -1760,-1760 0,-972 788,-1759 1760,-1759 972,0 1759,787 1759,1759zm22 0c0,-984 -797,-1781 -1781,-1781 -985,0 -1782,797 -1782,1781 0,981 797,1781 1782,1781 984,0 1781,-800 1781,-1781z"/>
     <path id="_124" class="fil0" d="M59361 -8682c0,978 -794,1772 -1772,1772 -982,0 -1775,-794 -1775,-1772 0,-981 793,-1775 1775,-1775 978,0 1772,794 1772,1775zm21 0c0,-994 -803,-1797 -1793,-1797 -991,0 -1797,803 -1797,1797 0,991 806,1794 1797,1794 990,0 1793,-803 1793,-1794z"/>
     <path id="_125" class="fil0" d="M59376 -8682c0,988 -800,1788 -1787,1788 -988,0 -1788,-800 -1788,-1788 0,-987 800,-1787 1788,-1787 987,0 1787,800 1787,1787zm22 0c0,-1000 -809,-1809 -1809,-1809 -1000,0 -1810,809 -1810,1809 0,997 810,1810 1810,1810 1000,0 1809,-813 1809,-1810z"/>
     <path id="_126" class="fil0" d="M59392 -8682c0,994 -810,1800 -1803,1800 -997,0 -1803,-806 -1803,-1800 0,-997 806,-1803 1803,-1803 993,0 1803,806 1803,1803zm22 0c0,-1009 -819,-1825 -1825,-1825 -1007,0 -1825,816 -1825,1825 0,1006 818,1822 1825,1822 1006,0 1825,-816 1825,-1822z"/>
     <path id="_127" class="fil0" d="M59404 -8682c0,1003 -812,1816 -1815,1816 -1003,0 -1816,-813 -1816,-1816 0,-1003 813,-1819 1816,-1819 1003,0 1815,816 1815,1819zm22 0c0,-1015 -822,-1840 -1837,-1840 -1016,0 -1838,825 -1838,1840 0,1016 822,1838 1838,1838 1015,0 1837,-822 1837,-1838z"/>
     <path id="_128" class="fil0" d="M59420 -8682c0,1010 -822,1831 -1831,1831 -1013,0 -1832,-821 -1832,-1831 0,-1012 819,-1831 1832,-1831 1009,0 1831,819 1831,1831zm22 0c0,-1025 -831,-1853 -1853,-1853 -1025,0 -1853,828 -1853,1853 0,1022 828,1853 1853,1853 1022,0 1853,-831 1853,-1853z"/>
     <path id="_129" class="fil0" d="M59432 -8682c0,1019 -825,1844 -1843,1844 -1019,0 -1847,-825 -1847,-1844 0,-1019 828,-1847 1847,-1847 1018,0 1843,828 1843,1847zm22 0c0,-1031 -834,-1869 -1865,-1869 -1032,0 -1869,838 -1869,1869 0,1031 837,1866 1869,1866 1031,0 1865,-835 1865,-1866z"/>
     <path id="_130" class="fil0" d="M59448 -8682c0,1025 -831,1860 -1859,1860 -1028,0 -1860,-835 -1860,-1860 0,-1028 832,-1859 1860,-1859 1028,0 1859,831 1859,1859zm22 0c0,-1040 -844,-1881 -1881,-1881 -1041,0 -1882,841 -1882,1881 0,1038 841,1881 1882,1881 1037,0 1881,-843 1881,-1881z"/>
     <path id="_131" class="fil0" d="M59464 -8682c0,1035 -841,1875 -1875,1875 -1035,0 -1875,-840 -1875,-1875 0,-1037 840,-1875 1875,-1875 1034,0 1875,838 1875,1875zm22 0c0,-1047 -850,-1897 -1897,-1897 -1047,0 -1897,850 -1897,1897 0,1047 850,1894 1897,1894 1047,0 1897,-847 1897,-1894z"/>
     <path id="_132" class="fil0" d="M59476 -8682c0,1044 -844,1888 -1887,1888 -1044,0 -1891,-844 -1891,-1888 0,-1044 847,-1890 1891,-1890 1043,0 1887,846 1887,1890zm22 0c0,-1056 -853,-1912 -1909,-1912 -1057,0 -1910,856 -1910,1912 0,1053 853,1910 1910,1910 1056,0 1909,-857 1909,-1910z"/>
     <path id="_133" class="fil0" d="M59492 -8682c0,1050 -853,1903 -1903,1903 -1050,0 -1903,-853 -1903,-1903 0,-1053 853,-1903 1903,-1903 1050,0 1903,850 1903,1903zm22 0c0,-1062 -863,-1925 -1925,-1925 -1063,0 -1925,863 -1925,1925 0,1063 862,1925 1925,1925 1062,0 1925,-862 1925,-1925z"/>
     <path id="_134" class="fil0" d="M59507 -8682c0,1060 -859,1916 -1918,1916 -1060,0 -1919,-856 -1919,-1916 0,-1059 859,-1919 1919,-1919 1059,0 1918,860 1918,1919zm19 0c0,-1072 -865,-1940 -1937,-1940 -1072,0 -1941,868 -1941,1940 0,1069 869,1938 1941,1938 1072,0 1937,-869 1937,-1938z"/>
     <path id="_135" class="fil0" d="M59520 -8682c0,1066 -866,1931 -1931,1931 -1069,0 -1932,-865 -1932,-1931 0,-1069 863,-1934 1932,-1934 1065,0 1931,865 1931,1934zm22 0c0,-1081 -875,-1953 -1953,-1953 -1078,0 -1953,872 -1953,1953 0,1078 875,1953 1953,1953 1078,0 1953,-875 1953,-1953z"/>
     <path id="_136" class="fil0" d="M59536 -8682c0,1075 -872,1947 -1947,1947 -1075,0 -1947,-872 -1947,-1947 0,-1075 872,-1947 1947,-1947 1075,0 1947,872 1947,1947zm21 0c0,-1087 -881,-1969 -1968,-1969 -1088,0 -1969,882 -1969,1969 0,1088 881,1966 1969,1966 1087,0 1968,-878 1968,-1966z"/>
     <path id="_137" class="fil0" d="M59548 -8682c0,1081 -878,1960 -1959,1960 -1085,0 -1963,-879 -1963,-1960 0,-1084 878,-1962 1963,-1962 1081,0 1959,878 1959,1962zm22 0c0,-1097 -888,-1984 -1981,-1984 -1094,0 -1985,887 -1985,1984 0,1094 891,1981 1985,1981 1093,0 1981,-887 1981,-1981z"/>
     <path id="_138" class="fil0" d="M59564 -8682c0,1091 -885,1975 -1975,1975 -1091,0 -1975,-884 -1975,-1975 0,-1090 884,-1975 1975,-1975 1090,0 1975,885 1975,1975zm22 0c0,-1103 -894,-1997 -1997,-1997 -1103,0 -1997,894 -1997,1997 0,1103 894,1997 1997,1997 1103,0 1997,-894 1997,-1997z"/>
     <path id="_139" class="fil0" d="M59579 -8682c0,1097 -890,1988 -1990,1988 -1100,0 -1991,-891 -1991,-1988 0,-1100 891,-1990 1991,-1990 1100,0 1990,890 1990,1990zm22 0c0,-1112 -903,-2012 -2012,-2012 -1113,0 -2013,900 -2013,2012 0,1110 900,2010 2013,2010 1109,0 2012,-900 2012,-2010z"/>
     <path id="_140" class="fil0" d="M59592 -8682c0,1106 -897,2003 -2003,2003 -1107,0 -2003,-897 -2003,-2003 0,-1106 896,-2006 2003,-2006 1106,0 2003,900 2003,2006zm22 0c0,-1119 -907,-2028 -2025,-2028 -1119,0 -2025,909 -2025,2028 0,1119 906,2025 2025,2025 1118,0 2025,-906 2025,-2025z"/>
     <path id="_141" class="fil0" d="M59607 -8682c0,1113 -903,2019 -2018,2019 -1116,0 -2019,-906 -2019,-2019 0,-1115 903,-2019 2019,-2019 1115,0 2018,904 2018,2019zm22 0c0,-1128 -915,-2040 -2040,-2040 -1128,0 -2041,912 -2041,2040 0,1125 913,2041 2041,2041 1125,0 2040,-916 2040,-2041z"/>
     <path id="_142" class="fil0" d="M59620 -8682c0,1122 -909,2031 -2031,2031 -1122,0 -2035,-909 -2035,-2031 0,-1125 913,-2034 2035,-2034 1122,0 2031,909 2031,2034zm22 0c0,-1134 -919,-2056 -2053,-2056 -1135,0 -2057,922 -2057,2056 0,1135 922,2053 2057,2053 1134,0 2053,-918 2053,-2053z"/>
     <path id="_143" class="fil0" d="M59636 -8682c0,1131 -916,2047 -2047,2047 -1132,0 -2047,-916 -2047,-2047 0,-1131 915,-2047 2047,-2047 1131,0 2047,916 2047,2047zm21 0c0,-1144 -925,-2069 -2068,-2069 -1144,0 -2069,925 -2069,2069 0,1141 925,2069 2069,2069 1143,0 2068,-928 2068,-2069z"/>
     <path id="_144" class="fil0" d="M59651 -8682c0,1138 -925,2060 -2062,2060 -1141,0 -2063,-922 -2063,-2060 0,-1140 922,-2062 2063,-2062 1137,0 2062,922 2062,2062zm22 0c0,-1153 -934,-2084 -2084,-2084 -1150,0 -2085,931 -2085,2084 0,1150 935,2081 2085,2081 1150,0 2084,-931 2084,-2081z"/>
     <path id="_145" class="fil0" d="M59664 -8682c0,1147 -928,2075 -2075,2075 -1147,0 -2078,-928 -2078,-2075 0,-1147 931,-2078 2078,-2078 1147,0 2075,931 2075,2078zm22 0c0,-1159 -938,-2100 -2097,-2100 -1160,0 -2097,941 -2097,2100 0,1156 937,2097 2097,2097 1159,0 2097,-941 2097,-2097z"/>
     <path id="_146" class="fil0" d="M59679 -8682c0,1153 -937,2091 -2090,2091 -1157,0 -2091,-938 -2091,-2091 0,-1156 934,-2090 2091,-2090 1153,0 2090,934 2090,2090zm22 0c0,-1169 -947,-2112 -2112,-2112 -1166,0 -2113,943 -2113,2112 0,1166 947,2113 2113,2113 1165,0 2112,-947 2112,-2113z"/>
     <path id="_147" class="fil0" d="M59692 -8682c0,1163 -941,2103 -2103,2103 -1163,0 -2107,-940 -2107,-2103 0,-1162 944,-2106 2107,-2106 1162,0 2103,944 2103,2106zm22 0c0,-1175 -950,-2128 -2125,-2128 -1175,0 -2128,953 -2128,2128 0,1175 953,2125 2128,2125 1175,0 2125,-950 2125,-2125z"/>
     <path id="_148" class="fil0" d="M59707 -8682c0,1169 -950,2119 -2118,2119 -1172,0 -2119,-950 -2119,-2119 0,-1172 947,-2122 2119,-2122 1168,0 2118,950 2118,2122zm22 0c0,-1184 -959,-2140 -2140,-2140 -1185,0 -2141,956 -2141,2140 0,1181 956,2141 2141,2141 1181,0 2140,-960 2140,-2141z"/>
     <path id="_149" class="fil0" d="M59723 -8682c0,1178 -956,2135 -2134,2135 -1178,0 -2135,-957 -2135,-2135 0,-1178 957,-2134 2135,-2134 1178,0 2134,956 2134,2134zm22 0c0,-1190 -966,-2156 -2156,-2156 -1191,0 -2157,966 -2157,2156 0,1191 966,2153 2157,2153 1190,0 2156,-962 2156,-2153z"/>
     <path id="_150" class="fil0" d="M59736 -8682c0,1185 -960,2147 -2147,2147 -1188,0 -2150,-962 -2150,-2147 0,-1187 962,-2150 2150,-2150 1187,0 2147,963 2147,2150zm21 0c0,-1200 -971,-2172 -2168,-2172 -1200,0 -2172,972 -2172,2172 0,1197 972,2169 2172,2169 1197,0 2168,-972 2168,-2169z"/>
     <path id="_151" class="fil0" d="M59751 -8682c0,1194 -969,2163 -2162,2163 -1194,0 -2163,-969 -2163,-2163 0,-1197 969,-2162 2163,-2162 1193,0 2162,965 2162,2162zm22 0c0,-1206 -978,-2184 -2184,-2184 -1207,0 -2185,978 -2185,2184 0,1206 978,2185 2185,2185 1206,0 2184,-979 2184,-2185z"/>
     <path id="_152" class="fil0" d="M59767 -8682c0,1200 -975,2175 -2178,2175 -1203,0 -2178,-975 -2178,-2175 0,-1203 975,-2178 2178,-2178 1203,0 2178,975 2178,2178zm19 0c0,-1215 -985,-2200 -2197,-2200 -1216,0 -2200,985 -2200,2200 0,1213 984,2197 2200,2197 1212,0 2197,-984 2197,-2197z"/>
     <path id="_153" class="fil0" d="M59779 -8682c0,1210 -981,2191 -2190,2191 -1210,0 -2191,-981 -2191,-2191 0,-1212 981,-2194 2191,-2194 1209,0 2190,982 2190,2194zm22 0c0,-1222 -990,-2215 -2212,-2215 -1222,0 -2213,993 -2213,2215 0,1222 991,2213 2213,2213 1222,0 2212,-991 2212,-2213z"/>
     <path id="_154" class="fil0" d="M59795 -8682c0,1219 -988,2206 -2206,2206 -1219,0 -2207,-987 -2207,-2206 0,-1219 988,-2206 2207,-2206 1218,0 2206,987 2206,2206zm22 0c0,-1231 -997,-2228 -2228,-2228 -1232,0 -2228,997 -2228,2228 0,1228 996,2228 2228,2228 1231,0 2228,-1000 2228,-2228z"/>
     <path id="_155" class="fil0" d="M59807 -8682c0,1225 -993,2219 -2218,2219 -1228,0 -2222,-994 -2222,-2219 0,-1228 994,-2222 2222,-2222 1225,0 2218,994 2218,2222zm22 0c0,-1240 -1003,-2244 -2240,-2244 -1238,0 -2244,1004 -2244,2244 0,1238 1006,2241 2244,2241 1237,0 2240,-1003 2240,-2241z"/>
     <path id="_156" class="fil0" d="M59823 -8682c0,1235 -1000,2235 -2234,2235 -1235,0 -2235,-1000 -2235,-2235 0,-1234 1000,-2234 2235,-2234 1234,0 2234,1000 2234,2234zm22 0c0,-1247 -1009,-2256 -2256,-2256 -1247,0 -2257,1009 -2257,2256 0,1244 1010,2256 2257,2256 1247,0 2256,-1012 2256,-2256z"/>
     <path id="_157" class="fil0" d="M59839 -8682c0,1241 -1010,2247 -2250,2247 -1244,0 -2250,-1006 -2250,-2247 0,-1244 1006,-2250 2250,-2250 1240,0 2250,1006 2250,2250zm22 0c0,-1256 -1019,-2272 -2272,-2272 -1253,0 -2272,1016 -2272,2272 0,1253 1019,2269 2272,2269 1253,0 2272,-1016 2272,-2269z"/>
     <path id="_158" class="fil0" d="M59851 -8682c0,1250 -1012,2263 -2262,2263 -1250,0 -2263,-1013 -2263,-2263 0,-1250 1013,-2265 2263,-2265 1250,0 2262,1015 2262,2265zm22 0c0,-1262 -1022,-2287 -2284,-2287 -1263,0 -2285,1025 -2285,2287 0,1263 1022,2285 2285,2285 1262,0 2284,-1022 2284,-2285z"/>
     <path id="_159" class="fil0" d="M59867 -8682c0,1256 -1022,2278 -2278,2278 -1260,0 -2278,-1022 -2278,-2278 0,-1259 1018,-2278 2278,-2278 1256,0 2278,1019 2278,2278zm22 0c0,-1272 -1032,-2300 -2300,-2300 -1272,0 -2300,1028 -2300,2300 0,1269 1028,2300 2300,2300 1268,0 2300,-1031 2300,-2300z"/>
     <path id="_160" class="fil0" d="M59879 -8682c0,1266 -1025,2291 -2290,2291 -1266,0 -2294,-1025 -2294,-2291 0,-1265 1028,-2294 2294,-2294 1265,0 2290,1029 2290,2294zm22 0c0,-1278 -1034,-2315 -2312,-2315 -1278,0 -2316,1037 -2316,2315 0,1278 1038,2313 2316,2313 1278,0 2312,-1035 2312,-2313z"/>
     <path id="_161" class="fil0" d="M59895 -8682c0,1272 -1031,2306 -2306,2306 -1275,0 -2307,-1034 -2307,-2306 0,-1275 1032,-2309 2307,-2309 1275,0 2306,1034 2306,2309zm22 0c0,-1287 -1044,-2328 -2328,-2328 -1288,0 -2328,1041 -2328,2328 0,1285 1040,2328 2328,2328 1284,0 2328,-1043 2328,-2328z"/>
     <path id="_162" class="fil0" d="M59911 -8682c0,1281 -1041,2322 -2322,2322 -1282,0 -2322,-1041 -2322,-2322 0,-1284 1040,-2322 2322,-2322 1281,0 2322,1038 2322,2322zm21 0c0,-1294 -1050,-2344 -2343,-2344 -1294,0 -2344,1050 -2344,2344 0,1294 1050,2341 2344,2341 1293,0 2343,-1047 2343,-2341z"/>
     <path id="_163" class="fil0" d="M59923 -8682c0,1291 -1044,2335 -2334,2335 -1291,0 -2338,-1044 -2338,-2335 0,-1290 1047,-2337 2338,-2337 1290,0 2334,1047 2334,2337zm22 0c0,-1303 -1056,-2359 -2356,-2359 -1303,0 -2357,1056 -2357,2359 0,1300 1054,2356 2357,2356 1300,0 2356,-1056 2356,-2356z"/>
     <path id="_164" class="fil0" d="M59939 -8682c0,1297 -1053,2350 -2350,2350 -1297,0 -2350,-1053 -2350,-2350 0,-1300 1053,-2350 2350,-2350 1297,0 2350,1050 2350,2350zm22 0c0,-1309 -1063,-2372 -2372,-2372 -1310,0 -2372,1063 -2372,2372 0,1310 1062,2372 2372,2372 1309,0 2372,-1062 2372,-2372z"/>
     <path id="_165" class="fil0" d="M59954 -8682c0,1306 -1059,2363 -2365,2363 -1307,0 -2366,-1057 -2366,-2363 0,-1306 1059,-2365 2366,-2365 1306,0 2365,1059 2365,2365zm19 0c0,-1319 -1066,-2387 -2384,-2387 -1319,0 -2388,1068 -2388,2387 0,1316 1069,2385 2388,2385 1318,0 2384,-1069 2384,-2385z"/>
     <path id="_166" class="fil0" d="M59967 -8682c0,1313 -1066,2378 -2378,2378 -1316,0 -2378,-1065 -2378,-2378 0,-1315 1062,-2381 2378,-2381 1312,0 2378,1066 2378,2381zm22 0c0,-1328 -1075,-2403 -2400,-2403 -1325,0 -2400,1075 -2400,2403 0,1325 1075,2400 2400,2400 1325,0 2400,-1075 2400,-2400z"/>
     <path id="_167" class="fil0" d="M59982 -8682c0,1322 -1071,2394 -2393,2394 -1322,0 -2394,-1072 -2394,-2394 0,-1322 1072,-2394 2394,-2394 1322,0 2393,1072 2393,2394zm22 0c0,-1334 -1081,-2415 -2415,-2415 -1335,0 -2416,1081 -2416,2415 0,1335 1081,2416 2416,2416 1334,0 2415,-1081 2415,-2416z"/>
     <path id="_168" class="fil0" d="M59995 -8682c0,1328 -1078,2406 -2406,2406 -1332,0 -2410,-1078 -2410,-2406 0,-1331 1078,-2409 2410,-2409 1328,0 2406,1078 2406,2409zm22 0c0,-1344 -1088,-2431 -2428,-2431 -1341,0 -2432,1087 -2432,2431 0,1341 1091,2428 2432,2428 1340,0 2428,-1087 2428,-2428z"/>
     <path id="_169" class="fil0" d="M60011 -8682c0,1338 -1085,2422 -2422,2422 -1338,0 -2422,-1084 -2422,-2422 0,-1337 1084,-2422 2422,-2422 1337,0 2422,1085 2422,2422zm21 0c0,-1350 -1093,-2444 -2443,-2444 -1350,0 -2444,1094 -2444,2444 0,1350 1094,2444 2444,2444 1350,0 2443,-1094 2443,-2444z"/>
     <path id="_170" class="fil0" d="M60026 -8682c0,1344 -1090,2435 -2437,2435 -1347,0 -2438,-1091 -2438,-2435 0,-1347 1091,-2437 2438,-2437 1347,0 2437,1090 2437,2437zm22 0c0,-1359 -1103,-2459 -2459,-2459 -1360,0 -2460,1100 -2460,2459 0,1356 1100,2456 2460,2456 1356,0 2459,-1100 2459,-2456z"/>
     <path id="_171" class="fil0" d="M60039 -8682c0,1353 -1097,2450 -2450,2450 -1353,0 -2450,-1097 -2450,-2450 0,-1353 1097,-2453 2450,-2453 1353,0 2450,1100 2450,2453zm22 0c0,-1365 -1107,-2475 -2472,-2475 -1366,0 -2472,1110 -2472,2475 0,1366 1106,2472 2472,2472 1365,0 2472,-1106 2472,-2472z"/>
     <path id="_172" class="fil0" d="M60054 -8682c0,1360 -1103,2466 -2465,2466 -1363,0 -2466,-1106 -2466,-2466 0,-1362 1103,-2465 2466,-2465 1362,0 2465,1103 2465,2465zm22 0c0,-1375 -1115,-2487 -2487,-2487 -1375,0 -2488,1112 -2488,2487 0,1372 1113,2488 2488,2488 1372,0 2487,-1116 2487,-2488z"/>
     <path id="_173" class="fil0" d="M60067 -8682c0,1369 -1110,2478 -2478,2478 -1369,0 -2482,-1109 -2482,-2478 0,-1372 1113,-2481 2482,-2481 1368,0 2478,1109 2478,2481zm22 0c0,-1381 -1119,-2503 -2500,-2503 -1382,0 -2503,1122 -2503,2503 0,1381 1121,2500 2503,2500 1381,0 2500,-1119 2500,-2500z"/>
     <path id="_174" class="fil0" d="M60082 -8682c0,1378 -1115,2494 -2493,2494 -1378,0 -2494,-1116 -2494,-2494 0,-1378 1116,-2494 2494,-2494 1378,0 2493,1116 2493,2494zm22 0c0,-1390 -1125,-2515 -2515,-2515 -1391,0 -2516,1125 -2516,2515 0,1388 1125,2516 2516,2516 1390,0 2515,-1128 2515,-2516z"/>
     <path id="_175" class="fil0" d="M60098 -8682c0,1385 -1125,2510 -2509,2510 -1388,0 -2510,-1125 -2510,-2510 0,-1387 1122,-2509 2510,-2509 1384,0 2509,1122 2509,2509zm22 0c0,-1397 -1134,-2531 -2531,-2531 -1397,0 -2532,1134 -2532,2531 0,1397 1135,2528 2532,2528 1397,0 2531,-1131 2531,-2528z"/>
     <path id="_176" class="fil0" d="M60111 -8682c0,1394 -1129,2522 -2522,2522 -1394,0 -2525,-1128 -2525,-2522 0,-1394 1131,-2525 2525,-2525 1393,0 2522,1131 2522,2525zm21 0c0,-1406 -1137,-2547 -2543,-2547 -1407,0 -2544,1141 -2544,2547 0,1403 1137,2544 2544,2544 1406,0 2543,-1141 2543,-2544z"/>
     <path id="_177" class="fil0" d="M60126 -8682c0,1400 -1137,2538 -2537,2538 -1403,0 -2538,-1138 -2538,-2538 0,-1403 1135,-2537 2538,-2537 1400,0 2537,1134 2537,2537zm22 0c0,-1415 -1147,-2559 -2559,-2559 -1413,0 -2560,1144 -2560,2559 0,1413 1147,2560 2560,2560 1412,0 2559,-1147 2559,-2560z"/>
     <path id="_178" class="fil0" d="M60142 -8682c0,1410 -1144,2550 -2553,2550 -1410,0 -2553,-1140 -2553,-2550 0,-1409 1143,-2553 2553,-2553 1409,0 2553,1144 2553,2553zm19 0c0,-1422 -1150,-2575 -2572,-2575 -1422,0 -2575,1153 -2575,2575 0,1422 1153,2572 2575,2572 1422,0 2572,-1150 2572,-2572z"/>
     <path id="_179" class="fil0" d="M60154 -8682c0,1416 -1150,2566 -2565,2566 -1419,0 -2566,-1150 -2566,-2566 0,-1419 1147,-2569 2566,-2569 1415,0 2565,1150 2565,2569zm22 0c0,-1431 -1159,-2587 -2587,-2587 -1432,0 -2588,1156 -2588,2587 0,1428 1156,2588 2588,2588 1428,0 2587,-1160 2587,-2588z"/>
     <path id="_180" class="fil0" d="M60170 -8682c0,1425 -1156,2581 -2581,2581 -1425,0 -2582,-1156 -2582,-2581 0,-1425 1157,-2581 2582,-2581 1425,0 2581,1156 2581,2581zm22 0c0,-1437 -1166,-2603 -2603,-2603 -1438,0 -2603,1166 -2603,2603 0,1438 1165,2603 2603,2603 1437,0 2603,-1165 2603,-2603z"/>
     <path id="_181" class="fil0" d="M60182 -8682c0,1431 -1159,2594 -2593,2594 -1435,0 -2597,-1163 -2597,-2594 0,-1434 1162,-2597 2597,-2597 1434,0 2593,1163 2593,2597zm22 0c0,-1447 -1172,-2619 -2615,-2619 -1447,0 -2619,1172 -2619,2619 0,1444 1172,2616 2619,2616 1443,0 2615,-1172 2615,-2616z"/>
     <path id="_182" class="fil0" d="M60198 -8682c0,1441 -1169,2610 -2609,2610 -1441,0 -2610,-1169 -2610,-2610 0,-1444 1169,-2609 2610,-2609 1440,0 2609,1165 2609,2609zm22 0c0,-1453 -1178,-2631 -2631,-2631 -1453,0 -2632,1178 -2632,2631 0,1453 1179,2631 2632,2631 1453,0 2631,-1178 2631,-2631z"/>
     <path id="_183" class="fil0" d="M60214 -8682c0,1447 -1175,2622 -2625,2622 -1450,0 -2625,-1175 -2625,-2622 0,-1450 1175,-2625 2625,-2625 1450,0 2625,1175 2625,2625zm22 0c0,-1462 -1188,-2647 -2647,-2647 -1463,0 -2647,1185 -2647,2647 0,1460 1184,2644 2647,2644 1459,0 2647,-1184 2647,-2644z"/>
     <path id="_184" class="fil0" d="M60226 -8682c0,1456 -1181,2638 -2637,2638 -1457,0 -2638,-1182 -2638,-2638 0,-1459 1181,-2640 2638,-2640 1456,0 2637,1181 2637,2640zm22 0c0,-1469 -1191,-2662 -2659,-2662 -1469,0 -2660,1193 -2660,2662 0,1469 1191,2660 2660,2660 1468,0 2659,-1191 2659,-2660z"/>
     <path id="_185" class="fil0" d="M60242 -8682c0,1466 -1188,2653 -2653,2653 -1466,0 -2653,-1187 -2653,-2653 0,-1465 1187,-2653 2653,-2653 1465,0 2653,1188 2653,2653zm22 0c0,-1478 -1197,-2675 -2675,-2675 -1478,0 -2675,1197 -2675,2675 0,1475 1197,2675 2675,2675 1478,0 2675,-1200 2675,-2675z"/>
     <path id="_186" class="fil0" d="M60254 -8682c0,1472 -1193,2666 -2665,2666 -1475,0 -2669,-1194 -2669,-2666 0,-1475 1194,-2669 2669,-2669 1472,0 2665,1194 2665,2669zm22 0c0,-1487 -1203,-2690 -2687,-2690 -1485,0 -2691,1203 -2691,2690 0,1485 1206,2688 2691,2688 1484,0 2687,-1203 2687,-2688z"/>
     <path id="_187" class="fil0" d="M60270 -8682c0,1481 -1200,2681 -2681,2681 -1482,0 -2682,-1200 -2682,-2681 0,-1481 1200,-2681 2682,-2681 1481,0 2681,1200 2681,2681zm22 0c0,-1494 -1210,-2703 -2703,-2703 -1494,0 -2703,1209 -2703,2703 0,1491 1209,2703 2703,2703 1493,0 2703,-1212 2703,-2703z"/>
     <path id="_188" class="fil0" d="M60286 -8682c0,1488 -1210,2694 -2697,2694 -1491,0 -2697,-1206 -2697,-2694 0,-1490 1206,-2697 2697,-2697 1487,0 2697,1207 2697,2697zm21 0c0,-1503 -1218,-2719 -2718,-2719 -1500,0 -2719,1216 -2719,2719 0,1500 1219,2716 2719,2716 1500,0 2718,-1216 2718,-2716z"/>
     <path id="_189" class="fil0" d="M60298 -8682c0,1497 -1212,2710 -2709,2710 -1497,0 -2713,-1213 -2713,-2710 0,-1497 1216,-2712 2713,-2712 1497,0 2709,1215 2709,2712zm22 0c0,-1509 -1222,-2734 -2731,-2734 -1510,0 -2732,1225 -2732,2734 0,1510 1222,2731 2732,2731 1509,0 2731,-1221 2731,-2731z"/>
     <path id="_190" class="fil0" d="M60314 -8682c0,1503 -1222,2725 -2725,2725 -1507,0 -2725,-1222 -2725,-2725 0,-1506 1218,-2725 2725,-2725 1503,0 2725,1219 2725,2725zm22 0c0,-1519 -1232,-2747 -2747,-2747 -1519,0 -2747,1228 -2747,2747 0,1516 1228,2747 2747,2747 1515,0 2747,-1231 2747,-2747z"/>
     <path id="_191" class="fil0" d="M60329 -8682c0,1513 -1228,2738 -2740,2738 -1513,0 -2741,-1225 -2741,-2738 0,-1512 1228,-2740 2741,-2740 1512,0 2740,1228 2740,2740zm19 0c0,-1525 -1234,-2762 -2759,-2762 -1525,0 -2763,1237 -2763,2762 0,1525 1238,2760 2763,2760 1525,0 2759,-1235 2759,-2760z"/>
     <path id="_192" class="fil0" d="M60342 -8682c0,1519 -1231,2753 -2753,2753 -1522,0 -2753,-1234 -2753,-2753 0,-1522 1231,-2756 2753,-2756 1522,0 2753,1234 2753,2756zm22 0c0,-1534 -1244,-2775 -2775,-2775 -1535,0 -2775,1241 -2775,2775 0,1531 1240,2775 2775,2775 1531,0 2775,-1244 2775,-2775z"/>
     <path id="_193" class="fil0" d="M60357 -8682c0,1528 -1240,2769 -2768,2769 -1528,0 -2769,-1241 -2769,-2769 0,-1531 1241,-2769 2769,-2769 1528,0 2768,1238 2768,2769zm22 0c0,-1540 -1250,-2790 -2790,-2790 -1541,0 -2791,1250 -2791,2790 0,1541 1250,2788 2791,2788 1540,0 2790,-1247 2790,-2788z"/>
     <path id="_194" class="fil0" d="M60370 -8682c0,1535 -1244,2781 -2781,2781 -1538,0 -2785,-1246 -2785,-2781 0,-1537 1247,-2784 2785,-2784 1537,0 2781,1247 2781,2784zm22 0c0,-1550 -1256,-2806 -2803,-2806 -1550,0 -2807,1256 -2807,2806 0,1547 1257,2803 2807,2803 1547,0 2803,-1256 2803,-2803z"/>
     <path id="_195" class="fil0" d="M60386 -8682c0,1544 -1254,2797 -2797,2797 -1544,0 -2797,-1253 -2797,-2797 0,-1547 1253,-2797 2797,-2797 1543,0 2797,1250 2797,2797zm21 0c0,-1556 -1262,-2819 -2818,-2819 -1557,0 -2819,1263 -2819,2819 0,1556 1262,2819 2819,2819 1556,0 2818,-1263 2818,-2819z"/>
     <path id="_196" class="fil0" d="M60401 -8682c0,1553 -1259,2810 -2812,2810 -1553,0 -2813,-1257 -2813,-2810 0,-1553 1260,-2812 2813,-2812 1553,0 2812,1259 2812,2812zm19 0c0,-1565 -1266,-2834 -2831,-2834 -1566,0 -2835,1269 -2835,2834 0,1563 1269,2831 2835,2831 1565,0 2831,-1268 2831,-2831z"/>
     <path id="_197" class="fil0" d="M60414 -8682c0,1560 -1266,2825 -2825,2825 -1563,0 -2825,-1265 -2825,-2825 0,-1562 1262,-2828 2825,-2828 1559,0 2825,1266 2825,2828zm22 0c0,-1575 -1275,-2850 -2847,-2850 -1572,0 -2847,1275 -2847,2850 0,1572 1275,2847 2847,2847 1572,0 2847,-1275 2847,-2847z"/>
     <path id="_198" class="fil0" d="M60429 -8682c0,1569 -1272,2841 -2840,2841 -1569,0 -2841,-1272 -2841,-2841 0,-1569 1272,-2840 2841,-2840 1568,0 2840,1271 2840,2840zm22 0c0,-1581 -1281,-2862 -2862,-2862 -1582,0 -2863,1281 -2863,2862 0,1581 1281,2863 2863,2863 1581,0 2862,-1282 2862,-2863z"/>
     <path id="_199" class="fil0" d="M60442 -8682c0,1575 -1278,2853 -2853,2853 -1578,0 -2857,-1278 -2857,-2853 0,-1578 1279,-2856 2857,-2856 1575,0 2853,1278 2853,2856zm22 0c0,-1590 -1288,-2878 -2875,-2878 -1588,0 -2878,1288 -2878,2878 0,1588 1290,2875 2878,2875 1587,0 2875,-1287 2875,-2875z"/>
     <path id="_200" class="fil0" d="M60457 -8682c0,1585 -1284,2869 -2868,2869 -1585,0 -2869,-1284 -2869,-2869 0,-1584 1284,-2869 2869,-2869 1584,0 2868,1285 2868,2869zm22 0c0,-1597 -1293,-2890 -2890,-2890 -1597,0 -2891,1293 -2891,2890 0,1597 1294,2891 2891,2891 1597,0 2890,-1294 2890,-2891z"/>
     <path id="_201" class="fil0" d="M60473 -8682c0,1591 -1291,2881 -2884,2881 -1594,0 -2885,-1290 -2885,-2881 0,-1594 1291,-2884 2885,-2884 1593,0 2884,1290 2884,2884zm22 0c0,-1606 -1303,-2906 -2906,-2906 -1607,0 -2907,1300 -2907,2906 0,1603 1300,2903 2907,2903 1603,0 2906,-1300 2906,-2903z"/>
     <path id="_202" class="fil0" d="M60486 -8682c0,1600 -1297,2897 -2897,2897 -1600,0 -2900,-1297 -2900,-2897 0,-1600 1300,-2900 2900,-2900 1600,0 2897,1300 2897,2900zm21 0c0,-1612 -1306,-2922 -2918,-2922 -1613,0 -2919,1310 -2919,2922 0,1613 1306,2919 2919,2919 1612,0 2918,-1306 2918,-2919z"/>
     <path id="_203" class="fil0" d="M60501 -8682c0,1606 -1303,2913 -2912,2913 -1610,0 -2913,-1307 -2913,-2913 0,-1609 1303,-2912 2913,-2912 1609,0 2912,1303 2912,2912zm22 0c0,-1622 -1316,-2934 -2934,-2934 -1622,0 -2935,1312 -2935,2934 0,1619 1313,2935 2935,2935 1618,0 2934,-1316 2934,-2935z"/>
     <path id="_204" class="fil0" d="M60514 -8682c0,1616 -1310,2925 -2925,2925 -1616,0 -2928,-1309 -2928,-2925 0,-1619 1312,-2928 2928,-2928 1615,0 2925,1309 2925,2928zm22 0c0,-1628 -1319,-2950 -2947,-2950 -1628,0 -2950,1322 -2950,2950 0,1628 1322,2947 2950,2947 1628,0 2947,-1319 2947,-2947z"/>
     <path id="_205" class="fil0" d="M60529 -8682c0,1625 -1315,2941 -2940,2941 -1625,0 -2941,-1316 -2941,-2941 0,-1625 1316,-2944 2941,-2944 1625,0 2940,1319 2940,2944zm22 0c0,-1637 -1325,-2962 -2962,-2962 -1638,0 -2963,1325 -2963,2962 0,1635 1325,2963 2963,2963 1637,0 2962,-1328 2962,-2963z"/>
     <path id="_206" class="fil0" d="M60545 -8682c0,1631 -1325,2956 -2956,2956 -1632,0 -2957,-1325 -2957,-2956 0,-1634 1325,-2956 2957,-2956 1631,0 2956,1322 2956,2956zm22 0c0,-1644 -1335,-2978 -2978,-2978 -1644,0 -2978,1334 -2978,2978 0,1644 1334,2975 2978,2975 1643,0 2978,-1331 2978,-2975z"/>
     <path id="_207" class="fil0" d="M60557 -8682c0,1641 -1328,2969 -2968,2969 -1641,0 -2972,-1328 -2972,-2969 0,-1640 1331,-2972 2972,-2972 1640,0 2968,1332 2968,2972zm22 0c0,-1653 -1337,-2994 -2990,-2994 -1653,0 -2991,1341 -2991,2994 0,1650 1338,2991 2991,2991 1653,0 2990,-1341 2990,-2991z"/>
     <path id="_208" class="fil0" d="M60573 -8682c0,1647 -1337,2985 -2984,2985 -1650,0 -2985,-1338 -2985,-2985 0,-1650 1335,-2984 2985,-2984 1647,0 2984,1334 2984,2984zm22 0c0,-1662 -1347,-3006 -3006,-3006 -1660,0 -3007,1344 -3007,3006 0,1660 1347,3006 3007,3006 1659,0 3006,-1346 3006,-3006z"/>
     <path id="_209" class="fil0" d="M60589 -8682c0,1656 -1344,2997 -3000,2997 -1657,0 -3000,-1341 -3000,-2997 0,-1656 1343,-3000 3000,-3000 1656,0 3000,1344 3000,3000zm18 0c0,-1669 -1350,-3022 -3018,-3022 -1669,0 -3022,1353 -3022,3022 0,1669 1353,3019 3022,3019 1668,0 3018,-1350 3018,-3019z"/>
     <path id="_210" class="fil0" d="M60601 -8682c0,1663 -1350,3013 -3012,3013 -1666,0 -3013,-1350 -3013,-3013 0,-1665 1347,-3015 3013,-3015 1662,0 3012,1350 3012,3015zm22 0c0,-1678 -1359,-3037 -3034,-3037 -1678,0 -3035,1359 -3035,3037 0,1675 1357,3035 3035,3035 1675,0 3034,-1360 3034,-3035z"/>
     <path id="_211" class="fil0" d="M60617 -8682c0,1672 -1356,3028 -3028,3028 -1672,0 -3028,-1356 -3028,-3028 0,-1672 1356,-3028 3028,-3028 1672,0 3028,1356 3028,3028zm22 0c0,-1684 -1366,-3050 -3050,-3050 -1685,0 -3050,1366 -3050,3050 0,1685 1365,3050 3050,3050 1684,0 3050,-1365 3050,-3050z"/>
     <path id="_212" class="fil0" d="M60629 -8682c0,1678 -1359,3041 -3040,3041 -1682,0 -3044,-1363 -3044,-3041 0,-1681 1362,-3044 3044,-3044 1681,0 3040,1363 3040,3044zm22 0c0,-1694 -1372,-3065 -3062,-3065 -1694,0 -3066,1371 -3066,3065 0,1691 1372,3063 3066,3063 1690,0 3062,-1372 3062,-3063z"/>
     <path id="_213" class="fil0" d="M60645 -8682c0,1688 -1369,3056 -3056,3056 -1688,0 -3057,-1368 -3057,-3056 0,-1690 1369,-3056 3057,-3056 1687,0 3056,1366 3056,3056zm22 0c0,-1700 -1378,-3078 -3078,-3078 -1700,0 -3078,1378 -3078,3078 0,1700 1378,3078 3078,3078 1700,0 3078,-1378 3078,-3078z"/>
     <path id="_214" class="fil0" d="M60661 -8682c0,1694 -1375,3069 -3072,3069 -1697,0 -3072,-1375 -3072,-3069 0,-1697 1375,-3072 3072,-3072 1697,0 3072,1375 3072,3072zm21 0c0,-1709 -1387,-3094 -3093,-3094 -1710,0 -3094,1385 -3094,3094 0,1706 1384,3091 3094,3091 1706,0 3093,-1385 3093,-3091z"/>
     <path id="_215" class="fil0" d="M60673 -8682c0,1703 -1381,3085 -3084,3085 -1703,0 -3085,-1382 -3085,-3085 0,-1706 1382,-3087 3085,-3087 1703,0 3084,1381 3084,3087zm22 0c0,-1715 -1391,-3109 -3106,-3109 -1716,0 -3107,1394 -3107,3109 0,1716 1391,3106 3107,3106 1715,0 3106,-1390 3106,-3106z"/>
     <path id="_216" class="fil0" d="M60689 -8682c0,1713 -1388,3100 -3100,3100 -1713,0 -3100,-1387 -3100,-3100 0,-1712 1387,-3100 3100,-3100 1712,0 3100,1388 3100,3100zm22 0c0,-1725 -1397,-3122 -3122,-3122 -1725,0 -3122,1397 -3122,3122 0,1722 1397,3122 3122,3122 1725,0 3122,-1400 3122,-3122z"/>
     <path id="_217" class="fil0" d="M60701 -8682c0,1719 -1394,3113 -3112,3113 -1722,0 -3116,-1394 -3116,-3113 0,-1722 1394,-3115 3116,-3115 1718,0 3112,1393 3112,3115zm22 0c0,-1734 -1403,-3137 -3134,-3137 -1732,0 -3138,1403 -3138,3137 0,1731 1406,3135 3138,3135 1731,0 3134,-1404 3134,-3135z"/>
     <path id="_218" class="fil0" d="M60717 -8682c0,1728 -1400,3128 -3128,3128 -1728,0 -3128,-1400 -3128,-3128 0,-1728 1400,-3131 3128,-3131 1728,0 3128,1403 3128,3131zm22 0c0,-1740 -1410,-3150 -3150,-3150 -1741,0 -3150,1410 -3150,3150 0,1738 1409,3150 3150,3150 1740,0 3150,-1412 3150,-3150z"/>
     <path id="_219" class="fil0" d="M60732 -8682c0,1735 -1409,3144 -3143,3144 -1738,0 -3144,-1409 -3144,-3144 0,-1737 1406,-3144 3144,-3144 1734,0 3143,1407 3143,3144zm22 0c0,-1750 -1418,-3165 -3165,-3165 -1747,0 -3166,1415 -3166,3165 0,1747 1419,3163 3166,3163 1747,0 3165,-1416 3165,-3163z"/>
     <path id="_220" class="fil0" d="M60745 -8682c0,1744 -1413,3156 -3156,3156 -1744,0 -3160,-1412 -3160,-3156 0,-1744 1416,-3159 3160,-3159 1743,0 3156,1415 3156,3159zm22 0c0,-1756 -1422,-3181 -3178,-3181 -1757,0 -3178,1425 -3178,3181 0,1756 1421,3178 3178,3178 1756,0 3178,-1422 3178,-3178z"/>
     <path id="_221" class="fil0" d="M60761 -8682c0,1750 -1422,3172 -3172,3172 -1753,0 -3172,-1422 -3172,-3172 0,-1753 1419,-3172 3172,-3172 1750,0 3172,1419 3172,3172zm21 0c0,-1765 -1431,-3194 -3193,-3194 -1766,0 -3194,1429 -3194,3194 0,1763 1428,3194 3194,3194 1762,0 3193,-1431 3193,-3194z"/>
     <path id="_222" class="fil0" d="M60776 -8682c0,1760 -1428,3185 -3187,3185 -1760,0 -3188,-1425 -3188,-3185 0,-1759 1428,-3187 3188,-3187 1759,0 3187,1428 3187,3187zm19 0c0,-1772 -1434,-3209 -3206,-3209 -1772,0 -3210,1437 -3210,3209 0,1772 1438,3206 3210,3206 1772,0 3206,-1434 3206,-3206z"/>
     <path id="_223" class="fil0" d="M60789 -8682c0,1766 -1432,3200 -3200,3200 -1769,0 -3200,-1434 -3200,-3200 0,-1769 1431,-3203 3200,-3203 1768,0 3200,1434 3200,3203zm22 0c0,-1781 -1444,-3222 -3222,-3222 -1782,0 -3222,1441 -3222,3222 0,1778 1440,3222 3222,3222 1778,0 3222,-1444 3222,-3222z"/>
     <path id="_224" class="fil0" d="M60804 -8682c0,1775 -1440,3216 -3215,3216 -1775,0 -3216,-1441 -3216,-3216 0,-1778 1441,-3215 3216,-3215 1775,0 3215,1437 3215,3215zm22 0c0,-1787 -1450,-3237 -3237,-3237 -1788,0 -3238,1450 -3238,3237 0,1788 1450,3238 3238,3238 1787,0 3237,-1450 3237,-3238z"/>
     <path id="_225" class="fil0" d="M60817 -8682c0,1781 -1444,3228 -3228,3228 -1785,0 -3232,-1447 -3232,-3228 0,-1784 1447,-3231 3232,-3231 1784,0 3228,1447 3228,3231zm22 0c0,-1797 -1457,-3253 -3250,-3253 -1797,0 -3253,1456 -3253,3253 0,1794 1456,3250 3253,3250 1793,0 3250,-1456 3250,-3250z"/>
     <path id="_226" class="fil0" d="M60832 -8682c0,1791 -1453,3244 -3243,3244 -1791,0 -3244,-1453 -3244,-3244 0,-1794 1453,-3244 3244,-3244 1790,0 3243,1450 3243,3244zm22 0c0,-1803 -1462,-3265 -3265,-3265 -1803,0 -3266,1462 -3266,3265 0,1803 1463,3266 3266,3266 1803,0 3265,-1463 3265,-3266z"/>
     <path id="_227" class="fil0" d="M60848 -8682c0,1800 -1459,3256 -3259,3256 -1800,0 -3260,-1456 -3260,-3256 0,-1800 1460,-3259 3260,-3259 1800,0 3259,1459 3259,3259zm22 0c0,-1812 -1469,-3281 -3281,-3281 -1813,0 -3282,1469 -3282,3281 0,1810 1469,3278 3282,3278 1812,0 3281,-1468 3281,-3278z"/>
     <path id="_228" class="fil0" d="M60861 -8682c0,1806 -1466,3272 -3272,3272 -1810,0 -3272,-1466 -3272,-3272 0,-1809 1462,-3275 3272,-3275 1806,0 3272,1466 3272,3275zm21 0c0,-1822 -1475,-3297 -3293,-3297 -1819,0 -3294,1475 -3294,3297 0,1819 1475,3294 3294,3294 1818,0 3293,-1475 3293,-3294z"/>
     <path id="_229" class="fil0" d="M60876 -8682c0,1816 -1472,3288 -3287,3288 -1816,0 -3288,-1472 -3288,-3288 0,-1815 1472,-3287 3288,-3287 1815,0 3287,1472 3287,3287zm22 0c0,-1828 -1481,-3309 -3309,-3309 -1828,0 -3310,1481 -3310,3309 0,1828 1482,3310 3310,3310 1828,0 3309,-1482 3309,-3310z"/>
     <path id="_230" class="fil0" d="M60889 -8682c0,1822 -1478,3300 -3300,3300 -1825,0 -3303,-1478 -3303,-3300 0,-1825 1478,-3303 3303,-3303 1822,0 3300,1478 3300,3303zm22 0c0,-1837 -1488,-3325 -3322,-3325 -1835,0 -3325,1488 -3325,3325 0,1835 1490,3322 3325,3322 1834,0 3322,-1487 3322,-3322z"/>
     <path id="_231" class="fil0" d="M60904 -8682c0,1831 -1484,3316 -3315,3316 -1832,0 -3316,-1485 -3316,-3316 0,-1831 1484,-3315 3316,-3315 1831,0 3315,1484 3315,3315zm22 0c0,-1844 -1494,-3337 -3337,-3337 -1844,0 -3338,1493 -3338,3337 0,1844 1494,3338 3338,3338 1843,0 3337,-1494 3337,-3338z"/>
     <path id="_232" class="fil0" d="M60920 -8682c0,1838 -1494,3328 -3331,3328 -1841,0 -3332,-1490 -3332,-3328 0,-1840 1491,-3331 3332,-3331 1837,0 3331,1491 3331,3331zm22 0c0,-1853 -1503,-3353 -3353,-3353 -1853,0 -3353,1500 -3353,3353 0,1850 1500,3350 3353,3350 1850,0 3353,-1500 3353,-3350z"/>
     <path id="_233" class="fil0" d="M60932 -8682c0,1847 -1496,3344 -3343,3344 -1847,0 -3347,-1497 -3347,-3344 0,-1847 1500,-3347 3347,-3347 1847,0 3343,1500 3343,3347zm22 0c0,-1859 -1506,-3369 -3365,-3369 -1860,0 -3366,1510 -3366,3369 0,1860 1506,3366 3366,3366 1859,0 3365,-1506 3365,-3366z"/>
     <path id="_234" class="fil0" d="M60948 -8682c0,1853 -1503,3360 -3359,3360 -1857,0 -3360,-1507 -3360,-3360 0,-1856 1503,-3359 3360,-3359 1856,0 3359,1503 3359,3359zm22 0c0,-1869 -1516,-3381 -3381,-3381 -1869,0 -3382,1512 -3382,3381 0,1866 1513,3381 3382,3381 1865,0 3381,-1515 3381,-3381z"/>
     <path id="_235" class="fil0" d="M60964 -8682c0,1863 -1513,3372 -3375,3372 -1863,0 -3375,-1509 -3375,-3372 0,-1865 1512,-3375 3375,-3375 1862,0 3375,1510 3375,3375zm18 0c0,-1875 -1518,-3397 -3393,-3397 -1875,0 -3397,1522 -3397,3397 0,1875 1522,3394 3397,3394 1875,0 3393,-1519 3393,-3394z"/>
     <path id="_236" class="fil0" d="M60976 -8682c0,1872 -1515,3388 -3387,3388 -1872,0 -3388,-1516 -3388,-3388 0,-1872 1516,-3390 3388,-3390 1872,0 3387,1518 3387,3390zm22 0c0,-1884 -1525,-3409 -3409,-3409 -1885,0 -3410,1525 -3410,3409 0,1881 1525,3410 3410,3410 1884,0 3409,-1529 3409,-3410z"/>
     <path id="_237" class="fil0" d="M60992 -8682c0,1878 -1525,3403 -3403,3403 -1878,0 -3403,-1525 -3403,-3403 0,-1881 1525,-3403 3403,-3403 1878,0 3403,1522 3403,3403zm22 0c0,-1890 -1535,-3425 -3425,-3425 -1891,0 -3425,1535 -3425,3425 0,1891 1534,3422 3425,3422 1890,0 3425,-1531 3425,-3422z"/>
     <path id="_238" class="fil0" d="M61004 -8682c0,1888 -1528,3416 -3415,3416 -1888,0 -3419,-1528 -3419,-3416 0,-1887 1531,-3419 3419,-3419 1887,0 3415,1532 3415,3419zm22 0c0,-1900 -1537,-3440 -3437,-3440 -1900,0 -3441,1540 -3441,3440 0,1897 1541,3438 3441,3438 1900,0 3437,-1541 3437,-3438z"/>
     <path id="_239" class="fil0" d="M61020 -8682c0,1894 -1538,3431 -3431,3431 -1897,0 -3432,-1537 -3432,-3431 0,-1897 1535,-3431 3432,-3431 1893,0 3431,1534 3431,3431zm22 0c0,-1909 -1547,-3453 -3453,-3453 -1907,0 -3453,1544 -3453,3453 0,1906 1546,3453 3453,3453 1906,0 3453,-1547 3453,-3453z"/>
     <path id="_240" class="fil0" d="M61036 -8682c0,1903 -1544,3444 -3447,3444 -1903,0 -3447,-1541 -3447,-3444 0,-1903 1544,-3447 3447,-3447 1903,0 3447,1544 3447,3447zm21 0c0,-1915 -1553,-3469 -3468,-3469 -1916,0 -3469,1554 -3469,3469 0,1916 1553,3466 3469,3466 1915,0 3468,-1550 3468,-3466z"/>
     <path id="_241" class="fil0" d="M61048 -8682c0,1910 -1550,3460 -3459,3460 -1913,0 -3460,-1550 -3460,-3460 0,-1912 1547,-3462 3460,-3462 1909,0 3459,1550 3459,3462zm22 0c0,-1925 -1559,-3484 -3481,-3484 -1925,0 -3482,1559 -3482,3484 0,1922 1557,3481 3482,3481 1922,0 3481,-1559 3481,-3481z"/>
     <path id="_242" class="fil0" d="M61064 -8682c0,1919 -1557,3475 -3475,3475 -1919,0 -3475,-1556 -3475,-3475 0,-1919 1556,-3475 3475,-3475 1918,0 3475,1556 3475,3475zm22 0c0,-1931 -1566,-3497 -3497,-3497 -1932,0 -3497,1566 -3497,3497 0,1931 1565,3497 3497,3497 1931,0 3497,-1566 3497,-3497z"/>
     <path id="_243" class="fil0" d="M61076 -8682c0,1925 -1559,3488 -3487,3488 -1928,0 -3491,-1563 -3491,-3488 0,-1928 1563,-3490 3491,-3490 1928,0 3487,1562 3487,3490zm22 0c0,-1940 -1572,-3512 -3509,-3512 -1941,0 -3513,1572 -3513,3512 0,1938 1572,3510 3513,3510 1937,0 3509,-1572 3509,-3510z"/>
     <path id="_244" class="fil0" d="M61092 -8682c0,1935 -1569,3503 -3503,3503 -1935,0 -3503,-1568 -3503,-3503 0,-1934 1568,-3503 3503,-3503 1934,0 3503,1569 3503,3503zm22 0c0,-1947 -1578,-3525 -3525,-3525 -1947,0 -3525,1578 -3525,3525 0,1947 1578,3525 3525,3525 1947,0 3525,-1578 3525,-3525z"/>
     <path id="_245" class="fil0" d="M61107 -8682c0,1941 -1575,3516 -3518,3516 -1944,0 -3519,-1575 -3519,-3516 0,-1944 1575,-3519 3519,-3519 1943,0 3518,1575 3518,3519zm22 0c0,-1956 -1587,-3540 -3540,-3540 -1957,0 -3541,1584 -3541,3540 0,1953 1584,3538 3541,3538 1953,0 3540,-1585 3540,-3538z"/>
     <path id="_246" class="fil0" d="M61120 -8682c0,1950 -1581,3531 -3531,3531 -1950,0 -3535,-1581 -3535,-3531 0,-1953 1585,-3534 3535,-3534 1950,0 3531,1581 3531,3534zm22 0c0,-1962 -1591,-3556 -3553,-3556 -1963,0 -3553,1594 -3553,3556 0,1963 1590,3553 3553,3553 1962,0 3553,-1590 3553,-3553z"/>
     <path id="_247" class="fil0" d="M61136 -8682c0,1960 -1588,3547 -3547,3547 -1960,0 -3547,-1587 -3547,-3547 0,-1959 1587,-3547 3547,-3547 1959,0 3547,1588 3547,3547zm21 0c0,-1972 -1596,-3569 -3568,-3569 -1972,0 -3569,1597 -3569,3569 0,1969 1597,3569 3569,3569 1972,0 3568,-1600 3568,-3569z"/>
     <path id="_248" class="fil0" d="M61148 -8682c0,1966 -1594,3560 -3559,3560 -1969,0 -3563,-1594 -3563,-3560 0,-1969 1594,-3562 3563,-3562 1965,0 3559,1593 3559,3562zm22 0c0,-1981 -1603,-3584 -3581,-3584 -1978,0 -3585,1603 -3585,3584 0,1978 1607,3581 3585,3581 1978,0 3581,-1603 3581,-3581z"/>
     <path id="_249" class="fil0" d="M61164 -8682c0,1975 -1600,3575 -3575,3575 -1975,0 -3575,-1600 -3575,-3575 0,-1975 1600,-3578 3575,-3578 1975,0 3575,1603 3575,3578zm22 0c0,-1987 -1610,-3597 -3597,-3597 -1988,0 -3597,1610 -3597,3597 0,1985 1609,3597 3597,3597 1987,0 3597,-1612 3597,-3597z"/>
     <path id="_250" class="fil0" d="M61179 -8682c0,1981 -1609,3591 -3590,3591 -1985,0 -3591,-1610 -3591,-3591 0,-1984 1606,-3590 3591,-3590 1981,0 3590,1606 3590,3590zm22 0c0,-1997 -1619,-3612 -3612,-3612 -1994,0 -3613,1615 -3613,3612 0,1994 1619,3610 3613,3610 1993,0 3612,-1616 3612,-3610z"/>
     <path id="_251" class="fil0" d="M61192 -8682c0,1991 -1613,3603 -3603,3603 -1991,0 -3607,-1612 -3607,-3603 0,-1990 1616,-3606 3607,-3606 1990,0 3603,1616 3603,3606zm22 0c0,-2003 -1622,-3628 -3625,-3628 -2003,0 -3628,1625 -3628,3628 0,2003 1625,3625 3628,3625 2003,0 3625,-1622 3625,-3625z"/>
     <path id="_252" class="fil0" d="M61207 -8682c0,1997 -1621,3619 -3618,3619 -2000,0 -3619,-1622 -3619,-3619 0,-2000 1619,-3619 3619,-3619 1997,0 3618,1619 3618,3619zm22 0c0,-2012 -1631,-3640 -3640,-3640 -2013,0 -3641,1628 -3641,3640 0,2010 1628,3641 3641,3641 2009,0 3640,-1631 3640,-3641z"/>
     <path id="_253" class="fil0" d="M61223 -8682c0,2006 -1628,3631 -3634,3631 -2007,0 -3635,-1625 -3635,-3631 0,-2006 1628,-3634 3635,-3634 2006,0 3634,1628 3634,3634zm19 0c0,-2019 -1635,-3656 -3653,-3656 -2019,0 -3657,1637 -3657,3656 0,2019 1638,3653 3657,3653 2018,0 3653,-1634 3653,-3653z"/>
     <path id="_254" class="fil0" d="M61236 -8682c0,2013 -1632,3647 -3647,3647 -2016,0 -3647,-1634 -3647,-3647 0,-2015 1631,-3650 3647,-3650 2015,0 3647,1635 3647,3650zm21 0c0,-2028 -1643,-3672 -3668,-3672 -2028,0 -3669,1644 -3669,3672 0,2025 1641,3669 3669,3669 2025,0 3668,-1644 3668,-3669z"/>
     <path id="_255" class="fil0" d="M61251 -8682c0,2022 -1640,3663 -3662,3663 -2022,0 -3663,-1641 -3663,-3663 0,-2025 1641,-3662 3663,-3662 2022,0 3662,1637 3662,3662zm22 0c0,-2034 -1650,-3684 -3684,-3684 -2035,0 -3685,1650 -3685,3684 0,2035 1650,3685 3685,3685 2034,0 3684,-1650 3684,-3685z"/>
     <path id="_256" class="fil0" d="M61264 -8682c0,2028 -1644,3675 -3675,3675 -2032,0 -3678,-1647 -3678,-3675 0,-2031 1646,-3678 3678,-3678 2031,0 3675,1647 3675,3678zm15 0c0,-2040 -1653,-3690 -3690,-3690 -2038,0 -3691,1650 -3691,3690 0,2038 1653,3691 3691,3691 2037,0 3690,-1653 3690,-3691z"/>
    </g>
   </g>
   <path class="fil1" d="M57589 -12372c2037,0 3690,1650 3690,3690 0,2038 -1653,3691 -3690,3691 -2038,0 -3691,-1653 -3691,-3691 0,-2040 1653,-3690 3691,-3690z"/>
  </g>
  <g id="g7093">
   <path id="path351" class="fil2" d="M-6221 -9185l12569 -1731c1878,-260 3619,1062 3878,2940l950 6879c256,1878 -1062,3621 -2940,3881l-12566 1731c-1878,259 -3622,-1062 -3881,-2941l-947 -6878c-260,-1878 1059,-3622 2937,-3881l0 0z"/>
   <g id="g7032">
    <g id="g1561">
     <path id="path1455" class="fil3" d="M4442 -2072l3450 1706c37,19 59,56 59,100l0 3444c0,37 -19,71 -50,93 -34,22 -75,22 -109,7l-3469 -1738c-37,-19 -62,-56 -62,-97l0 -3444c0,-40 3,-43 37,-62 31,-22 109,-28 144,-9l0 0z"/>
     <path id="path1457" class="fil4 str0" d="M4386 -2060l3468 1734c41,19 63,57 63,100l0 3444c0,38 -19,72 -53,94 -35,22 -72,22 -107,6l-3471 -1737c-38,-19 -60,-57 -60,-97l0 -3444c0,-41 19,-75 53,-94 25,-15 53,-22 78,-15 10,3 19,6 29,9l0 0z"/>
     <path id="path1459" class="fil5" d="M1220 1540l3194 0c18,0 34,3 50,13l3250 1625c43,21 68,71 56,121 -13,54 -56,88 -106,88l-3197 0c-19,0 -35,-3 -50,-13l-3247 -1625c-47,-21 -72,-71 -59,-125 12,-50 56,-84 109,-84z"/>
     <path id="path1461" class="fil4 str0" d="M1232 1490l3197 0c19,0 35,3 50,9l3247 1625c47,22 72,75 60,125 -13,50 -57,85 -110,85l-3194 0c-18,0 -34,-3 -50,-13l-3246 -1622c-47,-25 -72,-75 -60,-125 13,-50 56,-84 106,-84z"/>
     <path id="path1463" class="fil6 str1" d="M2951 2299l525 0c6,0 13,0 19,4l544 271c15,10 22,25 18,44 -3,16 -18,28 -37,28l-525 0c-6,0 -13,-3 -16,-6l-547 -272c-12,-6 -21,-25 -18,-40 6,-16 18,-29 37,-29l0 0z"/>
     <path id="path1465" class="fil7 str0" d="M4579 -1716l3050 1525c25,12 41,37 41,65l0 3032c0,28 -13,50 -34,62 -25,16 -50,16 -72,3l-3050 -1522c-25,-12 -41,-37 -41,-68l0 -3032c0,-25 13,-46 34,-62 22,-13 47,-16 72,-3l0 0z"/>
     <path id="path1467" class="fil8" d="M6417 -501l2484 1244c22,10 35,28 35,53l0 2472c0,22 -10,41 -29,50 -18,13 -40,13 -59,3l-2484 -1243c-22,-10 -35,-29 -35,-54l0 -2471c0,-22 -31,-10 -12,-19 19,-13 81,-44 100,-35z"/>
     <path id="path1469" class="fil0" d="M6364 -463l2487 1241c22,12 35,31 35,56l0 2472c0,22 -13,37 -32,50 -15,12 -37,12 -56,3l-2487 -1244c-22,-9 -35,-31 -35,-53l0 -2472c0,-22 13,-41 31,-50 16,-12 38,-12 57,-3l0 0z"/>
     <g id="_2722427339792">
      <path id="path1471" class="fil9" d="M1757 -2304c107,57 213,110 316,163 106,53 209,106 313,156 103,53 203,106 306,156 100,50 200,100 300,153 -3,97 -3,197 -3,294 0,100 0,197 0,297 -3,97 -3,194 -3,291 0,97 0,193 0,290 -100,-47 -200,-93 -297,-137 -100,-47 -200,-97 -303,-144 -100,-47 -204,-94 -307,-144 -103,-47 -209,-97 -312,-147 -3,-100 -3,-200 -3,-303 0,-100 -3,-203 -3,-306 0,-103 0,-203 -4,-306 0,-103 0,-206 0,-313l0 0z"/>
      <path id="path1473" class="fil9" d="M2401 -1897c103,50 194,131 260,221 65,88 106,185 106,269 -3,85 -44,141 -106,166 -66,22 -157,12 -260,-35 -100,-50 -194,-131 -262,-218 -66,-91 -110,-191 -110,-275 0,-88 41,-147 110,-169 68,-22 162,-9 262,41l0 0z"/>
      <path id="path1475" class="fil9" d="M2386 -1213c62,28 121,66 181,103 56,41 112,81 162,128 100,91 188,194 257,300 0,60 0,119 0,178 -100,-47 -200,-93 -297,-137 -100,-47 -200,-97 -303,-144 -100,-47 -204,-94 -307,-144 -103,-47 -209,-97 -312,-147 0,-62 -3,-121 -3,-184 72,-44 165,-62 272,-56 53,3 109,15 168,31 60,16 119,41 182,72l0 0z"/>
     </g>
     <path id="path1478" class="fil10" d="M1714 -2269c106,53 209,106 315,162 103,50 210,103 313,156 100,54 203,104 303,157 103,50 203,100 300,150 0,100 0,200 0,297 0,96 0,196 -3,293 0,97 0,197 0,294 0,97 0,194 -3,291 -97,-47 -197,-94 -294,-141 -100,-47 -203,-94 -303,-141 -103,-46 -203,-96 -306,-143 -107,-50 -210,-97 -313,-147 -3,-100 -3,-203 -3,-303 0,-103 -3,-203 -3,-307 0,-103 0,-206 -3,-309 0,-103 0,-206 0,-309l0 0z"/>
     <path id="path1480" class="fil0" d="M2357 -1863c104,50 194,131 260,219 65,90 103,187 103,272 0,84 -41,140 -106,162 -66,25 -157,16 -257,-34 -100,-50 -193,-128 -262,-219 -66,-88 -109,-188 -109,-275 0,-88 40,-144 109,-166 66,-25 159,-12 262,41l0 0z"/>
     <path id="path1482" class="fil0" d="M2342 -1182c62,31 122,66 181,106 56,38 113,82 163,129 100,90 187,193 256,300 0,59 -3,118 -3,178 -97,-47 -197,-94 -294,-141 -100,-47 -203,-94 -303,-141 -103,-46 -203,-96 -306,-143 -107,-50 -210,-97 -313,-147 -3,-63 -3,-125 -3,-188 72,-40 166,-59 272,-53 53,3 109,13 169,31 56,16 118,41 181,69l0 0z"/>
     <path id="path1484" class="fil11" d="M1770 -826c250,129 497,254 744,379 240,121 478,240 715,362 -3,116 -3,231 -3,350 0,116 0,231 -3,347 -231,-113 -469,-228 -709,-347 -244,-119 -491,-237 -741,-359 0,-122 0,-244 0,-366 -3,-122 -3,-244 -3,-366l0 0z"/>
     <path id="path1486" class="fil12" d="M8532 -1029c-3,94 -6,191 -9,285 -3,97 -6,190 -9,287 -3,97 -7,194 -10,294 -3,97 -3,197 -6,294 -3,53 19,118 38,156 15,34 53,87 87,103 69,34 134,66 203,100 66,31 135,66 203,97 0,-94 3,-188 3,-284 4,-94 4,-188 7,-282 -22,-9 -97,-40 -110,-56 -15,-22 -12,-56 -12,-94 0,-37 3,-72 3,-109 0,-28 9,-41 28,-31 31,15 63,31 94,47 3,-91 0,-235 22,-300 15,-44 28,-60 56,-79 9,-9 31,-15 47,-18 53,-3 122,37 181,65 19,10 28,28 28,53 0,44 0,88 -3,135 0,34 -12,31 -37,19 -32,-16 -85,-47 -110,-25 -9,9 -15,34 -15,62 -4,56 -4,113 -4,166 47,25 94,47 144,72 35,15 22,62 19,100 0,21 -3,40 -6,62 -10,103 12,97 -160,13 -3,93 -3,187 -3,281 -3,94 -3,190 -6,284 81,41 166,81 247,122 65,28 134,-37 134,-134 0,-100 0,-200 0,-300 3,-97 3,-197 3,-294 0,-97 0,-194 3,-291 0,-97 0,-193 0,-287 0,-50 -21,-113 -40,-147 -16,-34 -53,-84 -88,-103 -65,-31 -131,-63 -197,-94 -65,-34 -131,-66 -196,-97 -66,-31 -132,-65 -197,-97 -66,-31 -132,-62 -197,-97 -63,-31 -131,32 -135,122l0 0z"/>
     <path id="path1488" class="fil7 str0" d="M8489 -1007c-3,94 -7,191 -10,285 -3,96 -6,193 -9,287 -3,97 -6,197 -9,294 -4,97 -7,197 -10,294 0,53 22,118 38,156 18,34 56,87 90,106 69,31 135,66 203,97 66,34 135,66 200,100 4,-97 7,-191 7,-288 3,-93 3,-187 6,-278 -22,-12 -97,-43 -109,-59 -16,-22 -13,-56 -13,-94 0,-37 0,-72 3,-109 0,-28 6,-41 28,-31 32,15 63,31 94,46 3,-90 0,-234 22,-300 16,-43 28,-59 53,-78 13,-9 34,-15 50,-18 53,-4 122,37 181,65 19,10 28,28 28,53 0,44 -3,88 -3,135 0,34 -12,31 -37,18 -31,-15 -85,-46 -110,-25 -9,10 -15,35 -15,63 -3,56 -3,112 -3,166 47,25 93,46 143,71 35,16 22,63 19,100 -3,22 -3,41 -6,66 -9,100 12,94 -159,9 -4,94 -4,188 -7,282 0,93 -3,190 -3,284 81,41 163,81 247,122 66,31 134,-38 134,-134 0,-100 0,-200 0,-300 0,-97 4,-197 4,-294 0,-97 0,-194 0,-291 3,-97 3,-194 3,-287 0,-50 -22,-113 -41,-147 -19,-35 -53,-85 -87,-103 -66,-32 -132,-63 -197,-94 -66,-34 -132,-66 -197,-97 -66,-31 -131,-66 -197,-97 -66,-31 -131,-62 -197,-97 -66,-31 -131,32 -134,122l0 0z"/>
     <polygon id="polygon1490" class="fil13" points="2826,1543 4229,1543 7711,3228 5957,3231 "/>
     <polygon id="polygon1492" class="fil14" points="2804,1571 4207,1571 7686,3256 5936,3256 "/>
     <path id="path1494" class="fil15" d="M1732 -797c250,128 500,253 744,378 241,122 478,243 716,362 0,119 -3,235 -3,350 0,116 0,231 0,350 -235,-115 -472,-231 -713,-347 -244,-118 -490,-240 -737,-362 -3,-119 -3,-241 -3,-363 0,-122 -4,-243 -4,-368l0 0z"/>
     <path id="path1496" class="fil16" d="M2273 -319c-6,25 -12,50 -19,72 -6,25 -12,50 -18,71 -7,25 -13,50 -19,72 -6,25 -13,50 -19,72 -31,-15 -62,-28 -94,-44 -6,-21 -9,-40 -12,-59 -3,-19 -10,-41 -13,-59 -3,-19 -6,-38 -9,-60 -6,-18 -9,-37 -13,-59 -3,19 -9,34 -12,50 -3,16 -6,31 -9,47 -7,15 -10,31 -13,47 -3,18 -9,34 -12,50 -32,-16 -66,-32 -97,-47 -10,-31 -16,-63 -22,-94 -6,-31 -13,-62 -22,-94 -6,-31 -13,-62 -19,-93 -6,-32 -15,-63 -22,-97 32,15 63,31 91,47 3,21 9,43 12,65 4,22 7,44 10,66 3,22 6,44 12,65 3,22 7,41 10,63 3,-16 9,-34 12,-53 3,-19 6,-35 13,-53 3,-19 6,-35 9,-53 6,-19 9,-35 13,-54 31,16 62,32 93,47 3,22 10,44 13,66 3,22 9,44 12,62 3,22 10,44 13,66 3,22 9,44 12,63 3,-16 7,-35 10,-54 3,-15 6,-34 9,-53 3,-15 6,-34 9,-53 4,-15 7,-34 10,-53 28,16 53,28 81,41l0 0zm413 209c-7,22 -13,47 -19,69 -6,22 -13,47 -19,69 -3,25 -9,46 -16,68 -6,25 -12,47 -18,69 -28,-12 -57,-25 -88,-41 -3,-18 -6,-37 -9,-56 -3,-19 -6,-37 -13,-56 -3,-19 -6,-38 -9,-56 -3,-19 -6,-38 -9,-57 -4,16 -7,32 -13,47 -3,16 -6,32 -9,47 -3,16 -7,31 -13,44 -3,16 -6,31 -9,47 -31,-13 -60,-28 -91,-44 -6,-28 -12,-56 -19,-87 -6,-29 -12,-60 -18,-91 -7,-28 -13,-59 -19,-88 -6,-31 -13,-59 -19,-90 28,12 56,28 85,40 3,22 6,44 9,63 3,22 6,44 9,62 3,22 7,41 10,63 3,22 6,41 9,62 3,-18 9,-34 13,-53 3,-15 6,-34 9,-50 6,-18 9,-34 12,-53 4,-15 7,-34 13,-50 28,16 56,28 84,44 3,22 7,41 13,62 3,19 6,41 9,60 3,22 10,40 13,62 3,19 6,41 9,60 3,-16 6,-32 9,-50 4,-16 7,-35 10,-50 3,-19 6,-35 9,-53 3,-16 6,-35 10,-50 25,12 50,25 75,37l0 0zm378 194c-7,22 -13,44 -16,65 -6,22 -12,44 -19,66 -3,22 -9,44 -15,66 -7,22 -10,47 -16,68 -28,-12 -53,-25 -81,-40 -3,-16 -6,-35 -10,-53 -3,-16 -6,-35 -9,-53 -3,-16 -6,-35 -9,-54 -3,-18 -7,-34 -10,-53 -3,16 -6,28 -9,44 -3,16 -6,28 -13,44 -3,15 -6,31 -9,44 -3,15 -6,31 -9,46 -28,-15 -57,-28 -85,-40 -3,-28 -9,-56 -15,-85 -7,-28 -13,-56 -19,-87 -3,-28 -9,-56 -16,-84 -6,-29 -12,-57 -15,-85 25,13 50,25 75,38 3,18 6,40 9,59 3,19 6,41 9,59 4,19 7,41 10,60 0,19 3,37 6,59 3,-19 9,-34 13,-50 3,-15 6,-34 9,-50 3,-15 6,-31 9,-50 7,-15 10,-31 13,-47 25,13 53,25 78,38 3,22 6,40 9,59 3,19 10,41 13,60 3,18 6,37 9,59 3,19 6,37 10,56 3,-15 6,-31 9,-47 3,-18 6,-34 6,-50 3,-15 6,-34 10,-50 3,-15 6,-31 9,-50 22,13 47,25 69,38l0 0z"/>
     <g id="_2722427335120">
      <g id="g1500">
       <path id="path1498" class="fil17" d="M3811 -1038c-94,28 -160,50 -172,56 0,0 -3,3 -3,3 0,3 6,16 18,44 10,19 19,38 19,41 0,0 -9,25 -22,40 0,3 0,3 -3,7 -3,-13 -9,-25 -16,-38 -9,-22 -18,-50 -25,-66 -9,-21 -12,-31 -15,-31 0,0 -3,3 -6,10 -7,3 -10,6 -10,6 0,0 -15,-41 -37,-88 -28,-75 -35,-90 -38,-90 -3,0 -9,9 -50,65 -25,35 -47,66 -47,66 0,3 0,6 0,6 0,3 0,3 28,19 22,9 29,12 29,16 0,0 0,65 0,131 0,65 -4,131 -4,131 0,0 -12,-28 -25,-59 -9,-22 -15,-44 -25,-63 0,-3 0,-3 0,-6 0,-3 0,-3 0,-6 -3,-7 -6,-13 -9,-22 -3,-13 -25,-63 -44,-113 -31,-72 -37,-90 -40,-90 0,-3 -7,6 -28,34 -16,19 -38,50 -50,66 -19,28 -22,31 -22,34 0,6 3,9 31,22 9,6 19,9 28,16 0,31 0,65 0,96 -3,82 -3,97 -3,97 0,0 -13,-25 -25,-59 -25,-56 -28,-66 -28,-66 -3,0 -13,16 -28,35 -16,22 -28,37 -28,37 0,0 0,-22 0,-144 3,-46 3,-96 3,-143 9,6 18,9 28,15 28,13 28,13 31,10 0,0 0,-3 0,-3 0,-4 -16,-41 -66,-169 -18,-44 -28,-63 -28,-63 -3,0 -15,16 -81,107 -12,12 -19,28 -19,28 0,0 0,3 0,6 0,3 3,3 28,16 22,12 29,15 32,18 0,0 -3,35 -3,91 0,53 -4,131 -4,216 0,53 -3,103 -3,156 0,50 -3,103 -3,153 0,3 0,3 3,6 0,3 3,3 35,19 28,16 34,16 34,16 3,0 6,-4 6,-10 0,-3 0,-3 10,-3 6,3 6,3 6,9 0,7 3,10 3,13 0,3 0,3 34,22 35,15 35,15 38,15 0,0 3,-3 3,-3 0,-6 0,-15 0,-22 0,-18 0,-25 0,-25 3,0 16,-3 16,0 3,0 3,4 3,25 0,16 0,29 0,32 0,6 3,6 37,25 35,15 38,18 38,12 0,-3 0,-25 0,-53 0,-16 3,-34 3,-50 0,0 0,0 0,0 3,-3 16,-3 16,-3 0,0 0,9 0,56 0,31 0,56 0,60 0,6 3,6 37,25 28,12 34,15 34,12 4,0 4,0 4,0 0,0 3,-41 3,-87 0,-29 0,-60 0,-88 3,0 6,-3 9,-3 6,-3 6,-3 9,0 0,0 0,28 0,94 -3,31 -3,62 -3,93 0,0 3,0 3,4 4,3 4,3 38,18 9,7 22,13 31,19 3,-3 3,-3 3,-3 0,-3 0,-3 3,-3 0,-44 0,-88 0,-131 0,-44 0,-88 0,-132 4,0 7,-3 10,-3 3,-3 9,-3 9,-3 0,0 0,63 0,138 -3,46 -3,93 -3,140 0,0 3,3 3,3 0,3 0,3 0,3 13,7 25,13 35,19 34,16 34,16 37,16 0,-3 0,-3 3,-3 0,-63 0,-125 0,-188 0,-100 0,-184 0,-184 3,-3 19,-19 19,-19 0,3 0,91 0,197 -3,109 -3,200 -3,200 3,9 3,9 37,28 28,13 35,16 38,13 0,0 0,0 0,0 0,0 3,-110 3,-244 0,-78 0,-160 0,-238 3,0 6,3 9,3 3,4 7,4 10,7 0,78 0,159 0,237 -3,135 -3,244 -3,244 0,0 3,3 3,3 3,6 68,38 72,34 0,0 0,0 0,0 0,0 3,-68 3,-146 0,-50 0,-97 0,-147 3,0 3,3 6,3 6,3 9,3 9,6 0,0 0,25 0,147 0,47 0,97 0,144 0,3 3,3 3,3 4,6 4,6 35,22 31,15 34,15 37,12 0,0 0,0 0,0 0,0 0,-65 0,-147 3,-47 3,-97 3,-143 10,3 16,6 25,12 29,13 29,13 32,9 0,0 0,-3 0,-6 0,0 -22,-53 -47,-115 -38,-91 -47,-113 -50,-113 0,0 -6,6 -28,34 -13,22 -25,38 -25,38 0,0 0,-28 0,-72 0,-25 0,-47 0,-72 9,6 15,10 25,13 15,9 28,15 28,15 3,0 6,-6 3,-9 0,-3 -13,-38 -31,-78 -16,-41 -32,-75 -32,-75 0,-3 7,-66 16,-141 9,-72 16,-134 16,-137 0,0 0,0 0,-3 -3,0 -13,3 -28,9 0,0 0,0 0,0l0 0zm-260 109c0,3 -12,19 -12,19 0,0 -3,-6 -3,-12 3,-7 3,-13 3,-13 0,-3 9,3 12,6 0,0 0,0 0,0l0 0zm0 169c0,16 0,34 0,50 -3,3 -3,6 -6,9 -6,4 -9,10 -9,10 0,0 0,-25 0,-66 0,-19 0,-40 0,-62 3,3 6,3 9,6 3,0 6,3 9,3 0,16 0,34 -3,50zm-150 -75c0,3 -50,72 -53,72 0,0 0,-13 0,-47 0,-25 0,-47 0,-50 3,0 6,3 28,13 13,6 25,12 25,12 0,0 0,0 0,0l0 0zm-37 175c0,0 0,6 0,56 0,19 0,38 0,57 0,0 -3,3 -3,3 -4,3 -13,6 -16,6 0,0 0,-6 0,-66 3,-50 3,-65 3,-65 0,0 13,6 16,9 0,0 0,0 0,0zm90 47c3,0 -12,12 -12,9 0,0 0,0 0,-9 0,-6 0,-9 0,-9 0,0 12,6 12,9zm-281 50c0,31 0,62 -3,94 0,0 0,0 0,0 -6,3 -13,3 -16,3 0,0 0,-3 0,-100 3,-31 3,-63 3,-97 4,3 7,3 10,6 3,0 6,3 6,3 0,32 0,63 0,91 0,0 0,0 0,0l0 0zm94 9c0,19 0,38 0,53 -3,4 -3,4 -6,4 -7,3 -10,3 -10,3 -3,0 -3,-10 0,-60 0,-31 0,-59 0,-59 0,-3 3,-3 10,3 3,0 6,3 9,3 0,19 -3,38 -3,53 0,0 0,0 0,0z"/>
      </g>
     </g>
     <g id="_2722427336912">
      <g id="g1505">
       <path id="path1503" class="fil18 str2" d="M3795 -1029c-97,28 -163,50 -172,57 -3,3 -3,6 -3,6 0,0 6,15 19,40 9,22 18,41 18,41 0,3 -12,25 -21,44 -4,0 -4,3 -4,3 -6,-13 -12,-25 -15,-38 -10,-18 -22,-50 -28,-62 -10,-25 -13,-31 -13,-31 -3,0 -6,3 -9,6 -3,6 -6,9 -6,9 0,0 -19,-40 -38,-90 -31,-72 -37,-88 -37,-88 -4,-3 -13,10 -50,63 -29,37 -50,68 -50,68 0,0 0,4 0,7 3,3 3,3 31,15 22,13 28,16 28,19 0,0 0,66 0,131 -3,66 -3,132 -3,132 0,0 -13,-29 -25,-63 -10,-19 -19,-41 -25,-59 0,-3 0,-7 0,-7 0,-3 0,-6 0,-6 -3,-9 -6,-15 -10,-22 -6,-12 -25,-62 -46,-112 -29,-75 -38,-94 -38,-94 -3,0 -9,6 -28,34 -16,22 -38,50 -50,69 -19,25 -22,31 -22,35 0,6 0,6 31,21 10,7 19,10 28,13 -3,34 -3,66 -3,100 0,81 0,97 -3,97 0,0 -9,-28 -25,-60 -22,-59 -25,-65 -28,-65 0,-3 -12,15 -28,34 -13,19 -25,38 -28,38 0,0 0,-22 3,-144 0,-50 0,-97 3,-144 9,3 19,10 28,13 28,12 28,15 28,12 0,0 3,-3 3,-3 0,-3 -15,-41 -68,-169 -19,-43 -25,-62 -25,-62 -3,0 -16,15 -85,103 -9,16 -18,28 -18,31 0,0 0,3 3,3 0,3 0,7 28,19 22,9 28,16 28,16 0,0 0,37 0,90 -3,57 -3,135 -6,219 0,50 0,103 -3,153 0,53 0,103 0,156 0,4 0,4 0,4 3,6 3,6 37,21 28,13 31,16 34,16 4,-3 4,-6 4,-9 0,-7 0,-7 9,-3 9,0 9,0 9,9 0,6 0,9 0,12 3,4 3,4 38,22 31,16 34,16 37,13 0,0 0,0 0,0 0,-10 0,-16 3,-25 0,-16 0,-22 0,-22 0,-3 13,-3 16,-3 0,0 0,3 0,28 0,16 0,28 0,31 3,6 3,6 38,25 37,16 37,16 40,10 0,0 0,-25 0,-50 0,-19 0,-35 0,-50 0,-4 3,-4 3,-4 3,0 13,-3 16,0 0,0 0,10 0,57 0,31 0,56 0,56 0,6 3,9 37,25 29,16 32,16 35,16 0,0 3,0 3,0 0,0 0,-41 0,-88 0,-31 3,-59 3,-87 3,-4 3,-4 6,-4 7,-3 10,-3 10,-3 0,3 0,32 0,97 0,28 0,60 0,91 0,3 0,3 3,6 0,3 3,3 34,19 13,6 22,9 35,15 0,0 0,0 3,-3 0,0 0,0 0,0 0,-43 0,-87 3,-131 0,-44 0,-87 0,-131 3,0 6,-3 9,-3 3,-3 6,-7 6,-3 0,0 0,62 0,137 0,47 0,94 0,138 0,3 0,3 0,6 4,0 4,3 4,3 9,6 21,12 34,16 31,18 34,18 34,15 3,0 3,0 3,0 0,-62 0,-125 0,-187 4,-103 4,-188 4,-188 0,-3 15,-15 15,-15 0,0 0,87 0,196 0,107 0,197 0,200 0,10 3,10 38,25 28,16 34,16 34,16 3,0 3,0 3,0 0,0 0,-109 0,-244 3,-81 3,-159 3,-237 3,0 7,0 10,3 3,0 3,3 6,3 0,81 0,159 0,241 0,131 0,240 0,243 0,0 0,0 3,4 3,3 66,34 69,34 3,-3 3,-3 3,-3 0,0 0,-66 0,-147 0,-47 0,-97 0,-144 3,0 6,0 9,3 3,0 7,3 10,3 0,4 0,25 0,147 0,50 0,97 0,147 0,0 0,3 3,3 0,3 3,7 34,19 31,16 31,19 35,16 0,0 3,-3 3,-3 0,0 0,-66 0,-144 0,-50 0,-97 0,-147 9,6 18,9 28,12 28,16 28,16 28,13 3,0 3,-3 3,-6 -3,-3 -22,-53 -50,-116 -37,-94 -47,-112 -47,-112 -3,-4 -6,3 -28,34 -12,22 -25,37 -25,34 -3,0 -3,-25 -3,-72 0,-21 0,-46 0,-68 9,3 19,9 28,12 13,6 25,13 28,13 3,0 3,-3 3,-10 0,0 -15,-34 -31,-75 -19,-40 -31,-75 -31,-78 0,0 6,-62 15,-137 7,-75 16,-138 16,-138 0,0 -3,-3 -3,-3 0,0 -13,3 -25,6 0,0 0,0 0,0l0 0zm-263 113c0,0 -9,19 -12,15 0,0 0,-3 0,-12 0,-6 0,-13 0,-13 3,0 12,7 12,10 0,0 0,0 0,0l0 0zm4 169c0,15 0,31 0,46 -4,4 -7,7 -10,10 -3,6 -6,9 -6,9 0,0 -3,-25 0,-62 0,-22 0,-41 0,-63 3,0 6,3 6,3 3,3 6,3 10,7 0,15 0,31 0,50l0 0zm-154 -75c0,3 -50,71 -50,68 0,0 0,-12 0,-47 0,-25 0,-46 0,-46 0,0 7,0 25,12 16,6 25,13 25,13 0,0 0,0 0,0l0 0zm-37 171c3,4 3,10 3,60 0,19 -3,37 -3,56 0,0 0,0 0,0 -3,3 -16,9 -16,9 0,0 0,-9 0,-65 0,-53 0,-66 0,-66 3,0 16,6 16,6 0,0 0,0 0,0zm94 47c0,3 -13,13 -16,13 0,0 0,-3 0,-10 0,-6 0,-9 0,-12 3,0 16,9 16,9zm-282 53c-3,32 -3,63 -3,94 0,0 0,0 -3,0 -6,0 -12,3 -12,0 -3,0 -3,-3 0,-97 0,-31 0,-65 3,-97 0,0 3,4 6,4 3,3 6,3 9,6 0,28 0,59 0,90 0,0 0,0 0,0l0 0zm94 10c0,19 0,34 0,53 -3,0 -6,3 -9,3 -3,3 -6,3 -10,3 0,-3 0,-9 0,-59 0,-35 4,-60 4,-60 0,-3 0,-3 9,0 0,4 3,4 6,7 0,15 0,34 0,53 0,0 0,0 0,0z"/>
      </g>
     </g>
     <polyline id="polyline1508" class="fil1 str2" points="1714,-2269 2945,-1644 2939,-469 2986,-504 2992,-1676 1757,-2304 "/>
     <line id="line1510" class="fil1 str3" x1="4386" y1="-2060" x2="7854" y2= "-326" />
     <line id="line1512" class="fil1 str2" x1="2945" y1="-1644" x2="2992" y2= "-1676" />
     <polygon id="polygon1514" class="fil19" points="2942,-747 2942,-647 2939,-469 2986,-504 2992,-1676 2945,-1644 "/>
     <line id="line1516" class="fil1 str0" x1="1211" y1="1703" x2="4470" y2= "3331" />
     <g id="_2722427332048">
      <path id="path1518" class="fil20 str4" d="M8042 2584c-3,6 -31,115 -28,128 18,12 18,16 25,0 3,-22 9,-41 12,-63 3,-3 3,-9 6,-9 10,31 19,59 29,91 3,12 6,22 15,28 16,9 16,-6 28,-31 3,-10 13,-38 19,-41 0,0 3,0 3,0 0,3 0,3 0,3 0,3 0,9 3,13 0,6 0,9 3,15 10,63 7,78 35,85 3,-10 -16,-97 -19,-119 -3,-13 -6,-25 -9,-38 -3,-6 -13,-12 -19,-12 -6,0 -13,22 -19,34 -3,10 -6,16 -12,25 0,6 -7,22 -13,25 -3,-9 -15,-53 -22,-69 -3,-9 -6,-21 -9,-31 -6,-25 -3,-28 -28,-34l0 0z"/>
      <path id="path1520" class="fil20 str4" d="M8276 2746c-25,-34 -78,-56 -78,3 0,25 13,50 25,63 22,25 38,22 53,22 3,12 6,15 19,19 0,0 3,0 6,0 3,-7 3,-88 0,-100 -6,-10 -12,-13 -22,-13 0,3 -3,6 -3,6l0 0zm-31 -3c41,10 44,78 12,72 -37,-12 -46,-81 -12,-72z"/>
      <path id="path1522" class="fil20 str4" d="M8329 2756c-3,9 -3,90 0,103 50,47 -3,-81 47,-60 10,7 16,13 19,4 3,-10 3,-13 -6,-19 -19,-13 -25,-6 -35,-3 0,-3 0,-22 -25,-25z"/>
      <path id="path1524" class="fil20 str4" d="M8407 2815c0,19 0,38 0,56 0,47 16,50 35,57 3,-29 -6,-19 -10,-35 0,-3 0,-50 0,-59 0,-19 0,-19 -15,-28 -10,-3 -10,0 -10,9l0 0z"/>
      <path id="path1526" class="fil20 str4" d="M8414 2771c-13,0 -7,32 12,35 13,0 3,-35 -12,-35z"/>
      <path id="path1528" class="fil20 str4" d="M8526 2871c-34,-40 -78,-50 -78,3 0,25 9,47 25,63 22,25 38,22 56,22 0,15 13,19 22,22 3,-10 3,-91 0,-103 -6,-7 -15,-16 -22,-13 -3,3 0,3 -3,6l0 0zm-31 -6c37,9 47,81 12,75 -37,-9 -46,-81 -12,-75z"/>
      <path id="path1530" class="fil20 str4" d="M8601 2862c-12,-6 -15,-9 -15,6 0,35 0,69 0,103 0,35 -4,28 25,44 15,6 34,16 50,22 59,16 62,-84 9,-134 -13,-13 -28,-19 -44,-29 -9,-3 -15,-9 -25,-12l0 0zm0 119c0,-16 0,-85 3,-100 38,12 85,37 85,97 0,31 -10,43 -28,40 -10,0 -22,-6 -35,-12 -12,-7 -25,-7 -25,-25z"/>
      <path id="path1532" class="fil20 str4" d="M8736 2931c-10,-3 -13,-3 -13,6 0,22 -3,122 0,137 9,7 56,29 72,35 9,3 19,9 28,6 16,-9 19,-47 -9,-72 6,-6 12,-3 15,-12 3,-10 0,-22 -3,-35 -12,-31 -62,-50 -90,-65l0 0zm3 18c15,10 31,16 47,22 15,10 28,19 28,41 -3,19 -16,16 -32,6 -18,-9 -21,-9 -43,-22 0,-15 0,-31 0,-47l0 0zm0 85c0,-13 -3,-22 9,-19 19,9 66,28 69,59 0,29 -13,25 -35,16 -53,-28 -43,-16 -43,-56z"/>
     </g>
     <g id="_2722427324752">
      <path id="path1535" class="fil21" d="M8323 912c-25,-9 -16,3 -72,-9 -56,-10 -125,-50 -187,-50 -91,3 -144,78 -197,156 -53,81 -103,162 -185,178 -125,25 -246,-31 -359,-44 -75,-9 -153,10 -222,47 -50,28 -53,75 -106,116 -59,47 -228,-113 -306,-41 25,44 34,59 84,75 -9,19 -72,9 -59,50 12,44 159,141 290,109 63,-15 113,-56 207,-25 125,44 268,147 412,247 -22,66 -62,97 -97,141 -12,9 22,28 56,37 66,13 113,19 163,10 62,-13 72,-119 147,-106 40,100 153,175 225,146 -63,-53 -78,-221 -60,-281 22,-59 41,-156 60,-234 22,-85 28,-200 56,-238 38,-53 81,-56 119,-78 37,-22 72,-47 69,-140 0,-32 -13,-54 -38,-66 0,0 0,0 0,0z"/>
      <path id="path1537" class="fil0" d="M6742 1396c94,66 150,75 228,75 62,-3 125,-43 203,-34 109,12 234,116 353,184 28,19 56,32 88,44 43,-12 43,-137 84,-128 0,175 -59,253 -122,322 131,37 210,-16 263,-113 15,-28 28,-62 40,-97 19,25 10,75 19,107 88,-16 141,-128 172,-253 41,-144 56,-300 81,-338 25,-34 63,-44 100,-56 38,-13 75,-31 81,-94 -43,-25 -53,-44 -59,-72 -22,3 -41,-3 -62,-12 -19,-10 -41,-22 -66,-32 -209,-78 -238,194 -372,288 -9,6 -19,12 -31,16 -47,21 -106,21 -160,21 -84,-3 -168,-43 -246,-46 -60,-7 -122,3 -169,18 -13,3 -25,10 -35,13 -31,15 -50,37 -65,62 -19,25 -38,50 -66,69 -44,31 -212,-91 -272,-69 -6,3 -12,7 -15,13 34,34 53,34 90,56 7,47 -75,31 -62,56 0,0 0,0 0,0l0 0zm1275 328c3,50 25,160 47,194 -41,-6 -110,-62 -128,-106 9,-47 56,-69 81,-88 0,0 0,0 0,0l0 0z"/>
      <path id="path1539" class="fil21" d="M8076 971c28,47 94,53 81,-15 -46,-28 -71,-22 -81,15zm206 32c-6,15 -21,34 -21,87 0,9 -7,13 -7,-3 0,-50 13,-66 25,-88 3,-9 7,-3 3,4z"/>
      <path id="path1541" class="fil21" d="M8276 990c-9,16 -31,41 -37,91 0,6 -7,9 -3,-3 3,-50 21,-72 34,-91 6,-9 9,-3 6,3zm-6 -12c-13,12 -47,37 -53,84 -3,9 -10,9 -6,-3 6,-44 37,-69 53,-88 6,-6 9,0 6,7l0 0zm-9 -16c-13,9 -54,44 -66,87 -3,7 -9,7 -6,-3 12,-43 50,-75 68,-90 7,-7 10,3 4,6l0 0z"/>
     </g>
     <g id="_2722427322448">
      <path id="path1544" class="fil21 str5" d="M6761 1549c-10,10 -54,191 -50,213 31,22 34,28 40,-3 10,-35 16,-66 25,-100 0,-6 0,-13 6,-19 16,50 32,103 47,153 7,19 10,35 28,44 25,12 25,-13 44,-50 6,-16 22,-59 35,-69 0,3 0,3 0,3 0,0 3,3 3,3 0,7 3,13 3,22 3,10 3,16 6,25 19,103 13,128 59,138 4,-16 -28,-156 -34,-194 -6,-22 -9,-44 -16,-62 -3,-10 -18,-19 -28,-19 -12,-3 -22,34 -31,56 -6,13 -12,25 -19,38 -3,9 -12,37 -22,40 -6,-12 -28,-87 -34,-109 -6,-19 -12,-35 -19,-53 -12,-38 -6,-44 -43,-57l0 0z"/>
      <path id="path1546" class="fil21 str5" d="M7145 1818c-41,-56 -131,-94 -131,6 0,41 18,79 40,104 38,37 63,31 91,34 3,16 6,25 28,31 3,0 6,0 9,0 7,-9 7,-144 4,-169 -13,-12 -22,-15 -38,-18 0,3 -3,9 -3,12l0 0zm-53 -6c65,12 75,131 22,116 -63,-16 -78,-132 -22,-116z"/>
      <path id="path1548" class="fil21 str5" d="M7229 1831c-3,18 -3,150 0,172 85,75 -3,-132 82,-97 15,6 21,15 28,3 6,-16 3,-22 -10,-31 -31,-22 -43,-10 -56,-4 -3,-6 0,-37 -44,-43z"/>
      <path id="path1550" class="fil21 str5" d="M7357 1931c0,31 0,62 0,93 0,75 29,79 60,88 3,-47 -10,-28 -16,-53 -3,-10 -3,-85 -3,-100 3,-28 3,-28 -25,-44 -12,-6 -16,0 -16,16l0 0z"/>
      <path id="path1552" class="fil21 str5" d="M7367 1859c-19,0 -6,53 22,53 22,0 9,-56 -22,-53z"/>
      <path id="path1554" class="fil21 str5" d="M7554 2021c-59,-68 -131,-78 -131,7 3,40 19,78 44,103 34,40 62,34 90,34 0,28 22,34 38,34 3,-12 3,-146 0,-168 -9,-10 -28,-25 -34,-16 -7,3 0,3 -7,6l0 0zm-53 -6c63,13 78,131 25,119 -62,-16 -81,-131 -25,-119z"/>
      <path id="path1556" class="fil21 str5" d="M7676 2006c-19,-7 -25,-16 -25,9 0,59 0,116 0,172 0,56 -3,47 44,69 25,12 53,31 78,37 97,28 106,-137 19,-219 -22,-18 -47,-34 -75,-46 -13,-7 -28,-13 -41,-22zm3 197c0,-25 -3,-141 0,-169 63,25 141,65 141,162 0,50 -16,72 -47,69 -16,-3 -34,-12 -56,-22 -22,-12 -38,-12 -38,-40l0 0z"/>
      <path id="path1558" class="fil21 str5" d="M7895 2121c-16,-6 -19,-9 -19,10 0,34 -3,200 3,222 13,12 91,50 113,59 19,6 34,12 47,9 28,-15 31,-78 -13,-118 10,-7 16,-4 22,-19 6,-16 6,-38 -3,-53 -19,-57 -100,-85 -150,-110l0 0zm9 32c25,12 50,25 75,34 25,16 47,31 44,66 0,31 -25,25 -47,12 -31,-16 -40,-16 -72,-37 0,-25 0,-50 0,-75zm-3 137c0,-22 -6,-41 16,-31 34,15 109,44 112,97 3,43 -22,40 -53,25 -90,-44 -75,-28 -75,-91l0 0z"/>
     </g>
    </g>
   </g>
  </g>
 </g>
</svg>
