<?xml version="1.0" encoding="UTF-8" standalone="no"?>
<!-- Creator: CorelDRAW X8 -->

<svg
   xml:space="preserve"
   width="5770.8999"
   height="3496.3386"
   version="1.1"
   style="clip-rule:evenodd;fill-rule:evenodd;image-rendering:optimizeQuality;shape-rendering:geometricPrecision;text-rendering:geometricPrecision"
   viewBox="0 0 5770.8999 3496.3386"
   id="svg95"
   sodipodi:docname="bodymain.svg"
   inkscape:version="1.1.1 (3bf5ae0d25, 2021-09-20)"
   xmlns:inkscape="http://www.inkscape.org/namespaces/inkscape"
   xmlns:sodipodi="http://sodipodi.sourceforge.net/DTD/sodipodi-0.dtd"
   xmlns="http://www.w3.org/2000/svg"
   xmlns:svg="http://www.w3.org/2000/svg"><sodipodi:namedview
   id="namedview97"
   pagecolor="#ffffff"
   bordercolor="#666666"
   borderopacity="1.0"
   inkscape:pageshadow="2"
   inkscape:pageopacity="0.0"
   inkscape:pagecheckerboard="0"
   showgrid="false"
   inkscape:zoom="0.080934643"
   inkscape:cx="2940.6443"
   inkscape:cy="2718.2427"
   inkscape:window-width="1366"
   inkscape:window-height="705"
   inkscape:window-x="-8"
   inkscape:window-y="-8"
   inkscape:window-maximized="1"
   inkscape:current-layer="Capa_x0020_1" />
 <defs
   id="defs44">
  <style
   type="text/css"
   id="style2">
   <![CDATA[
    .str2 {stroke:#CCCCCC;stroke-width:2.36229}
    .str1 {stroke:#BDBDBD;stroke-width:1.18114}
    .str0 {stroke:#5F94BA;stroke-width:0.900031}
    .fil13 {fill:#6B809B}
    .fil10 {fill:#6B809B}
    .fil12 {fill:#BAB1B1}
    .fil15 {fill:#CCCCCC}
    .fil11 {fill:#CCCCCC}
    .fil9 {fill:#E5E4ED}
    .fil5 {fill:white}
    .fil16 {fill:black;fill-rule:nonzero}
    .fil0 {fill:#3290B5;fill-rule:nonzero}
    .fil4 {fill:url(#id0)}
    .fil7 {fill:url(#id1)}
    .fil1 {fill:url(#id2)}
    .fil3 {fill:url(#id3)}
    .fil6 {fill:url(#id4)}
    .fil14 {fill:url(#id5)}
    .fil2 {fill:url(#id6)}
    .fil8 {fill:url(#id7)}
   ]]>
  </style>
  <linearGradient
   id="id0"
   gradientUnits="userSpaceOnUse"
   x1="-846.23199"
   y1="1718.29"
   x2="4923.79"
   y2="1718.29">
   <stop
   offset="0"
   style="stop-opacity:1; stop-color:#E89223"
   id="stop4" />
   <stop
   offset="1"
   style="stop-opacity:1; stop-color:#FFF200"
   id="stop6" />
  </linearGradient>
  <linearGradient
   id="id1"
   gradientUnits="userSpaceOnUse"
   x1="4165.3501"
   y1="1000.64"
   x2="4615.7402"
   y2="1000.64"
   gradientTransform="matrix(0.738192,0,0,0.738192,995.21671,130.04257)">
   <stop
   offset="0"
   style="stop-opacity:1; stop-color:#EFAF19"
   id="stop9" />
   <stop
   offset="1"
   style="stop-opacity:1; stop-color:#F7C010"
   id="stop11" />
  </linearGradient>
  <linearGradient
   id="id2"
   gradientUnits="userSpaceOnUse"
   x1="-842.94098"
   y1="1250.4"
   x2="4801.5098"
   y2="1250.4">
   <stop
   offset="0"
   style="stop-opacity:1; stop-color:#0A7AA7"
   id="stop14" />
   <stop
   offset="1"
   style="stop-opacity:1; stop-color:white"
   id="stop16" />
  </linearGradient>
  <linearGradient
   id="id3"
   gradientUnits="userSpaceOnUse"
   x1="-843.02899"
   y1="2194.3899"
   x2="4801.4199"
   y2="2194.3899">
   <stop
   offset="0"
   style="stop-opacity:1; stop-color:#3583AE"
   id="stop19" />
   <stop
   offset="1"
   style="stop-opacity:1; stop-color:white"
   id="stop21" />
  </linearGradient>
  <linearGradient
   id="id4"
   gradientUnits="userSpaceOnUse"
   x1="3170.4399"
   y1="33.630699"
   x2="3620.8301"
   y2="33.630699"
   gradientTransform="matrix(0.738192,0,0,0.738192,995.21671,130.04257)">
   <stop
   offset="0"
   style="stop-opacity:1; stop-color:#F6BC19"
   id="stop24" />
   <stop
   offset="1"
   style="stop-opacity:1; stop-color:#FEED02"
   id="stop26" />
  </linearGradient>
  <linearGradient
   id="id5"
   gradientUnits="userSpaceOnUse"
   x1="3060.4399"
   y1="451.552"
   x2="4230.4502"
   y2="451.552"
   gradientTransform="matrix(0.738192,0,0,0.738192,995.21671,130.04257)">
   <stop
   offset="0"
   style="stop-opacity:1; stop-color:#99FFFF"
   id="stop29" />
   <stop
   offset="1"
   style="stop-opacity:1; stop-color:#A4DDE3"
   id="stop31" />
  </linearGradient>
  <linearGradient
   id="id6"
   gradientUnits="userSpaceOnUse"
   x1="3920.22"
   y1="300.23901"
   x2="4698.1401"
   y2="300.23901"
   gradientTransform="matrix(0.738192,0,0,0.738192,995.21671,130.04257)">
   <stop
   offset="0"
   style="stop-opacity:1; stop-color:#F6CE0D"
   id="stop34" />
   <stop
   offset="1"
   style="stop-opacity:1; stop-color:#F7C010"
   id="stop36" />
  </linearGradient>
  <linearGradient
   id="id7"
   gradientUnits="userSpaceOnUse"
   x1="2864.45"
   y1="1100.89"
   x2="3314.8401"
   y2="1100.89"
   gradientTransform="matrix(0.738192,0,0,0.738192,995.21671,130.04257)">
   <stop
   offset="0"
   style="stop-opacity:1; stop-color:#F2BC14"
   id="stop39" />
   <stop
   offset="1"
   style="stop-opacity:1; stop-color:#F7C010"
   id="stop41" />
  </linearGradient>
 </defs>
 <g
   id="Capa_x0020_1"
   inkscape:label="Capa 1"
   inkscape:groupmode="layer"
   transform="translate(846.45002,1005)">
  <metadata
   id="CorelCorpID_0Corel-Layer" />
  <path
   class="fil0"
   d="m 136.3377,6.531975 c -7.42243,0 -14.84487,-0.8247149 -21.44259,-2.4741445 -6.59771,-2.474145 -12.37072,-4.948289 -17.31901,-9.071863 l 6.59772,-13.1954385 c 4.94829,4.123575 9.89658,6.597719 14.84487,8.2471495 5.773,1.649429 11.54601,2.474144 17.31901,2.474144 6.59772,0 12.37072,-1.649429 15.66958,-3.2988595 4.12358,-2.474145 5.77301,-5.773004 5.77301,-10.721293 0,-3.298859 -1.64943,-6.597719 -4.94829,-8.247148 -3.29886,-2.474145 -9.07187,-4.123574 -17.31901,-5.773004 -8.24715,-1.64943 -14.84487,-4.123574 -19.79316,-5.773004 -5.773,-2.474144 -9.07186,-5.773004 -12.37072,-9.071863 -2.47415,-4.123574 -3.29886,-8.247148 -3.29886,-14.020152 0,-5.773004 1.64943,-11.546008 4.94829,-15.669582 2.47414,-4.948289 7.42243,-8.247149 13.19543,-10.721289 5.77301,-2.47415 12.37073,-4.12358 19.79316,-4.12358 7.42243,0 14.02015,0.82472 19.79316,3.29886 6.59771,1.64943 11.546,4.94829 15.66958,8.24715 l -5.77301,13.195437 c -9.07186,-6.597719 -18.96844,-9.896578 -29.68973,-9.896578 -5.773,0 -11.54601,0.824715 -14.84487,3.298859 -4.12357,2.474145 -5.773,6.597719 -5.773,10.721293 0,4.123574 1.64943,7.422434 4.94829,9.071863 3.29886,2.474145 9.07186,4.123574 17.31901,5.773004 8.24715,1.64943 14.84487,4.123574 19.79316,6.597719 5.773,1.649429 9.07186,4.948289 12.37072,8.247148 2.47414,4.123574 4.12357,8.247148 4.12357,14.020152 0,5.773004 -1.64943,10.721293 -4.94829,15.6695825 -3.29886,4.123574 -7.42243,7.422434 -14.02015,9.8965781 -5.773,2.4741445 -12.37072,3.2988594 -20.61787,3.2988594 z m 115.46007,-32.163879 h -47.00874 c 0,6.597719 2.47415,11.546008 5.77301,14.020152 3.29885,3.2988595 7.42243,4.9482895 14.02015,4.9482895 7.42243,0 14.02015,-2.474144 20.61787,-7.4224335 l 4.94828,12.3707225 c -3.29885,2.474145 -7.42243,4.1235743 -11.546,5.773004 -4.94829,1.6494296 -9.89658,2.4741445 -14.84487,2.4741445 -11.546,0 -20.61787,-3.2988594 -27.21559,-9.0718635 -5.773,-6.597718 -9.07186,-15.6695825 -9.07186,-26.3908745 0,-7.422434 0.82471,-13.195438 4.12357,-18.968442 2.47415,-4.948289 6.59772,-9.896578 11.54601,-12.370722 4.94829,-3.298859 10.72129,-4.948289 17.31901,-4.948289 9.89658,0 17.31901,3.298859 23.09202,9.071863 4.94829,6.597719 8.24714,14.844867 8.24714,25.56616 z m -30.51444,-27.21559 c -4.94829,0 -8.24715,1.64943 -11.54601,4.948289 -2.47414,2.474145 -4.94829,7.422434 -4.94829,13.195438 h 31.33916 c 0,-5.773004 -1.64943,-10.721293 -4.12357,-13.195438 -2.47415,-3.298859 -6.59772,-4.948289 -10.72129,-4.948289 z m 89.89391,2.474145 -10.72129,0.824715 c -11.54601,1.649429 -17.31901,7.422433 -17.31901,18.143726 V 5.7072601 H 265.81793 V -63.568786 h 16.49429 v 12.370722 c 4.12358,-8.247148 11.54601,-12.370722 22.2673,-13.195437 l 5.77301,-0.824715 z m 61.0289,-12.370723 h 17.31901 L 359.83542,5.7072601 H 344.16584 L 314.4761,-62.744072 h 18.14373 l 19.79315,48.658176 z M 397.7723,5.7072601 V -63.568786 h 18.14373 V 5.7072601 Z M 396.94759,-94.907952 h 19.79315 v 17.319013 H 396.94759 Z M 465.39892,6.531975 c -7.42244,0 -14.02016,-0.8247149 -18.96844,-4.1235742 -4.94829,-3.2988593 -9.07187,-7.4224333 -12.37073,-12.3707223 -2.47414,-5.7730045 -4.12357,-11.5460085 -4.12357,-18.9684415 0,-6.597719 1.64943,-13.195438 4.94829,-18.968442 2.47414,-4.948289 6.59772,-9.896578 12.37072,-12.370722 4.94829,-3.298859 11.54601,-4.948289 18.96844,-4.948289 4.94829,0 9.07186,0.824715 14.02015,2.474144 4.94829,1.64943 8.24715,4.123575 11.54601,6.597719 l -5.773,12.370723 c -2.47415,-2.474145 -5.77301,-4.123575 -9.07187,-5.773004 -3.29886,-0.824715 -6.59771,-1.64943 -9.07186,-1.64943 -6.59772,0 -11.54601,1.64943 -14.84487,5.773004 -3.29886,4.123574 -4.94829,9.071863 -4.94829,16.494297 0,6.597718 1.64943,12.370722 4.94829,16.494296 3.29886,3.2988605 8.24715,5.7730045 14.84487,5.7730045 2.47415,0 5.773,-0.824715 9.07186,-2.474144 3.29886,-0.824715 6.59772,-2.4741455 9.07187,-4.9482895 l 5.773,12.3707225 c -3.29886,2.474145 -7.42243,4.9482891 -11.54601,5.773004 -4.94829,1.6494296 -9.89657,2.4741445 -14.84486,2.4741445 z M 502.51108,5.7072601 V -63.568786 H 519.8301 V 5.7072601 Z M 501.68637,-94.907952 h 19.79316 v 17.319013 H 501.68637 Z M 570.1377,6.531975 c -7.42243,0 -13.19544,-0.8247149 -18.96844,-4.1235742 -4.94829,-3.2988593 -9.07186,-7.4224333 -12.37072,-12.3707223 -2.47415,-5.7730045 -4.12358,-11.5460085 -4.12358,-18.9684415 0,-7.422434 1.64943,-14.020153 4.12358,-18.968442 3.29886,-5.773003 7.42243,-9.896578 12.37072,-12.370722 5.773,-3.298859 11.54601,-4.948289 18.96844,-4.948289 6.59772,0 13.19544,1.64943 18.14373,4.948289 5.773,2.474144 9.07186,6.597719 12.37072,12.370722 2.47414,4.948289 4.12357,11.546008 4.12357,18.968442 0,7.422433 -1.64943,13.195437 -4.12357,18.9684415 -3.29886,4.948289 -6.59772,9.071863 -12.37072,12.3707223 -4.94829,3.2988593 -11.54601,4.1235742 -18.14373,4.1235742 z m -0.82471,-13.1954375 c 5.773,0 10.72129,-2.474144 13.19543,-5.7730045 3.29886,-4.123574 4.94829,-9.071863 4.94829,-16.494296 0,-7.422434 -1.64943,-13.195438 -4.94829,-16.494297 -2.47414,-4.123574 -7.42243,-5.773004 -12.37072,-5.773004 -5.773,0 -9.89658,1.64943 -13.19544,5.773004 -3.29886,3.298859 -4.94829,9.071863 -4.94829,16.494297 0,7.422433 1.64943,12.370722 4.94829,16.494296 2.47415,3.2988605 7.42244,5.7730045 12.37073,5.7730045 z M 645.18675,6.531975 c -6.59772,0 -12.37072,-0.8247149 -17.31901,-1.6494297 -4.94829,-1.6494297 -9.07186,-4.1235738 -13.19544,-6.5977188 l 4.94829,-12.3707225 c 7.42243,4.9482895 15.66958,8.2471485 25.56616,8.2471485 4.12357,0 6.59772,-0.824715 9.07186,-2.474145 2.47415,-0.824714 3.29886,-3.2988595 3.29886,-5.7730035 0,-1.64943 -0.82471,-3.29886 -2.47414,-4.123575 -1.64943,-1.649429 -4.12358,-2.474144 -7.42244,-3.298859 l -11.546,-2.474144 c -6.59772,-1.64943 -10.7213,-4.123575 -14.02016,-7.422434 -3.29885,-3.298859 -4.94828,-7.422433 -4.94828,-12.370722 0,-4.123575 1.64943,-7.422434 4.12357,-10.721293 1.64943,-3.29886 4.94829,-5.773004 9.89658,-7.422434 4.12357,-2.474144 9.07186,-3.298859 14.84486,-3.298859 4.94829,0 9.07187,0.824715 14.02016,2.474144 4.12357,1.64943 8.24715,3.29886 11.546,6.597719 l -4.94828,11.546008 c -6.59772,-4.948289 -14.02016,-7.422434 -20.61788,-7.422434 -4.12357,0 -7.42243,0.824715 -9.07186,1.64943 -2.47414,1.64943 -3.29886,4.123574 -3.29886,6.597719 0,1.649429 0,3.298859 1.64943,4.123574 1.64943,1.649429 3.29886,2.474144 6.59772,3.298859 l 11.54601,2.474145 c 7.42243,1.649429 12.37072,4.123574 15.66958,7.422433 2.47414,2.474145 4.12357,7.422434 4.12357,12.370723 0,6.5977185 -2.47414,11.5460075 -7.42243,14.8448675 C 660.85633,4.8825453 653.4339,6.531975 645.18675,6.531975 Z M 125.61641,197.86581 V 112.92019 H 93.45253 V 98.075319 h 83.2962 v 14.844871 h -32.16388 v 84.94562 z m 111.3365,-31.33916 h -47.00875 c 0.82472,5.773 2.47415,10.72129 5.77301,14.02015 3.29886,3.29886 8.24715,4.94829 14.02015,4.94829 7.42243,0 14.84487,-2.47414 20.61787,-7.42243 l 5.773,11.54601 c -3.29886,3.29886 -7.42243,4.94829 -12.37072,6.59771 -4.94829,1.64943 -9.89658,2.47415 -14.84486,2.47415 -10.7213,0 -19.79316,-3.29886 -26.39088,-9.89658 -6.59772,-5.773 -9.89658,-14.84487 -9.89658,-25.56616 0,-7.42243 1.64943,-14.02015 4.12358,-18.96844 3.29886,-5.773 6.59772,-9.89658 12.37072,-13.19544 4.94829,-2.47414 10.72129,-4.12357 17.31901,-4.12357 9.07186,0 16.4943,3.29886 22.2673,9.07186 5.773,6.59772 8.24715,14.84487 8.24715,25.56616 z m -30.51445,-27.21559 c -4.12357,0 -8.24715,1.64943 -11.54601,4.94829 -2.47414,2.47415 -4.12357,6.59772 -4.94829,12.37072 h 32.16388 c -0.82471,-5.773 -1.64943,-9.89657 -4.12357,-13.19543 -3.29886,-2.47415 -6.59772,-4.12358 -11.54601,-4.12358 z m 75.87376,59.37947 c -6.59772,0 -13.19543,-1.64943 -18.14372,-4.12357 -5.77301,-3.29886 -9.89658,-7.42244 -12.37073,-12.37073 -3.29885,-5.773 -4.12357,-11.546 -4.12357,-18.96844 0,-7.42243 1.64943,-13.19543 4.12357,-18.96844 3.29886,-5.773 7.42244,-9.89658 12.37073,-13.19544 5.773,-2.47414 12.37072,-4.12357 18.96844,-4.12357 4.94829,0 9.89658,0.82472 14.84487,2.47415 4.12357,1.64942 8.24714,3.29885 10.72129,5.773 l -4.94829,12.37072 c -2.47415,-1.64943 -5.773,-4.12357 -9.07186,-4.94829 -3.29886,-0.82471 -6.59772,-1.64943 -9.89658,-1.64943 -5.77301,0 -10.72129,1.64943 -14.02015,5.77301 -3.29886,3.29886 -4.94829,9.07186 -4.94829,16.49429 0,6.59772 1.64943,12.37072 4.94829,15.66958 3.29886,4.12358 8.24714,5.77301 14.02015,5.77301 3.29886,0 6.59772,-0.82472 9.89658,-1.64943 3.29886,-0.82472 6.59771,-3.29886 9.07186,-4.94829 l 4.94829,11.54601 c -2.47415,3.29886 -6.59772,4.94829 -11.54601,6.59771 -4.12357,1.64943 -9.07186,2.47415 -14.84487,2.47415 z m 77.5232,-71.75019 c 8.24715,0 14.84486,2.47415 18.96844,7.42243 4.12357,4.12358 5.773,11.54601 5.773,20.61787 v 42.88517 h -17.31901 v -41.23574 c 0,-5.773 -1.64943,-9.89657 -3.29886,-12.37072 -2.47414,-2.47414 -4.94829,-3.29886 -9.89658,-3.29886 -4.94829,0 -9.07186,1.64943 -11.546,4.94829 -3.29886,3.29886 -4.94829,7.42244 -4.94829,12.37072 v 39.58631 h -17.31901 v -69.27604 h 17.31901 v 10.72129 c 1.64943,-4.12357 4.94829,-7.42243 9.07186,-9.07186 4.12357,-2.47414 8.24715,-3.29886 13.19544,-3.29886 z m 74.22433,71.75019 c -7.42243,0 -13.19543,-1.64943 -18.96844,-4.12357 -4.94829,-3.29886 -9.07186,-7.42244 -12.37072,-13.19544 -2.47415,-4.94829 -4.12358,-11.54601 -4.12358,-18.96844 0,-6.59772 1.64943,-13.19544 4.12358,-18.96844 3.29886,-4.94829 7.42243,-9.07187 12.37072,-12.37073 5.77301,-2.47414 11.54601,-4.12357 18.96844,-4.12357 6.59772,0 13.19544,1.64943 18.14373,4.12357 5.773,3.29886 9.89658,7.42244 12.37072,12.37073 3.29886,5.773 4.12358,12.37072 4.12358,18.96844 0,7.42243 -0.82472,14.02015 -4.12358,18.96844 -2.47414,5.773 -6.59772,9.89658 -12.37072,13.19544 -4.94829,2.47414 -11.54601,4.12357 -18.14373,4.12357 z m 0,-14.02015 c 5.77301,0 9.89658,-1.64943 12.37073,-4.94829 3.29885,-4.12358 4.94828,-9.89658 4.94828,-17.31901 0,-6.59772 -1.64943,-12.37072 -4.94828,-16.4943 -2.47415,-3.29886 -6.59772,-5.773 -12.37073,-5.773 -5.773,0 -9.89658,2.47414 -13.19543,5.773 -3.29886,4.12358 -4.94829,9.89658 -4.94829,16.4943 0,7.42243 1.64943,13.19543 4.94829,17.31901 3.29885,3.29886 7.42243,4.94829 13.19543,4.94829 z m 49.48289,13.19543 V 98.075319 h 17.31901 v 99.790491 z m 66.8019,0.82472 c -6.59771,0 -13.19543,-1.64943 -18.14372,-4.12357 -5.77301,-3.29886 -9.07187,-7.42244 -12.37072,-13.19544 -3.29886,-4.94829 -4.12358,-11.54601 -4.12358,-18.96844 0,-6.59772 0.82472,-13.19544 4.12358,-18.96844 3.29885,-4.94829 6.59771,-9.07187 12.37072,-12.37073 4.94829,-2.47414 11.54601,-4.12357 18.14372,-4.12357 7.42244,0 13.19544,1.64943 18.96845,4.12357 4.94828,3.29886 9.07186,7.42244 12.37072,12.37073 2.47414,5.773 4.12357,12.37072 4.12357,18.96844 0,7.42243 -1.64943,14.02015 -4.12357,18.96844 -3.29886,5.773 -7.42244,9.89658 -12.37072,13.19544 -5.77301,2.47414 -11.54601,4.12357 -18.96845,4.12357 z m 0,-14.02015 c 5.77301,0 9.89658,-1.64943 13.19544,-4.94829 3.29886,-4.12358 4.94829,-9.89658 4.94829,-17.31901 0,-6.59772 -1.64943,-12.37072 -4.94829,-16.4943 -3.29886,-3.29886 -7.42243,-5.773 -13.19544,-5.773 -4.94828,0 -9.89657,2.47414 -12.37072,5.773 -3.29886,4.12358 -4.94829,9.89658 -4.94829,16.4943 0,7.42243 1.64943,13.19543 4.12358,17.31901 3.29886,3.29886 7.42243,4.94829 13.19543,4.94829 z m 5.77301,-65.15247 h -10.72129 l 13.19543,-28.865024 h 18.14373 z m 111.3365,9.07186 v 62.67833 c 0,10.72129 -3.29886,18.96844 -9.07186,24.74144 -5.77301,4.94829 -14.84487,8.24715 -26.39088,8.24715 -5.773,0 -11.546,-0.82471 -17.31901,-2.47414 -5.773,-1.64943 -10.72129,-4.12358 -14.84487,-6.59772 l 4.94829,-12.37072 c 9.07187,4.94829 17.31901,7.42243 26.39088,7.42243 12.37072,0 18.96844,-5.773 18.96844,-18.14373 v -8.24715 c -2.47415,3.29886 -4.94829,6.59772 -9.07186,8.24715 -4.12358,2.47415 -9.07187,3.29886 -14.02016,3.29886 -5.773,0 -10.72129,-1.64943 -15.66958,-4.12357 -4.94829,-2.47415 -8.24715,-6.59772 -10.72129,-12.37073 -2.47415,-4.94829 -4.12358,-10.72129 -4.12358,-17.31901 0,-6.59772 0.82472,-13.19543 4.12358,-18.14372 2.47414,-4.94829 5.773,-9.07187 10.72129,-12.37073 4.94829,-2.47414 9.89658,-4.12357 15.66958,-4.12357 4.94829,0 9.89658,0.82472 14.02016,3.29886 4.12357,1.64943 6.59771,4.94829 9.07186,9.07186 v -10.72129 z m -35.46274,53.60646 c 5.77301,0 9.89658,-2.47414 13.19544,-5.773 3.29886,-3.29886 4.94829,-9.07186 4.94829,-14.84487 0,-6.59772 -1.64943,-11.546 -4.94829,-15.66958 -3.29886,-3.29886 -7.42243,-4.94829 -13.19544,-4.94829 -5.773,0 -9.89658,1.64943 -13.19543,4.94829 -3.29886,4.12358 -4.94829,9.07186 -4.94829,15.66958 0,5.77301 1.64943,10.72129 4.94829,14.84487 3.29885,3.29886 7.42243,5.773 13.19543,5.773 z m 53.60647,15.66958 v -69.27604 h 17.31901 v 69.27604 z M 684.77306,96.42589 h 18.96844 v 17.31901 h -18.96844 z m 67.62662,102.26464 c -6.59772,0 -13.19544,-1.64943 -18.14373,-4.12357 -5.773,-3.29886 -9.89658,-7.42244 -12.37072,-12.37073 -3.29886,-5.773 -4.12357,-11.546 -4.12357,-18.96844 0,-7.42243 0.82471,-13.19543 4.12357,-18.96844 3.29886,-5.773 7.42243,-9.89658 12.37072,-13.19544 5.77301,-2.47414 12.37072,-4.12357 18.96848,-4.12357 4.9483,0 9.8965,0.82472 14.8448,2.47415 4.1236,1.64942 8.2472,3.29885 10.7213,5.773 l -4.9483,12.37072 c -3.2988,-1.64943 -5.773,-4.12357 -9.0718,-4.94829 -3.2989,-0.82471 -6.5977,-1.64943 -9.8966,-1.64943 -5.77301,0 -10.7213,1.64943 -14.02016,5.77301 -3.29886,3.29886 -4.94829,9.07186 -4.94829,16.49429 0,6.59772 1.64943,12.37072 4.94829,15.66958 3.29886,4.12358 8.24715,5.77301 14.02016,5.77301 3.2989,0 6.5977,-0.82472 9.8966,-1.64943 3.2988,-0.82472 5.773,-3.29886 9.0718,-4.94829 l 4.9483,11.54601 c -2.4741,3.29886 -6.5977,4.94829 -11.546,6.59771 -4.9483,1.64943 -9.0718,2.47415 -14.84485,2.47415 z m 69.27605,0 c -7.4224,0 -13.1954,-1.64943 -18.9684,-4.12357 -4.9483,-3.29886 -9.0719,-7.42244 -12.3708,-13.19544 -2.4741,-4.94829 -4.1235,-11.54601 -4.1235,-18.96844 0,-6.59772 1.6494,-13.19544 4.1235,-18.96844 3.2989,-4.94829 7.4225,-9.07187 12.3708,-12.37073 5.773,-2.47414 11.546,-4.12357 18.9684,-4.12357 6.5977,0 13.1954,1.64943 18.1437,4.12357 5.773,3.29886 9.8966,7.42244 12.3707,12.37073 3.2989,5.773 4.1236,12.37072 4.1236,18.96844 0,7.42243 -0.8247,14.02015 -4.1236,18.96844 -2.4741,5.773 -6.5977,9.89658 -12.3707,13.19544 -4.9483,2.47414 -11.546,4.12357 -18.1437,4.12357 z m 0,-14.02015 c 5.773,0 9.8966,-1.64943 12.3707,-4.94829 3.2989,-4.12358 4.9483,-9.89658 4.9483,-17.31901 0,-6.59772 -1.6494,-12.37072 -4.9483,-16.4943 -2.4741,-3.29886 -6.5977,-5.773 -12.3707,-5.773 -5.773,0 -9.8966,2.47414 -13.1954,5.773 -3.2989,4.12358 -4.9483,9.89658 -4.9483,16.4943 0,7.42243 1.6494,13.19543 4.9483,17.31901 2.4741,3.29886 7.4224,4.94829 13.1954,4.94829 z m 75.049,14.02015 c -6.5977,0 -12.3707,-0.82472 -17.319,-2.47415 -4.9483,-1.64942 -9.0718,-3.29885 -13.1954,-6.59771 l 4.9483,-11.54601 c 7.4224,4.94829 15.6696,7.42243 25.5661,7.42243 4.1236,0 7.4225,-0.82471 9.0719,-1.64943 2.4742,-1.64943 3.2989,-3.29886 3.2989,-5.773 0,-1.64943 -0.8247,-3.29886 -2.4742,-4.94829 -0.8247,-0.82472 -4.1236,-1.64943 -7.4224,-3.29886 l -11.546,-2.47414 c -6.5977,-0.82472 -10.7213,-3.29886 -14.0202,-6.59772 -3.2988,-3.29886 -4.9483,-7.42243 -4.9483,-12.37072 0,-4.12358 1.6495,-8.24715 4.1236,-11.54601 2.4742,-3.29886 5.773,-5.77301 9.8966,-7.42243 4.1236,-1.64943 9.0719,-2.47415 14.8449,-2.47415 4.9482,0 9.0718,0.82472 14.0201,2.47415 4.9483,1.64942 8.2472,3.29885 12.3707,5.773 l -4.9483,12.37072 c -7.4224,-4.94829 -14.8448,-7.42243 -21.4425,-7.42243 -4.1236,0 -7.4225,0 -9.0719,1.64943 -2.4741,1.64943 -3.2989,3.29886 -3.2989,5.773 0,2.47415 0.8248,3.29886 1.6495,4.94829 1.6494,0.82472 4.1235,2.47414 6.5977,2.47414 l 11.546,3.29886 c 7.4224,0.82472 12.3707,3.29886 15.6696,6.59772 3.2988,3.29886 4.1235,7.42243 4.1235,13.19544 0,5.773 -2.4741,11.54601 -7.4224,14.84487 -4.9483,4.12357 -12.3707,5.773 -20.6179,5.773 z"
   id="path47"
   style="stroke-width:0.824715" />
  <path
   class="fil1"
   d="m 1898,1235 c 1334,387 2136,345 2904,260 v -22 C 4062,1550 3271,1574 1991,1203 827,865 -485,950 -843,982 v 25 c 456,-35 1661,-85 2741,228 z"
   id="path49"
   style="fill:url(#id2)" />
  <ellipse
   class="fil2"
   cx="4176.0859"
   cy="351.50015"
   rx="287.15668"
   ry="257.629"
   id="ellipse51"
   style="fill:url(#id6);stroke-width:0.738192" />
  <path
   class="fil3"
   d="M 2131,2146 C 868,1795 -562,1910 -843,1937 v 24 c 428,-35 1723,-104 2877,218 1245,347 2041,344 2767,277 v -24 c -700,58 -1481,46 -2670,-286 z"
   id="path53"
   style="fill:url(#id3)" />
  <path
   class="fil4 str0"
   d="m -846,1941 c 288,-27 1749,-142 3040,209 1216,332 2013,344 2730,286 V 1488 C 4139,1573 3319,1615 1955,1228 852,915 -380,965 -846,1000 Z"
   id="path55"
   style="fill:url(#id0)" />
  <path
   class="fil5"
   d="m -90,-1005 c 11,0 20,4 20,8 0,4 -9,8 -20,8 -11,0 -20,-4 -20,-8 0,-4 9,-8 20,-8 z"
   id="path57" />
  <ellipse
   class="fil6"
   cx="3502.1165"
   cy="155.1411"
   rx="166.0932"
   ry="146.16202"
   id="ellipse59"
   style="fill:url(#id4);stroke-width:0.738192" />
  <ellipse
   class="fil7"
   cx="4236.6177"
   cy="868.97272"
   rx="166.0932"
   ry="146.16202"
   id="ellipse61"
   style="fill:url(#id1);stroke-width:0.738192" />
  <ellipse
   class="fil8"
   cx="3276.2297"
   cy="942.79193"
   rx="166.0932"
   ry="146.16202"
   id="ellipse63"
   style="fill:url(#id7);stroke-width:0.738192" />
  <path
   class="fil9 str1"
   d="m 3254.0842,756.76758 883.6158,1.47638 c 6.6438,0 12.5493,3.69096 14.7639,10.33469 l 91.5358,231.0541 c 1.4764,5.16735 0.7382,10.33475 -2.2146,15.50205 -2.9528,4.4292 -7.3819,6.6437 -13.2875,6.6437 l -1071.8547,5.1674 c -5.1674,0 -10.3347,-2.2146 -13.2875,-6.6437 -2.9528,-4.4292 -3.691,-10.3347 -1.4764,-14.7639 l 96.7032,-238.43604 c 2.9527,-6.64372 8.8583,-10.33468 15.502,-10.33468 z"
   id="path65" />
  <path
   class="fil9 str1"
   d="m 3255.5606,749.38566 882.1394,1.47638 c 7.3819,0 12.5493,3.69096 15.5021,10.33469 l 90.7976,234.00682 c 2.2146,5.16745 1.4764,10.33475 -1.4764,14.76395 -2.9528,4.4291 -8.1201,7.3819 -13.2875,7.3819 l -1070.3784,5.1673 c -5.9055,0 -10.3347,-2.2145 -14.0256,-6.6437 -2.9528,-5.1673 -3.691,-10.3347 -1.4764,-15.502 l 96.7032,-240.65066 c 2.9527,-6.64372 8.8583,-10.33468 15.502,-10.33468 z"
   id="path67" />
  <path
   class="fil9 str1"
   d="m 3257.7752,175.81047 h 856.3027 c 20.6694,0 36.9096,16.24022 36.9096,36.17141 v 493.85045 c 0,19.93118 -16.2402,36.17141 -36.9096,36.17141 h -856.3027 c -19.9312,0 -36.1714,-16.24023 -36.1714,-36.17141 V 211.98188 c 0,-19.93119 16.2402,-36.17141 36.1714,-36.17141 z"
   id="path69" />
  <path
   class="fil10"
   d="m 3289.5174,766.36407 h 803.1529 c 7.3819,0 13.2875,5.16735 15.502,11.81107 l 24.3604,76.77197 c 1.4764,4.42915 0.7382,9.5965 -2.9528,14.02565 -2.9528,4.42915 -7.3819,6.64373 -12.5492,6.64373 l -856.3028,16.24022 c -5.9055,0 -10.3347,-2.21457 -13.2874,-5.90553 -3.691,-4.42916 -4.4292,-9.5965 -2.9528,-14.76384 l 29.5277,-93.0122 c 2.2146,-7.38192 8.8583,-11.81107 15.502,-11.81107 z"
   id="path71"
   style="stroke-width:0.738192" />
  <path
   class="fil11"
   d="m 3291.732,773.74599 h 803.1529 c 6.6437,0 13.2874,4.42915 15.502,11.07288 l 23.6222,76.77197 c 2.2145,5.16734 0.7382,9.5965 -2.2146,14.02565 -2.9528,4.42915 -7.3819,6.64373 -12.5493,6.64373 l -857.0409,16.97841 c -5.1673,0 -9.5965,-2.21457 -13.2874,-6.64373 -2.9528,-4.42915 -3.691,-9.59649 -2.2146,-14.76384 l 29.5277,-93.01219 c 2.2145,-6.64373 8.1201,-11.07288 15.502,-11.07288 z"
   id="path73"
   style="stroke-width:0.738192" />
  <path
   class="fil12 str2"
   d="m 3530.168,926.55174 h 292.324 c 7.382,0 14.0257,5.90553 14.0257,14.02564 v 36.9096 c 0,7.38192 -6.6437,13.28747 -14.0257,13.28747 h -292.324 c -8.1201,0 -14.0256,-5.90555 -14.0256,-13.28747 v -36.9096 c 0,-8.12011 5.9055,-14.02564 14.0256,-14.02564 z"
   id="path75" />
  <path
   class="fil13"
   d="m 4102.2668,220.10199 h -828.9896 c -15.502,0 -28.0513,12.54926 -28.0513,27.3131 v 432.58052 c 0,14.76384 12.5493,26.57491 28.0513,26.57491 h 828.9896 c 15.502,0 28.0513,-11.81107 28.0513,-26.57491 V 247.41509 c 0,-14.76384 -12.5493,-27.3131 -28.0513,-27.3131 z"
   id="path77"
   style="stroke-width:0.738192" />
  <path
   class="fil14"
   d="m 4091.1939,231.17487 h -809.7966 c -14.7638,0 -27.3131,11.07288 -27.3131,25.83672 v 413.38752 c 0,14.02565 12.5493,25.83672 27.3131,25.83672 h 809.7966 c 14.7639,0 26.5749,-11.81107 26.5749,-25.83672 V 257.01159 c 0,-14.76384 -11.811,-25.83672 -26.5749,-25.83672 z"
   id="path79"
   style="fill:url(#id5);stroke-width:0.738192" />
  <ellipse
   class="fil15"
   cx="3686.6646"
   cy="203.86177"
   rx="11.811072"
   ry="10.334688"
   id="ellipse81"
   style="stroke-width:0.738192" />
  <path
   class="fil16"
   d="m 128.09055,369.29608 c -1.64943,0 -2.47414,-0.82471 -2.47414,-1.64943 v -54.43118 c 0,-0.82471 0.82471,-1.64943 2.47414,-1.64943 h 31.33917 c 0.82471,0 1.64943,0 1.64943,1.64943 0,0.82472 -0.82472,1.64943 -1.64943,1.64943 h -30.51445 v 23.91673 h 28.86502 c 0.82471,0 1.64943,0 1.64943,0.82472 0,1.64943 -0.82472,1.64943 -1.64943,1.64943 h -28.86502 v 24.74144 h 30.51445 c 0.82471,0 1.64943,0.82472 1.64943,1.64943 0,1.64943 -0.82472,1.64943 -1.64943,1.64943 z m 54.43118,0.82472 c -3.29886,0 -5.773,-0.82472 -8.24715,-3.29886 -1.64943,-2.47415 -2.47414,-4.94829 -2.47414,-9.07187 v -45.35931 c 0,-0.82472 0.82471,-1.64943 1.64943,-1.64943 0.82471,0 1.64943,0.82471 1.64943,1.64943 v 44.5346 c 0,6.59772 2.47414,9.89658 8.24715,9.89658 0,0 0.82471,0 0.82471,0 0.82472,0 0.82472,0 1.64943,0 0.82472,0 0.82472,0 0.82472,0.82471 0,0.82472 0,1.64943 0,1.64943 -0.82472,0 -0.82472,0.82472 -1.64943,0.82472 -0.82472,0 -0.82472,0 -1.64943,0 0,0 0,0 -0.82472,0 z m 28.04031,0 c -5.77301,0 -10.7213,-1.64943 -14.02016,-5.77301 -3.29886,-3.29886 -4.94829,-8.24715 -4.94829,-14.84486 0,-4.12358 0.82472,-7.42244 2.47415,-10.7213 1.64943,-3.29886 3.29886,-5.773 6.59772,-7.42243 2.47414,-1.64943 5.773,-2.47414 9.07186,-2.47414 4.94829,0 9.07186,1.64942 12.37072,4.94828 2.47415,3.29886 4.12357,8.24715 4.12357,14.02016 0,1.64943 -0.82471,2.47414 -1.64942,2.47414 h -29.68974 c 0,4.94829 1.64943,9.07186 4.12358,12.37072 2.47414,2.47415 6.59772,4.12358 11.54601,4.12358 2.47414,0 4.12357,0 5.773,-0.82472 2.47414,-0.82471 4.12357,-1.64943 5.773,-3.29886 0.82472,0 1.64943,0 2.47415,0 0,0 0.82471,0.82472 0.82471,0.82472 0,0.82471 0,1.64943 -0.82471,1.64943 -1.64943,1.64943 -4.12358,3.29886 -6.59772,4.12357 -2.47415,0.82472 -4.94829,0.82472 -7.42243,0.82472 z m -0.82472,-37.93689 c -4.12357,0 -8.24715,1.64943 -10.72129,4.12358 -2.47415,3.29886 -3.29886,6.59772 -4.12358,10.72129 h 28.04031 c 0,-4.12357 -1.64943,-8.24715 -3.29886,-10.72129 -2.47415,-2.47415 -5.77301,-4.12358 -9.89658,-4.12358 z m 40.41102,37.93689 c -0.82471,0 -1.64942,-0.82472 -2.47414,-2.47415 l -14.84487,-35.46274 c -0.82471,-0.82471 -0.82471,-1.64943 -0.82471,-2.47414 0.82471,0 0.82471,-0.82471 1.64943,-0.82471 0.82471,0 1.64943,0 1.64943,0.82471 0,0 0,0 0.82471,0.82471 l 14.02015,35.46274 14.84487,-35.46274 c 0.82472,-0.82471 0.82472,-0.82471 0.82472,-0.82471 0.82471,-0.82471 0.82471,-0.82471 1.64943,-0.82471 0.82471,0 0.82471,0.82471 0.82471,0.82471 0.82472,0.82471 0.82472,1.64943 0,2.47414 l -14.84487,35.46274 c -0.82471,1.64943 -1.64943,2.47415 -3.29886,2.47415 z m 39.58632,0 c -2.47415,0 -4.94829,-0.82472 -7.42244,-1.64943 -1.64943,-0.82472 -3.29886,-2.47415 -4.94829,-4.12358 -0.82471,-1.64943 -1.64943,-4.12357 -1.64943,-5.773 0,-3.29886 0.82472,-5.773 2.47415,-7.42243 0.82471,-1.64943 4.12357,-2.47415 7.42243,-3.29886 3.29886,-0.82472 8.24715,-0.82472 14.84487,-0.82472 h 2.47414 v -3.29886 c 0,-4.12357 -0.82471,-7.42243 -2.47414,-9.07186 -1.64943,-1.64943 -4.12357,-2.47415 -7.42243,-2.47415 -4.12358,0 -8.24715,0.82472 -13.19544,3.29886 0,0.82472 -0.82472,0.82472 -1.64943,0.82472 0,-0.82472 -0.82472,-0.82472 -0.82472,-1.64943 0,-0.82472 0.82472,-1.64943 0.82472,-1.64943 2.47414,-1.64943 4.94829,-2.47415 7.42243,-3.29886 2.47415,-0.82471 4.94829,-0.82471 7.42244,-0.82471 4.12357,0 7.42243,1.64942 9.89657,3.29885 1.64943,2.47415 3.29886,6.59772 3.29886,11.54601 v 24.74145 c 0,0.82471 -0.82471,1.64943 -1.64943,1.64943 -1.64943,0 -1.64943,-0.82472 -1.64943,-1.64943 v -6.59772 c -1.64943,2.47414 -3.29886,4.94829 -5.773,5.773 -1.64943,1.64943 -4.94829,2.47415 -7.42243,2.47415 z m 0,-3.29886 c 2.47414,0 4.94829,0 6.59772,-1.64943 1.64943,-0.82472 3.29885,-2.47415 4.94828,-4.94829 0.82472,-2.47415 1.64943,-4.94829 1.64943,-7.42243 v -3.29886 h -2.47414 c -5.773,0 -9.89658,0.82471 -13.19544,0.82471 -2.47414,0.82472 -4.94829,1.64943 -5.773,2.47415 -1.64943,1.64943 -1.64943,3.29885 -1.64943,4.94828 0,3.29886 0.82471,4.94829 2.47414,6.59772 1.64943,1.64943 4.12358,2.47415 7.42244,2.47415 z m 32.16388,3.29886 c -1.64943,0 -1.64943,-0.82472 -1.64943,-1.64943 v -37.93689 c 0,-0.82471 0,-1.64942 1.64943,-1.64942 0.82471,0 1.64943,0.82471 1.64943,1.64942 v 6.59772 c 0.82471,-2.47414 2.47414,-4.94829 4.94828,-5.773 2.47415,-1.64943 4.94829,-2.47414 7.42244,-2.47414 6.59772,0 10.72129,2.47414 12.37072,8.24714 0.82471,-2.47414 2.47414,-4.12357 4.94829,-5.773 2.47414,-1.64943 5.773,-2.47414 8.24715,-2.47414 9.07186,0 13.19543,4.94828 13.19543,14.84486 v 24.74145 c 0,0.82471 0,1.64943 -1.64942,1.64943 -0.82472,0 -1.64943,-0.82472 -1.64943,-1.64943 v -23.91673 c 0,-4.12358 -0.82472,-7.42244 -2.47415,-9.07187 -0.82471,-2.47414 -3.29886,-3.29886 -7.42243,-3.29886 -3.29886,0 -6.59772,1.64943 -9.07187,4.12358 -1.64943,2.47414 -3.29886,5.773 -3.29886,9.89658 v 22.2673 c 0,0.82471 -0.82471,1.64943 -1.64942,1.64943 -0.82472,0 -1.64943,-0.82472 -1.64943,-1.64943 v -23.91673 c 0,-4.12358 -0.82472,-7.42244 -2.47415,-9.07187 -1.64943,-2.47414 -4.12357,-3.29886 -7.42243,-3.29886 -4.12358,0 -6.59772,1.64943 -9.07187,4.12358 -2.47414,2.47414 -3.29885,5.773 -3.29885,9.89658 v 22.2673 c 0,0.82471 -0.82472,1.64943 -1.64943,1.64943 z m 82.47148,0 c -4.12358,0 -6.59772,-0.82472 -9.89658,-2.47415 -2.47414,-1.64943 -4.12357,-4.12357 -5.773,-7.42243 -1.64943,-2.47415 -2.47415,-6.59772 -2.47415,-10.72129 0,-4.12358 0.82472,-7.42244 2.47415,-10.7213 1.64943,-3.29886 3.29886,-5.773 5.773,-7.42243 3.29886,-1.64943 5.773,-2.47414 9.89658,-2.47414 3.29886,0 6.59772,0.82471 9.07186,2.47414 2.47415,1.64943 4.94829,4.12357 6.59772,7.42243 0.82472,3.29886 1.64943,6.59772 1.64943,10.7213 0,4.12357 -0.82471,8.24714 -1.64943,10.72129 -1.64943,3.29886 -4.12357,5.773 -6.59772,7.42243 -2.47414,1.64943 -5.773,2.47415 -9.07186,2.47415 z m 0,-3.29886 c 4.12357,0 7.42243,-1.64943 9.89658,-4.12358 3.29886,-3.29886 4.12357,-7.42243 4.12357,-13.19543 0,-5.77301 -0.82471,-9.89658 -4.12357,-12.37073 -2.47415,-3.29886 -5.77301,-4.94829 -9.89658,-4.94829 -4.94829,0 -8.24715,1.64943 -10.72129,4.94829 -2.47415,2.47415 -4.12358,6.59772 -4.12358,12.37073 0,5.773 1.64943,9.89657 4.12358,13.19543 2.47414,2.47415 5.773,4.12358 10.72129,4.12358 z m 41.23574,3.29886 c -2.47414,0 -4.94829,0 -7.42243,-0.82472 -1.64943,-0.82471 -4.12358,-2.47414 -6.59772,-4.12357 -0.82472,0 -0.82472,-0.82472 -0.82472,-0.82472 0,-0.82471 0.82472,-1.64943 0.82472,-1.64943 0.82471,-0.82471 1.64943,0 1.64943,0 2.47414,1.64943 4.12357,2.47415 6.59772,3.29886 2.47414,0.82472 4.12357,0.82472 6.59772,0.82472 3.29885,0 5.773,-0.82472 8.24714,-1.64943 1.64943,-1.64943 2.47415,-3.29886 2.47415,-5.77301 0,-1.64943 -0.82472,-3.29886 -1.64943,-4.12357 -1.64943,-1.64943 -3.29886,-2.47414 -6.59772,-3.29886 l -6.59772,-1.64943 c -3.29886,-0.82471 -5.773,-1.64943 -7.42243,-3.29886 -1.64943,-1.64943 -2.47415,-4.12357 -2.47415,-6.59772 0,-3.29886 1.64943,-6.59772 4.12358,-8.24715 2.47414,-2.47414 5.773,-3.29885 9.89658,-3.29885 2.47414,0 4.94828,0.82471 7.42243,0.82471 2.47414,0.82471 4.12357,2.47414 5.773,4.12357 0,0 0.82472,0.82472 0,1.64943 0,0.82472 0,0.82472 -0.82471,0.82472 0,0.82471 -0.82472,0 -1.64943,0 -1.64943,-1.64943 -3.29886,-2.47415 -4.94829,-3.29886 -1.64943,-0.82472 -3.29886,-0.82472 -5.773,-0.82472 -3.29886,0 -5.77301,0.82472 -7.42244,2.47415 -1.64943,0.82471 -3.29886,3.29886 -3.29886,5.773 0,1.64943 0.82472,3.29886 1.64943,4.12358 1.64943,1.64943 3.29886,2.47414 5.77301,2.47414 l 6.59771,1.64943 c 4.12358,0.82472 6.59772,2.47415 8.24715,4.12358 1.64943,1.64943 2.47415,3.29885 2.47415,6.59771 0,3.29886 -0.82472,5.77301 -4.12358,7.42244 -2.47414,2.47414 -5.773,3.29886 -10.72129,3.29886 z m 63.50304,0 c -5.773,0 -10.72129,-1.64943 -14.02015,-5.77301 -3.29886,-3.29886 -4.94829,-8.24715 -4.94829,-14.84486 0,-4.12358 0.82472,-7.42244 2.47415,-10.7213 1.64943,-3.29886 3.29886,-5.773 6.59771,-7.42243 2.47415,-1.64943 5.77301,-2.47414 9.07187,-2.47414 5.773,0 9.89658,1.64942 12.37072,4.94828 3.29886,3.29886 4.12357,8.24715 4.12357,14.02016 0,1.64943 0,2.47414 -1.64943,2.47414 h -29.68973 c 0.82472,4.94829 1.64943,9.07186 4.12357,12.37072 3.29886,2.47415 6.59772,4.12358 11.54601,4.12358 2.47415,0 4.12358,0 6.59772,-0.82472 1.64943,-0.82471 3.29886,-1.64943 5.77301,-3.29886 0,0 0.82471,0 1.64942,0 0.82472,0 0.82472,0.82472 0.82472,0.82472 0,0.82471 0,1.64943 -0.82472,1.64943 -1.64942,1.64943 -3.29885,3.29886 -5.773,4.12357 -2.47414,0.82472 -4.94829,0.82472 -8.24715,0.82472 z m -0.82471,-37.93689 c -4.12358,0 -7.42244,1.64943 -9.89658,4.12358 -2.47414,3.29886 -4.12357,6.59772 -4.94829,10.72129 h 28.04031 c 0,-4.12357 -0.82472,-8.24715 -3.29886,-10.72129 -2.47415,-2.47415 -4.94829,-4.12358 -9.89658,-4.12358 z m 38.76159,37.93689 c -3.29885,0 -6.59771,-0.82472 -8.24714,-3.29886 -1.64943,-2.47415 -2.47415,-4.94829 -2.47415,-9.07187 v -45.35931 c 0,-0.82472 0,-1.64943 1.64943,-1.64943 0.82472,0 1.64943,0.82471 1.64943,1.64943 v 44.5346 c 0,6.59772 2.47415,9.89658 7.42243,9.89658 0.82472,0 0.82472,0 1.64943,0 0,0 0.82472,0 0.82472,0 0.82471,0 1.64943,0 1.64943,0.82471 0,0.82472 0,1.64943 -0.82472,1.64943 0,0 -0.82471,0.82472 -1.64943,0.82472 0,0 -0.82471,0 -0.82471,0 0,0 -0.82472,0 -0.82472,0 z m 33.81331,0 c -1.64943,0 -1.64943,-0.82472 -1.64943,-1.64943 v -37.93689 c 0,-0.82471 0,-1.64942 1.64943,-1.64942 0.82472,0 1.64943,0.82471 1.64943,1.64942 v 6.59772 c 0.82472,-2.47414 3.29886,-4.94829 5.77301,-5.773 2.47414,-1.64943 4.94829,-2.47414 8.24714,-2.47414 9.07187,0 14.02016,4.94828 14.02016,14.84486 v 24.74145 c 0,0.82471 -0.82472,1.64943 -1.64943,1.64943 -0.82472,0 -1.64943,-0.82472 -1.64943,-1.64943 v -23.91673 c 0,-4.12358 -0.82472,-7.42244 -2.47415,-9.07187 -1.64943,-2.47414 -4.94829,-3.29886 -8.24715,-3.29886 -4.12357,0 -7.42243,1.64943 -9.89657,4.12358 -3.29886,2.47414 -4.12358,5.773 -4.12358,9.89658 v 22.2673 c 0,0.82471 -0.82471,1.64943 -1.64943,1.64943 z m 45.35932,-51.13232 c -1.64943,0 -2.47415,-0.82472 -2.47415,-3.29886 0,-1.64943 0.82472,-2.47415 2.47415,-2.47415 1.64943,0 3.29886,0.82472 3.29886,2.47415 0,2.47414 -1.64943,3.29886 -3.29886,3.29886 z m 0,51.13232 c -0.82472,0 -1.64943,-0.82472 -1.64943,-2.47415 V 331.3592 c 0,-1.64943 0.82471,-1.64943 1.64943,-1.64943 0.82471,0 1.64943,0 1.64943,1.64943 v 36.28745 c 0,1.64943 -0.82472,2.47415 -1.64943,2.47415 z m 29.68973,0 c -1.64943,0 -2.47414,-0.82472 -2.47414,-2.47415 l -15.66958,-35.46274 c 0,-0.82471 0,-1.64943 0,-2.47414 0,0 0.82471,-0.82471 1.64943,-0.82471 0,0 0.82471,0 0.82471,0.82471 0.82472,0 0.82472,0 0.82472,0.82471 l 14.84486,35.46274 14.84487,-35.46274 c 0,-0.82471 0,-0.82471 0.82471,-0.82471 0,-0.82471 0,-0.82471 0.82472,-0.82471 0.82471,0 1.64943,0.82471 1.64943,0.82471 0,0.82471 0,1.64943 0,2.47414 l -15.66958,35.46274 c -0.82472,1.64943 -1.64943,2.47415 -2.47415,2.47415 z m 43.70989,0 c -5.773,0 -10.72129,-1.64943 -14.02015,-5.77301 -3.29886,-3.29886 -4.94829,-8.24715 -4.94829,-14.84486 0,-4.12358 0.82471,-7.42244 2.47414,-10.7213 1.64943,-3.29886 3.29886,-5.773 6.59772,-7.42243 2.47415,-1.64943 5.773,-2.47414 9.07186,-2.47414 5.77301,0 9.07187,1.64942 12.37073,4.94828 2.47414,3.29886 4.12357,8.24715 4.12357,14.02016 0,1.64943 -0.82471,2.47414 -1.64943,2.47414 h -29.68973 c 0,4.94829 1.64943,9.07186 4.12357,12.37072 3.29886,2.47415 6.59772,4.12358 11.54601,4.12358 2.47414,0 4.12357,0 5.773,-0.82472 2.47415,-0.82471 4.12358,-1.64943 5.77301,-3.29886 0.82471,0 1.64943,0 2.47414,0 0,0 0.82472,0.82472 0.82472,0.82472 0,0.82471 0,1.64943 -0.82472,1.64943 -1.64943,1.64943 -4.12357,3.29886 -6.59772,4.12357 -2.47414,0.82472 -4.94829,0.82472 -7.42243,0.82472 z m -0.82472,-37.93689 c -4.12357,0 -7.42243,1.64943 -9.89657,4.12358 -3.29886,3.29886 -4.12358,6.59772 -4.94829,10.72129 h 28.0403 c 0,-4.12357 -0.82471,-8.24715 -3.29886,-10.72129 -2.47414,-2.47415 -5.773,-4.12358 -9.89658,-4.12358 z m 38.7616,37.93689 c -4.12357,0 -6.59772,-0.82472 -8.24715,-3.29886 -1.64943,-2.47415 -3.29886,-4.94829 -3.29886,-9.07187 v -45.35931 c 0,-0.82472 0.82472,-1.64943 1.64943,-1.64943 1.64943,0 2.47415,0.82471 2.47415,1.64943 v 44.5346 c 0,6.59772 2.47414,9.89658 7.42243,9.89658 0.82472,0 0.82472,0 1.64943,0 0,0 0.82472,0 0.82472,0 0.82471,0 1.64943,0 1.64943,0.82471 0,0.82472 0,1.64943 -0.82472,1.64943 0,0 -0.82471,0.82472 -1.64943,0.82472 0,0 -0.82471,0 -0.82471,0 -0.82472,0 -0.82472,0 -0.82472,0 z m 47.00872,0 c -4.1235,0 -6.5977,-0.82472 -9.8966,-2.47415 -2.4741,-1.64943 -4.1235,-4.12357 -5.773,-7.42243 -1.6494,-2.47415 -2.4741,-6.59772 -2.4741,-10.72129 0,-6.59772 1.6494,-11.54601 4.9483,-14.84487 3.2988,-4.12358 7.4224,-5.773 13.1954,-5.773 3.2989,0 5.773,0.82471 8.2472,2.47414 2.4741,1.64943 4.9483,3.29886 5.773,5.773 v -24.74144 c 0,-0.82472 0.8247,-1.64943 1.6494,-1.64943 1.6494,0 1.6494,0.82471 1.6494,1.64943 v 56.08061 c 0,0.82471 0,1.64943 -1.6494,1.64943 -0.8247,0 -1.6494,-0.82472 -1.6494,-1.64943 v -6.59772 c -0.8247,2.47414 -3.2989,4.94829 -5.773,5.773 -2.4742,1.64943 -4.9483,2.47415 -8.2472,2.47415 z m 0,-3.29886 c 4.1236,0 7.4225,-1.64943 10.7213,-4.12358 2.4742,-3.29886 3.2989,-7.42243 3.2989,-13.19543 0,-5.77301 -0.8247,-9.89658 -3.2989,-12.37073 -3.2988,-3.29886 -6.5977,-4.94829 -10.7213,-4.94829 -4.1235,0 -8.2471,1.64943 -10.7213,4.94829 -2.4741,2.47415 -3.2988,6.59772 -3.2988,12.37073 0,5.773 0.8247,9.89657 3.2988,13.19543 2.4742,2.47415 6.5978,4.12358 10.7213,4.12358 z m 47.8335,3.29886 c -5.773,0 -9.8966,-1.64943 -14.0202,-5.77301 -3.2988,-3.29886 -4.9483,-8.24715 -4.9483,-14.84486 0,-4.12358 0.8248,-7.42244 2.4742,-10.7213 1.6494,-3.29886 3.2988,-5.773 6.5977,-7.42243 2.4742,-1.64943 5.773,-2.47414 9.0719,-2.47414 5.773,0 9.8966,1.64942 12.3707,4.94828 3.2989,3.29886 4.1236,8.24715 4.1236,14.02016 0,1.64943 0,2.47414 -1.6495,2.47414 h -29.6897 c 0.8247,4.94829 1.6494,9.07186 4.1236,12.37072 3.2988,2.47415 6.5977,4.12358 11.546,4.12358 2.4741,0 4.1236,0 6.5977,-0.82472 1.6494,-0.82471 3.2989,-1.64943 5.773,-3.29886 0,0 0.8247,0 1.6494,0 0.8248,0 0.8248,0.82472 0.8248,0.82472 0,0.82471 0,1.64943 -0.8248,1.64943 -1.6494,1.64943 -3.2988,3.29886 -5.773,4.12357 -2.4741,0.82472 -4.9483,0.82472 -8.2471,0.82472 z m -0.8247,-37.93689 c -4.1236,0 -7.4225,1.64943 -9.8966,4.12358 -2.4742,3.29886 -4.1236,6.59772 -4.9483,10.72129 h 28.0403 c 0,-4.12357 -0.8247,-8.24715 -3.2988,-10.72129 -2.4742,-2.47415 -4.9483,-4.12358 -9.8966,-4.12358 z m 61.8536,37.93689 c -4.1236,0 -7.4224,-0.82472 -9.0719,-3.29886 -2.4741,-2.47415 -3.2988,-5.77301 -3.2988,-9.89658 v -24.74145 h -6.5978 c -1.6494,0 -1.6494,0 -1.6494,-0.82471 0,-1.64943 0,-1.64943 1.6494,-1.64943 h 6.5978 v -11.54601 c 0,-0.82471 0.8247,-1.64943 1.6494,-1.64943 0.8247,0 1.6494,0.82472 1.6494,1.64943 v 11.54601 h 11.546 c 1.6495,0 2.4742,0 2.4742,1.64943 0,0.82471 -0.8247,0.82471 -2.4742,0.82471 h -11.546 v 23.91673 c 0,3.29886 0.8247,5.77301 2.4742,8.24715 1.6494,1.64943 3.2988,2.47415 6.5977,2.47415 1.6494,0 2.4741,0 3.2988,0 0.8248,-0.82472 1.6495,-0.82472 1.6495,-0.82472 0.8247,0 1.6494,0.82472 1.6494,1.64943 0,0.82472 0,0.82472 -0.8247,0.82472 0,0.82471 0,0.82471 -0.8247,0.82471 0,0 -0.8247,0.82472 -1.6495,0.82472 -1.6494,0 -2.4741,0 -3.2988,0 z m 26.3909,0 c -4.9483,0 -8.2472,-0.82472 -10.7213,-4.12358 -2.4742,-2.47414 -3.2989,-5.773 -3.2989,-10.72129 v -24.74145 c 0,-0.82471 0.8247,-1.64942 1.6494,-1.64942 0.8248,0 1.6495,0.82471 1.6495,1.64942 v 23.91674 c 0,4.12357 0.8247,7.42243 2.4741,9.07186 1.6494,2.47414 4.9483,3.29886 8.2472,3.29886 4.1235,0 7.4224,-0.82472 9.8965,-4.12358 2.4742,-2.47414 3.2989,-5.773 3.2989,-9.89657 v -22.26731 c 0,-0.82471 0.8247,-1.64942 2.4741,-1.64942 0.8248,0 1.6495,0.82471 1.6495,1.64942 v 37.93689 c 0,0.82471 -0.8247,1.64943 -1.6495,1.64943 -1.6494,0 -1.6494,-0.82472 -1.6494,-1.64943 v -6.59772 c -1.6494,2.47414 -3.2988,4.94829 -5.773,6.59772 -2.4741,0.82471 -4.9483,1.64943 -8.2471,1.64943 z m 67.6266,0 c -5.773,0 -9.8966,-1.64943 -14.0202,-5.77301 -3.2988,-3.29886 -4.9483,-8.24715 -4.9483,-14.84486 0,-4.12358 0.8247,-7.42244 2.4742,-10.7213 1.6494,-3.29886 3.2988,-5.773 6.5977,-7.42243 2.4741,-1.64943 5.773,-2.47414 9.0719,-2.47414 5.773,0 9.8965,1.64942 12.3707,4.94828 3.29877,3.29886 4.12357,8.24715 4.12357,14.02016 0,1.64943 0,2.47414 -1.6495,2.47414 h -29.68967 c 0.8247,4.94829 1.6494,9.07186 4.1236,12.37072 3.2988,2.47415 6.5977,4.12358 11.546,4.12358 2.4741,0 4.1236,0 6.5977,-0.82472 1.6494,-0.82471 3.2989,-1.64943 5.773,-3.29886 0,0 0.82467,0 1.64937,0 0.8247,0 0.8247,0.82472 0.8247,0.82472 0,0.82471 0,1.64943 -0.8247,1.64943 -1.64937,1.64943 -3.29877,3.29886 -5.77297,4.12357 -2.4741,0.82472 -4.9483,0.82472 -8.2471,0.82472 z m -0.8247,-37.93689 c -4.1236,0 -7.4225,1.64943 -9.8966,4.12358 -2.4742,3.29886 -4.1236,6.59772 -4.9483,10.72129 h 28.0403 c 0,-4.12357 -0.8247,-8.24715 -3.2989,-10.72129 -2.4741,-2.47415 -4.9482,-4.12358 -9.8965,-4.12358 z m 29.68967,37.93689 c -1.6494,0 -1.6494,-0.82472 -1.6494,-1.64943 v -37.93689 c 0,-0.82471 0,-1.64942 1.6494,-1.64942 0.8247,0 1.6494,0.82471 1.6494,1.64942 v 6.59772 c 0.8247,-2.47414 2.4742,-4.94829 4.9483,-5.773 2.4742,-1.64943 4.9483,-2.47414 7.4224,-2.47414 6.5978,0 10.7213,2.47414 12.3708,8.24714 0.8247,-2.47414 3.2988,-4.12357 4.9483,-5.773 2.4741,-1.64943 5.773,-2.47414 8.2471,-2.47414 9.0719,0 13.1954,4.94828 13.1954,14.84486 v 24.74145 c 0,0.82471 0,1.64943 -1.6494,1.64943 -0.8247,0 -1.6494,-0.82472 -1.6494,-1.64943 v -23.91673 c 0,-4.12358 -0.8247,-7.42244 -2.4742,-9.07187 -0.8247,-2.47414 -3.2988,-3.29886 -7.4224,-3.29886 -3.2989,0 -6.5977,1.64943 -9.0719,4.12358 -1.6494,2.47414 -3.2988,5.773 -3.2988,9.89658 v 22.2673 c 0,0.82471 -0.8247,1.64943 -1.6494,1.64943 -0.8248,0 -1.6495,-0.82472 -1.6495,-1.64943 v -23.91673 c 0,-4.12358 -0.8247,-7.42244 -2.4741,-9.07187 -1.6494,-2.47414 -4.1236,-3.29886 -7.4225,-3.29886 -4.1235,0 -6.5977,1.64943 -9.0718,4.12358 -2.4742,2.47414 -3.2989,5.773 -3.2989,9.89658 v 22.2673 c 0,0.82471 -0.8247,1.64943 -1.6494,1.64943 z m 68.4513,14.84486 c -0.8247,0 -1.6494,-0.82471 -1.6494,-1.64943 v -52.78175 c 0,-0.82471 0.8247,-1.64942 1.6494,-1.64942 1.6495,0 2.4742,0.82471 2.4742,1.64942 v 6.59772 c 0.8247,-2.47414 2.4741,-4.12357 4.9483,-5.773 2.4741,-1.64943 5.773,-2.47414 9.0718,-2.47414 3.2989,0 6.5977,0.82471 9.0719,2.47414 2.4741,1.64943 4.9483,4.12357 6.5977,7.42243 1.6494,3.29886 1.6494,6.59772 1.6494,10.7213 0,6.59771 -1.6494,11.546 -4.1235,14.84486 -3.2989,4.12358 -8.2472,5.77301 -13.1955,5.77301 -3.2988,0 -6.5977,-0.82472 -9.0718,-2.47415 -2.4742,-0.82471 -4.1236,-3.29886 -4.9483,-5.773 v 21.44258 c 0,0.82472 -0.8247,1.64943 -2.4742,1.64943 z m 16.4943,-18.14372 c 4.1236,0 7.4225,-1.64943 9.8966,-4.12358 3.2989,-3.29886 4.1236,-7.42243 4.1236,-13.19543 0,-5.77301 -0.8247,-9.89658 -4.1236,-12.37073 -2.4741,-3.29886 -5.773,-4.94829 -9.8966,-4.94829 -4.1236,0 -8.2471,1.64943 -10.7213,4.94829 -2.4741,2.47415 -4.1235,6.59772 -4.1235,12.37073 0,5.773 1.6494,9.89657 4.1235,13.19543 2.4742,2.47415 6.5977,4.12358 10.7213,4.12358 z m 30.5145,3.29886 c -0.8247,0 -1.6495,-0.82472 -1.6495,-1.64943 v -37.93689 c 0,-0.82471 0.8248,-1.64942 1.6495,-1.64942 1.6494,0 1.6494,0.82471 1.6494,1.64942 v 6.59772 c 1.6494,-3.29886 3.2989,-4.94829 5.773,-6.59772 2.4741,-0.82471 5.773,-1.64942 8.2472,-1.64942 0.8247,0 0.8247,0 1.6494,0 0,0 0.8247,0.82471 0.8247,1.64942 0,0.82472 -0.8247,1.64943 -2.4741,1.64943 h -0.8248 c -4.1235,0 -7.4224,1.64943 -9.0718,4.12358 -2.4742,2.47414 -4.1236,5.773 -4.1236,9.07186 v 23.09202 c 0,0.82471 0,1.64943 -1.6494,1.64943 z m 42.0604,0 c -6.5977,0 -10.7213,-1.64943 -14.8448,-5.77301 -3.2989,-3.29886 -4.9483,-8.24715 -4.9483,-14.84486 0,-4.12358 0.8247,-7.42244 2.4741,-10.7213 1.6494,-3.29886 4.1236,-5.773 6.5977,-7.42243 2.4742,-1.64943 5.773,-2.47414 9.8966,-2.47414 4.9483,0 9.0719,1.64942 11.546,4.94828 3.2989,3.29886 4.1236,8.24715 4.1236,14.02016 0,1.64943 0,2.47414 -1.6494,2.47414 h -28.8651 c 0,4.94829 0.8248,9.07186 4.1236,12.37072 2.4742,2.47415 5.773,4.12358 10.7213,4.12358 2.4742,0 4.1236,0 6.5977,-0.82472 1.6495,-0.82471 3.2989,-1.64943 5.773,-3.29886 0.8248,0 0.8248,0 1.6495,0 0.8247,0 0.8247,0.82472 0.8247,0.82472 0.8247,0.82471 0,1.64943 -0.8247,1.64943 -1.6495,1.64943 -3.2989,3.29886 -5.773,4.12357 -2.4742,0.82472 -4.9483,0.82472 -7.4225,0.82472 z m -0.8247,-37.93689 c -4.9483,0 -8.2471,1.64943 -10.7213,4.12358 -2.4741,3.29886 -4.1236,6.59772 -4.1236,10.72129 h 28.0404 c -0.8248,-4.12357 -1.6495,-8.24715 -4.1236,-10.72129 -1.6495,-2.47415 -4.9483,-4.12358 -9.0719,-4.12358 z m 39.5863,37.93689 c -2.4741,0 -4.9483,0 -7.4224,-0.82472 -2.4742,-0.82471 -4.9483,-2.47414 -6.5977,-4.12357 -0.8247,0 -0.8247,-0.82472 -0.8247,-0.82472 0,-0.82471 0,-1.64943 0.8247,-1.64943 0,-0.82471 0.8247,0 1.6494,0 1.6494,1.64943 4.1236,2.47415 6.5977,3.29886 1.6495,0.82472 4.1236,0.82472 5.773,0.82472 3.2989,0 6.5977,-0.82472 8.2472,-1.64943 1.6494,-1.64943 3.2988,-3.29886 3.2988,-5.77301 0,-1.64943 -0.8247,-3.29886 -2.4741,-4.12357 -0.8247,-1.64943 -3.2989,-2.47414 -5.773,-3.29886 l -6.5977,-1.64943 c -3.2989,-0.82471 -6.5978,-1.64943 -8.2472,-3.29886 -1.6494,-1.64943 -1.6494,-4.12357 -1.6494,-6.59772 0,-3.29886 0.8247,-6.59772 3.2988,-8.24715 2.4742,-2.47414 6.5978,-3.29885 10.7213,-3.29885 2.4742,0 4.9483,0.82471 6.5978,0.82471 2.4741,0.82471 4.1235,2.47414 5.773,4.12357 0.8247,0 0.8247,0.82472 0.8247,1.64943 0,0.82472 -0.8247,0.82472 -0.8247,0.82472 -0.8248,0.82471 -0.8248,0 -1.6495,0 -1.6494,-1.64943 -3.2988,-2.47415 -4.9483,-3.29886 -2.4741,-0.82472 -4.1235,-0.82472 -5.773,-0.82472 -3.2988,0 -5.773,0.82472 -8.2471,2.47415 -1.6494,0.82471 -2.4742,3.29886 -2.4742,5.773 0,1.64943 0.8248,3.29886 1.6495,4.12358 0.8247,1.64943 3.2988,2.47414 5.773,2.47414 l 6.5977,1.64943 c 3.2989,0.82472 6.5977,2.47415 8.2471,4.12358 1.6495,1.64943 2.4742,3.29885 2.4742,6.59771 0,3.29886 -1.6494,5.77301 -4.1236,7.42244 -2.4741,2.47414 -6.5977,3.29886 -10.7213,3.29886 z m 38.7616,0 c -2.4741,0 -4.9483,-0.82472 -7.4224,-1.64943 -1.6494,-0.82472 -3.2989,-2.47415 -4.9483,-4.12358 -0.8247,-1.64943 -1.6494,-4.12357 -1.6494,-5.773 0,-3.29886 0.8247,-5.773 2.4741,-7.42243 1.6494,-1.64943 4.1236,-2.47415 7.4224,-3.29886 3.2989,-0.82472 8.2472,-0.82472 14.8449,-0.82472 h 2.4742 v -3.29886 c 0,-4.12357 -0.8248,-7.42243 -2.4742,-9.07186 -1.6494,-1.64943 -4.1236,-2.47415 -7.4224,-2.47415 -4.1236,0 -8.2472,0.82472 -12.3707,3.29886 -0.8248,0.82472 -1.6495,0.82472 -2.4742,0.82472 0,-0.82472 -0.8247,-0.82472 -0.8247,-1.64943 0,-0.82472 0.8247,-1.64943 0.8247,-1.64943 2.4742,-1.64943 4.9483,-2.47415 7.4224,-3.29886 2.4742,-0.82471 4.9483,-0.82471 7.4225,-0.82471 4.1236,0 7.4224,1.64942 9.8966,3.29885 1.6494,2.47415 3.2988,6.59772 3.2988,11.54601 v 24.74145 c 0,0.82471 -0.8247,1.64943 -1.6494,1.64943 -1.6494,0 -1.6494,-0.82472 -1.6494,-1.64943 v -6.59772 c -1.6495,2.47414 -3.2989,4.94829 -5.773,5.773 -1.6495,1.64943 -4.9483,2.47415 -7.4225,2.47415 z m 0,-3.29886 c 2.4742,0 4.9483,0 6.5977,-1.64943 1.6495,-0.82472 3.2989,-2.47415 4.9483,-4.94829 0.8247,-2.47415 1.6495,-4.94829 1.6495,-7.42243 v -3.29886 h -2.4742 c -5.773,0 -9.8966,0.82471 -13.1954,0.82471 -2.4742,0.82472 -4.9483,1.64943 -5.773,2.47415 -1.6495,1.64943 -1.6495,3.29885 -1.6495,4.94828 0,3.29886 0.8248,4.94829 2.4742,6.59772 1.6494,1.64943 4.1236,2.47415 7.4224,2.47415 z m 32.1639,3.29886 c -0.8247,0 -1.6494,-0.82472 -2.4741,-1.64943 -0.8248,0 -0.8248,-0.82472 -0.8248,-1.64943 0,-0.82472 0,-1.64943 0.8248,-2.47415 0.8247,-0.82471 1.6494,-0.82471 2.4741,-0.82471 0.8247,0 1.6494,0 1.6494,0.82471 0.8247,0.82472 0.8247,1.64943 0.8247,2.47415 0,0.82471 0,1.64943 -0.8247,1.64943 0,0.82471 -0.8247,1.64943 -1.6494,1.64943 z"
   id="path83"
   style="stroke-width:0.824715" />
  <g
   id="_3114034255552"
   transform="matrix(0.82471483,0,0,0.82471483,109.94683,268.68087)">
   <path
   class="fil16"
   d="m 47,249 c -7,0 -13,-2 -17,-5 -5,-3 -9,-7 -11,-12 -3,-6 -4,-12 -4,-19 0,-8 1,-14 4,-20 2,-5 6,-9 11,-12 4,-3 10,-4 17,-4 4,0 8,0 12,2 4,1 7,3 10,6 1,0 1,1 1,2 0,1 0,1 -1,2 -1,0 -2,0 -2,-1 -6,-5 -12,-7 -21,-7 -8,0 -15,2 -19,8 -5,6 -7,13 -7,24 0,10 2,18 7,23 4,6 11,9 19,9 8,0 15,-3 21,-8 0,-1 1,-1 2,-1 1,1 1,1 1,2 0,1 0,2 -1,2 -5,6 -13,9 -22,9 z m 52,0 c -5,0 -9,-1 -12,-3 -3,-3 -6,-5 -7,-9 -2,-4 -3,-8 -3,-13 0,-5 1,-10 3,-14 1,-3 4,-6 7,-8 3,-2 7,-3 12,-3 4,0 8,1 11,3 3,2 6,5 8,8 1,4 2,9 2,14 0,5 -1,9 -2,13 -2,4 -5,6 -8,9 -3,2 -7,3 -11,3 z m 0,-4 c 5,0 9,-2 12,-6 3,-4 5,-9 5,-15 0,-7 -2,-12 -5,-16 -3,-4 -7,-5 -12,-5 -6,0 -10,1 -13,5 -3,4 -5,9 -5,16 0,6 2,11 5,15 3,4 7,6 13,6 z m 37,3 c -1,0 -2,0 -2,-2 v -45 c 0,-1 1,-2 2,-2 1,0 2,1 2,2 v 7 c 2,-3 4,-5 7,-7 3,-2 6,-2 10,-2 12,0 17,6 17,18 v 29 c 0,2 0,2 -2,2 -1,0 -2,0 -2,-2 v -29 c 0,-5 -1,-8 -3,-11 -2,-2 -5,-3 -10,-3 -5,0 -9,1 -12,4 -3,3 -5,8 -5,13 v 26 c 0,2 -1,2 -2,2 z m 91,1 c -4,0 -7,-2 -10,-4 -2,-3 -3,-7 -3,-12 v -54 c 0,-2 1,-2 2,-2 1,0 2,0 2,2 v 54 c 0,8 3,12 9,12 1,0 2,0 2,0 1,0 1,0 2,0 1,0 1,0 1,1 0,1 0,1 0,2 -1,0 -1,0 -2,0 -1,0 -1,1 -2,1 0,0 -1,0 -1,0 z m 29,0 c -3,0 -6,-1 -9,-2 -2,-2 -4,-3 -6,-5 -1,-3 -2,-5 -2,-8 0,-3 1,-6 3,-8 2,-2 5,-4 9,-4 4,-1 10,-2 18,-2 h 3 v -4 c 0,-4 -1,-8 -3,-10 -2,-2 -5,-3 -9,-3 -5,0 -10,1 -15,4 -1,1 -2,1 -3,0 0,0 -1,-1 -1,-2 0,0 1,-1 2,-1 2,-2 5,-3 8,-4 3,-1 6,-1 9,-1 5,0 9,1 12,4 3,3 4,7 4,13 v 30 c 0,2 -1,2 -2,2 -1,0 -2,0 -2,-2 v -7 c -2,3 -4,5 -6,7 -3,2 -6,3 -10,3 z m 0,-4 c 3,0 6,-1 8,-2 3,-2 4,-4 6,-7 1,-2 2,-5 2,-8 v -4 h -3 c -7,0 -12,0 -15,1 -4,0 -7,1 -8,3 -1,1 -2,3 -2,6 0,3 1,6 3,8 2,2 5,3 9,3 z m 63,-59 c -2,0 -3,-1 -3,-3 0,-3 1,-4 3,-4 3,0 4,1 4,4 0,2 -1,3 -4,3 z m 0,62 c -1,0 -2,-1 -2,-2 v -45 c 0,-1 1,-2 2,-2 2,0 3,1 3,2 v 45 c 0,1 -1,2 -3,2 z m 22,0 c -2,0 -2,0 -2,-2 v -45 c 0,-1 0,-2 2,-2 1,0 2,1 2,2 v 7 c 1,-3 3,-5 6,-7 3,-2 6,-2 9,-2 8,0 13,3 15,10 1,-3 4,-6 6,-8 3,-1 7,-2 10,-2 11,0 16,6 16,18 v 29 c 0,2 0,2 -2,2 -1,0 -2,0 -2,-2 v -29 c 0,-5 -1,-8 -3,-11 -1,-2 -4,-3 -9,-3 -4,0 -8,1 -11,4 -2,3 -4,8 -4,13 v 26 c 0,2 -1,2 -2,2 -1,0 -2,0 -2,-2 v -29 c 0,-5 -1,-8 -3,-11 -2,-2 -5,-3 -9,-3 -5,0 -8,1 -11,4 -3,3 -4,8 -4,13 v 26 c 0,2 -1,2 -2,2 z m 84,18 c -2,0 -3,0 -3,-2 v -63 c 0,-1 1,-2 3,-2 1,0 2,1 2,2 v 8 c 1,-3 3,-6 6,-8 3,-1 7,-2 11,-2 4,0 8,1 11,3 4,2 6,5 8,8 2,4 2,8 2,14 0,7 -2,13 -5,18 -4,4 -9,7 -16,7 -4,0 -8,-1 -11,-3 -3,-2 -5,-4 -6,-8 v 26 c 0,2 -1,2 -2,2 z m 19,-21 c 5,0 9,-2 12,-6 4,-4 5,-9 5,-15 0,-7 -1,-12 -5,-16 -3,-4 -7,-5 -12,-5 -5,0 -10,1 -13,5 -3,4 -4,9 -4,16 0,6 1,11 4,15 3,4 8,6 13,6 z m 48,4 c -4,0 -7,-2 -9,-4 -3,-3 -4,-7 -4,-12 v -54 c 0,-2 1,-2 2,-2 2,0 2,0 2,2 v 54 c 0,8 4,12 10,12 0,0 1,0 2,0 0,0 0,0 1,0 1,0 2,0 2,1 0,1 -1,1 -1,2 0,0 -1,0 -2,0 0,0 -1,1 -1,1 -1,0 -1,0 -2,0 z m 34,0 c -7,0 -13,-3 -17,-7 -4,-4 -6,-11 -6,-18 0,-5 1,-10 3,-13 2,-4 4,-7 8,-9 3,-2 7,-3 11,-3 7,0 12,2 15,6 3,4 5,10 5,17 0,2 -1,2 -2,2 h -36 c 0,7 2,12 5,15 4,4 8,6 14,6 3,0 5,-1 8,-1 2,-1 4,-2 7,-4 0,-1 1,-1 2,-1 1,1 1,1 1,2 0,1 0,1 -1,2 -2,2 -4,3 -7,4 -3,1 -7,2 -10,2 z m -1,-47 c -5,0 -9,2 -12,6 -3,3 -5,7 -6,13 h 34 c 0,-6 -1,-10 -4,-14 -3,-3 -7,-5 -12,-5 z m 36,46 c -2,0 -2,0 -2,-2 v -45 c 0,-1 0,-2 2,-2 1,0 2,1 2,2 v 7 c 1,-3 3,-5 6,-7 3,-2 6,-2 9,-2 8,0 13,3 15,10 1,-3 3,-6 6,-8 3,-1 7,-2 10,-2 11,0 16,6 16,18 v 29 c 0,2 0,2 -2,2 -1,0 -2,0 -2,-2 v -29 c 0,-5 -1,-8 -3,-11 -1,-2 -5,-3 -9,-3 -4,0 -8,1 -11,4 -3,3 -4,8 -4,13 v 26 c 0,2 -1,2 -2,2 -1,0 -2,0 -2,-2 v -29 c 0,-5 -1,-8 -3,-11 -2,-2 -5,-3 -9,-3 -5,0 -8,1 -11,4 -3,3 -4,8 -4,13 v 26 c 0,2 -1,2 -2,2 z m 101,1 c -7,0 -12,-3 -17,-7 -4,-4 -6,-11 -6,-18 0,-5 1,-10 3,-13 2,-4 4,-7 8,-9 3,-2 7,-3 12,-3 6,0 11,2 14,6 4,4 5,10 5,17 0,2 0,2 -2,2 h -36 c 1,7 2,12 6,15 3,4 7,6 13,6 3,0 5,-1 8,-1 2,-1 4,-2 7,-4 0,-1 1,-1 2,-1 1,1 1,1 1,2 0,1 0,1 -1,2 -2,2 -4,3 -7,4 -3,1 -6,2 -10,2 z m -1,-47 c -5,0 -9,2 -12,6 -3,3 -5,7 -5,13 h 33 c 0,-6 -1,-10 -4,-14 -3,-3 -6,-5 -12,-5 z m 36,46 c -2,0 -2,0 -2,-2 v -45 c 0,-1 0,-2 2,-2 1,0 2,1 2,2 v 7 c 1,-3 4,-5 7,-7 3,-2 6,-2 10,-2 11,0 17,6 17,18 v 29 c 0,2 -1,2 -2,2 -1,0 -2,0 -2,-2 v -29 c 0,-5 -1,-8 -3,-11 -2,-2 -6,-3 -10,-3 -5,0 -9,1 -13,4 -3,3 -4,8 -4,13 v 26 c 0,2 -1,2 -2,2 z m 70,1 c -5,0 -9,-2 -11,-5 -3,-3 -4,-7 -4,-12 v -29 h -8 c -2,0 -3,-1 -3,-2 0,-1 1,-2 3,-2 h 8 v -13 c 0,-2 0,-2 2,-2 1,0 2,0 2,2 v 13 h 14 c 2,0 2,1 2,2 0,1 0,2 -2,2 h -14 v 28 c 0,5 1,8 3,10 1,3 4,4 8,4 2,0 3,0 4,-1 1,0 1,0 2,0 1,0 1,0 1,2 0,0 0,0 0,1 0,0 0,0 -1,1 0,0 -1,0 -3,0 -1,1 -2,1 -3,1 z m 30,0 c -4,0 -6,-1 -9,-2 -3,-2 -5,-3 -6,-5 -1,-3 -2,-5 -2,-8 0,-3 1,-6 2,-8 2,-2 5,-4 10,-4 4,-1 10,-2 17,-2 h 3 v -4 c 0,-4 -1,-8 -2,-10 -2,-2 -5,-3 -9,-3 -6,0 -11,1 -16,4 -1,1 -1,1 -2,0 -1,0 -1,-1 -1,-2 0,0 0,-1 1,-1 3,-2 6,-3 9,-4 3,-1 5,-1 8,-1 6,0 10,1 13,4 2,3 4,7 4,13 v 30 c 0,2 -1,2 -2,2 -2,0 -3,0 -3,-2 v -7 c -1,3 -3,5 -6,7 -3,2 -6,3 -9,3 z m 0,-4 c 3,0 6,-1 8,-2 2,-2 4,-4 5,-7 2,-2 2,-5 2,-8 v -4 h -2 c -7,0 -12,0 -16,1 -3,0 -6,1 -7,3 -2,1 -3,3 -3,6 0,3 2,6 4,8 2,2 5,3 9,3 z m 55,4 c -4,0 -8,-1 -12,-4 -3,-2 -5,-5 -7,-8 -2,-4 -3,-9 -3,-14 0,-7 2,-13 6,-18 4,-4 9,-6 16,-6 3,0 5,0 8,1 3,1 5,2 7,4 1,1 1,2 1,2 -1,1 -1,1 -2,2 0,0 -1,0 -2,-1 -2,-2 -4,-3 -6,-4 -2,0 -4,0 -6,0 -6,0 -10,1 -13,5 -3,4 -5,9 -5,15 0,7 2,12 5,16 3,4 7,6 13,6 2,0 4,-1 6,-1 2,-1 4,-2 6,-4 1,-1 2,-1 2,0 1,0 1,0 2,1 0,1 0,1 -1,2 -2,2 -4,3 -7,4 -3,1 -5,2 -8,2 z m 29,-63 c -2,0 -4,-1 -4,-3 0,-3 2,-4 4,-4 2,0 3,1 3,4 0,2 -1,3 -3,3 z m 0,62 c -1,0 -2,-1 -2,-2 v -45 c 0,-1 1,-2 2,-2 1,0 2,1 2,2 v 45 c 0,1 -1,2 -2,2 z m 37,1 c -4,0 -8,-1 -11,-3 -3,-3 -6,-5 -8,-9 -1,-4 -2,-8 -2,-13 0,-5 1,-10 2,-14 2,-3 5,-6 8,-8 3,-2 7,-3 11,-3 5,0 9,1 12,3 3,2 6,5 7,8 2,4 3,9 3,14 0,5 -1,9 -3,13 -1,4 -4,6 -7,9 -3,2 -7,3 -12,3 z m 0,-4 c 6,0 10,-2 13,-6 3,-4 5,-9 5,-15 0,-7 -2,-12 -5,-16 -3,-4 -7,-5 -13,-5 -5,0 -9,1 -12,5 -3,4 -5,9 -5,16 0,6 2,11 5,15 3,4 7,6 12,6 z m 2,-52 c 0,0 0,0 -1,0 -1,0 -1,0 -1,0 -1,-1 -1,-1 0,-2 l 9,-17 c 0,-2 1,-2 2,-2 1,0 1,0 2,1 0,1 0,2 0,3 z m 36,55 c -1,0 -2,0 -2,-2 v -45 c 0,-1 1,-2 2,-2 1,0 2,1 2,2 v 7 c 2,-3 4,-5 7,-7 3,-2 6,-2 10,-2 12,0 17,6 17,18 v 29 c 0,2 0,2 -2,2 -1,0 -2,0 -2,-2 v -29 c 0,-5 -1,-8 -3,-11 -2,-2 -5,-3 -10,-3 -5,0 -9,1 -12,4 -3,3 -5,8 -5,13 v 26 c 0,2 -1,2 -2,2 z m 96,1 c -4,0 -8,-1 -11,-3 -4,-2 -6,-5 -8,-9 -2,-4 -2,-8 -2,-13 0,-8 1,-14 5,-19 4,-4 9,-6 16,-6 4,0 8,1 11,2 3,2 5,5 6,8 v -30 c 0,-2 1,-2 2,-2 2,0 3,0 3,2 v 67 c 0,2 -1,2 -3,2 -1,0 -2,0 -2,-2 v -8 c -1,4 -3,6 -6,8 -3,2 -7,3 -11,3 z m 0,-4 c 5,0 10,-2 13,-6 3,-4 4,-9 4,-15 0,-7 -1,-12 -4,-16 -3,-4 -8,-5 -13,-5 -5,0 -9,1 -12,5 -4,4 -5,9 -5,16 0,6 1,11 5,15 3,4 7,6 12,6 z m 59,4 c -8,0 -13,-3 -17,-7 -5,-4 -7,-11 -7,-18 0,-5 1,-10 3,-13 2,-4 5,-7 8,-9 3,-2 7,-3 12,-3 6,0 11,2 14,6 4,4 6,10 6,17 0,2 -1,2 -3,2 h -35 c 0,7 1,12 5,15 3,4 8,6 13,6 3,0 6,-1 8,-1 2,-1 5,-2 7,-4 1,-1 1,-1 2,-1 1,1 1,1 1,2 1,1 0,1 -1,2 -2,2 -4,3 -7,4 -3,1 -6,2 -9,2 z m -1,-47 c -6,0 -10,2 -13,6 -3,3 -5,7 -5,13 h 34 c -1,-6 -2,-10 -5,-14 -2,-3 -6,-5 -11,-5 z m 73,47 c -4,0 -7,-1 -9,-2 -3,-1 -6,-2 -9,-4 0,-1 -1,-1 -1,-2 1,-1 1,-1 2,-2 0,0 1,0 2,1 2,2 5,3 7,4 3,0 5,1 8,1 4,0 7,-1 10,-3 2,-1 3,-4 3,-7 0,-2 -1,-4 -2,-5 -2,-1 -4,-2 -7,-3 l -9,-2 c -4,-1 -7,-3 -9,-5 -2,-2 -3,-4 -3,-8 0,-4 2,-7 5,-10 3,-2 7,-3 13,-3 3,0 5,0 8,1 3,1 5,2 7,4 1,1 1,2 1,2 0,1 -1,2 -1,2 -1,0 -2,0 -3,-1 -1,-1 -3,-3 -6,-3 -2,-1 -4,-1 -6,-1 -5,0 -8,0 -10,2 -2,2 -3,4 -3,7 0,2 0,4 2,6 1,1 3,2 6,3 l 9,2 c 4,1 7,2 9,4 3,2 4,5 4,8 0,4 -2,8 -5,10 -4,2 -8,4 -13,4 z m 50,0 c -4,0 -8,-1 -11,-3 -3,-3 -6,-5 -8,-9 -1,-4 -2,-8 -2,-13 0,-5 1,-10 2,-14 2,-3 5,-6 8,-8 3,-2 7,-3 11,-3 5,0 9,1 12,3 3,2 6,5 7,8 2,4 3,9 3,14 0,5 -1,9 -3,13 -1,4 -4,6 -7,9 -3,2 -7,3 -12,3 z m 0,-4 c 6,0 10,-2 13,-6 3,-4 5,-9 5,-15 0,-7 -2,-12 -5,-16 -3,-4 -7,-5 -13,-5 -5,0 -9,1 -12,5 -3,4 -5,9 -5,16 0,6 2,11 5,15 3,4 7,6 12,6 z m 49,4 c -4,0 -8,-2 -10,-4 -2,-3 -3,-7 -3,-12 v -54 c 0,-2 0,-2 2,-2 1,0 2,0 2,2 v 54 c 0,8 3,12 9,12 1,0 2,0 2,0 0,0 1,0 1,0 2,0 2,0 2,1 0,1 0,1 0,2 -1,0 -2,0 -2,0 -1,0 -1,1 -2,1 0,0 -1,0 -1,0 z m 31,0 c -6,0 -10,-2 -13,-5 -3,-3 -4,-8 -4,-14 v -29 c 0,-1 1,-2 2,-2 2,0 2,1 2,2 v 29 c 0,5 1,9 3,11 2,2 6,4 10,4 5,0 9,-2 12,-5 3,-3 5,-8 5,-13 v -26 c 0,-1 0,-2 2,-2 1,0 2,1 2,2 v 45 c 0,2 -1,2 -2,2 -2,0 -2,0 -2,-2 v -7 c -2,3 -4,5 -7,7 -3,2 -6,3 -10,3 z m 57,0 c -5,0 -9,-1 -12,-4 -4,-2 -6,-5 -8,-8 -2,-4 -2,-9 -2,-14 0,-7 2,-13 5,-18 4,-4 10,-6 17,-6 2,0 5,0 7,1 3,1 5,2 7,4 1,1 1,2 1,2 0,1 -1,1 -1,2 -1,0 -2,0 -3,-1 -1,-2 -3,-3 -6,-4 -2,0 -4,0 -5,0 -6,0 -10,1 -14,5 -3,4 -4,9 -4,15 0,7 1,12 4,16 4,4 8,6 14,6 1,0 3,-1 5,-1 3,-1 5,-2 6,-4 1,-1 2,-1 3,0 0,0 1,0 1,1 0,1 0,1 -1,2 -2,2 -4,3 -7,4 -2,1 -5,2 -7,2 z"
   id="path85" />
   <path
   class="fil16"
   d="m 1398,186 c -2,0 -3,-1 -3,-3 0,-3 1,-4 3,-4 3,0 4,1 4,4 0,2 -1,3 -4,3 z m 0,62 c -1,0 -2,-1 -2,-2 v -45 c 0,-1 1,-2 2,-2 2,0 2,1 2,2 v 45 c 0,1 0,2 -2,2 z m 38,1 c -5,0 -8,-1 -12,-3 -3,-3 -5,-5 -7,-9 -2,-4 -3,-8 -3,-13 0,-5 1,-10 3,-14 2,-3 4,-6 7,-8 4,-2 7,-3 12,-3 4,0 8,1 11,3 4,2 6,5 8,8 2,4 2,9 2,14 0,5 0,9 -2,13 -2,4 -4,6 -8,9 -3,2 -7,3 -11,3 z m 0,-4 c 5,0 9,-2 12,-6 4,-4 5,-9 5,-15 0,-7 -1,-12 -5,-16 -3,-4 -7,-5 -12,-5 -5,0 -10,1 -13,5 -3,4 -4,9 -4,16 0,6 1,11 4,15 3,4 8,6 13,6 z m 37,3 c -1,0 -2,0 -2,-2 v -45 c 0,-1 1,-2 2,-2 2,0 2,1 2,2 v 7 c 2,-3 4,-5 7,-7 3,-2 7,-2 10,-2 12,0 18,6 18,18 v 29 c 0,2 -1,2 -2,2 -2,0 -2,0 -2,-2 v -29 c 0,-5 -1,-8 -4,-11 -2,-2 -5,-3 -10,-3 -5,0 -9,1 -12,4 -3,3 -5,8 -5,13 v 26 c 0,2 0,2 -2,2 z m 74,1 c -8,0 -13,-3 -17,-7 -5,-4 -7,-11 -7,-18 0,-5 1,-10 3,-13 2,-4 5,-7 8,-9 3,-2 7,-3 12,-3 6,0 11,2 14,6 4,4 6,10 6,17 0,2 -1,2 -3,2 h -35 c 0,7 1,12 5,15 3,4 8,6 13,6 3,0 6,-1 8,-1 2,-1 5,-2 7,-4 1,-1 1,-1 2,-1 1,1 1,1 1,2 1,1 0,1 -1,2 -2,2 -4,3 -7,4 -3,1 -6,2 -9,2 z m -1,-47 c -6,0 -10,2 -13,6 -3,3 -5,7 -5,13 h 34 c -1,-6 -2,-10 -5,-14 -2,-3 -6,-5 -11,-5 z m 48,47 c -3,0 -6,-1 -9,-2 -3,-1 -6,-2 -8,-4 -1,-1 -1,-1 -1,-2 0,-1 0,-1 1,-2 1,0 1,0 2,1 3,2 5,3 8,4 2,0 5,1 7,1 5,0 8,-1 10,-3 2,-1 4,-4 4,-7 0,-2 -1,-4 -3,-5 -1,-1 -4,-2 -7,-3 l -8,-2 c -4,-1 -7,-3 -9,-5 -2,-2 -3,-4 -3,-8 0,-4 1,-7 4,-10 4,-2 8,-3 13,-3 3,0 6,0 8,1 3,1 5,2 7,4 1,1 1,2 1,2 0,1 0,2 -1,2 -1,0 -1,0 -2,-1 -2,-1 -4,-3 -6,-3 -2,-1 -5,-1 -7,-1 -4,0 -7,0 -10,2 -2,2 -3,4 -3,7 0,2 1,4 2,6 2,1 4,2 7,3 l 8,2 c 4,1 8,2 10,4 2,2 3,5 3,8 0,4 -2,8 -5,10 -3,2 -8,4 -13,4 z m 74,0 c -5,0 -9,-2 -11,-5 -3,-3 -4,-7 -4,-12 v -29 h -8 c -2,0 -3,-1 -3,-2 0,-1 1,-2 3,-2 h 8 v -13 c 0,-2 0,-2 2,-2 1,0 2,0 2,2 v 13 h 14 c 2,0 2,1 2,2 0,1 0,2 -2,2 h -14 v 28 c 0,5 1,8 3,10 1,3 4,4 8,4 2,0 3,0 4,-1 1,0 1,0 2,0 1,0 1,0 1,2 0,0 0,0 0,1 0,0 0,0 -1,1 0,0 -1,0 -3,0 -1,1 -2,1 -3,1 z m 35,0 c -8,0 -13,-3 -18,-7 -4,-4 -6,-11 -6,-18 0,-5 1,-10 3,-13 2,-4 5,-7 8,-9 3,-2 7,-3 12,-3 6,0 11,2 14,6 4,4 5,10 5,17 0,2 0,2 -2,2 h -35 c 0,7 1,12 5,15 3,4 7,6 13,6 3,0 6,-1 8,-1 2,-1 4,-2 7,-4 1,-1 1,-1 2,-1 1,1 1,1 1,2 1,1 0,1 -1,2 -2,2 -4,3 -7,4 -3,1 -6,2 -9,2 z m -1,-47 c -6,0 -10,2 -13,6 -3,3 -5,7 -5,13 h 34 c -1,-6 -2,-10 -5,-14 -2,-3 -6,-5 -11,-5 z m 52,47 c -5,0 -9,-1 -12,-4 -3,-2 -6,-5 -8,-8 -2,-4 -2,-9 -2,-14 0,-7 2,-13 5,-18 4,-4 10,-6 17,-6 2,0 5,0 7,1 3,1 5,2 7,4 1,1 1,2 1,2 0,1 -1,1 -1,2 -1,0 -2,0 -3,-1 -1,-2 -3,-3 -5,-4 -3,0 -5,0 -6,0 -6,0 -10,1 -14,5 -3,4 -4,9 -4,15 0,7 1,12 4,16 4,4 8,6 14,6 1,0 3,-1 6,-1 2,-1 4,-2 5,-4 1,-1 2,-1 3,0 0,0 1,0 1,1 0,1 0,1 -1,2 -2,2 -4,3 -7,4 -2,1 -5,2 -7,2 z m 28,-1 c -1,0 -2,0 -2,-2 v -45 c 0,-1 1,-2 2,-2 2,0 2,1 2,2 v 7 c 2,-3 4,-5 7,-7 3,-2 7,-2 10,-2 12,0 18,6 18,18 v 29 c 0,2 -1,2 -2,2 -2,0 -2,0 -2,-2 v -29 c 0,-5 -1,-8 -4,-11 -2,-2 -5,-3 -10,-3 -5,0 -9,1 -12,4 -3,3 -5,8 -5,13 v 26 c 0,2 0,2 -2,2 z m 72,1 c -4,0 -8,-1 -11,-3 -4,-3 -6,-5 -8,-9 -2,-4 -3,-8 -3,-13 0,-5 1,-10 3,-14 2,-3 4,-6 8,-8 3,-2 7,-3 11,-3 4,0 8,1 11,3 4,2 6,5 8,8 2,4 3,9 3,14 0,5 -1,9 -3,13 -2,4 -4,6 -8,9 -3,2 -7,3 -11,3 z m 0,-4 c 5,0 10,-2 13,-6 3,-4 4,-9 4,-15 0,-7 -1,-12 -4,-16 -3,-4 -8,-5 -13,-5 -5,0 -10,1 -13,5 -3,4 -4,9 -4,16 0,6 1,11 4,15 3,4 8,6 13,6 z m 49,4 c -5,0 -8,-2 -10,-4 -2,-3 -4,-7 -4,-12 v -54 c 0,-2 1,-2 2,-2 2,0 3,0 3,2 v 54 c 0,8 3,12 9,12 1,0 1,0 2,0 0,0 1,0 1,0 1,0 2,0 2,1 0,1 0,1 -1,2 0,0 -1,0 -2,0 0,0 -1,1 -1,1 -1,0 -1,0 -1,0 z m 32,0 c -5,0 -8,-1 -12,-3 -3,-3 -5,-5 -7,-9 -2,-4 -3,-8 -3,-13 0,-5 1,-10 3,-14 2,-3 4,-6 7,-8 4,-2 7,-3 12,-3 4,0 8,1 11,3 3,2 6,5 8,8 1,4 2,9 2,14 0,5 -1,9 -2,13 -2,4 -5,6 -8,9 -3,2 -7,3 -11,3 z m 0,-4 c 5,0 9,-2 12,-6 4,-4 5,-9 5,-15 0,-7 -1,-12 -5,-16 -3,-4 -7,-5 -12,-5 -6,0 -10,1 -13,5 -3,4 -5,9 -5,16 0,6 2,11 5,15 3,4 7,6 13,6 z m 2,-52 c -1,0 -1,0 -2,0 0,0 -1,0 -1,0 0,-1 0,-1 0,-2 l 9,-17 c 1,-2 1,-2 2,-2 1,0 2,0 2,1 1,1 1,2 0,3 z m 54,74 c -4,0 -7,-1 -11,-2 -3,-1 -6,-2 -9,-5 0,0 -1,-1 -1,-1 1,-1 1,-2 2,-2 0,0 1,0 1,0 3,2 6,4 9,4 3,1 5,2 9,2 5,0 9,-2 11,-5 3,-2 4,-6 4,-12 v -10 c -1,3 -4,6 -7,8 -3,2 -6,3 -10,3 -5,0 -9,-1 -12,-3 -3,-2 -6,-5 -7,-9 -2,-3 -3,-8 -3,-12 0,-5 1,-9 3,-13 1,-4 4,-6 7,-8 3,-2 7,-3 12,-3 4,0 7,1 10,2 3,2 6,5 7,8 v -8 c 0,-1 1,-2 2,-2 1,0 2,1 2,2 v 45 c 0,14 -6,21 -19,21 z m -2,-24 c 5,0 9,-2 12,-6 3,-3 5,-8 5,-14 0,-7 -2,-11 -5,-15 -3,-4 -7,-5 -12,-5 -6,0 -10,1 -13,5 -3,4 -5,8 -5,15 0,6 2,11 5,14 3,4 7,6 13,6 z m 40,-57 c -2,0 -3,-1 -3,-3 0,-3 1,-4 3,-4 3,0 4,1 4,4 0,2 -1,3 -4,3 z m 0,62 c -1,0 -2,-1 -2,-2 v -45 c 0,-1 1,-2 2,-2 2,0 2,1 2,2 v 45 c 0,1 0,2 -2,2 z m 38,1 c -4,0 -8,-1 -12,-4 -3,-2 -5,-5 -7,-8 -2,-4 -3,-9 -3,-14 0,-7 2,-13 6,-18 4,-4 9,-6 16,-6 3,0 5,0 8,1 3,1 5,2 7,4 1,1 1,2 1,2 -1,1 -1,1 -2,2 0,0 -1,0 -2,-1 -2,-2 -4,-3 -6,-4 -2,0 -4,0 -6,0 -6,0 -10,1 -13,5 -3,4 -5,9 -5,15 0,7 2,12 5,16 3,4 7,6 13,6 2,0 4,-1 6,-1 2,-1 4,-2 6,-4 1,-1 2,-1 2,0 1,0 1,0 2,1 0,1 0,1 -1,2 -2,2 -4,3 -7,4 -3,1 -5,2 -8,2 z m 41,0 c -3,0 -6,-1 -9,-2 -2,-2 -4,-3 -6,-5 -1,-3 -2,-5 -2,-8 0,-3 1,-6 3,-8 2,-2 5,-4 9,-4 4,-1 10,-2 18,-2 h 3 v -4 c 0,-4 -1,-8 -3,-10 -2,-2 -5,-3 -9,-3 -5,0 -10,1 -15,4 -1,1 -2,1 -3,0 0,0 -1,-1 -1,-2 0,0 1,-1 2,-1 2,-2 5,-3 8,-4 3,-1 6,-1 9,-1 5,0 9,1 12,4 3,3 4,7 4,13 v 30 c 0,2 -1,2 -2,2 -1,0 -2,0 -2,-2 v -7 c -2,3 -4,5 -6,7 -3,2 -6,3 -10,3 z m 0,-4 c 3,0 6,-1 8,-2 3,-2 4,-4 6,-7 1,-2 2,-5 2,-8 v -4 h -3 c -7,0 -12,0 -15,1 -4,0 -7,1 -8,3 -1,1 -2,3 -2,6 0,3 1,6 3,8 2,2 5,3 9,3 z m 52,4 c -3,0 -6,-1 -9,-2 -3,-1 -6,-2 -8,-4 -1,-1 -1,-1 -1,-2 0,-1 0,-1 1,-2 0,0 1,0 2,1 2,2 5,3 8,4 2,0 5,1 7,1 4,0 8,-1 10,-3 2,-1 4,-4 4,-7 0,-2 -1,-4 -3,-5 -1,-1 -4,-2 -7,-3 l -8,-2 c -4,-1 -8,-3 -9,-5 -2,-2 -3,-4 -3,-8 0,-4 1,-7 4,-10 3,-2 8,-3 13,-3 3,0 6,0 8,1 3,1 5,2 7,4 1,1 1,2 1,2 0,1 0,2 -1,2 -1,0 -1,0 -2,-1 -2,-1 -4,-3 -6,-3 -3,-1 -5,-1 -7,-1 -4,0 -7,0 -10,2 -2,2 -3,4 -3,7 0,2 1,4 2,6 1,1 4,2 7,3 l 8,2 c 4,1 8,2 10,4 2,2 3,5 3,8 0,4 -2,8 -5,10 -3,2 -8,4 -13,4 z M 20,386 c -1,0 -2,-1 -2,-2 v -67 c 0,-1 1,-2 2,-2 h 24 c 7,0 13,2 17,5 4,4 5,9 5,15 0,7 -1,12 -5,16 -4,3 -10,5 -17,5 H 22 v 28 c 0,1 0,2 -2,2 z m 2,-34 h 21 c 13,0 19,-6 19,-17 0,-11 -6,-16 -19,-16 H 22 Z m 69,34 c -3,0 -6,0 -9,-2 -2,-1 -4,-3 -6,-5 -1,-2 -2,-4 -2,-7 0,-4 1,-6 3,-8 1,-2 4,-4 9,-5 4,-1 10,-1 17,-1 h 3 v -4 c 0,-5 0,-8 -2,-10 -2,-3 -5,-4 -9,-4 -5,0 -10,2 -16,5 -1,0 -1,0 -2,0 -1,-1 -1,-1 -1,-2 0,-1 1,-1 1,-2 3,-1 6,-3 9,-3 3,-1 6,-2 8,-2 6,0 10,2 13,5 2,2 4,7 4,13 v 30 c 0,1 -1,2 -2,2 -2,0 -2,-1 -2,-2 v -7 c -2,3 -4,5 -7,7 -2,1 -6,2 -9,2 z m 0,-3 c 3,0 6,-1 8,-3 2,-1 4,-3 5,-6 2,-2 2,-5 2,-9 v -3 h -2 c -7,0 -12,0 -16,1 -3,0 -6,1 -7,3 -2,1 -2,3 -2,6 0,3 1,5 3,7 2,3 5,4 9,4 z m 39,3 c -2,0 -3,-1 -3,-2 v -45 c 0,-2 1,-2 3,-2 1,0 2,0 2,2 v 7 c 1,-3 3,-6 6,-7 3,-2 7,-3 11,-3 0,0 1,0 1,0 1,1 1,1 1,2 0,1 -1,2 -2,2 h -2 c -5,1 -8,2 -11,5 -3,3 -4,7 -4,12 v 27 c 0,1 -1,2 -2,2 z m 44,0 c -3,0 -6,0 -8,-2 -3,-1 -5,-3 -6,-5 -2,-2 -2,-4 -2,-7 0,-4 0,-6 2,-8 2,-2 5,-4 9,-5 5,-1 11,-1 18,-1 h 3 v -4 c 0,-5 -1,-8 -3,-10 -2,-3 -5,-4 -9,-4 -5,0 -10,2 -15,5 -1,0 -2,0 -2,0 -1,-1 -1,-1 -1,-2 0,-1 0,-1 1,-2 3,-1 5,-3 8,-3 3,-1 6,-2 9,-2 6,0 10,2 12,5 3,2 4,7 4,13 v 30 c 0,1 0,2 -2,2 -1,0 -2,-1 -2,-2 v -7 c -1,3 -3,5 -6,7 -3,1 -6,2 -10,2 z m 1,-3 c 3,0 5,-1 8,-3 2,-1 4,-3 5,-6 1,-2 2,-5 2,-9 v -3 h -3 c -6,0 -11,0 -15,1 -4,0 -6,1 -8,3 -1,1 -2,3 -2,6 0,3 1,5 4,7 2,3 5,4 9,4 z m 81,3 c -7,0 -13,-2 -17,-6 -4,-5 -7,-11 -7,-18 0,-6 1,-10 3,-14 2,-3 5,-6 8,-9 4,-2 7,-3 12,-3 6,0 11,2 14,6 4,5 6,10 6,18 0,1 -1,2 -3,2 h -35 c 0,7 2,12 5,15 3,4 8,5 14,5 2,0 5,0 7,-1 2,0 5,-2 7,-3 1,-1 2,-1 2,-1 1,0 1,1 2,2 0,0 -1,1 -1,2 -2,1 -5,3 -8,4 -3,1 -6,1 -9,1 z m -1,-46 c -6,0 -10,2 -13,5 -3,4 -5,8 -5,13 h 34 c 0,-5 -2,-10 -5,-13 -2,-3 -6,-5 -11,-5 z m 46,46 c -4,0 -7,-1 -10,-4 -2,-2 -3,-6 -3,-11 v -54 c 0,-2 1,-3 2,-3 1,0 2,1 2,3 v 53 c 0,8 3,12 10,12 0,0 1,0 1,0 1,0 1,0 2,0 1,0 1,1 1,2 0,0 0,1 0,1 -1,1 -1,1 -2,1 -1,0 -1,0 -2,0 0,0 0,0 -1,0 z m 41,0 c -1,0 -2,-1 -2,-2 v -45 c 0,-2 1,-2 2,-2 2,0 2,0 2,2 v 7 c 2,-3 4,-6 7,-7 2,-2 5,-3 9,-3 8,0 12,4 14,11 2,-4 4,-6 7,-8 3,-2 6,-3 10,-3 11,0 16,6 16,19 v 29 c 0,1 -1,2 -2,2 -2,0 -2,-1 -2,-2 v -29 c 0,-5 -1,-9 -3,-11 -2,-3 -5,-4 -9,-4 -5,0 -8,2 -11,5 -3,3 -4,7 -4,13 v 26 c 0,1 -1,2 -2,2 -2,0 -3,-1 -3,-2 v -29 c 0,-5 0,-9 -2,-11 -2,-3 -5,-4 -9,-4 -5,0 -9,2 -11,5 -3,3 -5,7 -5,13 v 26 c 0,1 0,2 -2,2 z m 102,0 c -7,0 -13,-2 -17,-6 -4,-5 -6,-11 -6,-18 0,-6 1,-10 3,-14 1,-3 4,-6 7,-9 4,-2 8,-3 12,-3 6,0 11,2 15,6 3,5 5,10 5,18 0,1 -1,2 -2,2 h -36 c 0,7 2,12 5,15 3,4 8,5 14,5 2,0 5,0 7,-1 3,0 5,-2 7,-3 1,-1 2,-1 3,-1 0,0 1,1 1,2 0,0 0,1 -1,2 -2,1 -5,3 -8,4 -3,1 -6,1 -9,1 z m -1,-46 c -5,0 -10,2 -13,5 -3,4 -4,8 -5,13 h 34 c 0,-5 -2,-10 -4,-13 -3,-3 -7,-5 -12,-5 z"
   id="path87" />
   <path
   class="fil16"
   d="m 479,324 c -3,0 -4,-1 -4,-4 0,-2 1,-3 4,-3 2,0 3,1 3,3 0,3 -1,4 -3,4 z m -15,81 c -1,0 -1,-1 -2,-1 0,-1 0,-1 0,-2 0,-1 1,-1 2,-1 4,0 7,-1 9,-3 2,-2 4,-6 4,-10 v -49 c 0,-2 0,-2 2,-2 1,0 2,0 2,2 v 49 c 0,5 -2,10 -5,13 -3,2 -7,4 -12,4 z m 52,-19 c -4,0 -8,-1 -11,-3 -4,-2 -6,-5 -8,-8 -2,-4 -2,-9 -2,-14 0,-5 0,-9 2,-13 2,-4 4,-7 8,-9 3,-2 7,-3 11,-3 5,0 8,1 12,3 3,2 5,5 7,9 2,4 3,8 3,13 0,5 -1,10 -3,14 -2,3 -4,6 -7,8 -4,2 -7,3 -12,3 z m 0,-4 c 5,0 10,-1 13,-5 3,-4 4,-9 4,-16 0,-6 -1,-12 -4,-15 -3,-4 -8,-6 -13,-6 -5,0 -9,2 -12,6 -4,3 -5,9 -5,15 0,7 1,12 5,16 3,4 7,5 12,5 z m 38,4 c -2,0 -2,-1 -2,-2 v -45 c 0,-2 0,-2 2,-2 1,0 2,0 2,2 v 7 c 1,-3 3,-6 6,-7 3,-2 7,-3 11,-3 0,0 1,0 1,0 1,1 1,1 1,2 0,1 -1,2 -2,2 h -2 c -5,1 -8,2 -11,5 -3,3 -4,7 -4,12 v 27 c 0,1 -1,2 -2,2 z m 44,0 c -3,0 -6,0 -8,-2 -3,-1 -5,-3 -6,-5 -2,-2 -2,-4 -2,-7 0,-4 0,-6 2,-8 2,-2 5,-4 9,-5 5,-1 11,-1 18,-1 h 3 v -4 c 0,-5 -1,-8 -3,-10 -2,-3 -5,-4 -9,-4 -5,0 -10,2 -15,5 -1,0 -2,0 -2,0 -1,-1 -1,-1 -1,-2 0,-1 0,-1 1,-2 3,-1 5,-3 8,-3 3,-1 6,-2 9,-2 6,0 10,2 12,5 3,2 4,7 4,13 v 30 c 0,1 0,2 -2,2 -1,0 -2,-1 -2,-2 v -7 c -1,3 -3,5 -6,7 -3,1 -6,2 -10,2 z m 1,-3 c 3,0 5,-1 8,-3 2,-1 4,-3 5,-6 1,-2 2,-5 2,-9 v -3 h -3 c -6,0 -11,0 -15,1 -4,0 -6,1 -8,3 -1,1 -2,3 -2,6 0,3 1,5 4,7 2,3 5,4 9,4 z m 38,3 c -1,0 -2,-1 -2,-2 v -45 c 0,-2 1,-2 2,-2 2,0 2,0 2,2 v 7 c 2,-3 4,-6 7,-7 2,-2 5,-3 9,-3 8,0 13,4 15,11 1,-4 3,-6 6,-8 3,-2 6,-3 10,-3 11,0 16,6 16,19 v 29 c 0,1 -1,2 -2,2 -2,0 -2,-1 -2,-2 v -29 c 0,-5 -1,-9 -3,-11 -2,-3 -5,-4 -9,-4 -5,0 -8,2 -11,5 -3,3 -4,7 -4,13 v 26 c 0,1 -1,2 -2,2 -2,0 -2,-1 -2,-2 v -29 c 0,-5 -1,-9 -3,-11 -2,-3 -5,-4 -9,-4 -5,0 -9,2 -11,5 -3,3 -4,7 -4,13 v 26 c 0,1 -1,2 -3,2 z m 84,-62 c -2,0 -3,-1 -3,-4 0,-2 1,-3 3,-3 2,0 4,1 4,3 0,3 -2,4 -4,4 z m 0,62 c -1,0 -2,-1 -2,-2 v -45 c 0,-1 1,-2 2,-2 1,0 2,1 2,2 v 45 c 0,1 -1,2 -2,2 z m 39,0 c -7,0 -13,-2 -17,-6 -4,-5 -6,-11 -6,-18 0,-6 1,-10 3,-14 2,-3 4,-6 8,-9 3,-2 7,-3 11,-3 7,0 11,2 15,6 3,5 5,10 5,18 0,1 -1,2 -2,2 h -36 c 0,7 2,12 5,15 4,4 8,5 14,5 3,0 5,0 8,-1 2,0 4,-2 6,-3 1,-1 2,-1 3,-1 0,0 1,1 1,2 0,0 0,1 -1,2 -2,1 -5,3 -8,4 -3,1 -6,1 -9,1 z m -1,-46 c -5,0 -9,2 -12,5 -3,4 -5,8 -6,13 h 34 c 0,-5 -1,-10 -4,-13 -3,-3 -7,-5 -12,-5 z m 36,46 c -2,0 -3,-1 -3,-2 v -45 c 0,-2 1,-2 3,-2 1,0 2,0 2,2 v 7 c 1,-3 3,-6 6,-7 3,-2 7,-3 11,-3 11,0 17,6 17,19 v 29 c 0,1 -1,2 -2,2 -2,0 -2,-1 -2,-2 v -29 c 0,-5 -1,-9 -3,-11 -2,-3 -6,-4 -10,-4 -6,0 -10,2 -13,5 -3,3 -4,7 -4,13 v 26 c 0,1 -1,2 -2,2 z m 70,0 c -5,0 -9,-1 -12,-4 -2,-3 -3,-7 -3,-12 v -29 h -9 c -1,0 -2,-1 -2,-2 0,-1 1,-2 2,-2 h 9 v -13 c 0,-2 0,-3 2,-3 1,0 2,1 2,3 v 13 h 14 c 1,0 2,1 2,2 0,1 -1,2 -2,2 h -14 v 28 c 0,4 1,8 2,10 2,2 5,3 9,3 1,0 3,0 3,0 1,0 2,0 3,0 1,0 1,0 1,1 0,1 0,1 0,1 0,1 -1,1 -1,1 -1,0 -2,1 -3,1 -1,0 -2,0 -3,0 z m 33,0 c -5,0 -9,-1 -12,-3 -3,-2 -6,-5 -7,-8 -2,-4 -3,-9 -3,-14 0,-5 1,-9 3,-13 1,-4 4,-7 7,-9 3,-2 7,-3 12,-3 4,0 8,1 11,3 3,2 6,5 8,9 1,4 2,8 2,13 0,5 -1,10 -2,14 -2,3 -5,6 -8,8 -3,2 -7,3 -11,3 z m 0,-4 c 5,0 9,-1 12,-5 3,-4 5,-9 5,-16 0,-6 -2,-12 -5,-15 -3,-4 -7,-6 -12,-6 -6,0 -10,2 -13,6 -3,3 -5,9 -5,15 0,7 2,12 5,16 3,4 7,5 13,5 z m 78,4 c -4,0 -8,-1 -11,-3 -4,-2 -6,-5 -8,-8 -2,-4 -3,-9 -3,-14 0,-7 2,-13 6,-18 4,-4 9,-7 16,-7 4,0 8,1 11,3 3,2 5,4 6,8 v -30 c 0,-2 1,-3 2,-3 2,0 2,1 2,3 v 67 c 0,1 0,2 -2,2 -1,0 -2,-1 -2,-2 v -8 c -1,3 -3,6 -6,8 -3,1 -7,2 -11,2 z m 0,-4 c 5,0 10,-1 13,-5 3,-4 4,-9 4,-16 0,-6 -1,-12 -4,-15 -3,-4 -8,-6 -13,-6 -5,0 -9,2 -13,6 -3,3 -4,9 -4,15 0,7 1,12 4,16 4,4 8,5 13,5 z m 59,4 c -8,0 -13,-2 -18,-6 -4,-5 -6,-11 -6,-18 0,-6 1,-10 3,-14 2,-3 5,-6 8,-9 3,-2 7,-3 12,-3 6,0 11,2 14,6 4,5 5,10 5,18 0,1 0,2 -2,2 h -35 c 0,7 1,12 5,15 3,4 7,5 13,5 3,0 5,0 8,-1 2,0 4,-2 7,-3 1,-1 1,-1 2,-1 1,0 1,1 1,2 1,0 0,1 -1,2 -2,1 -4,3 -7,4 -3,1 -6,1 -9,1 z m -1,-46 c -6,0 -10,2 -13,5 -3,4 -5,8 -5,13 h 34 c -1,-5 -2,-10 -5,-13 -2,-3 -6,-5 -11,-5 z m 71,46 c -5,0 -8,-1 -10,-4 -3,-2 -4,-6 -4,-11 v -54 c 0,-2 1,-3 2,-3 2,0 3,1 3,3 v 53 c 0,8 3,12 9,12 1,0 1,0 2,0 0,0 1,0 1,0 1,0 2,1 2,2 0,0 0,1 -1,1 0,1 -1,1 -2,1 0,0 -1,0 -1,0 -1,0 -1,0 -1,0 z m 32,0 c -5,0 -8,-1 -12,-3 -3,-2 -5,-5 -7,-8 -2,-4 -3,-9 -3,-14 0,-5 1,-9 3,-13 2,-4 4,-7 7,-9 4,-2 7,-3 12,-3 4,0 8,1 11,3 3,2 6,5 8,9 1,4 2,8 2,13 0,5 -1,10 -2,14 -2,3 -5,6 -8,8 -3,2 -7,3 -11,3 z m 0,-4 c 5,0 9,-1 12,-5 3,-4 5,-9 5,-16 0,-6 -2,-12 -5,-15 -3,-4 -7,-6 -12,-6 -6,0 -10,2 -13,6 -3,3 -5,9 -5,15 0,7 2,12 5,16 3,4 7,5 13,5 z m 50,4 c -3,0 -6,0 -9,-1 -3,-1 -5,-2 -8,-4 -1,-1 -1,-1 -1,-2 0,-1 1,-1 1,-2 1,0 2,0 2,0 3,2 5,4 8,4 2,1 5,1 8,1 4,0 7,0 9,-2 3,-2 4,-4 4,-7 0,-2 -1,-4 -2,-5 -2,-2 -4,-3 -8,-3 l -8,-2 c -4,-1 -7,-3 -9,-5 -2,-2 -3,-5 -3,-8 0,-4 2,-7 5,-10 3,-2 7,-4 12,-4 3,0 6,1 9,2 2,1 5,2 7,4 0,1 1,1 0,2 0,1 0,1 -1,2 0,0 -1,0 -2,-1 -2,-2 -4,-3 -6,-4 -2,0 -4,-1 -7,-1 -4,0 -7,1 -9,3 -3,2 -4,4 -4,7 0,2 1,4 2,5 2,2 4,3 7,4 l 8,2 c 5,1 8,2 10,4 2,2 3,5 3,8 0,4 -1,7 -5,10 -3,2 -7,3 -13,3 z m 59,18 c -1,0 -2,-1 -2,-2 v -63 c 0,-2 1,-2 2,-2 2,0 2,0 2,2 v 8 c 2,-4 4,-6 7,-8 3,-2 7,-3 11,-3 4,0 8,1 11,3 3,2 6,5 8,9 1,4 2,8 2,13 0,8 -2,14 -6,19 -3,4 -9,6 -15,6 -4,0 -8,-1 -11,-2 -3,-2 -5,-5 -7,-8 v 26 c 0,1 0,2 -2,2 z m 20,-22 c 5,0 9,-1 12,-5 3,-4 5,-9 5,-16 0,-6 -2,-12 -5,-15 -3,-4 -7,-6 -12,-6 -6,0 -10,2 -13,6 -3,3 -5,9 -5,15 0,7 2,12 5,16 3,4 7,5 13,5 z m 37,4 c -1,0 -2,-1 -2,-2 v -45 c 0,-2 1,-2 2,-2 1,0 2,0 2,2 v 7 c 2,-3 4,-6 7,-7 3,-2 6,-3 10,-3 1,0 1,0 2,0 0,1 0,1 0,2 0,1 0,2 -2,2 h -1 c -5,1 -9,2 -12,5 -2,3 -4,7 -4,12 v 27 c 0,1 0,2 -2,2 z m 49,0 c -5,0 -9,-1 -12,-3 -3,-2 -6,-5 -7,-8 -2,-4 -3,-9 -3,-14 0,-5 1,-9 3,-13 1,-4 4,-7 7,-9 3,-2 7,-3 12,-3 4,0 8,1 11,3 3,2 6,5 8,9 1,4 2,8 2,13 0,5 -1,10 -2,14 -2,3 -5,6 -8,8 -3,2 -7,3 -11,3 z m 0,-4 c 5,0 9,-1 12,-5 3,-4 5,-9 5,-16 0,-6 -2,-12 -5,-15 -3,-4 -7,-6 -12,-6 -6,0 -10,2 -13,6 -3,3 -5,9 -5,15 0,7 2,12 5,16 3,4 7,5 13,5 z m 54,4 c -5,0 -9,-1 -12,-3 -3,-2 -6,-5 -8,-9 -1,-4 -2,-8 -2,-13 0,-8 2,-14 6,-18 4,-4 9,-7 16,-7 2,0 5,1 8,2 2,1 5,2 7,4 0,1 1,1 0,2 0,1 0,1 -1,1 -1,1 -1,0 -2,0 -2,-2 -4,-3 -6,-4 -2,0 -4,-1 -6,-1 -6,0 -10,2 -13,6 -3,3 -5,8 -5,15 0,7 2,12 5,16 3,4 7,5 13,5 2,0 4,0 6,-1 2,0 4,-1 6,-3 1,-1 1,-1 2,-1 1,0 1,1 1,2 1,0 0,1 0,2 -2,2 -5,3 -7,4 -3,1 -6,1 -8,1 z m 46,0 c -8,0 -13,-2 -17,-6 -5,-5 -7,-11 -7,-18 0,-6 1,-10 3,-14 2,-3 5,-6 8,-9 3,-2 7,-3 12,-3 6,0 11,2 14,6 4,5 6,10 6,18 0,1 -1,2 -3,2 h -35 c 0,7 1,12 5,15 3,4 8,5 13,5 3,0 6,0 8,-1 2,0 5,-2 7,-3 1,-1 1,-1 2,-1 1,0 1,1 1,2 1,0 0,1 -1,2 -2,1 -4,3 -7,4 -3,1 -6,1 -9,1 z m -1,-46 c -6,0 -10,2 -13,5 -3,4 -5,8 -5,13 h 34 c -1,-5 -2,-10 -5,-13 -2,-3 -6,-5 -11,-5 z m 48,46 c -3,0 -6,0 -9,-1 -3,-1 -6,-2 -8,-4 -1,-1 -1,-1 -1,-2 0,-1 0,-1 1,-2 1,0 1,0 2,0 3,2 5,4 8,4 2,1 5,1 7,1 5,0 8,0 10,-2 2,-2 4,-4 4,-7 0,-2 -1,-4 -3,-5 -1,-2 -4,-3 -7,-3 l -8,-2 c -4,-1 -7,-3 -9,-5 -2,-2 -3,-5 -3,-8 0,-4 1,-7 4,-10 4,-2 8,-4 13,-4 3,0 6,1 8,2 3,1 5,2 7,4 1,1 1,1 1,2 0,1 0,1 -1,2 -1,0 -1,0 -2,-1 -2,-2 -4,-3 -6,-4 -2,0 -5,-1 -7,-1 -4,0 -7,1 -10,3 -2,2 -3,4 -3,7 0,2 1,4 2,5 2,2 4,3 7,4 l 8,2 c 4,1 8,2 10,4 2,2 3,5 3,8 0,4 -2,7 -5,10 -3,2 -8,3 -13,3 z m 51,0 c -5,0 -8,-1 -12,-3 -3,-2 -5,-5 -7,-8 -2,-4 -3,-9 -3,-14 0,-5 1,-9 3,-13 2,-4 4,-7 7,-9 4,-2 7,-3 12,-3 4,0 8,1 11,3 3,2 6,5 8,9 1,4 2,8 2,13 0,5 -1,10 -2,14 -2,3 -5,6 -8,8 -3,2 -7,3 -11,3 z m 0,-4 c 5,0 9,-1 12,-5 3,-4 5,-9 5,-16 0,-6 -2,-12 -5,-15 -3,-4 -7,-6 -12,-6 -6,0 -10,2 -13,6 -3,3 -5,9 -5,15 0,7 2,12 5,16 3,4 7,5 13,5 z m 50,4 c -3,0 -6,0 -9,-1 -3,-1 -5,-2 -8,-4 -1,-1 -1,-1 -1,-2 0,-1 1,-1 1,-2 1,0 2,0 2,0 3,2 5,4 8,4 2,1 5,1 8,1 4,0 7,0 9,-2 3,-2 4,-4 4,-7 0,-2 -1,-4 -2,-5 -2,-2 -4,-3 -8,-3 l -8,-2 c -4,-1 -7,-3 -9,-5 -2,-2 -3,-5 -3,-8 0,-4 2,-7 5,-10 3,-2 7,-4 12,-4 3,0 6,1 9,2 2,1 5,2 7,4 0,1 1,1 0,2 0,1 0,1 -1,2 0,0 -1,0 -2,-1 -2,-2 -4,-3 -6,-4 -2,0 -4,-1 -7,-1 -4,0 -7,1 -9,3 -3,2 -4,4 -4,7 0,2 1,4 2,5 2,2 4,3 7,4 l 8,2 c 5,1 8,2 10,4 2,2 3,5 3,8 0,4 -1,7 -5,10 -3,2 -7,3 -13,3 z m 59,-62 c -2,0 -3,-1 -3,-4 0,-2 1,-3 3,-3 3,0 4,1 4,3 0,3 -1,4 -4,4 z m 0,62 c -1,0 -2,-1 -2,-2 v -45 c 0,-1 1,-2 2,-2 2,0 2,1 2,2 v 45 c 0,1 0,2 -2,2 z m 22,0 c -2,0 -3,-1 -3,-2 v -45 c 0,-2 1,-2 3,-2 1,0 2,0 2,2 v 7 c 1,-3 3,-6 6,-7 4,-2 7,-3 11,-3 11,0 17,6 17,19 v 29 c 0,1 -1,2 -2,2 -2,0 -2,-1 -2,-2 v -29 c 0,-5 -1,-9 -3,-11 -2,-3 -6,-4 -10,-4 -5,0 -10,2 -13,5 -3,3 -4,7 -4,13 v 26 c 0,1 -1,2 -2,2 z m 70,0 c -5,0 -9,-1 -12,-4 -2,-3 -3,-7 -3,-12 v -29 h -9 c -1,0 -2,-1 -2,-2 0,-1 1,-2 2,-2 h 9 v -13 c 0,-2 0,-3 2,-3 1,0 2,1 2,3 v 13 h 14 c 2,0 2,1 2,2 0,1 0,2 -2,2 h -14 v 28 c 0,4 1,8 2,10 2,2 5,3 9,3 1,0 3,0 4,0 0,0 1,0 2,0 1,0 1,0 1,1 0,1 0,1 0,1 0,1 0,1 -1,1 -1,0 -2,1 -3,1 -1,0 -2,0 -3,0 z"
   id="path89" />
   <path
   class="fil16"
   d="m 1785,386 c -7,0 -13,-2 -17,-6 -4,-5 -6,-11 -6,-18 0,-6 1,-10 3,-14 2,-3 4,-6 8,-9 3,-2 7,-3 11,-3 7,0 12,2 15,6 4,5 5,10 5,18 0,1 0,2 -2,2 h -36 c 0,7 2,12 5,15 4,4 8,5 14,5 3,0 5,0 8,-1 2,0 4,-2 7,-3 0,-1 1,-1 2,-1 1,0 1,1 1,2 0,0 0,1 -1,2 -2,1 -4,3 -7,4 -3,1 -7,1 -10,1 z m -1,-46 c -5,0 -9,2 -12,5 -3,4 -5,8 -6,13 h 34 c 0,-5 -1,-10 -4,-13 -3,-3 -7,-5 -12,-5 z m 36,46 c -2,0 -2,-1 -2,-2 v -45 c 0,-2 0,-2 2,-2 1,0 2,0 2,2 v 7 c 1,-3 3,-6 6,-7 3,-2 7,-3 11,-3 0,0 1,0 1,0 1,1 1,1 1,2 0,1 -1,2 -2,2 h -2 c -4,1 -8,2 -11,5 -3,3 -4,7 -4,12 v 27 c 0,1 -1,2 -2,2 z m 32,0 c -1,0 -2,-1 -2,-2 v -45 c 0,-2 1,-2 2,-2 2,0 2,0 2,2 v 7 c 2,-3 4,-6 7,-7 3,-2 7,-3 10,-3 12,0 18,6 18,19 v 29 c 0,1 -1,2 -2,2 -2,0 -2,-1 -2,-2 v -29 c 0,-5 -1,-9 -4,-11 -2,-3 -5,-4 -10,-4 -5,0 -9,2 -12,5 -3,3 -5,7 -5,13 v 26 c 0,1 0,2 -2,2 z m 72,0 c -4,0 -8,-1 -11,-3 -4,-2 -6,-5 -8,-8 -2,-4 -3,-9 -3,-14 0,-5 1,-9 3,-13 2,-4 4,-7 8,-9 3,-2 7,-3 11,-3 4,0 8,1 11,3 4,2 6,5 8,9 2,4 3,8 3,13 0,5 -1,10 -3,14 -2,3 -4,6 -8,8 -3,2 -7,3 -11,3 z m 0,-4 c 5,0 10,-1 13,-5 3,-4 4,-9 4,-16 0,-6 -1,-12 -4,-15 -3,-4 -8,-6 -13,-6 -5,0 -10,2 -13,6 -3,3 -4,9 -4,15 0,7 1,12 4,16 3,4 8,5 13,5 z m 50,4 c -3,0 -6,0 -8,-1 -3,-1 -6,-2 -9,-4 0,-1 -1,-1 -1,-2 1,-1 1,-1 1,-2 1,0 2,0 3,0 2,2 5,4 7,4 3,1 5,1 8,1 4,0 7,0 10,-2 2,-2 3,-4 3,-7 0,-2 -1,-4 -2,-5 -2,-2 -4,-3 -7,-3 l -9,-2 c -4,-1 -7,-3 -9,-5 -2,-2 -3,-5 -3,-8 0,-4 2,-7 5,-10 3,-2 7,-4 13,-4 2,0 5,1 8,2 3,1 5,2 7,4 1,1 1,1 1,2 0,1 -1,1 -1,2 -1,0 -2,0 -3,-1 -2,-2 -4,-3 -6,-4 -2,0 -4,-1 -7,-1 -4,0 -7,1 -9,3 -2,2 -3,4 -3,7 0,2 0,4 2,5 1,2 3,3 6,4 l 9,2 c 4,1 7,2 9,4 2,2 4,5 4,8 0,4 -2,7 -5,10 -4,2 -8,3 -14,3 z m 34,0 c -1,0 -2,-1 -2,-1 -1,-1 -1,-2 -1,-3 0,-1 0,-2 1,-3 0,0 1,-1 2,-1 2,0 2,1 3,1 1,1 1,2 1,3 0,1 0,2 -1,3 -1,0 -1,1 -3,1 z"
   id="path91" />
  </g>
 </g>
</svg>
