<?xml version="1.0" encoding="UTF-8" standalone="no"?>
<!-- Creator: CorelDRAW X8 -->

<svg
   xml:space="preserve"
   width="5770.8999"
   height="3496.3386"
   version="1.1"
   style="clip-rule:evenodd;fill-rule:evenodd;image-rendering:optimizeQuality;shape-rendering:geometricPrecision;text-rendering:geometricPrecision"
   viewBox="0 0 5770.8999 3496.3386"
   id="svg95"
   sodipodi:docname="bodymain.svg"
   inkscape:version="1.1.1 (3bf5ae0d25, 2021-09-20)"
   xmlns:inkscape="http://www.inkscape.org/namespaces/inkscape"
   xmlns:sodipodi="http://sodipodi.sourceforge.net/DTD/sodipodi-0.dtd"
   xmlns:xlink="http://www.w3.org/1999/xlink"
   xmlns="http://www.w3.org/2000/svg"
   xmlns:svg="http://www.w3.org/2000/svg"><sodipodi:namedview
   id="namedview97"
   pagecolor="#ffffff"
   bordercolor="#666666"
   borderopacity="1.0"
   inkscape:pageshadow="2"
   inkscape:pageopacity="0.0"
   inkscape:pagecheckerboard="0"
   showgrid="false"
   inkscape:zoom="0.080934643"
   inkscape:cx="2940.6443"
   inkscape:cy="1729.7908"
   inkscape:window-width="1366"
   inkscape:window-height="705"
   inkscape:window-x="-8"
   inkscape:window-y="-8"
   inkscape:window-maximized="1"
   inkscape:current-layer="Capa_x0020_1" />
 <defs
   id="defs44">
  <style
   type="text/css"
   id="style2">
   <![CDATA[
    .str2 {stroke:#CCCCCC;stroke-width:2.36229}
    .str1 {stroke:#BDBDBD;stroke-width:1.18114}
    .str0 {stroke:#5F94BA;stroke-width:0.900031}
    .fil13 {fill:#6B809B}
    .fil10 {fill:#6B809B}
    .fil12 {fill:#BAB1B1}
    .fil15 {fill:#CCCCCC}
    .fil11 {fill:#CCCCCC}
    .fil9 {fill:#E5E4ED}
    .fil5 {fill:white}
    .fil16 {fill:black;fill-rule:nonzero}
    .fil0 {fill:#3290B5;fill-rule:nonzero}
    .fil4 {fill:url(#id0)}
    .fil7 {fill:url(#id1)}
    .fil1 {fill:url(#id2)}
    .fil3 {fill:url(#id3)}
    .fil6 {fill:url(#id4)}
    .fil14 {fill:url(#id5)}
    .fil2 {fill:url(#id6)}
    .fil8 {fill:url(#id7)}
   ]]>
  </style>
  <linearGradient
   id="id0"
   gradientUnits="userSpaceOnUse"
   x1="-846.23199"
   y1="1718.29"
   x2="4923.79"
   y2="1718.29">
   <stop
   offset="0"
   style="stop-opacity:1; stop-color:#E89223"
   id="stop4" />
   <stop
   offset="1"
   style="stop-opacity:1; stop-color:#FFF200"
   id="stop6" />
  </linearGradient>
  <linearGradient
   id="id1"
   gradientUnits="userSpaceOnUse"
   x1="4165.3501"
   y1="1000.64"
   x2="4615.7402"
   y2="1000.64"
   gradientTransform="matrix(0.738192,0,0,0.738192,995.21671,130.04257)">
   <stop
   offset="0"
   style="stop-opacity:1; stop-color:#EFAF19"
   id="stop9" />
   <stop
   offset="1"
   style="stop-opacity:1; stop-color:#F7C010"
   id="stop11" />
  </linearGradient>
  <linearGradient
   id="id2"
   gradientUnits="userSpaceOnUse"
   x1="-842.94098"
   y1="1250.4"
   x2="4801.5098"
   y2="1250.4">
   <stop
   offset="0"
   style="stop-opacity:1; stop-color:#0A7AA7"
   id="stop14" />
   <stop
   offset="1"
   style="stop-opacity:1; stop-color:white"
   id="stop16" />
  </linearGradient>
  <linearGradient
   id="id3"
   gradientUnits="userSpaceOnUse"
   x1="-843.02899"
   y1="2194.3899"
   x2="4801.4199"
   y2="2194.3899">
   <stop
   offset="0"
   style="stop-opacity:1; stop-color:#3583AE"
   id="stop19" />
   <stop
   offset="1"
   style="stop-opacity:1; stop-color:white"
   id="stop21" />
  </linearGradient>
  <linearGradient
   id="id4"
   gradientUnits="userSpaceOnUse"
   x1="3170.4399"
   y1="33.630699"
   x2="3620.8301"
   y2="33.630699"
   gradientTransform="matrix(0.738192,0,0,0.738192,995.21671,130.04257)">
   <stop
   offset="0"
   style="stop-opacity:1; stop-color:#F6BC19"
   id="stop24" />
   <stop
   offset="1"
   style="stop-opacity:1; stop-color:#FEED02"
   id="stop26" />
  </linearGradient>
  <linearGradient
   id="id5"
   gradientUnits="userSpaceOnUse"
   x1="3060.4399"
   y1="451.552"
   x2="4230.4502"
   y2="451.552"
   gradientTransform="matrix(0.738192,0,0,0.738192,995.21671,130.04257)">
   <stop
   offset="0"
   style="stop-opacity:1; stop-color:#99FFFF"
   id="stop29" />
   <stop
   offset="1"
   style="stop-opacity:1; stop-color:#A4DDE3"
   id="stop31" />
  </linearGradient>
  <linearGradient
   id="id6"
   gradientUnits="userSpaceOnUse"
   x1="3920.22"
   y1="300.23901"
   x2="4698.1401"
   y2="300.23901"
   gradientTransform="matrix(0.738192,0,0,0.738192,995.21671,130.04257)">
   <stop
   offset="0"
   style="stop-opacity:1; stop-color:#F6CE0D"
   id="stop34" />
   <stop
   offset="1"
   style="stop-opacity:1; stop-color:#F7C010"
   id="stop36" />
  </linearGradient>
  <linearGradient
   id="id7"
   gradientUnits="userSpaceOnUse"
   x1="2864.45"
   y1="1100.89"
   x2="3314.8401"
   y2="1100.89"
   gradientTransform="matrix(0.738192,0,0,0.738192,995.21671,130.04257)">
   <stop
   offset="0"
   style="stop-opacity:1; stop-color:#F2BC14"
   id="stop39" />
   <stop
   offset="1"
   style="stop-opacity:1; stop-color:#F7C010"
   id="stop41" />
  </linearGradient>
 <style
   type="text/css"
   id="style2-9">
   <![CDATA[
    .str1 {stroke:#CCCCCC;stroke-width:2.36229}
    .str0 {stroke:#BDBDBD;stroke-width:1.18114}
    .fil8 {fill:#338099}
    .fil5 {fill:#6B809B}
    .fil7 {fill:#BAB1B1}
    .fil6 {fill:#CCCCCC}
    .fil9 {fill:#CCCCCC}
    .fil4 {fill:#E5E4ED}
    .fil3 {fill:url(#id0)}
    .fil1 {fill:url(#id1)}
    .fil0 {fill:url(#id2)}
    .fil2 {fill:url(#id3)}
   ]]>
  </style><linearGradient
   id="id0-5"
   gradientUnits="userSpaceOnUse"
   x1="2652.49"
   y1="3226.5601"
   x2="3094.5"
   y2="3140.0901">
   <stop
   offset="0"
   style="stop-opacity:1; stop-color:#EFAF19"
   id="stop4-5" />
   <stop
   offset="1"
   style="stop-opacity:1; stop-color:#F7C010"
   id="stop6-3" />
  </linearGradient><linearGradient
   id="id1-4"
   gradientUnits="userSpaceOnUse"
   x1="2026.77"
   y1="2502.8101"
   x2="2790.22"
   y2="2353.46">
   <stop
   offset="0"
   style="stop-opacity:1; stop-color:#F6CE0D"
   id="stop9-6" />
   <stop
   offset="1"
   style="stop-opacity:1; stop-color:#F7C010"
   id="stop11-1" />
  </linearGradient><linearGradient
   id="id2-9"
   gradientUnits="userSpaceOnUse"
   x1="1168.41"
   y1="3420.53"
   x2="1618.8"
   y2="3420.53">
   <stop
   offset="0"
   style="stop-opacity:1; stop-color:#F2BC14"
   id="stop14-5" />
   <stop
   offset="1"
   style="stop-opacity:1; stop-color:#F7C010"
   id="stop16-2" />
  </linearGradient><linearGradient
   id="id3-8"
   gradientUnits="userSpaceOnUse"
   x1="1322.52"
   y1="2756.1299"
   x2="1764.53"
   y2="2669.6699">
   <stop
   offset="0"
   style="stop-opacity:1; stop-color:#F6BC19"
   id="stop19-1" />
   <stop
   offset="1"
   style="stop-opacity:1; stop-color:#FEED02"
   id="stop21-8" />
  </linearGradient><linearGradient
   inkscape:collect="always"
   xlink:href="#id2"
   id="linearGradient1148"
   gradientUnits="userSpaceOnUse"
   x1="-842.94098"
   y1="1250.4"
   x2="4801.5098"
   y2="1250.4"
   gradientTransform="translate(61.778242,-2174.5941)" /></defs>
 <g
   id="Capa_x0020_1"
   inkscape:label="Capa 1"
   inkscape:groupmode="layer"
   transform="translate(846.45002,1005)">
  <metadata
   id="CorelCorpID_0Corel-Layer" />
  <path
   class="fil0"
   d="m 198.11594,-2168.0622 c -7.42243,0 -14.84487,-0.8247 -21.44259,-2.4741 -6.59771,-2.4741 -12.37072,-4.9483 -17.31901,-9.0719 l 6.59772,-13.1954 c 4.94829,4.1236 9.89658,6.5977 14.84487,8.2471 5.773,1.6495 11.54601,2.4742 17.31901,2.4742 6.59772,0 12.37072,-1.6494 15.66958,-3.2989 4.12358,-2.4741 5.77301,-5.773 5.77301,-10.7213 0,-3.2988 -1.64943,-6.5977 -4.94829,-8.2471 -3.29886,-2.4742 -9.07187,-4.1236 -17.31901,-5.773 -8.24715,-1.6494 -14.84487,-4.1236 -19.79316,-5.773 -5.773,-2.4742 -9.07186,-5.773 -12.37072,-9.0719 -2.47415,-4.1236 -3.29886,-8.2471 -3.29886,-14.0201 0,-5.773 1.64943,-11.546 4.94829,-15.6696 2.47414,-4.9483 7.42243,-8.2472 13.19543,-10.7213 5.77301,-2.4742 12.37073,-4.1236 19.79316,-4.1236 7.42243,0 14.02015,0.8247 19.79316,3.2989 6.59771,1.6494 11.546,4.9483 15.66958,8.2471 l -5.77301,13.1955 c -9.07186,-6.5978 -18.96844,-9.8966 -29.68973,-9.8966 -5.773,0 -11.54601,0.8247 -14.84487,3.2988 -4.12357,2.4742 -5.773,6.5978 -5.773,10.7213 0,4.1236 1.64943,7.4225 4.94829,9.0719 3.29886,2.4741 9.07186,4.1236 17.31901,5.773 8.24715,1.6494 14.84487,4.1236 19.79316,6.5977 5.773,1.6494 9.07186,4.9483 12.37072,8.2472 2.47414,4.1235 4.12357,8.2471 4.12357,14.0201 0,5.773 -1.64943,10.7213 -4.94829,15.6696 -3.29886,4.1236 -7.42243,7.4224 -14.02015,9.8966 -5.773,2.4741 -12.37072,3.2988 -20.61787,3.2988 z m 115.46007,-32.1638 h -47.00874 c 0,6.5977 2.47415,11.546 5.77301,14.0201 3.29885,3.2989 7.42243,4.9483 14.02015,4.9483 7.42243,0 14.02015,-2.4741 20.61787,-7.4224 l 4.94828,12.3707 c -3.29885,2.4741 -7.42243,4.1236 -11.546,5.773 -4.94829,1.6494 -9.89658,2.4741 -14.84487,2.4741 -11.546,0 -20.61787,-3.2988 -27.21559,-9.0718 -5.773,-6.5977 -9.07186,-15.6696 -9.07186,-26.3909 0,-7.4224 0.82471,-13.1954 4.12357,-18.9684 2.47415,-4.9483 6.59772,-9.8966 11.54601,-12.3708 4.94829,-3.2988 10.72129,-4.9483 17.31901,-4.9483 9.89658,0 17.31901,3.2989 23.09202,9.0719 4.94829,6.5977 8.24714,14.8449 8.24714,25.5662 z m -30.51444,-27.2156 c -4.94829,0 -8.24715,1.6494 -11.54601,4.9483 -2.47414,2.4741 -4.94829,7.4224 -4.94829,13.1954 h 31.33916 c 0,-5.773 -1.64943,-10.7213 -4.12357,-13.1954 -2.47415,-3.2989 -6.59772,-4.9483 -10.72129,-4.9483 z m 89.89391,2.4741 -10.72129,0.8247 c -11.54601,1.6495 -17.31901,7.4225 -17.31901,18.1438 v 37.1121 h -17.31901 v -69.276 h 16.49429 v 12.3707 c 4.12358,-8.2471 11.54601,-12.3707 22.2673,-13.1954 l 5.77301,-0.8248 z m 61.0289,-12.3707 h 17.31901 l -29.68973,68.4513 h -15.66958 l -29.68974,-68.4513 h 18.14373 l 19.79315,48.6582 z m 25.56616,68.4513 v -69.276 h 18.14373 v 69.276 z m -0.82471,-100.6152 h 19.79315 v 17.319 h -19.79315 z m 68.45133,101.4399 c -7.42244,0 -14.02016,-0.8247 -18.96844,-4.1235 -4.94829,-3.2989 -9.07187,-7.4225 -12.37073,-12.3708 -2.47414,-5.773 -4.12357,-11.546 -4.12357,-18.9684 0,-6.5977 1.64943,-13.1954 4.94829,-18.9684 2.47414,-4.9483 6.59772,-9.8966 12.37072,-12.3708 4.94829,-3.2988 11.54601,-4.9483 18.96844,-4.9483 4.94829,0 9.07186,0.8248 14.02015,2.4742 4.94829,1.6494 8.24715,4.1236 11.54601,6.5977 l -5.773,12.3707 c -2.47415,-2.4741 -5.77301,-4.1235 -9.07187,-5.773 -3.29886,-0.8247 -6.59771,-1.6494 -9.07186,-1.6494 -6.59772,0 -11.54601,1.6494 -14.84487,5.773 -3.29886,4.1236 -4.94829,9.0719 -4.94829,16.4943 0,6.5977 1.64943,12.3707 4.94829,16.4943 3.29886,3.2989 8.24715,5.773 14.84487,5.773 2.47415,0 5.773,-0.8247 9.07186,-2.4741 3.29886,-0.8248 6.59772,-2.4742 9.07187,-4.9483 l 5.773,12.3707 c -3.29886,2.4741 -7.42243,4.9483 -11.54601,5.773 -4.94829,1.6494 -9.89657,2.4741 -14.84486,2.4741 z m 37.11216,-0.8247 v -69.276 h 17.31902 v 69.276 z m -0.82471,-100.6152 h 19.79316 v 17.319 h -19.79316 z m 68.45133,101.4399 c -7.42243,0 -13.19544,-0.8247 -18.96844,-4.1235 -4.94829,-3.2989 -9.07186,-7.4225 -12.37072,-12.3708 -2.47415,-5.773 -4.12358,-11.546 -4.12358,-18.9684 0,-7.4224 1.64943,-14.0202 4.12358,-18.9684 3.29886,-5.773 7.42243,-9.8966 12.37072,-12.3708 5.773,-3.2988 11.54601,-4.9483 18.96844,-4.9483 6.59772,0 13.19544,1.6495 18.14373,4.9483 5.773,2.4742 9.07186,6.5978 12.37072,12.3708 2.47414,4.9482 4.12357,11.546 4.12357,18.9684 0,7.4224 -1.64943,13.1954 -4.12357,18.9684 -3.29886,4.9483 -6.59772,9.0719 -12.37072,12.3708 -4.94829,3.2988 -11.54601,4.1235 -18.14373,4.1235 z m -0.82471,-13.1954 c 5.773,0 10.72129,-2.4741 13.19543,-5.773 3.29886,-4.1236 4.94829,-9.0719 4.94829,-16.4943 0,-7.4224 -1.64943,-13.1954 -4.94829,-16.4943 -2.47414,-4.1236 -7.42243,-5.773 -12.37072,-5.773 -5.773,0 -9.89658,1.6494 -13.19544,5.773 -3.29886,3.2989 -4.94829,9.0719 -4.94829,16.4943 0,7.4224 1.64943,12.3707 4.94829,16.4943 2.47415,3.2989 7.42244,5.773 12.37073,5.773 z m 75.87376,13.1954 c -6.59772,0 -12.37072,-0.8247 -17.31901,-1.6494 -4.94829,-1.6494 -9.07186,-4.1236 -13.19544,-6.5977 l 4.94829,-12.3707 c 7.42243,4.9483 15.66958,8.2471 25.56616,8.2471 4.12357,0 6.59772,-0.8247 9.07186,-2.4741 2.47415,-0.8247 3.29886,-3.2989 3.29886,-5.773 0,-1.6495 -0.82471,-3.2989 -2.47414,-4.1236 -1.64943,-1.6494 -4.12358,-2.4742 -7.42244,-3.2989 l -11.546,-2.4741 c -6.59772,-1.6494 -10.7213,-4.1236 -14.02016,-7.4224 -3.29885,-3.2989 -4.94828,-7.4225 -4.94828,-12.3708 0,-4.1235 1.64943,-7.4224 4.12357,-10.7213 1.64943,-3.2988 4.94829,-5.773 9.89658,-7.4224 4.12357,-2.4741 9.07186,-3.2989 14.84486,-3.2989 4.94829,0 9.07187,0.8248 14.02016,2.4742 4.12357,1.6494 8.24715,3.2989 11.546,6.5977 l -4.94828,11.546 c -6.59772,-4.9483 -14.02016,-7.4224 -20.61788,-7.4224 -4.12357,0 -7.42243,0.8247 -9.07186,1.6494 -2.47414,1.6494 -3.29886,4.1236 -3.29886,6.5977 0,1.6495 0,3.2989 1.64943,4.1236 1.64943,1.6494 3.29886,2.4742 6.59772,3.2989 l 11.54601,2.4741 c 7.42243,1.6494 12.37072,4.1236 15.66958,7.4224 2.47414,2.4742 4.12357,7.4225 4.12357,12.3708 0,6.5977 -2.47414,11.546 -7.42243,14.8448 -4.94829,4.1236 -12.37072,5.773 -20.61787,5.773 z m -519.57034,191.3339 v -84.9456 h -32.16388 v -14.8449 h 83.2962 v 14.8449 h -32.16388 v 84.9456 z m 111.3365,-31.3392 H 251.7224 c 0.82472,5.773 2.47415,10.7213 5.77301,14.0202 3.29886,3.2988 8.24715,4.9483 14.02015,4.9483 7.42243,0 14.84487,-2.4742 20.61787,-7.4225 l 5.773,11.546 c -3.29886,3.2989 -7.42243,4.9483 -12.37072,6.5977 -4.94829,1.6495 -9.89658,2.4742 -14.84486,2.4742 -10.7213,0 -19.79316,-3.2989 -26.39088,-9.8966 -6.59772,-5.773 -9.89658,-14.8449 -9.89658,-25.5661 0,-7.4225 1.64943,-14.0202 4.12358,-18.9685 3.29886,-5.773 6.59772,-9.8966 12.37072,-13.1954 4.94829,-2.4742 10.72129,-4.1236 17.31901,-4.1236 9.07186,0 16.4943,3.2989 22.2673,9.0719 5.773,6.5977 8.24715,14.8448 8.24715,25.5661 z m -30.51445,-27.2156 c -4.12357,0 -8.24715,1.6495 -11.54601,4.9483 -2.47414,2.4742 -4.12357,6.5977 -4.94829,12.3707 h 32.16388 c -0.82471,-5.773 -1.64943,-9.8965 -4.12357,-13.1954 -3.29886,-2.4741 -6.59772,-4.1236 -11.54601,-4.1236 z m 75.87376,59.3795 c -6.59772,0 -13.19543,-1.6494 -18.14372,-4.1236 -5.77301,-3.2988 -9.89658,-7.4224 -12.37073,-12.3707 -3.29885,-5.773 -4.12357,-11.546 -4.12357,-18.9684 0,-7.4225 1.64943,-13.1955 4.12357,-18.9685 3.29886,-5.773 7.42244,-9.8966 12.37073,-13.1954 5.773,-2.4742 12.37072,-4.1236 18.96844,-4.1236 4.94829,0 9.89658,0.8247 14.84487,2.4742 4.12357,1.6494 8.24714,3.2988 10.72129,5.773 l -4.94829,12.3707 c -2.47415,-1.6495 -5.773,-4.1236 -9.07186,-4.9483 -3.29886,-0.8247 -6.59772,-1.6494 -9.89658,-1.6494 -5.77301,0 -10.72129,1.6494 -14.02015,5.773 -3.29886,3.2988 -4.94829,9.0718 -4.94829,16.4943 0,6.5977 1.64943,12.3707 4.94829,15.6695 3.29886,4.1236 8.24714,5.773 14.02015,5.773 3.29886,0 6.59772,-0.8247 9.89658,-1.6494 3.29886,-0.8247 6.59771,-3.2988 9.07186,-4.9483 l 4.94829,11.546 c -2.47415,3.2989 -6.59772,4.9483 -11.54601,6.5977 -4.12357,1.6495 -9.07186,2.4742 -14.84487,2.4742 z m 77.5232,-71.7502 c 8.24715,0 14.84486,2.4742 18.96844,7.4224 4.12357,4.1236 5.773,11.546 5.773,20.6179 v 42.8852 h -17.31901 v -41.2358 c 0,-5.773 -1.64943,-9.8965 -3.29886,-12.3707 -2.47414,-2.4741 -4.94829,-3.2988 -9.89658,-3.2988 -4.94829,0 -9.07186,1.6494 -11.546,4.9482 -3.29886,3.2989 -4.94829,7.4225 -4.94829,12.3708 v 39.5863 h -17.31901 v -69.2761 h 17.31901 v 10.7213 c 1.64943,-4.1235 4.94829,-7.4224 9.07186,-9.0718 4.12357,-2.4742 8.24715,-3.2989 13.19544,-3.2989 z m 74.22433,71.7502 c -7.42243,0 -13.19543,-1.6494 -18.96844,-4.1236 -4.94829,-3.2988 -9.07186,-7.4224 -12.37072,-13.1954 -2.47415,-4.9483 -4.12358,-11.546 -4.12358,-18.9685 0,-6.5977 1.64943,-13.1954 4.12358,-18.9684 3.29886,-4.9483 7.42243,-9.0719 12.37072,-12.3707 5.77301,-2.4742 11.54601,-4.1236 18.96844,-4.1236 6.59772,0 13.19544,1.6494 18.14373,4.1236 5.773,3.2988 9.89658,7.4224 12.37072,12.3707 3.29886,5.773 4.12358,12.3707 4.12358,18.9684 0,7.4225 -0.82472,14.0202 -4.12358,18.9685 -2.47414,5.773 -6.59772,9.8966 -12.37072,13.1954 -4.94829,2.4742 -11.54601,4.1236 -18.14373,4.1236 z m 0,-14.0202 c 5.77301,0 9.89658,-1.6494 12.37073,-4.9482 3.29885,-4.1236 4.94828,-9.8966 4.94828,-17.3191 0,-6.5977 -1.64943,-12.3707 -4.94828,-16.4943 -2.47415,-3.2988 -6.59772,-5.773 -12.37073,-5.773 -5.773,0 -9.89658,2.4742 -13.19543,5.773 -3.29886,4.1236 -4.94829,9.8966 -4.94829,16.4943 0,7.4225 1.64943,13.1955 4.94829,17.3191 3.29885,3.2988 7.42243,4.9482 13.19543,4.9482 z m 49.48289,13.1955 v -99.7905 h 17.31901 v 99.7905 z m 66.8019,0.8247 c -6.59771,0 -13.19543,-1.6494 -18.14372,-4.1236 -5.77301,-3.2988 -9.07187,-7.4224 -12.37072,-13.1954 -3.29886,-4.9483 -4.12358,-11.546 -4.12358,-18.9685 0,-6.5977 0.82472,-13.1954 4.12358,-18.9684 3.29885,-4.9483 6.59771,-9.0719 12.37072,-12.3707 4.94829,-2.4742 11.54601,-4.1236 18.14372,-4.1236 7.42244,0 13.19544,1.6494 18.96845,4.1236 4.94828,3.2988 9.07186,7.4224 12.37072,12.3707 2.47414,5.773 4.12357,12.3707 4.12357,18.9684 0,7.4225 -1.64943,14.0202 -4.12357,18.9685 -3.29886,5.773 -7.42244,9.8966 -12.37072,13.1954 -5.77301,2.4742 -11.54601,4.1236 -18.96845,4.1236 z m 0,-14.0202 c 5.77301,0 9.89658,-1.6494 13.19544,-4.9482 3.29886,-4.1236 4.94829,-9.8966 4.94829,-17.3191 0,-6.5977 -1.64943,-12.3707 -4.94829,-16.4943 -3.29886,-3.2988 -7.42243,-5.773 -13.19544,-5.773 -4.94828,0 -9.89657,2.4742 -12.37072,5.773 -3.29886,4.1236 -4.94829,9.8966 -4.94829,16.4943 0,7.4225 1.64943,13.1955 4.12358,17.3191 3.29886,3.2988 7.42243,4.9482 13.19543,4.9482 z m 5.77301,-65.1524 H 607.1745 l 13.19543,-28.865 h 18.14373 z m 111.3365,9.0718 v 62.6784 c 0,10.7213 -3.29886,18.9684 -9.07186,24.7414 -5.77301,4.9483 -14.84487,8.2472 -26.39088,8.2472 -5.773,0 -11.546,-0.8248 -17.31901,-2.4742 -5.773,-1.6494 -10.72129,-4.1236 -14.84487,-6.5977 l 4.94829,-12.3707 c 9.07187,4.9483 17.31901,7.4224 26.39088,7.4224 12.37072,0 18.96844,-5.773 18.96844,-18.1437 v -8.2472 c -2.47415,3.2989 -4.94829,6.5977 -9.07186,8.2472 -4.12358,2.4741 -9.07187,3.2988 -14.02016,3.2988 -5.773,0 -10.72129,-1.6494 -15.66958,-4.1235 -4.94829,-2.4742 -8.24715,-6.5978 -10.72129,-12.3708 -2.47415,-4.9483 -4.12358,-10.7213 -4.12358,-17.319 0,-6.5977 0.82472,-13.1954 4.12358,-18.1437 2.47414,-4.9483 5.773,-9.0719 10.72129,-12.3707 4.94829,-2.4742 9.89658,-4.1236 15.66958,-4.1236 4.94829,0 9.89658,0.8247 14.02016,3.2989 4.12357,1.6494 6.59771,4.9483 9.07186,9.0718 v -10.7213 z m -35.46274,53.6065 c 5.77301,0 9.89658,-2.4741 13.19544,-5.773 3.29886,-3.2989 4.94829,-9.0719 4.94829,-14.8449 0,-6.5977 -1.64943,-11.546 -4.94829,-15.6696 -3.29886,-3.2988 -7.42243,-4.9482 -13.19544,-4.9482 -5.773,0 -9.89658,1.6494 -13.19543,4.9482 -3.29886,4.1236 -4.94829,9.0719 -4.94829,15.6696 0,5.773 1.64943,10.7213 4.94829,14.8449 3.29885,3.2989 7.42243,5.773 13.19543,5.773 z m 53.60647,15.6696 v -69.2761 h 17.31901 v 69.2761 z m -0.82472,-101.4399 h 18.96844 v 17.319 H 746.5513 Z m 67.62662,102.2646 c -6.59772,0 -13.19544,-1.6494 -18.14373,-4.1236 -5.773,-3.2988 -9.89658,-7.4224 -12.37072,-12.3707 -3.29886,-5.773 -4.12357,-11.546 -4.12357,-18.9684 0,-7.4225 0.82471,-13.1955 4.12357,-18.9685 3.29886,-5.773 7.42243,-9.8966 12.37072,-13.1954 5.77301,-2.4742 12.37072,-4.1236 18.96848,-4.1236 4.9483,0 9.8965,0.8247 14.8448,2.4742 4.1236,1.6494 8.2472,3.2988 10.7213,5.773 l -4.9483,12.3707 c -3.2988,-1.6495 -5.773,-4.1236 -9.0718,-4.9483 -3.2989,-0.8247 -6.5977,-1.6494 -9.8966,-1.6494 -5.77301,0 -10.7213,1.6494 -14.02016,5.773 -3.29886,3.2988 -4.94829,9.0718 -4.94829,16.4943 0,6.5977 1.64943,12.3707 4.94829,15.6695 3.29886,4.1236 8.24715,5.773 14.02016,5.773 3.2989,0 6.5977,-0.8247 9.8966,-1.6494 3.2988,-0.8247 5.773,-3.2988 9.0718,-4.9483 l 4.9483,11.546 c -2.4741,3.2989 -6.5977,4.9483 -11.546,6.5977 -4.9483,1.6495 -9.0718,2.4742 -14.84485,2.4742 z m 69.27605,0 c -7.4224,0 -13.1954,-1.6494 -18.9684,-4.1236 -4.9483,-3.2988 -9.0719,-7.4224 -12.3708,-13.1954 -2.4741,-4.9483 -4.1235,-11.546 -4.1235,-18.9685 0,-6.5977 1.6494,-13.1954 4.1235,-18.9684 3.2989,-4.9483 7.4225,-9.0719 12.3708,-12.3707 5.773,-2.4742 11.546,-4.1236 18.9684,-4.1236 6.5977,0 13.1954,1.6494 18.1437,4.1236 5.773,3.2988 9.8966,7.4224 12.3707,12.3707 3.2989,5.773 4.1236,12.3707 4.1236,18.9684 0,7.4225 -0.8247,14.0202 -4.1236,18.9685 -2.4741,5.773 -6.5977,9.8966 -12.3707,13.1954 -4.9483,2.4742 -11.546,4.1236 -18.1437,4.1236 z m 0,-14.0202 c 5.773,0 9.8966,-1.6494 12.3707,-4.9482 3.2989,-4.1236 4.9483,-9.8966 4.9483,-17.3191 0,-6.5977 -1.6494,-12.3707 -4.9483,-16.4943 -2.4741,-3.2988 -6.5977,-5.773 -12.3707,-5.773 -5.773,0 -9.8966,2.4742 -13.1954,5.773 -3.2989,4.1236 -4.9483,9.8966 -4.9483,16.4943 0,7.4225 1.6494,13.1955 4.9483,17.3191 2.4741,3.2988 7.4224,4.9482 13.1954,4.9482 z m 75.049,14.0202 c -6.5977,0 -12.3707,-0.8247 -17.319,-2.4742 -4.9483,-1.6494 -9.0718,-3.2988 -13.1954,-6.5977 l 4.9483,-11.546 c 7.4224,4.9483 15.6696,7.4225 25.5661,7.4225 4.1236,0 7.4225,-0.8248 9.0719,-1.6495 2.4742,-1.6494 3.2989,-3.2988 3.2989,-5.773 0,-1.6494 -0.8247,-3.2988 -2.4742,-4.9483 -0.8247,-0.8247 -4.1236,-1.6494 -7.4224,-3.2988 l -11.546,-2.4742 c -6.5977,-0.8247 -10.7213,-3.2988 -14.0202,-6.5977 -3.2988,-3.2988 -4.9483,-7.4224 -4.9483,-12.3707 0,-4.1236 1.6495,-8.2472 4.1236,-11.546 2.4742,-3.2989 5.773,-5.773 9.8966,-7.4224 4.1236,-1.6495 9.0719,-2.4742 14.8449,-2.4742 4.9482,0 9.0718,0.8247 14.0201,2.4742 4.9483,1.6494 8.2472,3.2988 12.3707,5.773 l -4.9483,12.3707 c -7.4224,-4.9483 -14.8448,-7.4225 -21.4425,-7.4225 -4.1236,0 -7.4225,0 -9.0719,1.6495 -2.4741,1.6494 -3.2989,3.2988 -3.2989,5.773 0,2.4741 0.8248,3.2988 1.6495,4.9483 1.6494,0.8247 4.1235,2.4741 6.5977,2.4741 l 11.546,3.2989 c 7.4224,0.8247 12.3707,3.2988 15.6696,6.5977 3.2988,3.2988 4.1235,7.4224 4.1235,13.1954 0,5.773 -2.4741,11.546 -7.4224,14.8449 -4.9483,4.1236 -12.3707,5.773 -20.6179,5.773 z"
   id="path47"
   style="fill:url(#linearGradient1148);stroke-width:0.824715" />
  <path
   class="fil1"
   d="m 1898,1235 c 1334,387 2136,345 2904,260 v -22 C 4062,1550 3271,1574 1991,1203 827,865 -485,950 -843,982 v 25 c 456,-35 1661,-85 2741,228 z"
   id="path49"
   style="fill:url(#id2)" />
  
  <path
   class="fil3"
   d="M 2131,2146 C 868,1795 -562,1910 -843,1937 v 24 c 428,-35 1723,-104 2877,218 1245,347 2041,344 2767,277 v -24 c -700,58 -1481,46 -2670,-286 z"
   id="path53"
   style="fill:url(#id3)" />
  <path
   class="fil4 str0"
   d="m -846,1941 c 288,-27 1749,-142 3040,209 1216,332 2013,344 2730,286 V 1488 C 4139,1573 3319,1615 1955,1228 852,915 -380,965 -846,1000 Z"
   id="path55"
   style="fill:url(#id0)" />
  <path
   class="fil5"
   d="m -28.221758,-3179.5941 c 11,0 20.0000005,4 20.0000005,8 0,4 -9.0000005,8 -20.0000005,8 -11,0 -20,-4 -20,-8 0,-4 9,-8 20,-8 z"
   id="path57" />
  
  
  
  
  
  
  
  
  
  
  
  
  <path
   class="fil16"
   d="m 189.86879,-1805.2981 c -1.64943,0 -2.47414,-0.8247 -2.47414,-1.6494 v -54.4312 c 0,-0.8247 0.82471,-1.6494 2.47414,-1.6494 h 31.33917 c 0.82471,0 1.64943,0 1.64943,1.6494 0,0.8248 -0.82472,1.6495 -1.64943,1.6495 h -30.51445 v 23.9167 h 28.86502 c 0.82471,0 1.64943,0 1.64943,0.8247 0,1.6494 -0.82472,1.6494 -1.64943,1.6494 h -28.86502 v 24.7415 h 30.51445 c 0.82471,0 1.64943,0.8247 1.64943,1.6494 0,1.6494 -0.82472,1.6494 -1.64943,1.6494 z m 54.43118,0.8248 c -3.29886,0 -5.773,-0.8248 -8.24715,-3.2989 -1.64943,-2.4741 -2.47414,-4.9483 -2.47414,-9.0719 v -45.3593 c 0,-0.8247 0.82471,-1.6494 1.64943,-1.6494 0.82471,0 1.64943,0.8247 1.64943,1.6494 v 44.5346 c 0,6.5977 2.47414,9.8966 8.24715,9.8966 0,0 0.82471,0 0.82471,0 0.82472,0 0.82472,0 1.64943,0 0.82472,0 0.82472,0 0.82472,0.8247 0,0.8247 0,1.6494 0,1.6494 -0.82472,0 -0.82472,0.8248 -1.64943,0.8248 -0.82472,0 -0.82472,0 -1.64943,0 0,0 0,0 -0.82472,0 z m 28.04031,0 c -5.77301,0 -10.7213,-1.6495 -14.02016,-5.773 -3.29886,-3.2989 -4.94829,-8.2472 -4.94829,-14.8449 0,-4.1236 0.82472,-7.4224 2.47415,-10.7213 1.64943,-3.2989 3.29886,-5.773 6.59772,-7.4224 2.47414,-1.6495 5.773,-2.4742 9.07186,-2.4742 4.94829,0 9.07186,1.6494 12.37072,4.9483 2.47415,3.2989 4.12357,8.2472 4.12357,14.0202 0,1.6494 -0.82471,2.4741 -1.64942,2.4741 h -29.68974 c 0,4.9483 1.64943,9.0719 4.12358,12.3707 2.47414,2.4742 6.59772,4.1236 11.54601,4.1236 2.47414,0 4.12357,0 5.773,-0.8247 2.47414,-0.8247 4.12357,-1.6494 5.773,-3.2989 0.82472,0 1.64943,0 2.47415,0 0,0 0.82471,0.8247 0.82471,0.8247 0,0.8248 0,1.6495 -0.82471,1.6495 -1.64943,1.6494 -4.12358,3.2988 -6.59772,4.1235 -2.47415,0.8248 -4.94829,0.8248 -7.42243,0.8248 z m -0.82472,-37.9369 c -4.12357,0 -8.24715,1.6494 -10.72129,4.1236 -2.47415,3.2988 -3.29886,6.5977 -4.12358,10.7212 H 284.711 c 0,-4.1235 -1.64943,-8.2471 -3.29886,-10.7212 -2.47415,-2.4742 -5.77301,-4.1236 -9.89658,-4.1236 z m 40.41102,37.9369 c -0.82471,0 -1.64942,-0.8248 -2.47414,-2.4742 l -14.84487,-35.4627 c -0.82471,-0.8247 -0.82471,-1.6495 -0.82471,-2.4742 0.82471,0 0.82471,-0.8247 1.64943,-0.8247 0.82471,0 1.64943,0 1.64943,0.8247 0,0 0,0 0.82471,0.8247 l 14.02015,35.4628 14.84487,-35.4628 c 0.82472,-0.8247 0.82472,-0.8247 0.82472,-0.8247 0.82471,-0.8247 0.82471,-0.8247 1.64943,-0.8247 0.82471,0 0.82471,0.8247 0.82471,0.8247 0.82472,0.8247 0.82472,1.6495 0,2.4742 l -14.84487,35.4627 c -0.82471,1.6494 -1.64943,2.4742 -3.29886,2.4742 z m 39.58632,0 c -2.47415,0 -4.94829,-0.8248 -7.42244,-1.6495 -1.64943,-0.8247 -3.29886,-2.4741 -4.94829,-4.1235 -0.82471,-1.6495 -1.64943,-4.1236 -1.64943,-5.773 0,-3.2989 0.82472,-5.773 2.47415,-7.4225 0.82471,-1.6494 4.12357,-2.4741 7.42243,-3.2988 3.29886,-0.8248 8.24715,-0.8248 14.84487,-0.8248 h 2.47414 v -3.2988 c 0,-4.1236 -0.82471,-7.4224 -2.47414,-9.0719 -1.64943,-1.6494 -4.12357,-2.4741 -7.42243,-2.4741 -4.12358,0 -8.24715,0.8247 -13.19544,3.2988 0,0.8248 -0.82472,0.8248 -1.64943,0.8248 0,-0.8248 -0.82472,-0.8248 -0.82472,-1.6495 0,-0.8247 0.82472,-1.6494 0.82472,-1.6494 2.47414,-1.6494 4.94829,-2.4742 7.42243,-3.2989 2.47415,-0.8247 4.94829,-0.8247 7.42244,-0.8247 4.12357,0 7.42243,1.6494 9.89657,3.2989 1.64943,2.4741 3.29886,6.5977 3.29886,11.546 v 24.7414 c 0,0.8247 -0.82471,1.6495 -1.64943,1.6495 -1.64943,0 -1.64943,-0.8248 -1.64943,-1.6495 v -6.5977 c -1.64943,2.4742 -3.29886,4.9483 -5.773,5.773 -1.64943,1.6494 -4.94829,2.4742 -7.42243,2.4742 z m 0,-3.2989 c 2.47414,0 4.94829,0 6.59772,-1.6494 1.64943,-0.8247 3.29885,-2.4742 4.94828,-4.9483 0.82472,-2.4742 1.64943,-4.9483 1.64943,-7.4224 v -3.2989 h -2.47414 c -5.773,0 -9.89658,0.8247 -13.19544,0.8247 -2.47414,0.8247 -4.94829,1.6494 -5.773,2.4742 -1.64943,1.6494 -1.64943,3.2988 -1.64943,4.9482 0,3.2989 0.82471,4.9483 2.47414,6.5978 1.64943,1.6494 4.12358,2.4741 7.42244,2.4741 z m 32.16388,3.2989 c -1.64943,0 -1.64943,-0.8248 -1.64943,-1.6495 v -37.9369 c 0,-0.8247 0,-1.6494 1.64943,-1.6494 0.82471,0 1.64943,0.8247 1.64943,1.6494 v 6.5978 c 0.82471,-2.4742 2.47414,-4.9483 4.94828,-5.773 2.47415,-1.6495 4.94829,-2.4742 7.42244,-2.4742 6.59772,0 10.72129,2.4742 12.37072,8.2472 0.82471,-2.4742 2.47414,-4.1236 4.94829,-5.773 2.47414,-1.6495 5.773,-2.4742 8.24715,-2.4742 9.07186,0 13.19543,4.9483 13.19543,14.8449 v 24.7414 c 0,0.8247 0,1.6495 -1.64942,1.6495 -0.82472,0 -1.64943,-0.8248 -1.64943,-1.6495 v -23.9167 c 0,-4.1236 -0.82472,-7.4224 -2.47415,-9.0719 -0.82471,-2.4741 -3.29886,-3.2988 -7.42243,-3.2988 -3.29886,0 -6.59772,1.6494 -9.07187,4.1236 -1.64943,2.4741 -3.29886,5.773 -3.29886,9.8965 v 22.2673 c 0,0.8247 -0.82471,1.6495 -1.64942,1.6495 -0.82472,0 -1.64943,-0.8248 -1.64943,-1.6495 v -23.9167 c 0,-4.1236 -0.82472,-7.4224 -2.47415,-9.0719 -1.64943,-2.4741 -4.12357,-3.2988 -7.42243,-3.2988 -4.12358,0 -6.59772,1.6494 -9.07187,4.1236 -2.47414,2.4741 -3.29885,5.773 -3.29885,9.8965 v 22.2673 c 0,0.8247 -0.82472,1.6495 -1.64943,1.6495 z m 82.47148,0 c -4.12358,0 -6.59772,-0.8248 -9.89658,-2.4742 -2.47414,-1.6494 -4.12357,-4.1236 -5.773,-7.4224 -1.64943,-2.4742 -2.47415,-6.5977 -2.47415,-10.7213 0,-4.1236 0.82472,-7.4224 2.47415,-10.7213 1.64943,-3.2989 3.29886,-5.773 5.773,-7.4224 3.29886,-1.6495 5.773,-2.4742 9.89658,-2.4742 3.29886,0 6.59772,0.8247 9.07186,2.4742 2.47415,1.6494 4.94829,4.1235 6.59772,7.4224 0.82472,3.2989 1.64943,6.5977 1.64943,10.7213 0,4.1236 -0.82471,8.2471 -1.64943,10.7213 -1.64943,3.2988 -4.12357,5.773 -6.59772,7.4224 -2.47414,1.6494 -5.773,2.4742 -9.07186,2.4742 z m 0,-3.2989 c 4.12357,0 7.42243,-1.6494 9.89658,-4.1236 3.29886,-3.2988 4.12357,-7.4224 4.12357,-13.1954 0,-5.773 -0.82471,-9.8966 -4.12357,-12.3707 -2.47415,-3.2989 -5.77301,-4.9483 -9.89658,-4.9483 -4.94829,0 -8.24715,1.6494 -10.72129,4.9483 -2.47415,2.4741 -4.12358,6.5977 -4.12358,12.3707 0,5.773 1.64943,9.8966 4.12358,13.1954 2.47414,2.4742 5.773,4.1236 10.72129,4.1236 z m 41.23574,3.2989 c -2.47414,0 -4.94829,0 -7.42243,-0.8248 -1.64943,-0.8247 -4.12358,-2.4741 -6.59772,-4.1235 -0.82472,0 -0.82472,-0.8247 -0.82472,-0.8247 0,-0.8248 0.82472,-1.6495 0.82472,-1.6495 0.82471,-0.8247 1.64943,0 1.64943,0 2.47414,1.6495 4.12357,2.4742 6.59772,3.2989 2.47414,0.8247 4.12357,0.8247 6.59772,0.8247 3.29885,0 5.773,-0.8247 8.24714,-1.6494 1.64943,-1.6495 2.47415,-3.2989 2.47415,-5.773 0,-1.6495 -0.82472,-3.2989 -1.64943,-4.1236 -1.64943,-1.6494 -3.29886,-2.4741 -6.59772,-3.2989 l -6.59772,-1.6494 c -3.29886,-0.8247 -5.773,-1.6494 -7.42243,-3.2989 -1.64943,-1.6494 -2.47415,-4.1235 -2.47415,-6.5977 0,-3.2988 1.64943,-6.5977 4.12358,-8.2471 2.47414,-2.4742 5.773,-3.2989 9.89658,-3.2989 2.47414,0 4.94828,0.8247 7.42243,0.8247 2.47414,0.8247 4.12357,2.4742 5.773,4.1236 0,0 0.82472,0.8247 0,1.6494 0,0.8248 0,0.8248 -0.82471,0.8248 0,0.8247 -0.82472,0 -1.64943,0 -1.64943,-1.6495 -3.29886,-2.4742 -4.94829,-3.2989 -1.64943,-0.8247 -3.29886,-0.8247 -5.773,-0.8247 -3.29886,0 -5.77301,0.8247 -7.42244,2.4741 -1.64943,0.8247 -3.29886,3.2989 -3.29886,5.773 0,1.6495 0.82472,3.2989 1.64943,4.1236 1.64943,1.6494 3.29886,2.4741 5.77301,2.4741 l 6.59771,1.6495 c 4.12358,0.8247 6.59772,2.4741 8.24715,4.1236 1.64943,1.6494 2.47415,3.2988 2.47415,6.5977 0,3.2988 -0.82472,5.773 -4.12358,7.4224 -2.47414,2.4741 -5.773,3.2989 -10.72129,3.2989 z m 63.50304,0 c -5.773,0 -10.72129,-1.6495 -14.02015,-5.773 -3.29886,-3.2989 -4.94829,-8.2472 -4.94829,-14.8449 0,-4.1236 0.82472,-7.4224 2.47415,-10.7213 1.64943,-3.2989 3.29886,-5.773 6.59771,-7.4224 2.47415,-1.6495 5.77301,-2.4742 9.07187,-2.4742 5.773,0 9.89658,1.6494 12.37072,4.9483 3.29886,3.2989 4.12357,8.2472 4.12357,14.0202 0,1.6494 0,2.4741 -1.64943,2.4741 h -29.68973 c 0.82472,4.9483 1.64943,9.0719 4.12357,12.3707 3.29886,2.4742 6.59772,4.1236 11.54601,4.1236 2.47415,0 4.12358,0 6.59772,-0.8247 1.64943,-0.8247 3.29886,-1.6494 5.77301,-3.2989 0,0 0.82471,0 1.64942,0 0.82472,0 0.82472,0.8247 0.82472,0.8247 0,0.8248 0,1.6495 -0.82472,1.6495 -1.64942,1.6494 -3.29885,3.2988 -5.773,4.1235 -2.47414,0.8248 -4.94829,0.8248 -8.24715,0.8248 z m -0.82471,-37.9369 c -4.12358,0 -7.42244,1.6494 -9.89658,4.1236 -2.47414,3.2988 -4.12357,6.5977 -4.94829,10.7212 h 28.04031 c 0,-4.1235 -0.82472,-8.2471 -3.29886,-10.7212 -2.47415,-2.4742 -4.94829,-4.1236 -9.89658,-4.1236 z m 38.76159,37.9369 c -3.29885,0 -6.59771,-0.8248 -8.24714,-3.2989 -1.64943,-2.4741 -2.47415,-4.9483 -2.47415,-9.0719 v -45.3593 c 0,-0.8247 0,-1.6494 1.64943,-1.6494 0.82472,0 1.64943,0.8247 1.64943,1.6494 v 44.5346 c 0,6.5977 2.47415,9.8966 7.42243,9.8966 0.82472,0 0.82472,0 1.64943,0 0,0 0.82472,0 0.82472,0 0.82471,0 1.64943,0 1.64943,0.8247 0,0.8247 0,1.6494 -0.82472,1.6494 0,0 -0.82471,0.8248 -1.64943,0.8248 0,0 -0.82471,0 -0.82471,0 0,0 -0.82472,0 -0.82472,0 z m 33.81331,0 c -1.64943,0 -1.64943,-0.8248 -1.64943,-1.6495 v -37.9369 c 0,-0.8247 0,-1.6494 1.64943,-1.6494 0.82472,0 1.64943,0.8247 1.64943,1.6494 v 6.5978 c 0.82472,-2.4742 3.29886,-4.9483 5.77301,-5.773 2.47414,-1.6495 4.94829,-2.4742 8.24714,-2.4742 9.07187,0 14.02016,4.9483 14.02016,14.8449 v 24.7414 c 0,0.8247 -0.82472,1.6495 -1.64943,1.6495 -0.82472,0 -1.64943,-0.8248 -1.64943,-1.6495 v -23.9167 c 0,-4.1236 -0.82472,-7.4224 -2.47415,-9.0719 -1.64943,-2.4741 -4.94829,-3.2988 -8.24715,-3.2988 -4.12357,0 -7.42243,1.6494 -9.89657,4.1236 -3.29886,2.4741 -4.12358,5.773 -4.12358,9.8965 v 22.2673 c 0,0.8247 -0.82471,1.6495 -1.64943,1.6495 z m 45.35932,-51.1324 c -1.64943,0 -2.47415,-0.8247 -2.47415,-3.2988 0,-1.6494 0.82472,-2.4742 2.47415,-2.4742 1.64943,0 3.29886,0.8248 3.29886,2.4742 0,2.4741 -1.64943,3.2988 -3.29886,3.2988 z m 0,51.1324 c -0.82472,0 -1.64943,-0.8248 -1.64943,-2.4742 v -36.2874 c 0,-1.6495 0.82471,-1.6495 1.64943,-1.6495 0.82471,0 1.64943,0 1.64943,1.6495 v 36.2874 c 0,1.6494 -0.82472,2.4742 -1.64943,2.4742 z m 29.68973,0 c -1.64943,0 -2.47414,-0.8248 -2.47414,-2.4742 l -15.66958,-35.4627 c 0,-0.8247 0,-1.6495 0,-2.4742 0,0 0.82471,-0.8247 1.64943,-0.8247 0,0 0.82471,0 0.82471,0.8247 0.82472,0 0.82472,0 0.82472,0.8247 l 14.84486,35.4628 14.84487,-35.4628 c 0,-0.8247 0,-0.8247 0.82471,-0.8247 0,-0.8247 0,-0.8247 0.82472,-0.8247 0.82471,0 1.64943,0.8247 1.64943,0.8247 0,0.8247 0,1.6495 0,2.4742 l -15.66958,35.4627 c -0.82472,1.6494 -1.64943,2.4742 -2.47415,2.4742 z m 43.70989,0 c -5.773,0 -10.72129,-1.6495 -14.02015,-5.773 -3.29886,-3.2989 -4.94829,-8.2472 -4.94829,-14.8449 0,-4.1236 0.82471,-7.4224 2.47414,-10.7213 1.64943,-3.2989 3.29886,-5.773 6.59772,-7.4224 2.47415,-1.6495 5.773,-2.4742 9.07186,-2.4742 5.77301,0 9.07187,1.6494 12.37073,4.9483 2.47414,3.2989 4.12357,8.2472 4.12357,14.0202 0,1.6494 -0.82471,2.4741 -1.64943,2.4741 h -29.68973 c 0,4.9483 1.64943,9.0719 4.12357,12.3707 3.29886,2.4742 6.59772,4.1236 11.54601,4.1236 2.47414,0 4.12357,0 5.773,-0.8247 2.47415,-0.8247 4.12358,-1.6494 5.77301,-3.2989 0.82471,0 1.64943,0 2.47414,0 0,0 0.82472,0.8247 0.82472,0.8247 0,0.8248 0,1.6495 -0.82472,1.6495 -1.64943,1.6494 -4.12357,3.2988 -6.59772,4.1235 -2.47414,0.8248 -4.94829,0.8248 -7.42243,0.8248 z m -0.82472,-37.9369 c -4.12357,0 -7.42243,1.6494 -9.89657,4.1236 -3.29886,3.2988 -4.12358,6.5977 -4.94829,10.7212 h 28.0403 c 0,-4.1235 -0.82471,-8.2471 -3.29886,-10.7212 -2.47414,-2.4742 -5.773,-4.1236 -9.89658,-4.1236 z m 38.7616,37.9369 c -4.12357,0 -6.59772,-0.8248 -8.24715,-3.2989 -1.64943,-2.4741 -3.29886,-4.9483 -3.29886,-9.0719 v -45.3593 c 0,-0.8247 0.82472,-1.6494 1.64943,-1.6494 1.64943,0 2.47415,0.8247 2.47415,1.6494 v 44.5346 c 0,6.5977 2.47414,9.8966 7.42243,9.8966 0.82472,0 0.82472,0 1.64943,0 0,0 0.82472,0 0.82472,0 0.82471,0 1.64943,0 1.64943,0.8247 0,0.8247 0,1.6494 -0.82472,1.6494 0,0 -0.82471,0.8248 -1.64943,0.8248 0,0 -0.82471,0 -0.82471,0 -0.82472,0 -0.82472,0 -0.82472,0 z m 47.00872,0 c -4.1235,0 -6.5977,-0.8248 -9.8966,-2.4742 -2.4741,-1.6494 -4.1235,-4.1236 -5.773,-7.4224 -1.6494,-2.4742 -2.4741,-6.5977 -2.4741,-10.7213 0,-6.5977 1.6494,-11.546 4.9483,-14.8449 3.2988,-4.1236 7.4224,-5.773 13.1954,-5.773 3.2989,0 5.773,0.8247 8.2472,2.4742 2.4741,1.6494 4.9483,3.2988 5.773,5.773 v -24.7415 c 0,-0.8247 0.8247,-1.6494 1.6494,-1.6494 1.6494,0 1.6494,0.8247 1.6494,1.6494 v 56.0806 c 0,0.8247 0,1.6495 -1.6494,1.6495 -0.8247,0 -1.6494,-0.8248 -1.6494,-1.6495 v -6.5977 c -0.8247,2.4742 -3.2989,4.9483 -5.773,5.773 -2.4742,1.6494 -4.9483,2.4742 -8.2472,2.4742 z m 0,-3.2989 c 4.1236,0 7.4225,-1.6494 10.7213,-4.1236 2.4742,-3.2988 3.2989,-7.4224 3.2989,-13.1954 0,-5.773 -0.8247,-9.8966 -3.2989,-12.3707 -3.2988,-3.2989 -6.5977,-4.9483 -10.7213,-4.9483 -4.1235,0 -8.2471,1.6494 -10.7213,4.9483 -2.4741,2.4741 -3.2988,6.5977 -3.2988,12.3707 0,5.773 0.8247,9.8966 3.2988,13.1954 2.4742,2.4742 6.5978,4.1236 10.7213,4.1236 z m 47.8335,3.2989 c -5.773,0 -9.8966,-1.6495 -14.0202,-5.773 -3.2988,-3.2989 -4.9483,-8.2472 -4.9483,-14.8449 0,-4.1236 0.8248,-7.4224 2.4742,-10.7213 1.6494,-3.2989 3.2988,-5.773 6.5977,-7.4224 2.4742,-1.6495 5.773,-2.4742 9.0719,-2.4742 5.773,0 9.8966,1.6494 12.3707,4.9483 3.2989,3.2989 4.1236,8.2472 4.1236,14.0202 0,1.6494 0,2.4741 -1.6495,2.4741 h -29.6897 c 0.8247,4.9483 1.6494,9.0719 4.1236,12.3707 3.2988,2.4742 6.5977,4.1236 11.546,4.1236 2.4741,0 4.1236,0 6.5977,-0.8247 1.6494,-0.8247 3.2989,-1.6494 5.773,-3.2989 0,0 0.8247,0 1.6494,0 0.8248,0 0.8248,0.8247 0.8248,0.8247 0,0.8248 0,1.6495 -0.8248,1.6495 -1.6494,1.6494 -3.2988,3.2988 -5.773,4.1235 -2.4741,0.8248 -4.9483,0.8248 -8.2471,0.8248 z m -0.8247,-37.9369 c -4.1236,0 -7.4225,1.6494 -9.8966,4.1236 -2.4742,3.2988 -4.1236,6.5977 -4.9483,10.7212 h 28.0403 c 0,-4.1235 -0.8247,-8.2471 -3.2988,-10.7212 -2.4742,-2.4742 -4.9483,-4.1236 -9.8966,-4.1236 z m 61.8536,37.9369 c -4.1236,0 -7.4224,-0.8248 -9.0719,-3.2989 -2.4741,-2.4741 -3.2988,-5.773 -3.2988,-9.8966 v -24.7414 h -6.5978 c -1.6494,0 -1.6494,0 -1.6494,-0.8247 0,-1.6495 0,-1.6495 1.6494,-1.6495 h 6.5978 v -11.546 c 0,-0.8247 0.8247,-1.6494 1.6494,-1.6494 0.8247,0 1.6494,0.8247 1.6494,1.6494 v 11.546 h 11.546 c 1.6495,0 2.4742,0 2.4742,1.6495 0,0.8247 -0.8247,0.8247 -2.4742,0.8247 h -11.546 v 23.9167 c 0,3.2989 0.8247,5.773 2.4742,8.2472 1.6494,1.6494 3.2988,2.4741 6.5977,2.4741 1.6494,0 2.4741,0 3.2988,0 0.8248,-0.8247 1.6495,-0.8247 1.6495,-0.8247 0.8247,0 1.6494,0.8247 1.6494,1.6494 0,0.8247 0,0.8247 -0.8247,0.8247 0,0.8247 0,0.8247 -0.8247,0.8247 0,0 -0.8247,0.8248 -1.6495,0.8248 -1.6494,0 -2.4741,0 -3.2988,0 z m 26.3909,0 c -4.9483,0 -8.2472,-0.8248 -10.7213,-4.1236 -2.4742,-2.4742 -3.2989,-5.773 -3.2989,-10.7213 v -24.7415 c 0,-0.8247 0.8247,-1.6494 1.6494,-1.6494 0.8248,0 1.6495,0.8247 1.6495,1.6494 v 23.9168 c 0,4.1236 0.8247,7.4224 2.4741,9.0718 1.6494,2.4742 4.9483,3.2989 8.2472,3.2989 4.1235,0 7.4224,-0.8247 9.8965,-4.1236 2.4742,-2.4741 3.2989,-5.773 3.2989,-9.8965 v -22.2674 c 0,-0.8247 0.8247,-1.6494 2.4741,-1.6494 0.8248,0 1.6495,0.8247 1.6495,1.6494 v 37.9369 c 0,0.8247 -0.8247,1.6495 -1.6495,1.6495 -1.6494,0 -1.6494,-0.8248 -1.6494,-1.6495 v -6.5977 c -1.6494,2.4742 -3.2988,4.9483 -5.773,6.5977 -2.4741,0.8247 -4.9483,1.6495 -8.2471,1.6495 z m 67.62663,0 c -5.773,0 -9.8966,-1.6495 -14.0202,-5.773 -3.2988,-3.2989 -4.9483,-8.2472 -4.9483,-14.8449 0,-4.1236 0.8247,-7.4224 2.4742,-10.7213 1.6494,-3.2989 3.2988,-5.773 6.5977,-7.4224 2.4741,-1.6495 5.773,-2.4742 9.0719,-2.4742 5.773,0 9.8965,1.6494 12.3707,4.9483 3.2987,3.2989 4.1235,8.2472 4.1235,14.0202 0,1.6494 0,2.4741 -1.6495,2.4741 h -29.6896 c 0.8247,4.9483 1.6494,9.0719 4.1236,12.3707 3.2988,2.4742 6.5977,4.1236 11.546,4.1236 2.4741,0 4.1236,0 6.5977,-0.8247 1.6494,-0.8247 3.2989,-1.6494 5.773,-3.2989 0,0 0.8246,0 1.6493,0 0.8247,0 0.8247,0.8247 0.8247,0.8247 0,0.8248 0,1.6495 -0.8247,1.6495 -1.6493,1.6494 -3.2987,3.2988 -5.7729,4.1235 -2.4741,0.8248 -4.9483,0.8248 -8.2471,0.8248 z m -0.8247,-37.9369 c -4.1236,0 -7.4225,1.6494 -9.8966,4.1236 -2.4742,3.2988 -4.1236,6.5977 -4.9483,10.7212 h 28.0403 c 0,-4.1235 -0.8247,-8.2471 -3.2989,-10.7212 -2.4741,-2.4742 -4.9482,-4.1236 -9.8965,-4.1236 z m 29.6896,37.9369 c -1.6494,0 -1.6494,-0.8248 -1.6494,-1.6495 v -37.9369 c 0,-0.8247 0,-1.6494 1.6494,-1.6494 0.8247,0 1.6494,0.8247 1.6494,1.6494 v 6.5978 c 0.8247,-2.4742 2.4742,-4.9483 4.9483,-5.773 2.4742,-1.6495 4.9483,-2.4742 7.4224,-2.4742 6.5978,0 10.7213,2.4742 12.3708,8.2472 0.8247,-2.4742 3.2988,-4.1236 4.9483,-5.773 2.4741,-1.6495 5.773,-2.4742 8.2471,-2.4742 9.0719,0 13.1954,4.9483 13.1954,14.8449 v 24.7414 c 0,0.8247 0,1.6495 -1.6494,1.6495 -0.8247,0 -1.6494,-0.8248 -1.6494,-1.6495 v -23.9167 c 0,-4.1236 -0.8247,-7.4224 -2.4742,-9.0719 -0.8247,-2.4741 -3.2988,-3.2988 -7.4224,-3.2988 -3.2989,0 -6.5977,1.6494 -9.0719,4.1236 -1.6494,2.4741 -3.2988,5.773 -3.2988,9.8965 v 22.2673 c 0,0.8247 -0.8247,1.6495 -1.6494,1.6495 -0.8248,0 -1.6495,-0.8248 -1.6495,-1.6495 v -23.9167 c 0,-4.1236 -0.8247,-7.4224 -2.4741,-9.0719 -1.6494,-2.4741 -4.1236,-3.2988 -7.4225,-3.2988 -4.1235,0 -6.5977,1.6494 -9.0718,4.1236 -2.4742,2.4741 -3.2989,5.773 -3.2989,9.8965 v 22.2673 c 0,0.8247 -0.8247,1.6495 -1.6494,1.6495 z m 68.4513,14.8448 c -0.8247,0 -1.6494,-0.8247 -1.6494,-1.6494 v -52.7818 c 0,-0.8247 0.8247,-1.6494 1.6494,-1.6494 1.6495,0 2.4742,0.8247 2.4742,1.6494 v 6.5978 c 0.8247,-2.4742 2.4741,-4.1236 4.9483,-5.773 2.4741,-1.6495 5.773,-2.4742 9.0718,-2.4742 3.2989,0 6.5977,0.8247 9.0719,2.4742 2.4741,1.6494 4.9483,4.1235 6.5977,7.4224 1.6494,3.2989 1.6494,6.5977 1.6494,10.7213 0,6.5977 -1.6494,11.546 -4.1235,14.8449 -3.2989,4.1235 -8.2472,5.773 -13.1955,5.773 -3.2988,0 -6.5977,-0.8248 -9.0718,-2.4742 -2.4742,-0.8247 -4.1236,-3.2988 -4.9483,-5.773 v 21.4426 c 0,0.8247 -0.8247,1.6494 -2.4742,1.6494 z m 16.4943,-18.1437 c 4.1236,0 7.4225,-1.6494 9.8966,-4.1236 3.2989,-3.2988 4.1236,-7.4224 4.1236,-13.1954 0,-5.773 -0.8247,-9.8966 -4.1236,-12.3707 -2.4741,-3.2989 -5.773,-4.9483 -9.8966,-4.9483 -4.1236,0 -8.2471,1.6494 -10.7213,4.9483 -2.4741,2.4741 -4.1235,6.5977 -4.1235,12.3707 0,5.773 1.6494,9.8966 4.1235,13.1954 2.4742,2.4742 6.5977,4.1236 10.7213,4.1236 z m 30.5145,3.2989 c -0.8247,0 -1.6495,-0.8248 -1.6495,-1.6495 v -37.9369 c 0,-0.8247 0.8248,-1.6494 1.6495,-1.6494 1.6494,0 1.6494,0.8247 1.6494,1.6494 v 6.5978 c 1.6494,-3.2989 3.2989,-4.9483 5.773,-6.5978 2.4741,-0.8247 5.773,-1.6494 8.2472,-1.6494 0.8247,0 0.8247,0 1.6494,0 0,0 0.8247,0.8247 0.8247,1.6494 0,0.8248 -0.8247,1.6495 -2.4741,1.6495 h -0.8248 c -4.1235,0 -7.4224,1.6494 -9.0718,4.1236 -2.4742,2.4741 -4.1236,5.773 -4.1236,9.0718 v 23.092 c 0,0.8247 0,1.6495 -1.6494,1.6495 z m 42.0604,0 c -6.5977,0 -10.7213,-1.6495 -14.8448,-5.773 -3.2989,-3.2989 -4.9483,-8.2472 -4.9483,-14.8449 0,-4.1236 0.8247,-7.4224 2.4741,-10.7213 1.6494,-3.2989 4.1236,-5.773 6.5977,-7.4224 2.4742,-1.6495 5.773,-2.4742 9.8966,-2.4742 4.9483,0 9.0719,1.6494 11.546,4.9483 3.2989,3.2989 4.1236,8.2472 4.1236,14.0202 0,1.6494 0,2.4741 -1.6494,2.4741 h -28.8651 c 0,4.9483 0.8248,9.0719 4.1236,12.3707 2.4742,2.4742 5.773,4.1236 10.7213,4.1236 2.4742,0 4.1236,0 6.5977,-0.8247 1.6495,-0.8247 3.2989,-1.6494 5.773,-3.2989 0.8248,0 0.8248,0 1.6495,0 0.8247,0 0.8247,0.8247 0.8247,0.8247 0.8247,0.8248 0,1.6495 -0.8247,1.6495 -1.6495,1.6494 -3.2989,3.2988 -5.773,4.1235 -2.4742,0.8248 -4.9483,0.8248 -7.4225,0.8248 z m -0.8247,-37.9369 c -4.9483,0 -8.2471,1.6494 -10.7213,4.1236 -2.4741,3.2988 -4.1236,6.5977 -4.1236,10.7212 h 28.0404 c -0.8248,-4.1235 -1.6495,-8.2471 -4.1236,-10.7212 -1.6495,-2.4742 -4.9483,-4.1236 -9.0719,-4.1236 z m 39.5863,37.9369 c -2.4741,0 -4.9483,0 -7.4224,-0.8248 -2.4742,-0.8247 -4.9483,-2.4741 -6.5977,-4.1235 -0.8247,0 -0.8247,-0.8247 -0.8247,-0.8247 0,-0.8248 0,-1.6495 0.8247,-1.6495 0,-0.8247 0.8247,0 1.6494,0 1.6494,1.6495 4.1236,2.4742 6.5977,3.2989 1.6495,0.8247 4.1236,0.8247 5.773,0.8247 3.2989,0 6.5977,-0.8247 8.2472,-1.6494 1.6494,-1.6495 3.2988,-3.2989 3.2988,-5.773 0,-1.6495 -0.8247,-3.2989 -2.4741,-4.1236 -0.8247,-1.6494 -3.2989,-2.4741 -5.773,-3.2989 l -6.5977,-1.6494 c -3.2989,-0.8247 -6.5978,-1.6494 -8.2472,-3.2989 -1.6494,-1.6494 -1.6494,-4.1235 -1.6494,-6.5977 0,-3.2988 0.8247,-6.5977 3.2988,-8.2471 2.4742,-2.4742 6.5978,-3.2989 10.7213,-3.2989 2.4742,0 4.9483,0.8247 6.5978,0.8247 2.4741,0.8247 4.1235,2.4742 5.773,4.1236 0.8247,0 0.8247,0.8247 0.8247,1.6494 0,0.8248 -0.8247,0.8248 -0.8247,0.8248 -0.8248,0.8247 -0.8248,0 -1.6495,0 -1.6494,-1.6495 -3.2988,-2.4742 -4.9483,-3.2989 -2.4741,-0.8247 -4.1235,-0.8247 -5.773,-0.8247 -3.2988,0 -5.773,0.8247 -8.2471,2.4741 -1.6494,0.8247 -2.4742,3.2989 -2.4742,5.773 0,1.6495 0.8248,3.2989 1.6495,4.1236 0.8247,1.6494 3.2988,2.4741 5.773,2.4741 l 6.5977,1.6495 c 3.2989,0.8247 6.5977,2.4741 8.2471,4.1236 1.6495,1.6494 2.4742,3.2988 2.4742,6.5977 0,3.2988 -1.6494,5.773 -4.1236,7.4224 -2.4741,2.4741 -6.5977,3.2989 -10.7213,3.2989 z m 38.7616,0 c -2.4741,0 -4.9483,-0.8248 -7.4224,-1.6495 -1.6494,-0.8247 -3.2989,-2.4741 -4.9483,-4.1235 -0.8247,-1.6495 -1.6494,-4.1236 -1.6494,-5.773 0,-3.2989 0.8247,-5.773 2.4741,-7.4225 1.6494,-1.6494 4.1236,-2.4741 7.4224,-3.2988 3.2989,-0.8248 8.2472,-0.8248 14.8449,-0.8248 h 2.4742 v -3.2988 c 0,-4.1236 -0.8248,-7.4224 -2.4742,-9.0719 -1.6494,-1.6494 -4.1236,-2.4741 -7.4224,-2.4741 -4.1236,0 -8.2472,0.8247 -12.3707,3.2988 -0.8248,0.8248 -1.6495,0.8248 -2.4742,0.8248 0,-0.8248 -0.8247,-0.8248 -0.8247,-1.6495 0,-0.8247 0.8247,-1.6494 0.8247,-1.6494 2.4742,-1.6494 4.9483,-2.4742 7.4224,-3.2989 2.4742,-0.8247 4.9483,-0.8247 7.4225,-0.8247 4.1236,0 7.4224,1.6494 9.8966,3.2989 1.6494,2.4741 3.2988,6.5977 3.2988,11.546 v 24.7414 c 0,0.8247 -0.8247,1.6495 -1.6494,1.6495 -1.6494,0 -1.6494,-0.8248 -1.6494,-1.6495 v -6.5977 c -1.6495,2.4742 -3.2989,4.9483 -5.773,5.773 -1.6495,1.6494 -4.9483,2.4742 -7.4225,2.4742 z m 0,-3.2989 c 2.4742,0 4.9483,0 6.5977,-1.6494 1.6495,-0.8247 3.2989,-2.4742 4.9483,-4.9483 0.8247,-2.4742 1.6495,-4.9483 1.6495,-7.4224 v -3.2989 h -2.4742 c -5.773,0 -9.8966,0.8247 -13.1954,0.8247 -2.4742,0.8247 -4.9483,1.6494 -5.773,2.4742 -1.6495,1.6494 -1.6495,3.2988 -1.6495,4.9482 0,3.2989 0.8248,4.9483 2.4742,6.5978 1.6494,1.6494 4.1236,2.4741 7.4224,2.4741 z m 32.1639,3.2989 c -0.8247,0 -1.6494,-0.8248 -2.4741,-1.6495 -0.8248,0 -0.8248,-0.8247 -0.8248,-1.6494 0,-0.8247 0,-1.6494 0.8248,-2.4741 0.8247,-0.8248 1.6494,-0.8248 2.4741,-0.8248 0.8247,0 1.6494,0 1.6494,0.8248 0.8247,0.8247 0.8247,1.6494 0.8247,2.4741 0,0.8247 0,1.6494 -0.8247,1.6494 0,0.8247 -0.8247,1.6495 -1.6494,1.6495 z"
   id="path83"
   style="stroke-width:0.824715" />
  <g
   id="_3114034255552"
   transform="matrix(0.82471483,0,0,0.82471483,171.72507,-1905.9133)">
   <path
   class="fil16"
   d="m 47,249 c -7,0 -13,-2 -17,-5 -5,-3 -9,-7 -11,-12 -3,-6 -4,-12 -4,-19 0,-8 1,-14 4,-20 2,-5 6,-9 11,-12 4,-3 10,-4 17,-4 4,0 8,0 12,2 4,1 7,3 10,6 1,0 1,1 1,2 0,1 0,1 -1,2 -1,0 -2,0 -2,-1 -6,-5 -12,-7 -21,-7 -8,0 -15,2 -19,8 -5,6 -7,13 -7,24 0,10 2,18 7,23 4,6 11,9 19,9 8,0 15,-3 21,-8 0,-1 1,-1 2,-1 1,1 1,1 1,2 0,1 0,2 -1,2 -5,6 -13,9 -22,9 z m 52,0 c -5,0 -9,-1 -12,-3 -3,-3 -6,-5 -7,-9 -2,-4 -3,-8 -3,-13 0,-5 1,-10 3,-14 1,-3 4,-6 7,-8 3,-2 7,-3 12,-3 4,0 8,1 11,3 3,2 6,5 8,8 1,4 2,9 2,14 0,5 -1,9 -2,13 -2,4 -5,6 -8,9 -3,2 -7,3 -11,3 z m 0,-4 c 5,0 9,-2 12,-6 3,-4 5,-9 5,-15 0,-7 -2,-12 -5,-16 -3,-4 -7,-5 -12,-5 -6,0 -10,1 -13,5 -3,4 -5,9 -5,16 0,6 2,11 5,15 3,4 7,6 13,6 z m 37,3 c -1,0 -2,0 -2,-2 v -45 c 0,-1 1,-2 2,-2 1,0 2,1 2,2 v 7 c 2,-3 4,-5 7,-7 3,-2 6,-2 10,-2 12,0 17,6 17,18 v 29 c 0,2 0,2 -2,2 -1,0 -2,0 -2,-2 v -29 c 0,-5 -1,-8 -3,-11 -2,-2 -5,-3 -10,-3 -5,0 -9,1 -12,4 -3,3 -5,8 -5,13 v 26 c 0,2 -1,2 -2,2 z m 91,1 c -4,0 -7,-2 -10,-4 -2,-3 -3,-7 -3,-12 v -54 c 0,-2 1,-2 2,-2 1,0 2,0 2,2 v 54 c 0,8 3,12 9,12 1,0 2,0 2,0 1,0 1,0 2,0 1,0 1,0 1,1 0,1 0,1 0,2 -1,0 -1,0 -2,0 -1,0 -1,1 -2,1 0,0 -1,0 -1,0 z m 29,0 c -3,0 -6,-1 -9,-2 -2,-2 -4,-3 -6,-5 -1,-3 -2,-5 -2,-8 0,-3 1,-6 3,-8 2,-2 5,-4 9,-4 4,-1 10,-2 18,-2 h 3 v -4 c 0,-4 -1,-8 -3,-10 -2,-2 -5,-3 -9,-3 -5,0 -10,1 -15,4 -1,1 -2,1 -3,0 0,0 -1,-1 -1,-2 0,0 1,-1 2,-1 2,-2 5,-3 8,-4 3,-1 6,-1 9,-1 5,0 9,1 12,4 3,3 4,7 4,13 v 30 c 0,2 -1,2 -2,2 -1,0 -2,0 -2,-2 v -7 c -2,3 -4,5 -6,7 -3,2 -6,3 -10,3 z m 0,-4 c 3,0 6,-1 8,-2 3,-2 4,-4 6,-7 1,-2 2,-5 2,-8 v -4 h -3 c -7,0 -12,0 -15,1 -4,0 -7,1 -8,3 -1,1 -2,3 -2,6 0,3 1,6 3,8 2,2 5,3 9,3 z m 63,-59 c -2,0 -3,-1 -3,-3 0,-3 1,-4 3,-4 3,0 4,1 4,4 0,2 -1,3 -4,3 z m 0,62 c -1,0 -2,-1 -2,-2 v -45 c 0,-1 1,-2 2,-2 2,0 3,1 3,2 v 45 c 0,1 -1,2 -3,2 z m 22,0 c -2,0 -2,0 -2,-2 v -45 c 0,-1 0,-2 2,-2 1,0 2,1 2,2 v 7 c 1,-3 3,-5 6,-7 3,-2 6,-2 9,-2 8,0 13,3 15,10 1,-3 4,-6 6,-8 3,-1 7,-2 10,-2 11,0 16,6 16,18 v 29 c 0,2 0,2 -2,2 -1,0 -2,0 -2,-2 v -29 c 0,-5 -1,-8 -3,-11 -1,-2 -4,-3 -9,-3 -4,0 -8,1 -11,4 -2,3 -4,8 -4,13 v 26 c 0,2 -1,2 -2,2 -1,0 -2,0 -2,-2 v -29 c 0,-5 -1,-8 -3,-11 -2,-2 -5,-3 -9,-3 -5,0 -8,1 -11,4 -3,3 -4,8 -4,13 v 26 c 0,2 -1,2 -2,2 z m 84,18 c -2,0 -3,0 -3,-2 v -63 c 0,-1 1,-2 3,-2 1,0 2,1 2,2 v 8 c 1,-3 3,-6 6,-8 3,-1 7,-2 11,-2 4,0 8,1 11,3 4,2 6,5 8,8 2,4 2,8 2,14 0,7 -2,13 -5,18 -4,4 -9,7 -16,7 -4,0 -8,-1 -11,-3 -3,-2 -5,-4 -6,-8 v 26 c 0,2 -1,2 -2,2 z m 19,-21 c 5,0 9,-2 12,-6 4,-4 5,-9 5,-15 0,-7 -1,-12 -5,-16 -3,-4 -7,-5 -12,-5 -5,0 -10,1 -13,5 -3,4 -4,9 -4,16 0,6 1,11 4,15 3,4 8,6 13,6 z m 48,4 c -4,0 -7,-2 -9,-4 -3,-3 -4,-7 -4,-12 v -54 c 0,-2 1,-2 2,-2 2,0 2,0 2,2 v 54 c 0,8 4,12 10,12 0,0 1,0 2,0 0,0 0,0 1,0 1,0 2,0 2,1 0,1 -1,1 -1,2 0,0 -1,0 -2,0 0,0 -1,1 -1,1 -1,0 -1,0 -2,0 z m 34,0 c -7,0 -13,-3 -17,-7 -4,-4 -6,-11 -6,-18 0,-5 1,-10 3,-13 2,-4 4,-7 8,-9 3,-2 7,-3 11,-3 7,0 12,2 15,6 3,4 5,10 5,17 0,2 -1,2 -2,2 h -36 c 0,7 2,12 5,15 4,4 8,6 14,6 3,0 5,-1 8,-1 2,-1 4,-2 7,-4 0,-1 1,-1 2,-1 1,1 1,1 1,2 0,1 0,1 -1,2 -2,2 -4,3 -7,4 -3,1 -7,2 -10,2 z m -1,-47 c -5,0 -9,2 -12,6 -3,3 -5,7 -6,13 h 34 c 0,-6 -1,-10 -4,-14 -3,-3 -7,-5 -12,-5 z m 36,46 c -2,0 -2,0 -2,-2 v -45 c 0,-1 0,-2 2,-2 1,0 2,1 2,2 v 7 c 1,-3 3,-5 6,-7 3,-2 6,-2 9,-2 8,0 13,3 15,10 1,-3 3,-6 6,-8 3,-1 7,-2 10,-2 11,0 16,6 16,18 v 29 c 0,2 0,2 -2,2 -1,0 -2,0 -2,-2 v -29 c 0,-5 -1,-8 -3,-11 -1,-2 -5,-3 -9,-3 -4,0 -8,1 -11,4 -3,3 -4,8 -4,13 v 26 c 0,2 -1,2 -2,2 -1,0 -2,0 -2,-2 v -29 c 0,-5 -1,-8 -3,-11 -2,-2 -5,-3 -9,-3 -5,0 -8,1 -11,4 -3,3 -4,8 -4,13 v 26 c 0,2 -1,2 -2,2 z m 101,1 c -7,0 -12,-3 -17,-7 -4,-4 -6,-11 -6,-18 0,-5 1,-10 3,-13 2,-4 4,-7 8,-9 3,-2 7,-3 12,-3 6,0 11,2 14,6 4,4 5,10 5,17 0,2 0,2 -2,2 h -36 c 1,7 2,12 6,15 3,4 7,6 13,6 3,0 5,-1 8,-1 2,-1 4,-2 7,-4 0,-1 1,-1 2,-1 1,1 1,1 1,2 0,1 0,1 -1,2 -2,2 -4,3 -7,4 -3,1 -6,2 -10,2 z m -1,-47 c -5,0 -9,2 -12,6 -3,3 -5,7 -5,13 h 33 c 0,-6 -1,-10 -4,-14 -3,-3 -6,-5 -12,-5 z m 36,46 c -2,0 -2,0 -2,-2 v -45 c 0,-1 0,-2 2,-2 1,0 2,1 2,2 v 7 c 1,-3 4,-5 7,-7 3,-2 6,-2 10,-2 11,0 17,6 17,18 v 29 c 0,2 -1,2 -2,2 -1,0 -2,0 -2,-2 v -29 c 0,-5 -1,-8 -3,-11 -2,-2 -6,-3 -10,-3 -5,0 -9,1 -13,4 -3,3 -4,8 -4,13 v 26 c 0,2 -1,2 -2,2 z m 70,1 c -5,0 -9,-2 -11,-5 -3,-3 -4,-7 -4,-12 v -29 h -8 c -2,0 -3,-1 -3,-2 0,-1 1,-2 3,-2 h 8 v -13 c 0,-2 0,-2 2,-2 1,0 2,0 2,2 v 13 h 14 c 2,0 2,1 2,2 0,1 0,2 -2,2 h -14 v 28 c 0,5 1,8 3,10 1,3 4,4 8,4 2,0 3,0 4,-1 1,0 1,0 2,0 1,0 1,0 1,2 0,0 0,0 0,1 0,0 0,0 -1,1 0,0 -1,0 -3,0 -1,1 -2,1 -3,1 z m 30,0 c -4,0 -6,-1 -9,-2 -3,-2 -5,-3 -6,-5 -1,-3 -2,-5 -2,-8 0,-3 1,-6 2,-8 2,-2 5,-4 10,-4 4,-1 10,-2 17,-2 h 3 v -4 c 0,-4 -1,-8 -2,-10 -2,-2 -5,-3 -9,-3 -6,0 -11,1 -16,4 -1,1 -1,1 -2,0 -1,0 -1,-1 -1,-2 0,0 0,-1 1,-1 3,-2 6,-3 9,-4 3,-1 5,-1 8,-1 6,0 10,1 13,4 2,3 4,7 4,13 v 30 c 0,2 -1,2 -2,2 -2,0 -3,0 -3,-2 v -7 c -1,3 -3,5 -6,7 -3,2 -6,3 -9,3 z m 0,-4 c 3,0 6,-1 8,-2 2,-2 4,-4 5,-7 2,-2 2,-5 2,-8 v -4 h -2 c -7,0 -12,0 -16,1 -3,0 -6,1 -7,3 -2,1 -3,3 -3,6 0,3 2,6 4,8 2,2 5,3 9,3 z m 55,4 c -4,0 -8,-1 -12,-4 -3,-2 -5,-5 -7,-8 -2,-4 -3,-9 -3,-14 0,-7 2,-13 6,-18 4,-4 9,-6 16,-6 3,0 5,0 8,1 3,1 5,2 7,4 1,1 1,2 1,2 -1,1 -1,1 -2,2 0,0 -1,0 -2,-1 -2,-2 -4,-3 -6,-4 -2,0 -4,0 -6,0 -6,0 -10,1 -13,5 -3,4 -5,9 -5,15 0,7 2,12 5,16 3,4 7,6 13,6 2,0 4,-1 6,-1 2,-1 4,-2 6,-4 1,-1 2,-1 2,0 1,0 1,0 2,1 0,1 0,1 -1,2 -2,2 -4,3 -7,4 -3,1 -5,2 -8,2 z m 29,-63 c -2,0 -4,-1 -4,-3 0,-3 2,-4 4,-4 2,0 3,1 3,4 0,2 -1,3 -3,3 z m 0,62 c -1,0 -2,-1 -2,-2 v -45 c 0,-1 1,-2 2,-2 1,0 2,1 2,2 v 45 c 0,1 -1,2 -2,2 z m 37,1 c -4,0 -8,-1 -11,-3 -3,-3 -6,-5 -8,-9 -1,-4 -2,-8 -2,-13 0,-5 1,-10 2,-14 2,-3 5,-6 8,-8 3,-2 7,-3 11,-3 5,0 9,1 12,3 3,2 6,5 7,8 2,4 3,9 3,14 0,5 -1,9 -3,13 -1,4 -4,6 -7,9 -3,2 -7,3 -12,3 z m 0,-4 c 6,0 10,-2 13,-6 3,-4 5,-9 5,-15 0,-7 -2,-12 -5,-16 -3,-4 -7,-5 -13,-5 -5,0 -9,1 -12,5 -3,4 -5,9 -5,16 0,6 2,11 5,15 3,4 7,6 12,6 z m 2,-52 c 0,0 0,0 -1,0 -1,0 -1,0 -1,0 -1,-1 -1,-1 0,-2 l 9,-17 c 0,-2 1,-2 2,-2 1,0 1,0 2,1 0,1 0,2 0,3 z m 36,55 c -1,0 -2,0 -2,-2 v -45 c 0,-1 1,-2 2,-2 1,0 2,1 2,2 v 7 c 2,-3 4,-5 7,-7 3,-2 6,-2 10,-2 12,0 17,6 17,18 v 29 c 0,2 0,2 -2,2 -1,0 -2,0 -2,-2 v -29 c 0,-5 -1,-8 -3,-11 -2,-2 -5,-3 -10,-3 -5,0 -9,1 -12,4 -3,3 -5,8 -5,13 v 26 c 0,2 -1,2 -2,2 z m 96,1 c -4,0 -8,-1 -11,-3 -4,-2 -6,-5 -8,-9 -2,-4 -2,-8 -2,-13 0,-8 1,-14 5,-19 4,-4 9,-6 16,-6 4,0 8,1 11,2 3,2 5,5 6,8 v -30 c 0,-2 1,-2 2,-2 2,0 3,0 3,2 v 67 c 0,2 -1,2 -3,2 -1,0 -2,0 -2,-2 v -8 c -1,4 -3,6 -6,8 -3,2 -7,3 -11,3 z m 0,-4 c 5,0 10,-2 13,-6 3,-4 4,-9 4,-15 0,-7 -1,-12 -4,-16 -3,-4 -8,-5 -13,-5 -5,0 -9,1 -12,5 -4,4 -5,9 -5,16 0,6 1,11 5,15 3,4 7,6 12,6 z m 59,4 c -8,0 -13,-3 -17,-7 -5,-4 -7,-11 -7,-18 0,-5 1,-10 3,-13 2,-4 5,-7 8,-9 3,-2 7,-3 12,-3 6,0 11,2 14,6 4,4 6,10 6,17 0,2 -1,2 -3,2 h -35 c 0,7 1,12 5,15 3,4 8,6 13,6 3,0 6,-1 8,-1 2,-1 5,-2 7,-4 1,-1 1,-1 2,-1 1,1 1,1 1,2 1,1 0,1 -1,2 -2,2 -4,3 -7,4 -3,1 -6,2 -9,2 z m -1,-47 c -6,0 -10,2 -13,6 -3,3 -5,7 -5,13 h 34 c -1,-6 -2,-10 -5,-14 -2,-3 -6,-5 -11,-5 z m 73,47 c -4,0 -7,-1 -9,-2 -3,-1 -6,-2 -9,-4 0,-1 -1,-1 -1,-2 1,-1 1,-1 2,-2 0,0 1,0 2,1 2,2 5,3 7,4 3,0 5,1 8,1 4,0 7,-1 10,-3 2,-1 3,-4 3,-7 0,-2 -1,-4 -2,-5 -2,-1 -4,-2 -7,-3 l -9,-2 c -4,-1 -7,-3 -9,-5 -2,-2 -3,-4 -3,-8 0,-4 2,-7 5,-10 3,-2 7,-3 13,-3 3,0 5,0 8,1 3,1 5,2 7,4 1,1 1,2 1,2 0,1 -1,2 -1,2 -1,0 -2,0 -3,-1 -1,-1 -3,-3 -6,-3 -2,-1 -4,-1 -6,-1 -5,0 -8,0 -10,2 -2,2 -3,4 -3,7 0,2 0,4 2,6 1,1 3,2 6,3 l 9,2 c 4,1 7,2 9,4 3,2 4,5 4,8 0,4 -2,8 -5,10 -4,2 -8,4 -13,4 z m 50,0 c -4,0 -8,-1 -11,-3 -3,-3 -6,-5 -8,-9 -1,-4 -2,-8 -2,-13 0,-5 1,-10 2,-14 2,-3 5,-6 8,-8 3,-2 7,-3 11,-3 5,0 9,1 12,3 3,2 6,5 7,8 2,4 3,9 3,14 0,5 -1,9 -3,13 -1,4 -4,6 -7,9 -3,2 -7,3 -12,3 z m 0,-4 c 6,0 10,-2 13,-6 3,-4 5,-9 5,-15 0,-7 -2,-12 -5,-16 -3,-4 -7,-5 -13,-5 -5,0 -9,1 -12,5 -3,4 -5,9 -5,16 0,6 2,11 5,15 3,4 7,6 12,6 z m 49,4 c -4,0 -8,-2 -10,-4 -2,-3 -3,-7 -3,-12 v -54 c 0,-2 0,-2 2,-2 1,0 2,0 2,2 v 54 c 0,8 3,12 9,12 1,0 2,0 2,0 0,0 1,0 1,0 2,0 2,0 2,1 0,1 0,1 0,2 -1,0 -2,0 -2,0 -1,0 -1,1 -2,1 0,0 -1,0 -1,0 z m 31,0 c -6,0 -10,-2 -13,-5 -3,-3 -4,-8 -4,-14 v -29 c 0,-1 1,-2 2,-2 2,0 2,1 2,2 v 29 c 0,5 1,9 3,11 2,2 6,4 10,4 5,0 9,-2 12,-5 3,-3 5,-8 5,-13 v -26 c 0,-1 0,-2 2,-2 1,0 2,1 2,2 v 45 c 0,2 -1,2 -2,2 -2,0 -2,0 -2,-2 v -7 c -2,3 -4,5 -7,7 -3,2 -6,3 -10,3 z m 57,0 c -5,0 -9,-1 -12,-4 -4,-2 -6,-5 -8,-8 -2,-4 -2,-9 -2,-14 0,-7 2,-13 5,-18 4,-4 10,-6 17,-6 2,0 5,0 7,1 3,1 5,2 7,4 1,1 1,2 1,2 0,1 -1,1 -1,2 -1,0 -2,0 -3,-1 -1,-2 -3,-3 -6,-4 -2,0 -4,0 -5,0 -6,0 -10,1 -14,5 -3,4 -4,9 -4,15 0,7 1,12 4,16 4,4 8,6 14,6 1,0 3,-1 5,-1 3,-1 5,-2 6,-4 1,-1 2,-1 3,0 0,0 1,0 1,1 0,1 0,1 -1,2 -2,2 -4,3 -7,4 -2,1 -5,2 -7,2 z"
   id="path85" />
   <path
   class="fil16"
   d="m 1398,186 c -2,0 -3,-1 -3,-3 0,-3 1,-4 3,-4 3,0 4,1 4,4 0,2 -1,3 -4,3 z m 0,62 c -1,0 -2,-1 -2,-2 v -45 c 0,-1 1,-2 2,-2 2,0 2,1 2,2 v 45 c 0,1 0,2 -2,2 z m 38,1 c -5,0 -8,-1 -12,-3 -3,-3 -5,-5 -7,-9 -2,-4 -3,-8 -3,-13 0,-5 1,-10 3,-14 2,-3 4,-6 7,-8 4,-2 7,-3 12,-3 4,0 8,1 11,3 4,2 6,5 8,8 2,4 2,9 2,14 0,5 0,9 -2,13 -2,4 -4,6 -8,9 -3,2 -7,3 -11,3 z m 0,-4 c 5,0 9,-2 12,-6 4,-4 5,-9 5,-15 0,-7 -1,-12 -5,-16 -3,-4 -7,-5 -12,-5 -5,0 -10,1 -13,5 -3,4 -4,9 -4,16 0,6 1,11 4,15 3,4 8,6 13,6 z m 37,3 c -1,0 -2,0 -2,-2 v -45 c 0,-1 1,-2 2,-2 2,0 2,1 2,2 v 7 c 2,-3 4,-5 7,-7 3,-2 7,-2 10,-2 12,0 18,6 18,18 v 29 c 0,2 -1,2 -2,2 -2,0 -2,0 -2,-2 v -29 c 0,-5 -1,-8 -4,-11 -2,-2 -5,-3 -10,-3 -5,0 -9,1 -12,4 -3,3 -5,8 -5,13 v 26 c 0,2 0,2 -2,2 z m 74,1 c -8,0 -13,-3 -17,-7 -5,-4 -7,-11 -7,-18 0,-5 1,-10 3,-13 2,-4 5,-7 8,-9 3,-2 7,-3 12,-3 6,0 11,2 14,6 4,4 6,10 6,17 0,2 -1,2 -3,2 h -35 c 0,7 1,12 5,15 3,4 8,6 13,6 3,0 6,-1 8,-1 2,-1 5,-2 7,-4 1,-1 1,-1 2,-1 1,1 1,1 1,2 1,1 0,1 -1,2 -2,2 -4,3 -7,4 -3,1 -6,2 -9,2 z m -1,-47 c -6,0 -10,2 -13,6 -3,3 -5,7 -5,13 h 34 c -1,-6 -2,-10 -5,-14 -2,-3 -6,-5 -11,-5 z m 48,47 c -3,0 -6,-1 -9,-2 -3,-1 -6,-2 -8,-4 -1,-1 -1,-1 -1,-2 0,-1 0,-1 1,-2 1,0 1,0 2,1 3,2 5,3 8,4 2,0 5,1 7,1 5,0 8,-1 10,-3 2,-1 4,-4 4,-7 0,-2 -1,-4 -3,-5 -1,-1 -4,-2 -7,-3 l -8,-2 c -4,-1 -7,-3 -9,-5 -2,-2 -3,-4 -3,-8 0,-4 1,-7 4,-10 4,-2 8,-3 13,-3 3,0 6,0 8,1 3,1 5,2 7,4 1,1 1,2 1,2 0,1 0,2 -1,2 -1,0 -1,0 -2,-1 -2,-1 -4,-3 -6,-3 -2,-1 -5,-1 -7,-1 -4,0 -7,0 -10,2 -2,2 -3,4 -3,7 0,2 1,4 2,6 2,1 4,2 7,3 l 8,2 c 4,1 8,2 10,4 2,2 3,5 3,8 0,4 -2,8 -5,10 -3,2 -8,4 -13,4 z m 74,0 c -5,0 -9,-2 -11,-5 -3,-3 -4,-7 -4,-12 v -29 h -8 c -2,0 -3,-1 -3,-2 0,-1 1,-2 3,-2 h 8 v -13 c 0,-2 0,-2 2,-2 1,0 2,0 2,2 v 13 h 14 c 2,0 2,1 2,2 0,1 0,2 -2,2 h -14 v 28 c 0,5 1,8 3,10 1,3 4,4 8,4 2,0 3,0 4,-1 1,0 1,0 2,0 1,0 1,0 1,2 0,0 0,0 0,1 0,0 0,0 -1,1 0,0 -1,0 -3,0 -1,1 -2,1 -3,1 z m 35,0 c -8,0 -13,-3 -18,-7 -4,-4 -6,-11 -6,-18 0,-5 1,-10 3,-13 2,-4 5,-7 8,-9 3,-2 7,-3 12,-3 6,0 11,2 14,6 4,4 5,10 5,17 0,2 0,2 -2,2 h -35 c 0,7 1,12 5,15 3,4 7,6 13,6 3,0 6,-1 8,-1 2,-1 4,-2 7,-4 1,-1 1,-1 2,-1 1,1 1,1 1,2 1,1 0,1 -1,2 -2,2 -4,3 -7,4 -3,1 -6,2 -9,2 z m -1,-47 c -6,0 -10,2 -13,6 -3,3 -5,7 -5,13 h 34 c -1,-6 -2,-10 -5,-14 -2,-3 -6,-5 -11,-5 z m 52,47 c -5,0 -9,-1 -12,-4 -3,-2 -6,-5 -8,-8 -2,-4 -2,-9 -2,-14 0,-7 2,-13 5,-18 4,-4 10,-6 17,-6 2,0 5,0 7,1 3,1 5,2 7,4 1,1 1,2 1,2 0,1 -1,1 -1,2 -1,0 -2,0 -3,-1 -1,-2 -3,-3 -5,-4 -3,0 -5,0 -6,0 -6,0 -10,1 -14,5 -3,4 -4,9 -4,15 0,7 1,12 4,16 4,4 8,6 14,6 1,0 3,-1 6,-1 2,-1 4,-2 5,-4 1,-1 2,-1 3,0 0,0 1,0 1,1 0,1 0,1 -1,2 -2,2 -4,3 -7,4 -2,1 -5,2 -7,2 z m 28,-1 c -1,0 -2,0 -2,-2 v -45 c 0,-1 1,-2 2,-2 2,0 2,1 2,2 v 7 c 2,-3 4,-5 7,-7 3,-2 7,-2 10,-2 12,0 18,6 18,18 v 29 c 0,2 -1,2 -2,2 -2,0 -2,0 -2,-2 v -29 c 0,-5 -1,-8 -4,-11 -2,-2 -5,-3 -10,-3 -5,0 -9,1 -12,4 -3,3 -5,8 -5,13 v 26 c 0,2 0,2 -2,2 z m 72,1 c -4,0 -8,-1 -11,-3 -4,-3 -6,-5 -8,-9 -2,-4 -3,-8 -3,-13 0,-5 1,-10 3,-14 2,-3 4,-6 8,-8 3,-2 7,-3 11,-3 4,0 8,1 11,3 4,2 6,5 8,8 2,4 3,9 3,14 0,5 -1,9 -3,13 -2,4 -4,6 -8,9 -3,2 -7,3 -11,3 z m 0,-4 c 5,0 10,-2 13,-6 3,-4 4,-9 4,-15 0,-7 -1,-12 -4,-16 -3,-4 -8,-5 -13,-5 -5,0 -10,1 -13,5 -3,4 -4,9 -4,16 0,6 1,11 4,15 3,4 8,6 13,6 z m 49,4 c -5,0 -8,-2 -10,-4 -2,-3 -4,-7 -4,-12 v -54 c 0,-2 1,-2 2,-2 2,0 3,0 3,2 v 54 c 0,8 3,12 9,12 1,0 1,0 2,0 0,0 1,0 1,0 1,0 2,0 2,1 0,1 0,1 -1,2 0,0 -1,0 -2,0 0,0 -1,1 -1,1 -1,0 -1,0 -1,0 z m 32,0 c -5,0 -8,-1 -12,-3 -3,-3 -5,-5 -7,-9 -2,-4 -3,-8 -3,-13 0,-5 1,-10 3,-14 2,-3 4,-6 7,-8 4,-2 7,-3 12,-3 4,0 8,1 11,3 3,2 6,5 8,8 1,4 2,9 2,14 0,5 -1,9 -2,13 -2,4 -5,6 -8,9 -3,2 -7,3 -11,3 z m 0,-4 c 5,0 9,-2 12,-6 4,-4 5,-9 5,-15 0,-7 -1,-12 -5,-16 -3,-4 -7,-5 -12,-5 -6,0 -10,1 -13,5 -3,4 -5,9 -5,16 0,6 2,11 5,15 3,4 7,6 13,6 z m 2,-52 c -1,0 -1,0 -2,0 0,0 -1,0 -1,0 0,-1 0,-1 0,-2 l 9,-17 c 1,-2 1,-2 2,-2 1,0 2,0 2,1 1,1 1,2 0,3 z m 54,74 c -4,0 -7,-1 -11,-2 -3,-1 -6,-2 -9,-5 0,0 -1,-1 -1,-1 1,-1 1,-2 2,-2 0,0 1,0 1,0 3,2 6,4 9,4 3,1 5,2 9,2 5,0 9,-2 11,-5 3,-2 4,-6 4,-12 v -10 c -1,3 -4,6 -7,8 -3,2 -6,3 -10,3 -5,0 -9,-1 -12,-3 -3,-2 -6,-5 -7,-9 -2,-3 -3,-8 -3,-12 0,-5 1,-9 3,-13 1,-4 4,-6 7,-8 3,-2 7,-3 12,-3 4,0 7,1 10,2 3,2 6,5 7,8 v -8 c 0,-1 1,-2 2,-2 1,0 2,1 2,2 v 45 c 0,14 -6,21 -19,21 z m -2,-24 c 5,0 9,-2 12,-6 3,-3 5,-8 5,-14 0,-7 -2,-11 -5,-15 -3,-4 -7,-5 -12,-5 -6,0 -10,1 -13,5 -3,4 -5,8 -5,15 0,6 2,11 5,14 3,4 7,6 13,6 z m 40,-57 c -2,0 -3,-1 -3,-3 0,-3 1,-4 3,-4 3,0 4,1 4,4 0,2 -1,3 -4,3 z m 0,62 c -1,0 -2,-1 -2,-2 v -45 c 0,-1 1,-2 2,-2 2,0 2,1 2,2 v 45 c 0,1 0,2 -2,2 z m 38,1 c -4,0 -8,-1 -12,-4 -3,-2 -5,-5 -7,-8 -2,-4 -3,-9 -3,-14 0,-7 2,-13 6,-18 4,-4 9,-6 16,-6 3,0 5,0 8,1 3,1 5,2 7,4 1,1 1,2 1,2 -1,1 -1,1 -2,2 0,0 -1,0 -2,-1 -2,-2 -4,-3 -6,-4 -2,0 -4,0 -6,0 -6,0 -10,1 -13,5 -3,4 -5,9 -5,15 0,7 2,12 5,16 3,4 7,6 13,6 2,0 4,-1 6,-1 2,-1 4,-2 6,-4 1,-1 2,-1 2,0 1,0 1,0 2,1 0,1 0,1 -1,2 -2,2 -4,3 -7,4 -3,1 -5,2 -8,2 z m 41,0 c -3,0 -6,-1 -9,-2 -2,-2 -4,-3 -6,-5 -1,-3 -2,-5 -2,-8 0,-3 1,-6 3,-8 2,-2 5,-4 9,-4 4,-1 10,-2 18,-2 h 3 v -4 c 0,-4 -1,-8 -3,-10 -2,-2 -5,-3 -9,-3 -5,0 -10,1 -15,4 -1,1 -2,1 -3,0 0,0 -1,-1 -1,-2 0,0 1,-1 2,-1 2,-2 5,-3 8,-4 3,-1 6,-1 9,-1 5,0 9,1 12,4 3,3 4,7 4,13 v 30 c 0,2 -1,2 -2,2 -1,0 -2,0 -2,-2 v -7 c -2,3 -4,5 -6,7 -3,2 -6,3 -10,3 z m 0,-4 c 3,0 6,-1 8,-2 3,-2 4,-4 6,-7 1,-2 2,-5 2,-8 v -4 h -3 c -7,0 -12,0 -15,1 -4,0 -7,1 -8,3 -1,1 -2,3 -2,6 0,3 1,6 3,8 2,2 5,3 9,3 z m 52,4 c -3,0 -6,-1 -9,-2 -3,-1 -6,-2 -8,-4 -1,-1 -1,-1 -1,-2 0,-1 0,-1 1,-2 0,0 1,0 2,1 2,2 5,3 8,4 2,0 5,1 7,1 4,0 8,-1 10,-3 2,-1 4,-4 4,-7 0,-2 -1,-4 -3,-5 -1,-1 -4,-2 -7,-3 l -8,-2 c -4,-1 -8,-3 -9,-5 -2,-2 -3,-4 -3,-8 0,-4 1,-7 4,-10 3,-2 8,-3 13,-3 3,0 6,0 8,1 3,1 5,2 7,4 1,1 1,2 1,2 0,1 0,2 -1,2 -1,0 -1,0 -2,-1 -2,-1 -4,-3 -6,-3 -3,-1 -5,-1 -7,-1 -4,0 -7,0 -10,2 -2,2 -3,4 -3,7 0,2 1,4 2,6 1,1 4,2 7,3 l 8,2 c 4,1 8,2 10,4 2,2 3,5 3,8 0,4 -2,8 -5,10 -3,2 -8,4 -13,4 z M 20,386 c -1,0 -2,-1 -2,-2 v -67 c 0,-1 1,-2 2,-2 h 24 c 7,0 13,2 17,5 4,4 5,9 5,15 0,7 -1,12 -5,16 -4,3 -10,5 -17,5 H 22 v 28 c 0,1 0,2 -2,2 z m 2,-34 h 21 c 13,0 19,-6 19,-17 0,-11 -6,-16 -19,-16 H 22 Z m 69,34 c -3,0 -6,0 -9,-2 -2,-1 -4,-3 -6,-5 -1,-2 -2,-4 -2,-7 0,-4 1,-6 3,-8 1,-2 4,-4 9,-5 4,-1 10,-1 17,-1 h 3 v -4 c 0,-5 0,-8 -2,-10 -2,-3 -5,-4 -9,-4 -5,0 -10,2 -16,5 -1,0 -1,0 -2,0 -1,-1 -1,-1 -1,-2 0,-1 1,-1 1,-2 3,-1 6,-3 9,-3 3,-1 6,-2 8,-2 6,0 10,2 13,5 2,2 4,7 4,13 v 30 c 0,1 -1,2 -2,2 -2,0 -2,-1 -2,-2 v -7 c -2,3 -4,5 -7,7 -2,1 -6,2 -9,2 z m 0,-3 c 3,0 6,-1 8,-3 2,-1 4,-3 5,-6 2,-2 2,-5 2,-9 v -3 h -2 c -7,0 -12,0 -16,1 -3,0 -6,1 -7,3 -2,1 -2,3 -2,6 0,3 1,5 3,7 2,3 5,4 9,4 z m 39,3 c -2,0 -3,-1 -3,-2 v -45 c 0,-2 1,-2 3,-2 1,0 2,0 2,2 v 7 c 1,-3 3,-6 6,-7 3,-2 7,-3 11,-3 0,0 1,0 1,0 1,1 1,1 1,2 0,1 -1,2 -2,2 h -2 c -5,1 -8,2 -11,5 -3,3 -4,7 -4,12 v 27 c 0,1 -1,2 -2,2 z m 44,0 c -3,0 -6,0 -8,-2 -3,-1 -5,-3 -6,-5 -2,-2 -2,-4 -2,-7 0,-4 0,-6 2,-8 2,-2 5,-4 9,-5 5,-1 11,-1 18,-1 h 3 v -4 c 0,-5 -1,-8 -3,-10 -2,-3 -5,-4 -9,-4 -5,0 -10,2 -15,5 -1,0 -2,0 -2,0 -1,-1 -1,-1 -1,-2 0,-1 0,-1 1,-2 3,-1 5,-3 8,-3 3,-1 6,-2 9,-2 6,0 10,2 12,5 3,2 4,7 4,13 v 30 c 0,1 0,2 -2,2 -1,0 -2,-1 -2,-2 v -7 c -1,3 -3,5 -6,7 -3,1 -6,2 -10,2 z m 1,-3 c 3,0 5,-1 8,-3 2,-1 4,-3 5,-6 1,-2 2,-5 2,-9 v -3 h -3 c -6,0 -11,0 -15,1 -4,0 -6,1 -8,3 -1,1 -2,3 -2,6 0,3 1,5 4,7 2,3 5,4 9,4 z m 81,3 c -7,0 -13,-2 -17,-6 -4,-5 -7,-11 -7,-18 0,-6 1,-10 3,-14 2,-3 5,-6 8,-9 4,-2 7,-3 12,-3 6,0 11,2 14,6 4,5 6,10 6,18 0,1 -1,2 -3,2 h -35 c 0,7 2,12 5,15 3,4 8,5 14,5 2,0 5,0 7,-1 2,0 5,-2 7,-3 1,-1 2,-1 2,-1 1,0 1,1 2,2 0,0 -1,1 -1,2 -2,1 -5,3 -8,4 -3,1 -6,1 -9,1 z m -1,-46 c -6,0 -10,2 -13,5 -3,4 -5,8 -5,13 h 34 c 0,-5 -2,-10 -5,-13 -2,-3 -6,-5 -11,-5 z m 46,46 c -4,0 -7,-1 -10,-4 -2,-2 -3,-6 -3,-11 v -54 c 0,-2 1,-3 2,-3 1,0 2,1 2,3 v 53 c 0,8 3,12 10,12 0,0 1,0 1,0 1,0 1,0 2,0 1,0 1,1 1,2 0,0 0,1 0,1 -1,1 -1,1 -2,1 -1,0 -1,0 -2,0 0,0 0,0 -1,0 z m 41,0 c -1,0 -2,-1 -2,-2 v -45 c 0,-2 1,-2 2,-2 2,0 2,0 2,2 v 7 c 2,-3 4,-6 7,-7 2,-2 5,-3 9,-3 8,0 12,4 14,11 2,-4 4,-6 7,-8 3,-2 6,-3 10,-3 11,0 16,6 16,19 v 29 c 0,1 -1,2 -2,2 -2,0 -2,-1 -2,-2 v -29 c 0,-5 -1,-9 -3,-11 -2,-3 -5,-4 -9,-4 -5,0 -8,2 -11,5 -3,3 -4,7 -4,13 v 26 c 0,1 -1,2 -2,2 -2,0 -3,-1 -3,-2 v -29 c 0,-5 0,-9 -2,-11 -2,-3 -5,-4 -9,-4 -5,0 -9,2 -11,5 -3,3 -5,7 -5,13 v 26 c 0,1 0,2 -2,2 z m 102,0 c -7,0 -13,-2 -17,-6 -4,-5 -6,-11 -6,-18 0,-6 1,-10 3,-14 1,-3 4,-6 7,-9 4,-2 8,-3 12,-3 6,0 11,2 15,6 3,5 5,10 5,18 0,1 -1,2 -2,2 h -36 c 0,7 2,12 5,15 3,4 8,5 14,5 2,0 5,0 7,-1 3,0 5,-2 7,-3 1,-1 2,-1 3,-1 0,0 1,1 1,2 0,0 0,1 -1,2 -2,1 -5,3 -8,4 -3,1 -6,1 -9,1 z m -1,-46 c -5,0 -10,2 -13,5 -3,4 -4,8 -5,13 h 34 c 0,-5 -2,-10 -4,-13 -3,-3 -7,-5 -12,-5 z"
   id="path87" />
   <path
   class="fil16"
   d="m 479,324 c -3,0 -4,-1 -4,-4 0,-2 1,-3 4,-3 2,0 3,1 3,3 0,3 -1,4 -3,4 z m -15,81 c -1,0 -1,-1 -2,-1 0,-1 0,-1 0,-2 0,-1 1,-1 2,-1 4,0 7,-1 9,-3 2,-2 4,-6 4,-10 v -49 c 0,-2 0,-2 2,-2 1,0 2,0 2,2 v 49 c 0,5 -2,10 -5,13 -3,2 -7,4 -12,4 z m 52,-19 c -4,0 -8,-1 -11,-3 -4,-2 -6,-5 -8,-8 -2,-4 -2,-9 -2,-14 0,-5 0,-9 2,-13 2,-4 4,-7 8,-9 3,-2 7,-3 11,-3 5,0 8,1 12,3 3,2 5,5 7,9 2,4 3,8 3,13 0,5 -1,10 -3,14 -2,3 -4,6 -7,8 -4,2 -7,3 -12,3 z m 0,-4 c 5,0 10,-1 13,-5 3,-4 4,-9 4,-16 0,-6 -1,-12 -4,-15 -3,-4 -8,-6 -13,-6 -5,0 -9,2 -12,6 -4,3 -5,9 -5,15 0,7 1,12 5,16 3,4 7,5 12,5 z m 38,4 c -2,0 -2,-1 -2,-2 v -45 c 0,-2 0,-2 2,-2 1,0 2,0 2,2 v 7 c 1,-3 3,-6 6,-7 3,-2 7,-3 11,-3 0,0 1,0 1,0 1,1 1,1 1,2 0,1 -1,2 -2,2 h -2 c -5,1 -8,2 -11,5 -3,3 -4,7 -4,12 v 27 c 0,1 -1,2 -2,2 z m 44,0 c -3,0 -6,0 -8,-2 -3,-1 -5,-3 -6,-5 -2,-2 -2,-4 -2,-7 0,-4 0,-6 2,-8 2,-2 5,-4 9,-5 5,-1 11,-1 18,-1 h 3 v -4 c 0,-5 -1,-8 -3,-10 -2,-3 -5,-4 -9,-4 -5,0 -10,2 -15,5 -1,0 -2,0 -2,0 -1,-1 -1,-1 -1,-2 0,-1 0,-1 1,-2 3,-1 5,-3 8,-3 3,-1 6,-2 9,-2 6,0 10,2 12,5 3,2 4,7 4,13 v 30 c 0,1 0,2 -2,2 -1,0 -2,-1 -2,-2 v -7 c -1,3 -3,5 -6,7 -3,1 -6,2 -10,2 z m 1,-3 c 3,0 5,-1 8,-3 2,-1 4,-3 5,-6 1,-2 2,-5 2,-9 v -3 h -3 c -6,0 -11,0 -15,1 -4,0 -6,1 -8,3 -1,1 -2,3 -2,6 0,3 1,5 4,7 2,3 5,4 9,4 z m 38,3 c -1,0 -2,-1 -2,-2 v -45 c 0,-2 1,-2 2,-2 2,0 2,0 2,2 v 7 c 2,-3 4,-6 7,-7 2,-2 5,-3 9,-3 8,0 13,4 15,11 1,-4 3,-6 6,-8 3,-2 6,-3 10,-3 11,0 16,6 16,19 v 29 c 0,1 -1,2 -2,2 -2,0 -2,-1 -2,-2 v -29 c 0,-5 -1,-9 -3,-11 -2,-3 -5,-4 -9,-4 -5,0 -8,2 -11,5 -3,3 -4,7 -4,13 v 26 c 0,1 -1,2 -2,2 -2,0 -2,-1 -2,-2 v -29 c 0,-5 -1,-9 -3,-11 -2,-3 -5,-4 -9,-4 -5,0 -9,2 -11,5 -3,3 -4,7 -4,13 v 26 c 0,1 -1,2 -3,2 z m 84,-62 c -2,0 -3,-1 -3,-4 0,-2 1,-3 3,-3 2,0 4,1 4,3 0,3 -2,4 -4,4 z m 0,62 c -1,0 -2,-1 -2,-2 v -45 c 0,-1 1,-2 2,-2 1,0 2,1 2,2 v 45 c 0,1 -1,2 -2,2 z m 39,0 c -7,0 -13,-2 -17,-6 -4,-5 -6,-11 -6,-18 0,-6 1,-10 3,-14 2,-3 4,-6 8,-9 3,-2 7,-3 11,-3 7,0 11,2 15,6 3,5 5,10 5,18 0,1 -1,2 -2,2 h -36 c 0,7 2,12 5,15 4,4 8,5 14,5 3,0 5,0 8,-1 2,0 4,-2 6,-3 1,-1 2,-1 3,-1 0,0 1,1 1,2 0,0 0,1 -1,2 -2,1 -5,3 -8,4 -3,1 -6,1 -9,1 z m -1,-46 c -5,0 -9,2 -12,5 -3,4 -5,8 -6,13 h 34 c 0,-5 -1,-10 -4,-13 -3,-3 -7,-5 -12,-5 z m 36,46 c -2,0 -3,-1 -3,-2 v -45 c 0,-2 1,-2 3,-2 1,0 2,0 2,2 v 7 c 1,-3 3,-6 6,-7 3,-2 7,-3 11,-3 11,0 17,6 17,19 v 29 c 0,1 -1,2 -2,2 -2,0 -2,-1 -2,-2 v -29 c 0,-5 -1,-9 -3,-11 -2,-3 -6,-4 -10,-4 -6,0 -10,2 -13,5 -3,3 -4,7 -4,13 v 26 c 0,1 -1,2 -2,2 z m 70,0 c -5,0 -9,-1 -12,-4 -2,-3 -3,-7 -3,-12 v -29 h -9 c -1,0 -2,-1 -2,-2 0,-1 1,-2 2,-2 h 9 v -13 c 0,-2 0,-3 2,-3 1,0 2,1 2,3 v 13 h 14 c 1,0 2,1 2,2 0,1 -1,2 -2,2 h -14 v 28 c 0,4 1,8 2,10 2,2 5,3 9,3 1,0 3,0 3,0 1,0 2,0 3,0 1,0 1,0 1,1 0,1 0,1 0,1 0,1 -1,1 -1,1 -1,0 -2,1 -3,1 -1,0 -2,0 -3,0 z m 33,0 c -5,0 -9,-1 -12,-3 -3,-2 -6,-5 -7,-8 -2,-4 -3,-9 -3,-14 0,-5 1,-9 3,-13 1,-4 4,-7 7,-9 3,-2 7,-3 12,-3 4,0 8,1 11,3 3,2 6,5 8,9 1,4 2,8 2,13 0,5 -1,10 -2,14 -2,3 -5,6 -8,8 -3,2 -7,3 -11,3 z m 0,-4 c 5,0 9,-1 12,-5 3,-4 5,-9 5,-16 0,-6 -2,-12 -5,-15 -3,-4 -7,-6 -12,-6 -6,0 -10,2 -13,6 -3,3 -5,9 -5,15 0,7 2,12 5,16 3,4 7,5 13,5 z m 78,4 c -4,0 -8,-1 -11,-3 -4,-2 -6,-5 -8,-8 -2,-4 -3,-9 -3,-14 0,-7 2,-13 6,-18 4,-4 9,-7 16,-7 4,0 8,1 11,3 3,2 5,4 6,8 v -30 c 0,-2 1,-3 2,-3 2,0 2,1 2,3 v 67 c 0,1 0,2 -2,2 -1,0 -2,-1 -2,-2 v -8 c -1,3 -3,6 -6,8 -3,1 -7,2 -11,2 z m 0,-4 c 5,0 10,-1 13,-5 3,-4 4,-9 4,-16 0,-6 -1,-12 -4,-15 -3,-4 -8,-6 -13,-6 -5,0 -9,2 -13,6 -3,3 -4,9 -4,15 0,7 1,12 4,16 4,4 8,5 13,5 z m 59,4 c -8,0 -13,-2 -18,-6 -4,-5 -6,-11 -6,-18 0,-6 1,-10 3,-14 2,-3 5,-6 8,-9 3,-2 7,-3 12,-3 6,0 11,2 14,6 4,5 5,10 5,18 0,1 0,2 -2,2 h -35 c 0,7 1,12 5,15 3,4 7,5 13,5 3,0 5,0 8,-1 2,0 4,-2 7,-3 1,-1 1,-1 2,-1 1,0 1,1 1,2 1,0 0,1 -1,2 -2,1 -4,3 -7,4 -3,1 -6,1 -9,1 z m -1,-46 c -6,0 -10,2 -13,5 -3,4 -5,8 -5,13 h 34 c -1,-5 -2,-10 -5,-13 -2,-3 -6,-5 -11,-5 z m 71,46 c -5,0 -8,-1 -10,-4 -3,-2 -4,-6 -4,-11 v -54 c 0,-2 1,-3 2,-3 2,0 3,1 3,3 v 53 c 0,8 3,12 9,12 1,0 1,0 2,0 0,0 1,0 1,0 1,0 2,1 2,2 0,0 0,1 -1,1 0,1 -1,1 -2,1 0,0 -1,0 -1,0 -1,0 -1,0 -1,0 z m 32,0 c -5,0 -8,-1 -12,-3 -3,-2 -5,-5 -7,-8 -2,-4 -3,-9 -3,-14 0,-5 1,-9 3,-13 2,-4 4,-7 7,-9 4,-2 7,-3 12,-3 4,0 8,1 11,3 3,2 6,5 8,9 1,4 2,8 2,13 0,5 -1,10 -2,14 -2,3 -5,6 -8,8 -3,2 -7,3 -11,3 z m 0,-4 c 5,0 9,-1 12,-5 3,-4 5,-9 5,-16 0,-6 -2,-12 -5,-15 -3,-4 -7,-6 -12,-6 -6,0 -10,2 -13,6 -3,3 -5,9 -5,15 0,7 2,12 5,16 3,4 7,5 13,5 z m 50,4 c -3,0 -6,0 -9,-1 -3,-1 -5,-2 -8,-4 -1,-1 -1,-1 -1,-2 0,-1 1,-1 1,-2 1,0 2,0 2,0 3,2 5,4 8,4 2,1 5,1 8,1 4,0 7,0 9,-2 3,-2 4,-4 4,-7 0,-2 -1,-4 -2,-5 -2,-2 -4,-3 -8,-3 l -8,-2 c -4,-1 -7,-3 -9,-5 -2,-2 -3,-5 -3,-8 0,-4 2,-7 5,-10 3,-2 7,-4 12,-4 3,0 6,1 9,2 2,1 5,2 7,4 0,1 1,1 0,2 0,1 0,1 -1,2 0,0 -1,0 -2,-1 -2,-2 -4,-3 -6,-4 -2,0 -4,-1 -7,-1 -4,0 -7,1 -9,3 -3,2 -4,4 -4,7 0,2 1,4 2,5 2,2 4,3 7,4 l 8,2 c 5,1 8,2 10,4 2,2 3,5 3,8 0,4 -1,7 -5,10 -3,2 -7,3 -13,3 z m 59,18 c -1,0 -2,-1 -2,-2 v -63 c 0,-2 1,-2 2,-2 2,0 2,0 2,2 v 8 c 2,-4 4,-6 7,-8 3,-2 7,-3 11,-3 4,0 8,1 11,3 3,2 6,5 8,9 1,4 2,8 2,13 0,8 -2,14 -6,19 -3,4 -9,6 -15,6 -4,0 -8,-1 -11,-2 -3,-2 -5,-5 -7,-8 v 26 c 0,1 0,2 -2,2 z m 20,-22 c 5,0 9,-1 12,-5 3,-4 5,-9 5,-16 0,-6 -2,-12 -5,-15 -3,-4 -7,-6 -12,-6 -6,0 -10,2 -13,6 -3,3 -5,9 -5,15 0,7 2,12 5,16 3,4 7,5 13,5 z m 37,4 c -1,0 -2,-1 -2,-2 v -45 c 0,-2 1,-2 2,-2 1,0 2,0 2,2 v 7 c 2,-3 4,-6 7,-7 3,-2 6,-3 10,-3 1,0 1,0 2,0 0,1 0,1 0,2 0,1 0,2 -2,2 h -1 c -5,1 -9,2 -12,5 -2,3 -4,7 -4,12 v 27 c 0,1 0,2 -2,2 z m 49,0 c -5,0 -9,-1 -12,-3 -3,-2 -6,-5 -7,-8 -2,-4 -3,-9 -3,-14 0,-5 1,-9 3,-13 1,-4 4,-7 7,-9 3,-2 7,-3 12,-3 4,0 8,1 11,3 3,2 6,5 8,9 1,4 2,8 2,13 0,5 -1,10 -2,14 -2,3 -5,6 -8,8 -3,2 -7,3 -11,3 z m 0,-4 c 5,0 9,-1 12,-5 3,-4 5,-9 5,-16 0,-6 -2,-12 -5,-15 -3,-4 -7,-6 -12,-6 -6,0 -10,2 -13,6 -3,3 -5,9 -5,15 0,7 2,12 5,16 3,4 7,5 13,5 z m 54,4 c -5,0 -9,-1 -12,-3 -3,-2 -6,-5 -8,-9 -1,-4 -2,-8 -2,-13 0,-8 2,-14 6,-18 4,-4 9,-7 16,-7 2,0 5,1 8,2 2,1 5,2 7,4 0,1 1,1 0,2 0,1 0,1 -1,1 -1,1 -1,0 -2,0 -2,-2 -4,-3 -6,-4 -2,0 -4,-1 -6,-1 -6,0 -10,2 -13,6 -3,3 -5,8 -5,15 0,7 2,12 5,16 3,4 7,5 13,5 2,0 4,0 6,-1 2,0 4,-1 6,-3 1,-1 1,-1 2,-1 1,0 1,1 1,2 1,0 0,1 0,2 -2,2 -5,3 -7,4 -3,1 -6,1 -8,1 z m 46,0 c -8,0 -13,-2 -17,-6 -5,-5 -7,-11 -7,-18 0,-6 1,-10 3,-14 2,-3 5,-6 8,-9 3,-2 7,-3 12,-3 6,0 11,2 14,6 4,5 6,10 6,18 0,1 -1,2 -3,2 h -35 c 0,7 1,12 5,15 3,4 8,5 13,5 3,0 6,0 8,-1 2,0 5,-2 7,-3 1,-1 1,-1 2,-1 1,0 1,1 1,2 1,0 0,1 -1,2 -2,1 -4,3 -7,4 -3,1 -6,1 -9,1 z m -1,-46 c -6,0 -10,2 -13,5 -3,4 -5,8 -5,13 h 34 c -1,-5 -2,-10 -5,-13 -2,-3 -6,-5 -11,-5 z m 48,46 c -3,0 -6,0 -9,-1 -3,-1 -6,-2 -8,-4 -1,-1 -1,-1 -1,-2 0,-1 0,-1 1,-2 1,0 1,0 2,0 3,2 5,4 8,4 2,1 5,1 7,1 5,0 8,0 10,-2 2,-2 4,-4 4,-7 0,-2 -1,-4 -3,-5 -1,-2 -4,-3 -7,-3 l -8,-2 c -4,-1 -7,-3 -9,-5 -2,-2 -3,-5 -3,-8 0,-4 1,-7 4,-10 4,-2 8,-4 13,-4 3,0 6,1 8,2 3,1 5,2 7,4 1,1 1,1 1,2 0,1 0,1 -1,2 -1,0 -1,0 -2,-1 -2,-2 -4,-3 -6,-4 -2,0 -5,-1 -7,-1 -4,0 -7,1 -10,3 -2,2 -3,4 -3,7 0,2 1,4 2,5 2,2 4,3 7,4 l 8,2 c 4,1 8,2 10,4 2,2 3,5 3,8 0,4 -2,7 -5,10 -3,2 -8,3 -13,3 z m 51,0 c -5,0 -8,-1 -12,-3 -3,-2 -5,-5 -7,-8 -2,-4 -3,-9 -3,-14 0,-5 1,-9 3,-13 2,-4 4,-7 7,-9 4,-2 7,-3 12,-3 4,0 8,1 11,3 3,2 6,5 8,9 1,4 2,8 2,13 0,5 -1,10 -2,14 -2,3 -5,6 -8,8 -3,2 -7,3 -11,3 z m 0,-4 c 5,0 9,-1 12,-5 3,-4 5,-9 5,-16 0,-6 -2,-12 -5,-15 -3,-4 -7,-6 -12,-6 -6,0 -10,2 -13,6 -3,3 -5,9 -5,15 0,7 2,12 5,16 3,4 7,5 13,5 z m 50,4 c -3,0 -6,0 -9,-1 -3,-1 -5,-2 -8,-4 -1,-1 -1,-1 -1,-2 0,-1 1,-1 1,-2 1,0 2,0 2,0 3,2 5,4 8,4 2,1 5,1 8,1 4,0 7,0 9,-2 3,-2 4,-4 4,-7 0,-2 -1,-4 -2,-5 -2,-2 -4,-3 -8,-3 l -8,-2 c -4,-1 -7,-3 -9,-5 -2,-2 -3,-5 -3,-8 0,-4 2,-7 5,-10 3,-2 7,-4 12,-4 3,0 6,1 9,2 2,1 5,2 7,4 0,1 1,1 0,2 0,1 0,1 -1,2 0,0 -1,0 -2,-1 -2,-2 -4,-3 -6,-4 -2,0 -4,-1 -7,-1 -4,0 -7,1 -9,3 -3,2 -4,4 -4,7 0,2 1,4 2,5 2,2 4,3 7,4 l 8,2 c 5,1 8,2 10,4 2,2 3,5 3,8 0,4 -1,7 -5,10 -3,2 -7,3 -13,3 z m 59,-62 c -2,0 -3,-1 -3,-4 0,-2 1,-3 3,-3 3,0 4,1 4,3 0,3 -1,4 -4,4 z m 0,62 c -1,0 -2,-1 -2,-2 v -45 c 0,-1 1,-2 2,-2 2,0 2,1 2,2 v 45 c 0,1 0,2 -2,2 z m 22,0 c -2,0 -3,-1 -3,-2 v -45 c 0,-2 1,-2 3,-2 1,0 2,0 2,2 v 7 c 1,-3 3,-6 6,-7 4,-2 7,-3 11,-3 11,0 17,6 17,19 v 29 c 0,1 -1,2 -2,2 -2,0 -2,-1 -2,-2 v -29 c 0,-5 -1,-9 -3,-11 -2,-3 -6,-4 -10,-4 -5,0 -10,2 -13,5 -3,3 -4,7 -4,13 v 26 c 0,1 -1,2 -2,2 z m 70,0 c -5,0 -9,-1 -12,-4 -2,-3 -3,-7 -3,-12 v -29 h -9 c -1,0 -2,-1 -2,-2 0,-1 1,-2 2,-2 h 9 v -13 c 0,-2 0,-3 2,-3 1,0 2,1 2,3 v 13 h 14 c 2,0 2,1 2,2 0,1 0,2 -2,2 h -14 v 28 c 0,4 1,8 2,10 2,2 5,3 9,3 1,0 3,0 4,0 0,0 1,0 2,0 1,0 1,0 1,1 0,1 0,1 0,1 0,1 0,1 -1,1 -1,0 -2,1 -3,1 -1,0 -2,0 -3,0 z"
   id="path89" />
   <path
   class="fil16"
   d="m 1785,386 c -7,0 -13,-2 -17,-6 -4,-5 -6,-11 -6,-18 0,-6 1,-10 3,-14 2,-3 4,-6 8,-9 3,-2 7,-3 11,-3 7,0 12,2 15,6 4,5 5,10 5,18 0,1 0,2 -2,2 h -36 c 0,7 2,12 5,15 4,4 8,5 14,5 3,0 5,0 8,-1 2,0 4,-2 7,-3 0,-1 1,-1 2,-1 1,0 1,1 1,2 0,0 0,1 -1,2 -2,1 -4,3 -7,4 -3,1 -7,1 -10,1 z m -1,-46 c -5,0 -9,2 -12,5 -3,4 -5,8 -6,13 h 34 c 0,-5 -1,-10 -4,-13 -3,-3 -7,-5 -12,-5 z m 36,46 c -2,0 -2,-1 -2,-2 v -45 c 0,-2 0,-2 2,-2 1,0 2,0 2,2 v 7 c 1,-3 3,-6 6,-7 3,-2 7,-3 11,-3 0,0 1,0 1,0 1,1 1,1 1,2 0,1 -1,2 -2,2 h -2 c -4,1 -8,2 -11,5 -3,3 -4,7 -4,12 v 27 c 0,1 -1,2 -2,2 z m 32,0 c -1,0 -2,-1 -2,-2 v -45 c 0,-2 1,-2 2,-2 2,0 2,0 2,2 v 7 c 2,-3 4,-6 7,-7 3,-2 7,-3 10,-3 12,0 18,6 18,19 v 29 c 0,1 -1,2 -2,2 -2,0 -2,-1 -2,-2 v -29 c 0,-5 -1,-9 -4,-11 -2,-3 -5,-4 -10,-4 -5,0 -9,2 -12,5 -3,3 -5,7 -5,13 v 26 c 0,1 0,2 -2,2 z m 72,0 c -4,0 -8,-1 -11,-3 -4,-2 -6,-5 -8,-8 -2,-4 -3,-9 -3,-14 0,-5 1,-9 3,-13 2,-4 4,-7 8,-9 3,-2 7,-3 11,-3 4,0 8,1 11,3 4,2 6,5 8,9 2,4 3,8 3,13 0,5 -1,10 -3,14 -2,3 -4,6 -8,8 -3,2 -7,3 -11,3 z m 0,-4 c 5,0 10,-1 13,-5 3,-4 4,-9 4,-16 0,-6 -1,-12 -4,-15 -3,-4 -8,-6 -13,-6 -5,0 -10,2 -13,6 -3,3 -4,9 -4,15 0,7 1,12 4,16 3,4 8,5 13,5 z m 50,4 c -3,0 -6,0 -8,-1 -3,-1 -6,-2 -9,-4 0,-1 -1,-1 -1,-2 1,-1 1,-1 1,-2 1,0 2,0 3,0 2,2 5,4 7,4 3,1 5,1 8,1 4,0 7,0 10,-2 2,-2 3,-4 3,-7 0,-2 -1,-4 -2,-5 -2,-2 -4,-3 -7,-3 l -9,-2 c -4,-1 -7,-3 -9,-5 -2,-2 -3,-5 -3,-8 0,-4 2,-7 5,-10 3,-2 7,-4 13,-4 2,0 5,1 8,2 3,1 5,2 7,4 1,1 1,1 1,2 0,1 -1,1 -1,2 -1,0 -2,0 -3,-1 -2,-2 -4,-3 -6,-4 -2,0 -4,-1 -7,-1 -4,0 -7,1 -9,3 -2,2 -3,4 -3,7 0,2 0,4 2,5 1,2 3,3 6,4 l 9,2 c 4,1 7,2 9,4 2,2 4,5 4,8 0,4 -2,7 -5,10 -4,2 -8,3 -14,3 z m 34,0 c -1,0 -2,-1 -2,-1 -1,-1 -1,-2 -1,-3 0,-1 0,-2 1,-3 0,0 1,-1 2,-1 2,0 2,1 3,1 1,1 1,2 1,3 0,1 0,2 -1,3 -1,0 -1,1 -3,1 z"
   id="path91" />
  </g>
 <g
   style="clip-rule:evenodd;fill-rule:evenodd;image-rendering:optimizeQuality;shape-rendering:geometricPrecision;text-rendering:geometricPrecision"
   id="g1008"
   transform="translate(2550.9533,-401.92561)"><g
     id="Capa_x0020_1-0"
     inkscape:label="Capa 1"
     transform="translate(-1169,-2076.9681)">
  <metadata
   id="CorelCorpID_0Corel-Layer-6" />
  <ellipse
   class="fil0"
   cx="1394"
   cy="3421"
   rx="225"
   ry="198"
   id="ellipse27"
   style="fill:url(#id2-9)" />
  <path
   class="fil1"
   d="m 2341,2085 c 211,-41 412,79 449,268 37,190 -104,377 -314,418 -211,41 -412,-79 -449,-268 -37,-190 104,-376 314,-418 z"
   id="path29"
   style="fill:url(#id1-4)" />
  <path
   class="fil2"
   d="m 1506,2519 c 122,-24 238,44 259,151 20,107 -61,213 -184,237 -122,24 -238,-44 -258,-151 -21,-107 61,-213 183,-237 z"
   id="path31"
   style="fill:url(#id3-8)" />
  <path
   class="fil3"
   d="m 2836,2989 c 122,-23 238,44 258,151 21,107 -61,213 -183,237 -122,24 -238,-43 -259,-150 -20,-108 61,-214 184,-238 z"
   id="path33"
   style="fill:url(#id0-5)" />
  <path
   class="fil4 str0"
   d="m 1568,3284 1175,-228 c 9,-2 17,2 22,10 l 182,284 c 4,6 4,13 2,20 -3,7 -9,12 -16,13 l -1424,286 c -7,2 -14,-1 -20,-6 -5,-5 -7,-12 -6,-19 l 67,-343 c 2,-8 9,-15 18,-17 z"
   id="path35" />
  <path
   class="fil4 str0"
   d="m 1568,3274 1174,-228 c 9,-1 17,2 22,10 l 182,288 c 4,6 5,13 2,20 -3,7 -9,11 -16,13 l -1422,286 c -7,1 -14,-1 -20,-6 -5,-6 -7,-13 -6,-20 l 67,-345 c 1,-9 8,-16 17,-18 z"
   id="path37" />
  <path
   class="fil4 str0"
   d="m 1422,2511 1139,-223 c 26,-5 52,12 58,39 l 128,656 c 5,27 -12,53 -39,58 l -1139,223 c -27,5 -53,-13 -58,-39 l -128,-656 c -5,-27 12,-53 39,-58 z"
   id="path39" />
  <path
   class="fil5"
   d="m 1618,3288 1067,-209 c 10,-2 19,3 24,11 l 52,96 c 3,6 4,13 1,20 -3,6 -9,10 -16,12 l -1134,244 c -8,2 -14,0 -20,-5 -5,-5 -8,-11 -7,-19 l 15,-131 c 1,-9 8,-17 18,-19 z"
   id="path41" />
  <path
   class="fil6"
   d="m 1623,3297 1067,-209 c 9,-2 19,2 23,11 l 53,95 c 3,7 3,14 0,20 -3,7 -8,11 -15,12 l -1135,245 c -7,1 -14,0 -19,-5 -6,-5 -8,-12 -7,-19 l 15,-131 c 1,-10 8,-18 18,-19 z"
   id="path43" />
  <path
   class="fil7 str1"
   d="m 1979,3438 389,-76 c 10,-2 20,5 22,15 l 9,49 c 2,10 -4,20 -14,22 l -389,76 c -10,2 -20,-5 -22,-15 l -10,-49 c -2,-10 5,-20 15,-22 z"
   id="path45" />
  <path
   class="fil8"
   d="m 2556,2350 -1102,216 c -20,4 -34,23 -30,43 l 113,575 c 4,20 23,33 44,29 l 1102,-216 c 20,-4 34,-23 30,-43 l -113,-575 c -4,-20 -23,-33 -44,-29 z"
   id="path47-2" />
  <ellipse
   class="fil9"
   transform="matrix(1.52086,-0.297513,0.297513,1.52086,1999.59,2436.59)"
   rx="10"
   ry="9"
   id="ellipse49"
   cx="0"
   cy="0" />
 </g></g></g>
</svg>
