<?xml version="1.0" encoding="UTF-8" standalone="no"?>
<!-- Created with Inkscape (http://www.inkscape.org/) -->

<svg
   width="341.3576mm"
   height="148.33778mm"
   viewBox="0 0 341.3576 148.33778"
   version="1.1"
   id="svg3132"
   inkscape:version="1.2 (dc2aedaf03, 2022-05-15)"
   sodipodi:docname="contacto.svg"
   xml:space="preserve"
   xmlns:inkscape="http://www.inkscape.org/namespaces/inkscape"
   xmlns:sodipodi="http://sodipodi.sourceforge.net/DTD/sodipodi-0.dtd"
   xmlns:xlink="http://www.w3.org/1999/xlink"
   xmlns="http://www.w3.org/2000/svg"
   xmlns:svg="http://www.w3.org/2000/svg"><sodipodi:namedview
     id="namedview3134"
     pagecolor="#ffffff"
     bordercolor="#666666"
     borderopacity="1.0"
     inkscape:showpageshadow="2"
     inkscape:pageopacity="0.0"
     inkscape:pagecheckerboard="0"
     inkscape:deskcolor="#d1d1d1"
     inkscape:document-units="mm"
     showgrid="false"
     inkscape:zoom="0.2973261"
     inkscape:cx="312.78788"
     inkscape:cy="36.996416"
     inkscape:window-width="1304"
     inkscape:window-height="745"
     inkscape:window-x="54"
     inkscape:window-y="-8"
     inkscape:window-maximized="1"
     inkscape:current-layer="layer1" /><defs
     id="defs3129"><linearGradient
       inkscape:collect="always"
       xlink:href="#linearGradient92773"
       id="linearGradient92775"
       x1="1224.6887"
       y1="-343.7074"
       x2="800.38989"
       y2="-150.38771"
       gradientUnits="userSpaceOnUse"
       gradientTransform="matrix(0.99424566,0,0,0.74427157,-1260.1407,233.2738)" /><linearGradient
       inkscape:collect="always"
       id="linearGradient92773"><stop
         style="stop-color:#e98125;stop-opacity:1;"
         offset="0"
         id="stop92769" /><stop
         style="stop-color:#f8d10d;stop-opacity:1;"
         offset="1"
         id="stop92771" /></linearGradient><linearGradient
       id="id0"
       gradientUnits="userSpaceOnUse"
       x1="467.38199"
       y1="553.10101"
       x2="652.979"
       y2="553.10101">
   <stop
   offset="0"
   style="stop-opacity:1;stop-color:#ea8c25"
   id="stop4" />
   <stop
   offset="1"
   style="stop-opacity:1;stop-color:#ffe947"
   id="stop6" />
  </linearGradient><linearGradient
       id="id1-8"
       gradientUnits="userSpaceOnUse"
       xlink:href="#linearGradient54449"
       x1="474.577"
       y1="442.23499"
       x2="595.31799"
       y2="442.23499">
  </linearGradient><linearGradient
       id="linearGradient54449"
       gradientUnits="userSpaceOnUse"
       x1="467.38199"
       y1="553.10101"
       x2="652.979"
       y2="553.10101">
   <stop
   offset="0"
   style="stop-opacity:1;stop-color:#e98924"
   id="stop54445" />
   <stop
   offset="1"
   style="stop-opacity:1;stop-color:#ffde3f"
   id="stop54447" />
  </linearGradient></defs><g
     inkscape:label="Capa 1"
     inkscape:groupmode="layer"
     id="layer1"
     transform="translate(-43.564907,-29.026028)"><rect
       style="fill:url(#linearGradient92775);fill-opacity:1;fill-rule:evenodd;stroke:none;stroke-width:3.58959;stroke-linecap:round;paint-order:stroke markers fill"
       id="rect40799-0"
       width="341.3576"
       height="148.33778"
       x="-384.92252"
       y="29.026028"
       transform="scale(-1,1)" /><g
       id="_3114017696560"
       style="clip-rule:evenodd;fill:#ffffff;fill-opacity:1;fill-rule:evenodd;image-rendering:optimizeQuality;shape-rendering:geometricPrecision;text-rendering:geometricPrecision"
       transform="matrix(0.45389691,0,0,0.45389691,110.58835,-113.71103)">
   <path
   class="fil1"
   d="m 532,542 c -11,5 -24,9 -38,7 -15,-1 -20,-9 -27,-17 -1,19 9,43 18,52 13,13 33,17 56,12 19,-5 34,-14 54,-19 8,-2 21,-6 31,-3 12,3 11,12 9,24 16,-10 23,-41 14,-64 -25,-58 -94,-1 -117,8 z m 74,21 c 3,-6 9,-7 16,-11 l -10,-10 c 2,-1 4,-2 7,-3 l 8,-2 c 0,0 1,0 1,0 l -6,-13 c 22,1 27,31 21,52 -12,-14 -13,-14 -37,-13 z"
   id="path15"
   style="fill:#ffffff;fill-opacity:1" />
   <path
   class="fil2"
   d="m 483,490 c -25,31 8,42 40,34 8,-2 29,-11 32,-16 4,-5 3,-36 2,-44 -6,-40 -37,-20 -57,-37 11,-2 24,-2 35,0 13,2 16,6 24,11 l 4,-9 c 6,9 10,17 11,32 2,0 1,0 2,-1 4,-2 -2,0 5,-2 l -2,34 c 15,-26 24,-49 7,-82 -6,-13 -15,-21 -24,-29 -5,-5 -11,-8 -14,-12 -5,-5 -7,-12 -16,-11 -3,24 4,22 -12,39 -4,4 -8,8 -14,12 -6,4 -12,6 -17,9 0,19 33,19 41,24 -2,18 -29,26 -47,48 z m 55,-74 c 0,2 -4,3 -9,3 -5,0 -9,-1 -9,-3 0,-2 4,-4 9,-4 5,0 9,2 9,4 z"
   id="path17"
   style="fill:#ffffff;fill-opacity:1" />
  </g></g></svg>
