<?xml version="1.0" encoding="UTF-8" standalone="no"?>
<!-- Creator: CorelDRAW X8 -->

<svg
   xml:space="preserve"
   width="3728.45"
   height="1592.131"
   version="1.1"
   style="clip-rule:evenodd;fill-rule:evenodd;image-rendering:optimizeQuality;shape-rendering:geometricPrecision;text-rendering:geometricPrecision"
   viewBox="0 0 3728.45 1592.131"
   id="svg41"
   sodipodi:docname="decorator.svg"
   inkscape:version="1.1.1 (3bf5ae0d25, 2021-09-20)"
   xmlns:inkscape="http://www.inkscape.org/namespaces/inkscape"
   xmlns:sodipodi="http://sodipodi.sourceforge.net/DTD/sodipodi-0.dtd"
   xmlns="http://www.w3.org/2000/svg"
   xmlns:svg="http://www.w3.org/2000/svg"><sodipodi:namedview
   id="namedview43"
   pagecolor="#ffffff"
   bordercolor="#666666"
   borderopacity="1.0"
   inkscape:pageshadow="2"
   inkscape:pageopacity="0.0"
   inkscape:pagecheckerboard="0"
   showgrid="false"
   inkscape:zoom="0.080934643"
   inkscape:cx="1884.2364"
   inkscape:cy="1742.1464"
   inkscape:window-width="1297"
   inkscape:window-height="745"
   inkscape:window-x="61"
   inkscape:window-y="-8"
   inkscape:window-maximized="1"
   inkscape:current-layer="Capa_x0020_1" />
 <defs
   id="defs19">
  <style
   type="text/css"
   id="style2">
   <![CDATA[
    .str1 {stroke:#300F69;stroke-width:2.36229}
    .str0 {stroke:#5F94BA;stroke-width:0.900031}
    .fil4 {fill:none}
    .fil3 {fill:#3290B5;fill-rule:nonzero}
    .fil0 {fill:url(#id0)}
    .fil1 {fill:url(#id1)}
    .fil2 {fill:url(#id2)}
   ]]>
  </style>
  <linearGradient
   id="id0"
   gradientUnits="userSpaceOnUse"
   x1="202.508"
   y1="1999.35"
   x2="3844.8401"
   y2="1999.35">
   <stop
   offset="0"
   style="stop-opacity:1; stop-color:#0A7AA7"
   id="stop4" />
   <stop
   offset="1"
   style="stop-opacity:1; stop-color:white"
   id="stop6" />
  </linearGradient>
  <linearGradient
   id="id1"
   gradientUnits="userSpaceOnUse"
   x1="202.451"
   y1="2608.5"
   x2="3844.78"
   y2="2608.5">
   <stop
   offset="0"
   style="stop-opacity:1; stop-color:#3583AE"
   id="stop9" />
   <stop
   offset="1"
   style="stop-opacity:1; stop-color:white"
   id="stop11" />
  </linearGradient>
  <linearGradient
   id="id2"
   gradientUnits="userSpaceOnUse"
   x1="206.63499"
   y1="2301.27"
   x2="3930"
   y2="2301.27">
   <stop
   offset="0"
   style="stop-opacity:1; stop-color:#EB7128"
   id="stop14" />
   <stop
   offset="1"
   style="stop-opacity:1; stop-color:#FFF200"
   id="stop16" />
  </linearGradient>
 </defs>
 <g
   id="Capa_x0020_1"
   inkscape:label="Capa 1"
   inkscape:groupmode="layer"
   transform="translate(-202,-1208)">
  <metadata
   id="CorelCorpID_0Corel-Layer" />
  <path
   class="fil0"
   d="m 1971,1989 c 861,250 1379,223 1874,168 v -14 c -478,50 -988,65 -1814,-175 C 1280,1751 434,1806 203,1826 v 16 c 294,-22 1072,-55 1768,147 z"
   id="path22"
   style="fill:url(#id0)" />
  <path
   class="fil1"
   d="M 2121,2578 C 1307,2351 384,2425 202,2443 v 15 c 277,-22 1112,-67 1857,141 803,223 1317,222 1786,178 v -15 c -453,37 -956,30 -1724,-184 z"
   id="path24"
   style="fill:url(#id1)" />
  <path
   class="fil2 str0"
   d="m 207,2445 c 185,-18 1129,-92 1961,135 785,214 1300,222 1762,184 V 2153 C 3424,2207 2895,2235 2014,1985 1303,1783 507,1815 207,1838 Z"
   id="path26"
   style="fill:url(#id2)" />
  <path
   class="fil3"
   d="m 1044,1332 c -9,0 -18,-1 -26,-4 -8,-2 -15,-6 -20,-10 l 7,-16 c 6,4 12,7 19,9 6,2 13,4 20,4 9,0 15,-2 20,-5 4,-3 6,-7 6,-12 0,-5 -2,-8 -6,-10 -4,-3 -11,-5 -21,-7 -10,-2 -18,-5 -24,-8 -6,-3 -11,-6 -14,-11 -3,-4 -5,-10 -5,-17 0,-7 2,-13 6,-19 4,-5 9,-10 16,-13 7,-3 15,-4 25,-4 8,0 16,1 24,3 7,3 14,7 19,11 l -8,16 c -10,-9 -22,-13 -35,-13 -8,0 -14,2 -19,5 -4,3 -6,7 -6,13 0,5 2,8 6,11 4,2 10,5 20,7 10,2 18,5 25,7 6,3 11,7 14,11 3,4 5,10 5,16 0,8 -2,14 -6,19 -3,6 -9,10 -16,13 -7,3 -16,4 -26,4 z m 140,-39 h -57 c 1,7 3,13 7,17 4,4 10,6 17,6 9,0 18,-3 25,-9 l 6,14 c -3,4 -8,6 -14,8 -6,2 -12,3 -18,3 -13,0 -24,-4 -32,-12 -8,-7 -12,-18 -12,-31 0,-9 2,-17 5,-23 3,-7 8,-12 15,-16 6,-3 13,-5 21,-5 11,0 20,4 27,11 7,8 10,18 10,31 z m -37,-33 c -6,0 -10,2 -14,5 -3,4 -5,9 -6,16 h 39 c -1,-7 -2,-12 -6,-16 -3,-3 -7,-5 -13,-5 z m 109,3 -12,1 c -14,1 -21,9 -21,21 v 46 h -22 v -84 h 21 v 15 c 4,-10 13,-16 26,-17 h 7 z m 74,-16 h 21 l -36,84 h -19 l -36,-84 h 23 l 23,59 z m 32,84 v -84 h 21 v 84 z m -1,-123 h 23 v 21 h -23 z m 82,124 c -9,0 -16,-2 -23,-5 -6,-4 -11,-9 -14,-15 -4,-7 -6,-14 -6,-23 0,-9 2,-16 6,-23 3,-7 9,-12 15,-16 7,-3 14,-5 23,-5 6,0 12,1 17,3 6,2 11,4 14,7 l -6,15 c -4,-2 -7,-5 -11,-6 -4,-2 -8,-2 -12,-2 -7,0 -13,2 -17,7 -4,4 -6,11 -6,20 0,8 2,15 6,19 4,5 10,7 17,7 4,0 8,-1 12,-2 4,-1 7,-4 11,-7 l 6,15 c -4,4 -8,6 -14,8 -6,2 -12,3 -18,3 z m 45,-1 v -84 h 22 v 84 z m -1,-123 h 24 v 21 h -24 z m 83,124 c -9,0 -16,-2 -23,-5 -6,-4 -11,-9 -14,-16 -4,-6 -6,-14 -6,-23 0,-8 2,-16 6,-23 3,-6 8,-11 14,-15 7,-3 14,-5 23,-5 8,0 16,2 22,5 7,4 12,9 15,15 4,7 5,15 5,23 0,9 -1,17 -5,23 -3,7 -8,12 -15,16 -6,3 -14,5 -22,5 z m 0,-17 c 7,0 12,-2 16,-6 3,-5 5,-12 5,-21 0,-8 -2,-15 -5,-20 -4,-4 -9,-7 -16,-7 -7,0 -12,3 -16,7 -4,5 -5,12 -5,20 0,9 1,16 5,21 4,4 9,6 16,6 z m 91,17 c -8,0 -14,-1 -21,-3 -6,-2 -11,-4 -15,-8 l 6,-15 c 8,7 19,10 30,10 5,0 9,-1 11,-2 3,-2 4,-4 4,-7 0,-2 -1,-4 -2,-6 -2,-1 -5,-2 -10,-4 l -14,-3 c -7,-1 -13,-4 -17,-8 -4,-4 -5,-9 -5,-15 0,-5 1,-10 4,-14 3,-4 7,-7 12,-9 5,-2 11,-3 18,-3 6,0 12,1 17,3 6,2 11,4 15,7 l -6,15 c -9,-6 -17,-9 -26,-9 -5,0 -8,0 -11,2 -3,2 -4,4 -4,7 0,3 1,4 2,6 2,1 5,3 8,3 l 15,4 c 8,1 14,4 18,8 4,4 6,9 6,16 0,7 -3,14 -10,18 -6,5 -14,7 -25,7 z m -629,231 v -102 h -39 v -18 h 100 v 18 h -39 v 102 z m 134,-38 h -57 c 1,8 3,14 7,18 4,3 10,5 17,5 10,0 18,-3 26,-9 l 6,15 c -4,3 -9,6 -15,8 -6,2 -11,3 -17,3 -14,0 -25,-4 -33,-12 -8,-8 -12,-18 -12,-32 0,-8 2,-16 5,-22 4,-7 9,-12 15,-16 6,-4 13,-5 21,-5 12,0 21,3 27,11 7,7 10,17 10,30 z m -36,-32 c -6,0 -11,2 -14,5 -4,4 -6,9 -7,16 h 39 c 0,-7 -2,-12 -5,-16 -3,-3 -8,-5 -13,-5 z m 92,72 c -9,0 -17,-2 -23,-6 -6,-3 -11,-8 -15,-15 -3,-6 -5,-14 -5,-22 0,-9 2,-17 5,-23 4,-7 9,-12 16,-16 6,-4 14,-5 23,-5 6,0 11,1 17,2 6,2 10,5 14,8 l -7,15 c -3,-3 -7,-5 -11,-6 -4,-2 -8,-3 -11,-3 -8,0 -14,3 -18,7 -4,5 -6,12 -6,20 0,9 2,15 6,20 4,5 10,7 18,7 3,0 7,-1 11,-2 4,-2 8,-4 11,-7 l 7,15 c -4,3 -9,6 -14,8 -6,2 -12,3 -18,3 z m 94,-87 c 10,0 17,3 22,8 5,6 7,15 7,26 v 51 h -21 v -50 c 0,-6 -1,-11 -4,-14 -2,-3 -6,-4 -11,-4 -6,0 -11,2 -15,5 -4,4 -6,9 -6,16 v 47 h -21 v -83 h 21 v 12 c 3,-4 7,-8 11,-11 5,-2 11,-3 17,-3 z m 89,87 c -8,0 -16,-2 -22,-6 -7,-3 -12,-8 -15,-15 -4,-6 -6,-14 -6,-23 0,-9 2,-16 6,-23 3,-6 8,-11 15,-15 6,-4 14,-5 22,-5 9,0 16,1 23,5 6,4 11,9 14,15 4,7 6,14 6,23 0,9 -2,17 -6,23 -3,7 -8,12 -14,15 -7,4 -14,6 -23,6 z m 0,-17 c 7,0 12,-2 16,-7 3,-4 5,-11 5,-20 0,-9 -2,-15 -5,-20 -4,-5 -9,-7 -16,-7 -7,0 -12,2 -16,7 -3,5 -5,11 -5,20 0,9 2,16 5,20 4,5 9,7 16,7 z m 60,15 v -120 h 22 v 120 z m 82,2 c -9,0 -16,-2 -23,-6 -6,-3 -11,-8 -15,-15 -3,-6 -5,-14 -5,-23 0,-9 2,-16 5,-23 4,-6 9,-11 15,-15 7,-4 14,-5 23,-5 8,0 16,1 22,5 7,4 12,9 15,15 4,7 5,14 5,23 0,9 -1,17 -5,23 -3,7 -8,12 -15,15 -6,4 -14,6 -22,6 z m 0,-17 c 6,0 12,-2 15,-7 4,-4 6,-11 6,-20 0,-9 -2,-15 -6,-20 -3,-5 -8,-7 -15,-7 -7,0 -12,2 -16,7 -4,5 -6,11 -6,20 0,9 2,16 6,20 3,5 9,7 16,7 z m 7,-79 h -14 l 17,-35 h 21 z m 134,11 v 76 c 0,13 -3,23 -11,29 -7,7 -18,10 -32,10 -7,0 -14,-1 -21,-2 -6,-2 -12,-5 -17,-8 l 6,-15 c 10,6 21,9 32,9 15,0 22,-7 22,-22 v -11 c -3,5 -6,8 -11,11 -5,3 -10,4 -16,4 -8,0 -14,-2 -20,-5 -5,-4 -10,-9 -13,-15 -3,-6 -5,-13 -5,-22 0,-8 2,-15 5,-21 3,-7 7,-12 13,-15 6,-4 12,-5 20,-5 6,0 11,1 16,4 5,2 8,6 11,10 v -12 z m -43,64 c 7,0 12,-2 16,-6 4,-5 6,-11 6,-19 0,-7 -2,-14 -6,-18 -4,-5 -9,-7 -16,-7 -6,0 -12,2 -16,7 -3,4 -5,11 -5,18 0,8 2,14 5,19 4,4 10,6 16,6 z m 65,19 v -83 h 22 v 83 z m -1,-122 h 24 v 21 h -24 z m 83,124 c -9,0 -17,-2 -23,-6 -7,-3 -11,-8 -15,-15 -3,-6 -5,-14 -5,-22 0,-9 2,-17 5,-23 4,-7 9,-12 16,-16 6,-4 14,-5 23,-5 5,0 11,1 17,2 6,2 10,5 13,8 l -6,15 c -3,-3 -7,-5 -11,-6 -4,-2 -8,-3 -12,-3 -7,0 -13,3 -17,7 -4,5 -6,12 -6,20 0,9 2,15 6,20 4,5 10,7 17,7 4,0 8,-1 12,-2 4,-2 8,-4 11,-7 l 6,15 c -3,3 -8,6 -14,8 -5,2 -11,3 -17,3 z m 83,0 c -8,0 -16,-2 -22,-6 -7,-3 -12,-8 -15,-15 -4,-6 -6,-14 -6,-23 0,-9 2,-16 6,-23 3,-6 8,-11 15,-15 6,-4 14,-5 22,-5 9,0 16,1 23,5 6,4 11,9 14,15 4,7 6,14 6,23 0,9 -2,17 -6,23 -3,7 -8,12 -14,15 -7,4 -14,6 -23,6 z m 0,-17 c 7,0 12,-2 16,-7 3,-4 5,-11 5,-20 0,-9 -2,-15 -5,-20 -4,-5 -9,-7 -16,-7 -7,0 -12,2 -16,7 -3,5 -5,11 -5,20 0,9 2,16 5,20 4,5 9,7 16,7 z m 91,17 c -7,0 -14,-1 -20,-3 -7,-2 -12,-5 -16,-8 l 6,-15 c 9,7 19,10 30,10 5,0 9,-1 11,-2 3,-2 4,-4 4,-7 0,-3 -1,-5 -2,-6 -2,-1 -5,-3 -10,-4 l -13,-3 c -8,-2 -14,-4 -18,-8 -3,-4 -5,-9 -5,-15 0,-5 1,-10 4,-14 3,-4 7,-7 12,-9 5,-2 11,-3 18,-3 6,0 12,1 17,2 6,2 11,5 15,8 l -6,15 c -9,-7 -17,-10 -26,-10 -5,0 -8,1 -11,3 -3,1 -4,4 -4,7 0,2 1,4 3,6 1,1 4,2 8,3 l 14,3 c 8,2 14,5 18,9 4,4 6,9 6,15 0,8 -3,14 -10,19 -6,4 -14,7 -25,7 z"
   id="path28" />
  <path
   class="fil4 str1"
   d="m 2722,1734 772,1 c 6,0 11,4 13,9 l 80,205 c 1,4 1,9 -2,13 -3,4 -7,6 -12,6 l -935,5 c -5,0 -9,-2 -12,-6 -3,-4 -3,-9 -2,-14 l 85,-210 c 2,-6 7,-9 13,-9 z"
   id="path30" />
  <path
   class="fil4 str1"
   d="m 2724,1232 h 749 c 18,0 32,15 32,32 v 432 c 0,17 -14,31 -32,31 h -749 c -17,0 -32,-14 -32,-31 v -432 c 0,-17 15,-32 32,-32 z"
   id="path32" />
  <path
   class="fil4 str1"
   d="m 2754,1755 h 702 c 6,0 11,4 13,10 l 22,67 c 1,4 0,9 -2,12 -3,4 -7,6 -12,6 l -749,15 c -4,0 -8,-2 -11,-6 -3,-4 -4,-8 -2,-13 l 26,-81 c 1,-6 7,-10 13,-10 z"
   id="path34" />
  <path
   class="fil4 str1"
   d="m 2755,1279 h 694 c 16,0 29,13 29,28 v 368 c 0,15 -13,28 -29,28 h -694 c -16,0 -30,-13 -30,-28 v -368 c 0,-15 14,-28 30,-28"
   id="path36" />
  <path
   class="fil4 str1"
   d="m 2962,1889 h 256 c 7,0 12,5 12,12 v 32 c 0,7 -5,12 -12,12 h -256 c -6,0 -12,-5 -12,-12 v -32 c 0,-7 6,-12 12,-12 z"
   id="path38" />
 </g>
</svg>
