<?xml version="1.0" encoding="UTF-8"?>
<!-- Created with Inkscape (http://www.inkscape.org/) -->
<svg width="12.13mm" height="12.13mm" version="1.1" viewBox="0 0 12.13 12.13" xmlns="http://www.w3.org/2000/svg">
 <g transform="translate(-111.44 -95.545)">
  <path d="m116.89 107.66c-0.0532-6e-3 -0.21935-0.0308-0.3692-0.0546-0.14986-0.0239-0.29913-0.047-0.33171-0.0513-0.0326-4e-3 -0.0943-0.022-0.13705-0.0393-0.0428-0.0172-0.0925-0.0316-0.11057-0.0319-0.12429-2e-3 -0.74155-0.23476-1.1039-0.41651-0.11783-0.0591-0.21423-0.10078-0.21423-0.0926 0 8e-3 -0.043-0.0179-0.0955-0.058-0.0568-0.0433-0.11006-0.0645-0.1313-0.0523-0.0197 0.0113-0.0265 0.0104-0.0152-2e-3 0.0269-0.0297-0.0812-0.10521-0.11804-0.0825-0.0156 0.01-0.0249 5e-3 -0.0207-0.0102 0.0107-0.0391-0.39178-0.31234-0.42754-0.29024-0.0163 0.0101-0.0215 5e-3 -0.0117-0.0106 0.0202-0.0326-0.21383-0.23585-0.24067-0.20901-0.01 0.01-0.0174 2e-3 -0.0174-0.0165 0-0.0186-0.0127-0.026-0.0283-0.0164-0.0156 0.01-0.0249 2e-3 -0.0207-0.0179 4e-3 -0.0195-8e-3 -0.0359-0.0269-0.0366-0.019-8.1e-4 -0.0349-0.0137-0.0353-0.0289-1e-3 -0.0468-0.33882-0.37157-0.36766-0.35374-0.0149 9e-3 -0.0191 4e-3 -9e-3 -0.0122 0.01-0.0159-0.0349-0.0766-0.0994-0.13483-0.0645-0.0583-0.11114-0.10626-0.10367-0.10667 7e-3 -4.1e-4 -0.0219-0.0473-0.0653-0.10413-0.0434-0.0569-0.0918-0.0954-0.10769-0.0856-0.0159 0.01-0.0209 5e-3 -0.0111-0.0109 0.0149-0.024-0.0628-0.15329-0.1208-0.20102-9e-3 -8e-3 -0.0251-0.0364-0.0353-0.0639-0.0107-0.029-0.032-0.0418-0.0506-0.0303-0.0192 0.0119-0.0247 8e-3 -0.0136-0.0102 0.0203-0.0329-0.1126-0.24471-0.14764-0.2353-0.012 3e-3 -0.0202-9e-3 -0.0185-0.0276 2e-3 -0.0184-0.0828-0.20139-0.18804-0.40663-0.10521-0.20524-0.19411-0.3856-0.19756-0.40081-3e-3 -0.0152-0.0496-0.14592-0.10254-0.29049-0.23274-0.6354-0.35087-1.3286-0.35087-2.0591 0-0.67597 0.0975-1.3083 0.29288-1.8997 0.0388-0.11745 0.0615-0.22821 0.0504-0.24613-0.0117-0.019-8e-3 -0.0253 8e-3 -0.015 0.016 0.01 0.0497-0.0394 0.0774-0.11321 0.0269-0.0719 0.11576-0.26542 0.19734-0.43004 0.0816-0.16461 0.14106-0.31107 0.13216-0.32547-9e-3 -0.0144 3.1e-4 -0.0228 0.0204-0.0186 0.0202 4e-3 0.0349-0.0139 0.0328-0.0405-2e-3 -0.0265 7e-3 -0.0413 0.0207-0.0329 0.0135 8e-3 0.0245-2e-3 0.0245-0.0237 0-0.0213 0.0253-0.0617 0.0563-0.0897s0.0497-0.0679 0.0418-0.0886c-8e-3 -0.0208-4e-3 -0.031 0.01-0.0227 0.0321 0.0198 0.12048-0.11635 0.0985-0.15182-9e-3 -0.0152-5e-3 -0.0241 9e-3 -0.0199 0.0246 7e-3 0.25481-0.26233 0.25481-0.29838 0-0.01 0.0342-0.0522 0.076-0.0947 0.27685-0.28164 0.34272-0.35811 0.32841-0.38124-9e-3 -0.0144 0.0106-0.0496 0.0432-0.0782 0.0327-0.0286 0.0503-0.0365 0.0392-0.0175-0.0399 0.0683 0.0249 0.0325 0.13424-0.074 0.2147-0.20925 0.30506-0.2908 0.32301-0.2915 0.01-4.1e-4 0.0535-0.0318 0.0967-0.0698 0.14038-0.12335 0.62541-0.43509 0.87255-0.5608 0.13259-0.0674 0.2321-0.13255 0.22114-0.14469-0.011-0.0121-5e-3 -0.0136 0.0128-3e-3 0.018 0.0103 0.0989-0.0112 0.17968-0.0478 0.2346-0.10619 0.77127-0.29515 0.87945-0.30966 0.0228-3e-3 0.13475-0.0264 0.24877-0.0518 0.75561-0.1687 1.7991-0.16916 2.5707-1e-3 0.26857 0.0585 0.25807 0.0558 0.48373 0.12617 0.10642 0.0332 0.22029 0.0619 0.25304 0.0637 0.0328 2e-3 0.0526 0.0146 0.0441 0.0284-9e-3 0.0138 0.0125 0.0178 0.0468 9e-3 0.0343-9e-3 0.0549-9e-3 0.0459 2e-4 -9e-3 9e-3 0.0986 0.0673 0.23929 0.12943 0.14067 0.0621 0.36582 0.17198 0.50033 0.24412 0.13451 0.0721 0.25763 0.12308 0.27361 0.11321 0.016-0.01 0.021-5e-3 0.0112 0.0109-0.0218 0.0353 0.11052 0.12692 0.14899 0.10314 0.0152-9e-3 0.0241-2e-3 0.0199 0.0161-4e-3 0.0182 0.01 0.0394 0.0308 0.0471 0.0258 9e-3 0.0312 2e-3 0.0165-0.0215-0.0145-0.0235-0.0109-0.0287 0.0104-0.0155 0.0178 0.011 0.0251 0.0317 0.0163 0.0459-9e-3 0.0143 7e-3 0.0342 0.0341 0.0444 0.0276 0.0102 0.1149 0.0733 0.19407 0.14037 0.0792 0.067 0.15723 0.11367 0.17345 0.10364 0.0162-0.01 0.0263-8e-3 0.0223 5e-3 -9e-3 0.029 0.76605 0.78749 0.78526 0.76827 8e-3 -8e-3 0.0316 8e-3 0.0528 0.0347 0.035 0.0446 0.0341 0.0456-0.01 0.0111-0.0914-0.0717-0.0481 4e-3 0.10366 0.18215 0.0836 0.0979 0.15203 0.19027 0.15203 0.20515 0 0.0149 0.0104 0.0206 0.023 0.0128 0.0127-8e-3 0.0232 8.2e-4 0.0233 0.0191 2.1e-4 0.0183 0.0694 0.13907 0.15383 0.26829 0.0844 0.12923 0.17579 0.28167 0.20299 0.33876 0.0356 0.0748 0.0565 0.0941 0.0745 0.0691 0.0171-0.0236 0.0197-0.0183 8e-3 0.0168-9e-3 0.0291 6e-3 0.0892 0.0363 0.1382 0.0292 0.0477 0.0993 0.20489 0.15576 0.34932 0.31462 0.80471 0.4212 1.3132 0.4467 2.1311 0.0252 0.80858-0.065 1.439-0.30981 2.1657-0.0663 0.1968-0.11311 0.37095-0.104 0.38699 9e-3 0.0161 6e-3 0.0201-6e-3 9e-3 -0.0123-0.0111-0.0672 0.076-0.12191 0.19361-0.0548 0.11761-0.1585 0.3178-0.23056 0.44487-0.072 0.12708-0.124 0.24239-0.11542 0.25627 9e-3 0.0139-8.2e-4 0.0218-0.021 0.0176-0.0202-4e-3 -0.035 0.0137-0.033 0.0397s-0.0104 0.0447-0.0276 0.0415c-0.0172-3e-3 -0.0313 0.0128-0.0313 0.0356s0.0165 0.038 0.0366 0.0339c0.0201-4e-3 0.0283 6e-3 0.0183 0.0221-0.0124 0.0201-0.0292 0.0207-0.0519 2e-3 -0.0246-0.0204-0.0733 0.0251-0.18182 0.17013-0.0815 0.10892-0.1482 0.21362-0.1482 0.23266 0 0.019-9e-3 0.029-0.02 0.0222-0.0213-0.0132-0.12002 0.12035-0.12334 0.16683-1e-3 0.0152-0.0158 0.0249-0.0326 0.0216-0.0169-3e-3 -0.0466 0.0132-0.0661 0.0366-0.029 0.035-0.0283 0.0478 4e-3 0.0708 0.032 0.0227 0.0303 0.0251-9e-3 0.0126-0.0266-9e-3 -0.0484-3e-3 -0.0484 0.0129 0 0.0156-0.0145 0.0194-0.0324 8e-3 -0.022-0.0136-0.0265-5e-3 -0.0141 0.0274 0.0115 0.0301 7e-3 0.0408-0.0114 0.0292-0.0389-0.024-0.19625 0.12754-0.17903 0.17241 7e-3 0.0191-4.1e-4 0.0433-0.0174 0.0537-0.0186 0.0115-0.0229 6e-3 -0.011-0.0129 0.0275-0.0445-0.0252-0.0401-0.0628 5e-3 -0.017 0.0204-0.0216 0.0463-0.0103 0.0576s7e-3 0.0163-0.0101 0.0113c-0.0342-0.0103-0.37024 0.24873-0.37024 0.28534 0 0.0128-9e-3 0.0206-0.0207 0.0172-0.0359-0.0105-0.31177 0.20356-0.29574 0.22949 8e-3 0.0136-6e-3 0.0165-0.0321 7e-3 -0.0334-0.0128-0.0412-8e-3 -0.0263 0.016 0.0133 0.0215 7e-3 0.0312-0.0162 0.0263-0.0205-4e-3 -0.1244 0.043-0.23082 0.10515-0.10642 0.0622-0.23703 0.13483-0.29024 0.16144-0.0532 0.0266-0.11852 0.0674-0.14512 0.0908-0.0266 0.0233-0.0484 0.035-0.0484 0.0259 0-9e-3 -0.0918 0.0253-0.20404 0.0764-0.37666 0.17165-0.91412 0.32889-1.4268 0.41745-0.25104 0.0434-1.3611 0.078-1.6032 0.05zm1.0571-4.4083 7e-3 -1.661 0.49065 4e-3c0.46303 3e-3 0.49064 8.2e-4 0.49064-0.0484 0-0.0531 0.0691-0.80455 0.10029-1.0899l0.0173-0.15833-1.0646-0.016 5e-3 -0.30406c9e-3 -0.52322 0.0554-0.56257 0.67253-0.5651l0.38007-2e-3v-1.1057h-0.59588c-0.58807 0-0.9797 0.0366-0.9797 0.0916 0 0.0155-8e-3 0.0204-0.0173 0.0109-0.01-0.01-0.0562 3e-3 -0.10365 0.0287-0.0475 0.0253-0.0949 0.0437-0.10543 0.0409-0.0431-0.0116-0.33044 0.2843-0.40836 0.42049-0.15812 0.27638-0.17457 0.35226-0.19203 0.88627l-0.0163 0.49756-0.64958 0.016v1.2957l0.66519 0.016-2e-3 3.3032h1.2996zm-4.7058-5.9682c0-0.0152-5e-3 -0.0276-0.0122-0.0276-7e-3 0-0.0199 0.0125-0.0293 0.0276-9e-3 0.0152-4e-3 0.0277 0.0122 0.0277 0.0161 0 0.0293-0.0125 0.0293-0.0277zm0.59891 9.2969c-0.0258-0.0258-0.023-0.0645 5e-3 -0.0645 0.0127 0 0.023 0.0187 0.023 0.0415 0 0.047-2e-3 0.0487-0.0276 0.0231zm-0.32249-0.21739c0-3e-3 0.0166-0.0196 0.0369-0.0364 0.0276-0.0228 0.0368-0.0214 0.0368 6e-3 0 0.02-0.0166 0.0364-0.0368 0.0364-0.0203 0-0.0369-2e-3 -0.0369-6e-3zm8.3076-0.39768c-9e-3 -0.0142-5e-3 -0.0323 8e-3 -0.0403 0.0129-8e-3 0.0235 4e-3 0.0235 0.0257 0 0.0466-9e-3 0.0507-0.0311 0.0145zm-8.681-0.03c-0.01-0.0154-0.0309-0.0197-0.0474-0.01-0.0183 0.0113-0.022 6e-3 -9e-3 -0.0147 0.0157-0.0255 0.0297-0.0257 0.0596-8.2e-4 0.0391 0.0325 0.0496 0.0532 0.0268 0.0532-7e-3 0-0.02-0.0127-0.0296-0.0281zm9.6559-0.62655c0.0199-8e-3 0.0438-7e-3 0.053 2e-3 9e-3 9e-3 -7e-3 0.0157-0.0363 0.0145-0.0322-1e-3 -0.0387-8e-3 -0.0167-0.0167zm5e-3 -0.1486c0-0.0161 0.0125-0.0216 0.0276-0.0122 0.0152 9e-3 0.0276 0.0226 0.0276 0.0293 0 7e-3 -0.0124 0.0122-0.0276 0.0122s-0.0276-0.0132-0.0276-0.0293zm-0.45243-7.2622c-7e-3 -0.012 0.01-0.0217 0.0378-0.0217 0.0282 0 0.0452 0.01 0.0378 0.0217-7e-3 0.012-0.0244 0.0217-0.0378 0.0217s-0.0304-0.01-0.0378-0.0217zm-9.2889-0.50347c0.0134-0.0228 0.0246-0.0498 0.0248-0.0599 2.1e-4 -0.0101 9e-3 -0.0268 0.0191-0.0371 0.0102-0.0102 0.0157 1e-3 0.0122 0.0256-4e-3 0.0244-0.0231 0.0597-0.0434 0.0786-0.0299 0.0278-0.0324 0.0264-0.0126-7e-3zm8.7632-0.14326c8e-3 -0.0129 0.0261-0.0163 0.0403-8e-3 0.0362 0.0224 0.0321 0.0311-0.0145 0.0311-0.0222 0-0.0337-0.0106-0.0257-0.0235zm-8.6825-0.0776c-0.01-0.0157 1e-3 -0.0203 0.026-0.0109 0.0479 0.0184 0.0566 0.0382 0.0169 0.0382-0.0143 0-0.0336-0.0123-0.0429-0.0273z" fill="#fff" stroke-width=".027642"/>
 </g>
</svg>
