<?xml version="1.0" encoding="UTF-8" standalone="no"?>
<!-- Creator: CorelDRAW X8 -->

<svg
   xml:space="preserve"
   width="811.54401"
   height="852.2511"
   version="1.1"
   style="clip-rule:evenodd;fill-rule:evenodd;image-rendering:optimizeQuality;shape-rendering:geometricPrecision;text-rendering:geometricPrecision"
   viewBox="0 0 811.54401 852.2511"
   id="svg82"
   sodipodi:docname="icono-1.svg"
   inkscape:version="1.1.1 (3bf5ae0d25, 2021-09-20)"
   xmlns:inkscape="http://www.inkscape.org/namespaces/inkscape"
   xmlns:sodipodi="http://sodipodi.sourceforge.net/DTD/sodipodi-0.dtd"
   xmlns="http://www.w3.org/2000/svg"
   xmlns:svg="http://www.w3.org/2000/svg"><sodipodi:namedview
   id="namedview84"
   pagecolor="#ffffff"
   bordercolor="#666666"
   borderopacity="1.0"
   inkscape:pageshadow="2"
   inkscape:pageopacity="0.0"
   inkscape:pagecheckerboard="0"
   showgrid="false"
   inkscape:snap-global="false"
   inkscape:zoom="0.020233661"
   inkscape:cx="3879.6735"
   inkscape:cy="4052.6526"
   inkscape:window-width="1366"
   inkscape:window-height="705"
   inkscape:window-x="-8"
   inkscape:window-y="-8"
   inkscape:window-maximized="1"
   inkscape:current-layer="Capa_x0020_1" />
 <defs
   id="defs4">
  <style
   type="text/css"
   id="style2">
   <![CDATA[
    .str0 {stroke:#6697BC;stroke-width:0.900031}
    .fil4 {fill:#6697BC}
    .fil0 {fill:#336699}
    .fil3 {fill:#638090}
    .fil5 {fill:#929292}
    .fil1 {fill:#FEFEFE}
    .fil2 {fill:white}
   ]]>
  </style>
 </defs>
 <g
   id="Capa_x0020_1"
   inkscape:label="Capa 1"
   inkscape:groupmode="layer"
   transform="translate(-1535.0209,-2412.3746)">
  <metadata
   id="CorelCorpID_0Corel-Layer" />
  
  
  
  
  
  
  
  
  
  
  
  
  
 <g
   id="_2593700394656"
   style="clip-rule:evenodd;fill-rule:evenodd;image-rendering:optimizeQuality;shape-rendering:geometricPrecision;text-rendering:geometricPrecision"
   transform="translate(1486.2929,2.5001493)"><path
     class="fil0"
     d="m 145,2629 v 417 c 1,2 2,4 2,5 l 16,32 c 23,43 60,48 81,63 h 418 c 28,-18 35,-9 61,-35 9,-9 17,-17 24,-28 5,-10 2,-7 7,-18 l 10,-19 v -417 c -13,-23 -20,-65 -67,-87 l -32,-16 H 247 c -31,19 -34,8 -64,38 -30,30 -19,34 -38,65 z"
     id="path1724" /><path
     class="fil1"
     d="m 480,2791 89,43 -87,49 -1,55 c 29,-12 141,-58 154,-83 v -39 c -13,-24 -125,-70 -153,-82 z"
     id="path1726" /><path
     class="fil1"
     d="m 274,2816 v 39 c 13,25 125,71 153,83 l 2,-57 -89,-43 87,-49 1,-55 c -29,12 -141,58 -154,82 z"
     id="path1728" /><path
     class="fil1"
     d="m 145,2629 c 19,-31 8,-35 38,-65 30,-30 33,-19 64,-38 H 145 Z"
     id="path1730" /><path
     class="fil1"
     d="m 662,3146 h 102 v -100 l -10,19 c -5,11 -2,8 -7,18 -7,11 -15,19 -24,28 -26,26 -33,17 -61,35 z"
     id="path1732" /><path
     class="fil1"
     d="m 764,2629 v -103 h -99 l 32,16 c 47,22 54,64 67,87 z"
     id="path1734" /><path
     class="fil1"
     d="m 145,3146 h 99 c -21,-15 -58,-20 -81,-63 l -16,-32 c 0,-1 -1,-3 -2,-5 z"
     id="path1736" /></g></g>
</svg>
