<?xml version="1.0" encoding="UTF-8" standalone="no"?>
<!-- Creator: CorelDRAW X8 -->

<svg
   xml:space="preserve"
   width="811.54401"
   height="852.2511"
   version="1.1"
   style="clip-rule:evenodd;fill-rule:evenodd;image-rendering:optimizeQuality;shape-rendering:geometricPrecision;text-rendering:geometricPrecision"
   viewBox="0 0 811.54401 852.2511"
   id="svg82"
   sodipodi:docname="icono-2.svg"
   inkscape:version="1.1.1 (3bf5ae0d25, 2021-09-20)"
   xmlns:inkscape="http://www.inkscape.org/namespaces/inkscape"
   xmlns:sodipodi="http://sodipodi.sourceforge.net/DTD/sodipodi-0.dtd"
   xmlns="http://www.w3.org/2000/svg"
   xmlns:svg="http://www.w3.org/2000/svg"><sodipodi:namedview
   id="namedview84"
   pagecolor="#ffffff"
   bordercolor="#666666"
   borderopacity="1.0"
   inkscape:pageshadow="2"
   inkscape:pageopacity="0.0"
   inkscape:pagecheckerboard="0"
   showgrid="false"
   inkscape:snap-global="false"
   inkscape:zoom="0.16186929"
   inkscape:cx="9767.1399"
   inkscape:cy="1451.7887"
   inkscape:window-width="1366"
   inkscape:window-height="705"
   inkscape:window-x="-8"
   inkscape:window-y="-8"
   inkscape:window-maximized="1"
   inkscape:current-layer="Capa_x0020_1" />
 <defs
   id="defs4">
  <style
   type="text/css"
   id="style2">
   <![CDATA[
    .str0 {stroke:#6697BC;stroke-width:0.900031}
    .fil4 {fill:#6697BC}
    .fil0 {fill:#336699}
    .fil3 {fill:#638090}
    .fil5 {fill:#929292}
    .fil1 {fill:#FEFEFE}
    .fil2 {fill:white}
   ]]>
  </style>
 </defs>
 <g
   id="Capa_x0020_1"
   inkscape:label="Capa 1"
   inkscape:groupmode="layer"
   transform="translate(-1535.0209,-2412.3746)">
  <metadata
   id="CorelCorpID_0Corel-Layer" />
  
  <g
   id="_2593700389856">
   <path
   class="fil0"
   d="m 2291,3013 30,-13 c -1,-10 -3,-21 -5,-31 l -32,-4 -15,-32 19,-27 c -6,-8 -12,-17 -20,-24 l -29,13 -29,-21 3,-33 c -1,0 -1,0 -3,0 -8,-4 -18,-8 -27,-11 l -19,26 -36,-3 -13,-30 c -11,1 -21,2 -32,5 l -3,32 -33,15 -26,-20 c -9,6 -17,13 -25,21 l 13,29 -21,29 -32,-3 c -5,10 -9,19 -12,29 l 27,20 -4,35 -29,13 c 0,11 2,21 4,32 l 33,3 14,33 -19,26 c 6,9 12,17 20,25 l 30,-13 29,21 -3,32 c 0,0 1,1 2,1 9,4 18,8 28,11 l 19,-26 36,3 13,30 c 10,-1 21,-3 31,-5 l 3,-32 33,-15 26,19 c 9,-6 17,-12 25,-20 l -13,-29 21,-30 32,4 c 5,-10 9,-20 12,-30 l -26,-19 z m -172,107 c -58,-6 -101,-58 -96,-116 6,-58 58,-102 117,-96 58,6 101,58 96,116 -6,58 -59,102 -117,96 z"
   id="path22" />
   <path
   class="fil0"
   d="m 1984,2803 c 1,-11 2,-23 1,-35 l -34,-11 -9,-39 26,-24 c -4,-11 -10,-21 -16,-31 l -35,8 -27,-29 11,-34 c -10,-7 -20,-14 -30,-19 l -26,24 -38,-12 -8,-35 c -12,-1 -24,-1 -36,-1 l -10,34 -39,9 -25,-26 c -10,4 -21,10 -31,16 l 9,35 -29,27 -35,-10 c -7,9 -13,19 -19,30 l 24,26 -11,38 -35,8 c -1,11 -2,23 -1,35 l 34,11 9,39 -26,24 c 4,11 10,21 16,31 l 35,-8 27,29 -11,34 c 10,7 20,14 30,19 l 26,-24 38,11 9,36 c 11,1 23,1 35,1 l 11,-34 38,-9 25,26 c 11,-4 21,-10 31,-16 l -8,-35 29,-28 34,11 c 7,-10 14,-19 19,-30 l -24,-26 11,-38 z m -223,91 c -65,-6 -112,-64 -106,-129 7,-65 65,-112 130,-106 64,7 112,65 106,130 -7,64 -65,112 -130,105 z"
   id="path24" />
   <path
   class="fil0"
   d="m 2282,2654 26,-8 c 0,-9 0,-18 -1,-27 l -27,-7 -8,-29 19,-20 c -4,-9 -9,-17 -14,-24 l -27,8 -22,-21 6,-27 -2,-2 c -7,-4 -15,-8 -22,-12 l -19,20 -30,-7 -8,-27 c -9,0 -18,0 -28,0 l -6,27 -30,10 -20,-20 c -9,5 -17,9 -24,15 l 8,26 -21,23 -27,-7 c -5,8 -10,16 -14,25 l 20,19 -7,30 -26,7 c -1,10 0,19 1,28 l 27,6 8,30 -19,20 c 4,8 9,16 14,24 l 27,-8 22,21 -6,27 1,1 c 8,5 15,9 23,12 l 19,-20 30,8 8,26 c 9,0 18,1 28,-1 l 6,-27 30,-9 20,20 c 8,-4 16,-9 23,-15 l -8,-26 22,-22 27,6 c 5,-8 9,-16 13,-24 l -20,-20 c 0,0 8,-29 8,-29 z m -148,76 c -52,-5 -90,-51 -85,-103 5,-52 51,-90 104,-85 52,5 89,51 84,103 -5,53 -51,90 -103,85 z"
   id="path26" />
   <g
   id="g28">
   </g>
   <g
   id="g30">
   </g>
   <g
   id="g32">
   </g>
   <g
   id="g34">
   </g>
   <g
   id="g36">
   </g>
   <g
   id="g38">
   </g>
   <g
   id="g40">
   </g>
   <g
   id="g42">
   </g>
   <g
   id="g44">
   </g>
   <g
   id="g46">
   </g>
   <g
   id="g48">
   </g>
   <g
   id="g50">
   </g>
   <g
   id="g52">
   </g>
   <g
   id="g54">
   </g>
   <g
   id="g56">
   </g>
  </g>
  <polygon
   class="fil2"
   points="3885,2498 3044,2498 3044,3179 3885,3179 "
   id="polygon59" />
  
  
  
  
  
  
  
  
  
  
 </g>
</svg>
