<?xml version="1.0" encoding="UTF-8" standalone="no"?>
<!-- Creator: CorelDRAW X8 -->

<svg
   xml:space="preserve"
   width="811.54401"
   height="852.2511"
   version="1.1"
   style="clip-rule:evenodd;fill-rule:evenodd;image-rendering:optimizeQuality;shape-rendering:geometricPrecision;text-rendering:geometricPrecision"
   viewBox="0 0 811.54401 852.2511"
   id="svg82"
   sodipodi:docname="icono-3.svg"
   inkscape:version="1.1.1 (3bf5ae0d25, 2021-09-20)"
   xmlns:inkscape="http://www.inkscape.org/namespaces/inkscape"
   xmlns:sodipodi="http://sodipodi.sourceforge.net/DTD/sodipodi-0.dtd"
   xmlns="http://www.w3.org/2000/svg"
   xmlns:svg="http://www.w3.org/2000/svg"><sodipodi:namedview
   id="namedview84"
   pagecolor="#ffffff"
   bordercolor="#666666"
   borderopacity="1.0"
   inkscape:pageshadow="2"
   inkscape:pageopacity="0.0"
   inkscape:pagecheckerboard="0"
   showgrid="false"
   inkscape:snap-global="false"
   inkscape:zoom="0.057229435"
   inkscape:cx="-174.73526"
   inkscape:cy="-192.20878"
   inkscape:window-width="1366"
   inkscape:window-height="705"
   inkscape:window-x="-8"
   inkscape:window-y="-8"
   inkscape:window-maximized="1"
   inkscape:current-layer="Capa_x0020_1" />
 <defs
   id="defs4">
  <style
   type="text/css"
   id="style2">
   <![CDATA[
    .str0 {stroke:#6697BC;stroke-width:0.900031}
    .fil4 {fill:#6697BC}
    .fil0 {fill:#336699}
    .fil3 {fill:#638090}
    .fil5 {fill:#929292}
    .fil1 {fill:#FEFEFE}
    .fil2 {fill:white}
   ]]>
  </style>
 </defs>
 <g
   id="Capa_x0020_1"
   inkscape:label="Capa 1"
   inkscape:groupmode="layer"
   transform="translate(-3127.9434,-3354.7029)">
  <metadata
   id="CorelCorpID_0Corel-Layer" />
  
  
  <polygon
   class="fil2"
   points="3885,3179 3885,2498 3044,2498 3044,3179 "
   id="polygon59" />
  
  
  
  
  
  
  
  
  
  <g
   id="g1050"
   transform="translate(93.972504,940.72014)"><path
     class="fil0"
     d="m 3604,3140 1,-105 c 11,-3 73,-3 80,0 46,-2 102,10 115,-51 12,-51 5,-141 1,-198 -1,-32 8,-64 -50,-77 -22,-4 -55,-4 -68,9 -11,13 -12,50 -14,71 -15,6 -37,12 -53,17 -9,3 -17,5 -26,8 -4,2 -9,3 -13,5 -2,0 -4,1 -6,2 -7,2 -3,0 -6,4 -4,9 2,26 6,35 6,16 14,12 28,7 14,-4 56,-20 69,-21 l 1,112 c -33,2 -70,1 -104,1 -42,0 -36,-5 -36,70 0,34 -1,72 0,106 2,22 14,19 35,19 18,0 37,4 40,-14 z"
     id="path61" /><path
     class="fil0 str0"
     d="m 3192,3036 c 7,-4 70,-4 81,-2 l 1,105 c 2,20 20,15 39,15 48,0 36,0 36,-123 0,-75 6,-72 -35,-72 -32,0 -75,2 -105,-1 l 2,-112 c 14,2 44,13 59,18 35,12 32,12 43,-22 6,-16 2,-19 -12,-23 -20,-7 -80,-25 -92,-31 -3,-20 -2,-54 -13,-68 -14,-20 -109,-23 -113,25 -2,26 -3,53 -5,79 -3,44 -9,117 0,159 13,64 79,49 114,53 z"
     id="path63" /><path
     class="fil0"
     d="m 3375,2924 c -5,41 -1,101 -1,144 0,24 -2,45 10,62 9,14 25,25 49,25 26,0 41,-8 52,-22 14,-16 12,-37 12,-62 0,-44 4,-105 -1,-147 31,0 62,0 92,0 48,0 38,-37 23,-45 -11,-6 -230,-3 -272,-3 -20,0 -76,-4 -88,5 -7,7 -11,21 -4,32 8,11 18,11 35,11 31,0 62,0 93,0 z"
     id="path65" /><path
     class="fil3"
     d="m 3360,2839 142,1 v -124 c -2,-19 -12,-31 -22,-40 -28,-25 -109,-24 -120,39 z"
     id="path67" /><path
     class="fil0"
     d="m 3128,2573 c -84,14 -65,142 22,128 84,-13 66,-142 -22,-128 z"
     id="path69" /><path
     class="fil3"
     d="m 3417,2526 c -89,14 -68,141 18,130 33,-5 62,-36 56,-75 -5,-32 -36,-61 -74,-55 z"
     id="path71" /><path
     class="fil0"
     d="m 3723,2574 c -31,7 -60,40 -49,80 24,84 150,48 128,-33 -8,-31 -39,-56 -79,-47 z"
     id="path73" /><path
     class="fil4 str0"
     d="m 3316,2859 c 11,5 203,2 231,2 11,0 13,-4 10,-13 -11,-4 -203,-2 -231,-2 -11,0 -13,4 -10,13 z"
     id="path75" /><path
     class="fil5"
     d="m 3604,3140 c 5,-8 2,-88 2,-105 h 79 c -7,-3 -69,-3 -80,0 z"
     id="path77" /><path
     class="fil5"
     d="m 3274,3139 -1,-105 c -11,-2 -74,-2 -81,2 26,-2 53,-1 80,-1 0,14 -2,99 2,104 z"
     id="path79" /></g>
 </g>
</svg>
