<?xml version="1.0" encoding="UTF-8" standalone="no"?>
<!-- Creator: CorelDRAW X8 -->

<svg
   xml:space="preserve"
   width="1928.2812"
   height="1593.2487"
   version="1.1"
   style="clip-rule:evenodd;fill-rule:evenodd;image-rendering:optimizeQuality;shape-rendering:geometricPrecision;text-rendering:geometricPrecision"
   viewBox="0 0 1928.2812 1593.2487"
   id="svg52"
   sodipodi:docname="icono pc.svg"
   inkscape:version="1.1.1 (3bf5ae0d25, 2021-09-20)"
   xmlns:inkscape="http://www.inkscape.org/namespaces/inkscape"
   xmlns:sodipodi="http://sodipodi.sourceforge.net/DTD/sodipodi-0.dtd"
   xmlns="http://www.w3.org/2000/svg"
   xmlns:svg="http://www.w3.org/2000/svg"><sodipodi:namedview
   id="namedview54"
   pagecolor="#ffffff"
   bordercolor="#666666"
   borderopacity="1.0"
   inkscape:pageshadow="2"
   inkscape:pageopacity="0.0"
   inkscape:pagecheckerboard="0"
   showgrid="false"
   inkscape:zoom="0.080934643"
   inkscape:cx="2224.0167"
   inkscape:cy="877.25105"
   inkscape:window-width="1366"
   inkscape:window-height="705"
   inkscape:window-x="-8"
   inkscape:window-y="-8"
   inkscape:window-maximized="1"
   inkscape:current-layer="Capa_x0020_1" />
 <defs
   id="defs24">
  <style
   type="text/css"
   id="style2">
   <![CDATA[
    .str1 {stroke:#CCCCCC;stroke-width:2.36229}
    .str0 {stroke:#BDBDBD;stroke-width:1.18114}
    .fil8 {fill:#338099}
    .fil5 {fill:#6B809B}
    .fil7 {fill:#BAB1B1}
    .fil6 {fill:#CCCCCC}
    .fil9 {fill:#CCCCCC}
    .fil4 {fill:#E5E4ED}
    .fil3 {fill:url(#id0)}
    .fil1 {fill:url(#id1)}
    .fil0 {fill:url(#id2)}
    .fil2 {fill:url(#id3)}
   ]]>
  </style>
  <linearGradient
   id="id0"
   gradientUnits="userSpaceOnUse"
   x1="2652.49"
   y1="3226.5601"
   x2="3094.5"
   y2="3140.0901">
   <stop
   offset="0"
   style="stop-opacity:1; stop-color:#EFAF19"
   id="stop4" />
   <stop
   offset="1"
   style="stop-opacity:1; stop-color:#F7C010"
   id="stop6" />
  </linearGradient>
  <linearGradient
   id="id1"
   gradientUnits="userSpaceOnUse"
   x1="2026.77"
   y1="2502.8101"
   x2="2790.22"
   y2="2353.46">
   <stop
   offset="0"
   style="stop-opacity:1; stop-color:#F6CE0D"
   id="stop9" />
   <stop
   offset="1"
   style="stop-opacity:1; stop-color:#F7C010"
   id="stop11" />
  </linearGradient>
  <linearGradient
   id="id2"
   gradientUnits="userSpaceOnUse"
   x1="1168.41"
   y1="3420.53"
   x2="1618.8"
   y2="3420.53">
   <stop
   offset="0"
   style="stop-opacity:1; stop-color:#F2BC14"
   id="stop14" />
   <stop
   offset="1"
   style="stop-opacity:1; stop-color:#F7C010"
   id="stop16" />
  </linearGradient>
  <linearGradient
   id="id3"
   gradientUnits="userSpaceOnUse"
   x1="1322.52"
   y1="2756.1299"
   x2="1764.53"
   y2="2669.6699">
   <stop
   offset="0"
   style="stop-opacity:1; stop-color:#F6BC19"
   id="stop19" />
   <stop
   offset="1"
   style="stop-opacity:1; stop-color:#FEED02"
   id="stop21" />
  </linearGradient>
 </defs>
 <g
   id="Capa_x0020_1"
   inkscape:label="Capa 1"
   inkscape:groupmode="layer"
   transform="translate(-1169,-2076.9681)">
  <metadata
   id="CorelCorpID_0Corel-Layer" />
  <ellipse
   class="fil0"
   cx="1394"
   cy="3421"
   rx="225"
   ry="198"
   id="ellipse27"
   style="fill:url(#id2)" />
  <path
   class="fil1"
   d="m 2341,2085 c 211,-41 412,79 449,268 37,190 -104,377 -314,418 -211,41 -412,-79 -449,-268 -37,-190 104,-376 314,-418 z"
   id="path29"
   style="fill:url(#id1)" />
  <path
   class="fil2"
   d="m 1506,2519 c 122,-24 238,44 259,151 20,107 -61,213 -184,237 -122,24 -238,-44 -258,-151 -21,-107 61,-213 183,-237 z"
   id="path31"
   style="fill:url(#id3)" />
  <path
   class="fil3"
   d="m 2836,2989 c 122,-23 238,44 258,151 21,107 -61,213 -183,237 -122,24 -238,-43 -259,-150 -20,-108 61,-214 184,-238 z"
   id="path33"
   style="fill:url(#id0)" />
  <path
   class="fil4 str0"
   d="m 1568,3284 1175,-228 c 9,-2 17,2 22,10 l 182,284 c 4,6 4,13 2,20 -3,7 -9,12 -16,13 l -1424,286 c -7,2 -14,-1 -20,-6 -5,-5 -7,-12 -6,-19 l 67,-343 c 2,-8 9,-15 18,-17 z"
   id="path35" />
  <path
   class="fil4 str0"
   d="m 1568,3274 1174,-228 c 9,-1 17,2 22,10 l 182,288 c 4,6 5,13 2,20 -3,7 -9,11 -16,13 l -1422,286 c -7,1 -14,-1 -20,-6 -5,-6 -7,-13 -6,-20 l 67,-345 c 1,-9 8,-16 17,-18 z"
   id="path37" />
  <path
   class="fil4 str0"
   d="m 1422,2511 1139,-223 c 26,-5 52,12 58,39 l 128,656 c 5,27 -12,53 -39,58 l -1139,223 c -27,5 -53,-13 -58,-39 l -128,-656 c -5,-27 12,-53 39,-58 z"
   id="path39" />
  <path
   class="fil5"
   d="m 1618,3288 1067,-209 c 10,-2 19,3 24,11 l 52,96 c 3,6 4,13 1,20 -3,6 -9,10 -16,12 l -1134,244 c -8,2 -14,0 -20,-5 -5,-5 -8,-11 -7,-19 l 15,-131 c 1,-9 8,-17 18,-19 z"
   id="path41" />
  <path
   class="fil6"
   d="m 1623,3297 1067,-209 c 9,-2 19,2 23,11 l 53,95 c 3,7 3,14 0,20 -3,7 -8,11 -15,12 l -1135,245 c -7,1 -14,0 -19,-5 -6,-5 -8,-12 -7,-19 l 15,-131 c 1,-10 8,-18 18,-19 z"
   id="path43" />
  <path
   class="fil7 str1"
   d="m 1979,3438 389,-76 c 10,-2 20,5 22,15 l 9,49 c 2,10 -4,20 -14,22 l -389,76 c -10,2 -20,-5 -22,-15 l -10,-49 c -2,-10 5,-20 15,-22 z"
   id="path45" />
  <path
   class="fil8"
   d="m 2556,2350 -1102,216 c -20,4 -34,23 -30,43 l 113,575 c 4,20 23,33 44,29 l 1102,-216 c 20,-4 34,-23 30,-43 l -113,-575 c -4,-20 -23,-33 -44,-29 z"
   id="path47" />
  <ellipse
   class="fil9"
   transform="matrix(1.52086,-0.297513,0.297513,1.52086,1999.59,2436.59)"
   rx="10"
   ry="9"
   id="ellipse49"
   cx="0"
   cy="0" />
 </g>
</svg>
