<?xml version="1.0" encoding="UTF-8" standalone="no"?>
<!-- Creator: CorelDRAW X8 -->

<svg
   xml:space="preserve"
   width="5770.8999"
   height="1489.7319"
   version="1.1"
   style="clip-rule:evenodd;fill-rule:evenodd;image-rendering:optimizeQuality;shape-rendering:geometricPrecision;text-rendering:geometricPrecision"
   viewBox="0 0 5770.8999 1489.7319"
   id="svg29"
   sodipodi:docname="lazo.svg"
   inkscape:version="1.1.1 (3bf5ae0d25, 2021-09-20)"
   xmlns:inkscape="http://www.inkscape.org/namespaces/inkscape"
   xmlns:sodipodi="http://sodipodi.sourceforge.net/DTD/sodipodi-0.dtd"
   xmlns="http://www.w3.org/2000/svg"
   xmlns:svg="http://www.w3.org/2000/svg"><sodipodi:namedview
   id="namedview31"
   pagecolor="#ffffff"
   bordercolor="#666666"
   borderopacity="1.0"
   inkscape:pageshadow="2"
   inkscape:pageopacity="0.0"
   inkscape:pagecheckerboard="0"
   showgrid="false"
   inkscape:zoom="0.080934643"
   inkscape:cx="2965.3556"
   inkscape:cy="1000.8075"
   inkscape:window-width="1366"
   inkscape:window-height="705"
   inkscape:window-x="-8"
   inkscape:window-y="-8"
   inkscape:window-maximized="1"
   inkscape:current-layer="Capa_x0020_1" />
 <defs
   id="defs19">
  <style
   type="text/css"
   id="style2">
   <![CDATA[
    .str0 {stroke:#5F94BA;stroke-width:0.900031}
    .fil2 {fill:url(#id0)}
    .fil0 {fill:url(#id1)}
    .fil1 {fill:url(#id2)}
   ]]>
  </style>
  <linearGradient
   id="id0"
   gradientUnits="userSpaceOnUse"
   x1="-884.02899"
   y1="1718.29"
   x2="4886"
   y2="1718.29">
   <stop
   offset="0"
   style="stop-opacity:1; stop-color:#E89223"
   id="stop4" />
   <stop
   offset="1"
   style="stop-opacity:1; stop-color:#FFF200"
   id="stop6" />
  </linearGradient>
  <linearGradient
   id="id1"
   gradientUnits="userSpaceOnUse"
   x1="-880.73798"
   y1="1250.4"
   x2="4763.7202"
   y2="1250.4">
   <stop
   offset="0"
   style="stop-opacity:1; stop-color:#0A7AA7"
   id="stop9" />
   <stop
   offset="1"
   style="stop-opacity:1; stop-color:white"
   id="stop11" />
  </linearGradient>
  <linearGradient
   id="id2"
   gradientUnits="userSpaceOnUse"
   x1="-880.82501"
   y1="2194.3899"
   x2="4763.6299"
   y2="2194.3899">
   <stop
   offset="0"
   style="stop-opacity:1; stop-color:#3583AE"
   id="stop14" />
   <stop
   offset="1"
   style="stop-opacity:1; stop-color:white"
   id="stop16" />
  </linearGradient>
 </defs>
 <g
   id="Capa_x0020_1"
   inkscape:label="Capa 1"
   inkscape:groupmode="layer"
   transform="translate(884.45002,-973.48845)">
  <metadata
   id="CorelCorpID_0Corel-Layer" />
  <path
   class="fil0"
   d="m 1860,1235 c 1334,387 2136,345 2904,260 v -22 C 4024,1550 3233,1574 1953,1203 789,865 -522,950 -881,982 v 25 c 456,-35 1662,-85 2741,228 z"
   id="path22"
   style="fill:url(#id1)" />
  <path
   class="fil1"
   d="M 2093,2146 C 831,1795 -599,1910 -881,1937 v 24 c 428,-35 1723,-104 2878,218 1244,347 2040,344 2767,277 v -24 c -701,58 -1481,46 -2671,-286 z"
   id="path24"
   style="fill:url(#id2)" />
  <path
   class="fil2 str0"
   d="m -884,1941 c 288,-27 1749,-142 3040,209 1216,332 2013,344 2730,286 V 1488 C 4102,1573 3282,1615 1918,1228 814,915 -418,965 -884,1000 Z"
   id="path26"
   style="fill:url(#id0)" />
 </g>
</svg>
