<?xml version="1.0" encoding="UTF-8" standalone="no"?>
<!-- Created with Inkscape (http://www.inkscape.org/) -->

<svg
   width="12.129858mm"
   height="12.129874mm"
   viewBox="0 0 12.129858 12.129874"
   version="1.1"
   id="svg5969"
   sodipodi:docname="whatsapptomate.svg"
   inkscape:version="1.2 (dc2aedaf03, 2022-05-15)"
   xml:space="preserve"
   xmlns:inkscape="http://www.inkscape.org/namespaces/inkscape"
   xmlns:sodipodi="http://sodipodi.sourceforge.net/DTD/sodipodi-0.dtd"
   xmlns="http://www.w3.org/2000/svg"
   xmlns:svg="http://www.w3.org/2000/svg"><sodipodi:namedview
     id="namedview5971"
     pagecolor="#ffffff"
     bordercolor="#666666"
     borderopacity="1.0"
     inkscape:showpageshadow="2"
     inkscape:pageopacity="0.0"
     inkscape:pagecheckerboard="0"
     inkscape:deskcolor="#d1d1d1"
     inkscape:document-units="mm"
     showgrid="false"
     inkscape:zoom="3.3638608"
     inkscape:cx="120.84329"
     inkscape:cy="51.726278"
     inkscape:window-width="1303"
     inkscape:window-height="745"
     inkscape:window-x="55"
     inkscape:window-y="-8"
     inkscape:window-maximized="1"
     inkscape:current-layer="layer1" /><defs
     id="defs5966" /><g
     inkscape:label="Capa 1"
     inkscape:groupmode="layer"
     id="layer1"
     transform="translate(-111.44128,-95.544819)"><path
       style="fill:#000000;fill-opacity:1;fill-rule:evenodd;stroke:#fbbf49;stroke-width:0;stroke-linecap:round;paint-order:markers stroke fill"
       d="m 113.12879,106.07866 c -0.12714,-0.0891 -0.16837,-0.32589 -0.084,-0.48266 0.0361,-0.0671 0.0977,-0.20973 0.13693,-0.31686 0.0392,-0.10713 0.11622,-0.2637 0.17118,-0.34793 0.055,-0.0842 0.11352,-0.21507 0.13014,-0.29074 0.0166,-0.0757 0.0759,-0.20493 0.13178,-0.28724 0.12942,-0.1907 0.14522,-0.32299 0.0549,-0.4592 -0.0395,-0.0595 -0.14016,-0.25624 -0.22373,-0.43716 -0.80391,-1.74031 -0.50018,-3.769042 0.77527,-5.178464 0.46452,-0.513307 1.19249,-1.015718 1.76908,-1.22093 0.78306,-0.2787 0.8146,-0.283787 1.75862,-0.283593 l 0.88733,1.81e-4 0.47438,0.163969 c 0.60317,0.208483 1.19894,0.519533 1.447,0.755466 0.10638,0.101178 0.20763,0.18396 0.22499,0.18396 0.0605,0 0.57241,0.542764 0.72741,0.771292 0.63268,0.932852 0.8611,1.593509 0.90064,2.604909 0.0363,0.92848 -0.16342,1.77641 -0.59685,2.53394 -0.31333,0.54764 -1.14782,1.42705 -1.50029,1.58106 -0.0774,0.0338 -0.14067,0.0773 -0.14067,0.0967 0,0.0194 -0.0195,0.0232 -0.0433,0.009 -0.0238,-0.0147 -0.0433,-0.006 -0.0433,0.0185 0,0.0576 -0.40858,0.2635 -0.80077,0.40356 -0.53418,0.19076 -1.07046,0.2622 -1.78666,0.23801 -0.65306,-0.0221 -1.12421,-0.12045 -1.58954,-0.33195 -0.44294,-0.20132 -0.37473,-0.20341 -1.28406,0.0394 -0.46029,0.12292 -0.90506,0.24136 -0.98838,0.26321 -0.22195,0.0582 -0.40096,0.049 -0.50806,-0.026 z m 5.64811,-0.83152 c 0.1726,-0.0484 0.31381,-0.0707 0.31381,-0.0496 0,0.0211 0.0331,0.0383 0.0736,0.0383 0.055,0 0.0611,-0.0125 0.0244,-0.0492 -0.0367,-0.0367 0.0291,-0.0867 0.26015,-0.19745 0.17014,-0.0815 0.34468,-0.13902 0.38785,-0.12773 0.0501,0.0131 0.0742,-5.8e-4 0.0666,-0.0378 -0.0105,-0.0516 0.72382,-0.71324 0.79161,-0.71324 0.0148,0 0.0773,-0.0925 0.13903,-0.20561 0.0617,-0.11308 0.14801,-0.24455 0.19179,-0.29217 0.11274,-0.12261 0.47052,-0.98905 0.53621,-1.29854 0.0648,-0.30507 0.0688,-1.77249 0.005,-1.8522 -0.023,-0.0288 -0.0562,-0.10102 -0.0738,-0.16054 -0.11088,-0.375014 -0.42991,-1.00461 -0.61601,-1.215671 -0.57737,-0.654818 -0.93831,-0.95618 -1.38665,-1.157754 -0.73207,-0.32914 -1.09324,-0.412631 -1.78499,-0.412631 -0.86598,0 -1.5503,0.211227 -2.24205,0.692054 -0.14993,0.104215 -0.30204,0.189482 -0.33801,0.189482 -0.036,0 -0.0534,0.01939 -0.0388,0.04309 0.0254,0.04108 -0.17443,0.2599 -0.23732,0.2599 -0.0165,0 -0.0522,0.04869 -0.0793,0.108211 -0.0271,0.05952 -0.0706,0.108211 -0.0966,0.108211 -0.0604,0 -0.17098,0.109574 -0.17098,0.169397 0,0.05266 -0.2415,0.463207 -0.34145,0.580443 -0.037,0.04341 -0.0896,0.160279 -0.11676,0.259708 -0.0272,0.09943 -0.0818,0.29765 -0.12121,0.44049 -0.12771,0.46242 -0.17516,1.06412 -0.11958,1.51641 0.054,0.43903 0.21499,1.00271 0.37942,1.32812 0.0567,0.11229 0.10316,0.2251 0.10316,0.2507 0,0.0256 0.0406,0.0895 0.0902,0.14211 0.17795,0.18847 0.22282,0.32317 0.16609,0.49861 -0.0662,0.20487 -0.21273,0.49827 -0.26584,0.53243 -0.0226,0.0146 -0.0395,0.0389 -0.0375,0.0541 0.0133,0.0993 -0.009,0.16346 -0.10321,0.30293 -0.0989,0.14567 -0.10075,0.15754 -0.0251,0.15754 0.0945,0 0.70369,-0.14284 1.01536,-0.23807 0.28587,-0.0874 0.63157,-0.0874 0.63157,0 0,0.0357 0.0356,0.0649 0.0791,0.0649 0.0435,0 0.19713,0.048 0.34137,0.10656 0.5927,0.24084 0.8455,0.28327 1.59226,0.26725 0.52937,-0.0114 0.7665,-0.0356 1.00637,-0.10282 z"
       id="path22523" /><path
       style="fill:#000000;fill-opacity:1;fill-rule:evenodd;stroke:#fbbf49;stroke-width:0;stroke-linecap:round;paint-order:markers stroke fill"
       d="m 118.59078,103.55624 c -0.0226,-0.0191 -0.13719,-0.059 -0.25461,-0.0885 -0.27116,-0.0682 -0.9429,-0.39158 -1.18026,-0.56816 -0.12732,-0.0947 -0.1737,-0.15628 -0.15481,-0.20552 0.0205,-0.0533 0.009,-0.0633 -0.0478,-0.0416 -0.0954,0.0366 -0.41172,-0.25404 -0.78816,-0.72425 -0.71679,-0.89535 -0.90298,-1.73262 -0.50455,-2.268922 0.23695,-0.318955 0.64617,-0.414382 0.86,-0.20055 0.17326,0.173263 0.37645,0.657752 0.38063,0.907612 0.003,0.18335 -0.0213,0.2521 -0.15963,0.44989 -0.11721,0.16762 -0.15521,0.25919 -0.13474,0.32464 0.0441,0.14116 0.26902,0.46045 0.47575,0.6755 0.10298,0.10713 0.18442,0.21426 0.18096,0.23807 -0.003,0.0238 0.0271,0.0497 0.0679,0.0576 0.0408,0.008 0.21314,0.0999 0.38295,0.20465 0.45265,0.27907 0.56258,0.30728 0.74886,0.19215 0.0832,-0.0514 0.15131,-0.12724 0.15131,-0.16846 0,-0.10662 0.218,-0.3016 0.36949,-0.33046 0.15632,-0.0298 0.65902,0.20018 0.89985,0.41164 0.13632,0.11969 0.15906,0.16592 0.15906,0.32345 0,0.32042 -0.31593,0.66344 -0.72421,0.78632 -0.21671,0.0652 -0.66236,0.0805 -0.72799,0.025 z m 1.21591,-1.04444 c -0.0157,-0.0254 -0.0492,-0.0462 -0.0746,-0.0462 -0.0287,0 -0.0254,0.0248 0.009,0.066 0.0594,0.0715 0.11243,0.0556 0.0658,-0.0198 z m -2.01451,-0.003 c 0,-0.0238 -0.0304,-0.0433 -0.0675,-0.0433 -0.0371,0 -0.0554,0.0195 -0.0407,0.0433 0.0147,0.0238 0.0451,0.0433 0.0675,0.0433 0.0224,0 0.0407,-0.0195 0.0407,-0.0433 z m 1.19032,-0.38957 c -0.0147,-0.0238 -0.0462,-0.0433 -0.07,-0.0433 -0.0238,0 -0.0312,0.0195 -0.0165,0.0433 0.0147,0.0238 0.0462,0.0433 0.07,0.0433 0.0238,0 0.0312,-0.0195 0.0165,-0.0433 z"
       id="path22525" /></g></svg>
