<?xml version="1.0" encoding="UTF-8" standalone="no"?>
<!-- Created with Inkscape (http://www.inkscape.org/) -->

<svg
   width="12.129858mm"
   height="12.129874mm"
   viewBox="0 0 12.129858 12.129874"
   version="1.1"
   id="svg5969"
   sodipodi:docname="whatsapp.svg"
   inkscape:version="1.2 (dc2aedaf03, 2022-05-15)"
   xmlns:inkscape="http://www.inkscape.org/namespaces/inkscape"
   xmlns:sodipodi="http://sodipodi.sourceforge.net/DTD/sodipodi-0.dtd"
   xmlns="http://www.w3.org/2000/svg"
   xmlns:svg="http://www.w3.org/2000/svg">
  <sodipodi:namedview
     id="namedview5971"
     pagecolor="#ffffff"
     bordercolor="#666666"
     borderopacity="1.0"
     inkscape:showpageshadow="2"
     inkscape:pageopacity="0.0"
     inkscape:pagecheckerboard="0"
     inkscape:deskcolor="#d1d1d1"
     inkscape:document-units="mm"
     showgrid="false"
     inkscape:zoom="1.1893044"
     inkscape:cx="141.25904"
     inkscape:cy="-105.10345"
     inkscape:window-width="1366"
     inkscape:window-height="705"
     inkscape:window-x="-8"
     inkscape:window-y="-8"
     inkscape:window-maximized="1"
     inkscape:current-layer="layer1" />
  <defs
     id="defs5966" />
  <g
     inkscape:label="Capa 1"
     inkscape:groupmode="layer"
     id="layer1"
     transform="translate(-111.44128,-95.544819)">
    <path
       d="m 116.78728,107.64443 c -0.63906,-0.0773 -1.27953,-0.25517 -1.80798,-0.50205 -0.0487,-0.0227 -0.10344,-0.0321 -0.12175,-0.0207 -0.0194,0.012 -0.0261,0.009 -0.0161,-0.007 0.0214,-0.0346 -0.11235,-0.0988 -0.15324,-0.0735 -0.0174,0.0107 -0.0219,0.006 -0.0108,-0.0124 0.0214,-0.0346 -0.19619,-0.15167 -0.23608,-0.12702 -0.0135,0.008 -0.0211,0.003 -0.017,-0.0117 0.007,-0.0233 -0.3976,-0.3089 -0.43716,-0.3089 -0.008,0 -0.006,0.0144 0.005,0.0319 0.0123,0.0199 0.008,0.0244 -0.0127,0.0119 -0.0178,-0.011 -0.026,-0.0302 -0.0183,-0.0427 0.017,-0.0274 -0.12608,-0.12747 -0.16516,-0.11553 -0.0152,0.005 -0.019,-3.1e-4 -0.008,-0.0107 0.0292,-0.0292 -0.13764,-0.15819 -0.17493,-0.13515 -0.0197,0.0122 -0.0251,0.008 -0.0138,-0.0101 0.0195,-0.0316 -0.19309,-0.21847 -0.2349,-0.20642 -0.0132,0.004 -0.0209,-0.004 -0.0171,-0.018 0.004,-0.0137 -0.0497,-0.0796 -0.11889,-0.14629 -0.2431,-0.2345 -0.75949,-0.88389 -0.90381,-1.13661 -0.019,-0.0333 -0.0479,-0.057 -0.0642,-0.0528 -0.0163,0.004 -0.0221,-0.005 -0.0127,-0.0199 0.0254,-0.0411 -0.0651,-0.20014 -0.10127,-0.1778 -0.0177,0.0109 -0.023,0.007 -0.0125,-0.0104 0.01,-0.0162 -0.0116,-0.0896 -0.0481,-0.16321 -0.29774,-0.60109 -0.50172,-1.2408 -0.60234,-1.88903 -0.0575,-0.37026 -0.0487,-1.48992 0.0145,-1.85201 0.13873,-0.794822 0.37174,-1.441342 0.75487,-2.094472 0.0827,-0.14096 0.14163,-0.27038 0.13099,-0.2876 -0.0114,-0.0185 -0.007,-0.0237 0.0107,-0.0127 0.0371,0.0229 0.12086,-0.0906 0.0973,-0.13199 -0.009,-0.0165 -0.008,-0.0215 0.004,-0.011 0.0116,0.0105 0.0634,-0.0363 0.11499,-0.1039 0.0995,-0.13032 0.11563,-0.16645 0.0593,-0.1326 -0.0235,0.0141 -0.0224,0.006 0.003,-0.026 0.0444,-0.0547 0.0701,-0.0619 0.0437,-0.0122 -0.0285,0.0535 0.25813,-0.26063 0.30895,-0.33861 0.0248,-0.038 0.14804,-0.16101 0.27393,-0.27335 0.1259,-0.11233 0.258,-0.2309 0.29358,-0.26347 0.0356,-0.0326 0.11443,-0.0961 0.17522,-0.14128 0.12528,-0.093 0.12694,-0.0943 0.27334,-0.20677 0.0591,-0.0454 0.11729,-0.0826 0.12932,-0.0826 0.012,0 0.0383,-0.0161 0.0584,-0.0358 0.037,-0.0362 0.24835,-0.1571 0.57554,-0.32922 0.21128,-0.11114 0.69512,-0.29547 1.03139,-0.39292 1.40972,-0.40852 3.03636,-0.2626 4.33924,0.38925 0.1337,0.0669 0.2569,0.11308 0.27379,0.10265 0.0181,-0.0112 0.0229,-0.006 0.0118,0.0115 -0.0186,0.0301 0.0738,0.0988 0.099,0.0736 0.007,-0.007 0.0356,0.012 0.0632,0.0424 0.0552,0.061 0.11184,0.0757 0.0803,0.0209 -0.0115,-0.0201 -0.009,-0.0249 0.005,-0.0115 0.0138,0.0127 0.0252,0.0365 0.0252,0.053 0,0.0165 0.0173,0.0357 0.0384,0.0427 0.0263,0.009 0.0314,8.2e-4 0.0163,-0.0254 -0.0131,-0.0225 -0.0118,-0.0287 0.003,-0.0151 0.0138,0.0127 0.0257,0.0376 0.0264,0.0553 8.2e-4,0.0177 0.0163,0.0291 0.0346,0.0254 0.0183,-0.004 0.0333,0.004 0.0333,0.0185 0,0.014 0.0421,0.0514 0.0936,0.0833 0.13332,0.0824 0.41377,0.30611 0.6355,0.50693 0.10457,0.0947 0.2019,0.16879 0.21628,0.16461 0.0144,-0.004 0.0191,0.004 0.0106,0.0176 -0.0201,0.0326 0.0516,0.0927 0.0785,0.0658 0.0113,-0.0113 0.018,-0.008 0.0149,0.007 -0.0122,0.0604 0.003,0.0807 0.0317,0.0415 0.0246,-0.0342 0.0269,-0.0324 0.0129,0.0104 -0.0187,0.0574 0.0312,0.1361 0.0708,0.11162 0.0138,-0.009 0.0218,-0.005 0.0177,0.007 -0.0135,0.041 0.15199,0.23308 0.18868,0.219 0.0216,-0.008 0.0301,0.001 0.0215,0.0236 -0.008,0.0205 0.0407,0.11004 0.10782,0.19899 0.0672,0.0889 0.1566,0.21439 0.19875,0.27876 0.0422,0.0644 0.0895,0.10908 0.10518,0.0994 0.016,-0.01 0.0203,-0.004 0.01,0.0129 -0.0104,0.0168 0.0423,0.14068 0.11712,0.27536 0.26869,0.4839 0.50716,1.12096 0.62381,1.666532 0.18515,0.86585 0.16518,1.92062 -0.0526,2.77674 -0.10335,0.40637 -0.34795,1.05485 -0.49003,1.29917 -0.0177,0.0304 -0.0741,0.12991 -0.12543,0.22113 -0.12269,0.21815 -0.38675,0.60973 -0.49104,0.72819 -0.0456,0.0518 -0.0798,0.10507 -0.076,0.11836 0.004,0.0133 -0.006,0.0242 -0.0224,0.0242 -0.0161,0 -0.0204,0.0144 -0.01,0.0319 0.0117,0.0189 0.008,0.0244 -0.01,0.0136 -0.0365,-0.0225 -0.204,0.17444 -0.1806,0.2123 0.009,0.0149 0.005,0.0197 -0.0103,0.0104 -0.0314,-0.0194 -0.37724,0.31958 -0.35536,0.34836 0.008,0.0106 0.007,0.0132 -0.003,0.006 -0.01,-0.007 -0.0357,0.008 -0.0573,0.0346 -0.0245,0.0298 -0.0317,0.0323 -0.0192,0.006 0.0111,-0.0228 -0.0186,-0.005 -0.0661,0.0388 -0.0474,0.0441 -0.0785,0.0927 -0.0691,0.10793 0.01,0.0157 0.003,0.0191 -0.015,0.008 -0.0177,-0.0109 -0.0487,-0.004 -0.0689,0.0165 -0.0202,0.02 -0.13183,0.10413 -0.24806,0.18702 -0.14903,0.10627 -0.2013,0.15797 -0.17729,0.17537 0.0232,0.0168 0.0187,0.0197 -0.0143,0.009 -0.0272,-0.009 -0.0899,0.0126 -0.14338,0.0489 -0.0758,0.0514 -0.0883,0.0719 -0.0622,0.10147 0.0269,0.0303 0.0249,0.0311 -0.0111,0.004 -0.0356,-0.0267 -0.0737,-0.0168 -0.20067,0.0519 -0.0913,0.0495 -0.14904,0.0973 -0.13834,0.11456 0.0109,0.0177 0.005,0.0217 -0.0139,0.01 -0.0177,-0.011 -0.11486,0.0191 -0.21584,0.0668 -1.01058,0.47748 -2.20376,0.6717 -3.30669,0.53825 z m -2.02332,-2.94368 c 0.01,-0.0154 0.0267,-0.0223 0.0381,-0.0153 0.0114,0.007 0.20025,-0.037 0.41963,-0.0979 0.84651,-0.23501 0.79103,-0.22397 0.88383,-0.17598 0.0458,0.0237 0.0973,0.0344 0.11442,0.0239 0.0173,-0.0107 0.0235,-0.007 0.014,0.009 -0.0222,0.0359 0.42643,0.19012 0.70899,0.24376 0.46091,0.0875 1.09137,0.0413 1.553,-0.11375 0.27178,-0.0913 0.60023,-0.2545 0.57953,-0.28799 -0.009,-0.0152 0.004,-0.0187 0.0311,-0.008 0.0347,0.0133 0.0414,0.008 0.0248,-0.0184 -0.0159,-0.0258 -0.012,-0.0301 0.0131,-0.0145 0.0229,0.0141 0.0551,-0.002 0.0896,-0.0441 0.0296,-0.0364 0.0441,-0.0475 0.0322,-0.0247 -0.077,0.14713 0.60248,-0.51135 0.77615,-0.75214 0.54357,-0.75359 0.71649,-1.72436 0.47074,-2.64265 -0.10315,-0.38543 -0.39511,-0.968802 -0.46365,-0.926432 -0.0168,0.0104 -0.0202,0.004 -0.008,-0.0155 0.041,-0.0663 -0.47655,-0.63353 -0.54302,-0.5952 -0.0196,0.0113 -0.0262,0.0102 -0.0149,-0.002 0.0113,-0.0125 -0.0197,-0.059 -0.0691,-0.10317 -0.22446,-0.20106 -0.74992,-0.4602 -1.14827,-0.56629 -0.23551,-0.0627 -0.32572,-0.0718 -0.7382,-0.0741 -0.36639,-0.002 -0.51543,0.008 -0.67649,0.0474 -0.11361,0.0276 -0.22245,0.0633 -0.24186,0.0794 -0.0194,0.0161 -0.0353,0.0222 -0.0353,0.0136 0,-0.0194 -0.25371,0.0675 -0.39271,0.13452 -0.0564,0.0272 -0.0961,0.0596 -0.0884,0.0722 0.008,0.0125 -0.007,0.0146 -0.0334,0.005 -0.032,-0.0123 -0.041,-0.008 -0.0276,0.0138 0.0133,0.0216 0.004,0.0261 -0.0276,0.0138 -0.0347,-0.0133 -0.0414,-0.008 -0.0248,0.0184 0.0152,0.0245 0.012,0.03 -0.01,0.0167 -0.0526,-0.0325 -0.41354,0.22625 -0.67026,0.48057 -0.23906,0.23684 -0.45723,0.53699 -0.60936,0.838362 -0.35349,0.70025 -0.41123,1.62295 -0.14963,2.39086 0.0709,0.20797 0.27542,0.62785 0.31903,0.6548 0.0195,0.012 0.0193,0.0347 -4.1e-4,0.0718 -0.0159,0.0298 -0.0203,0.0683 -0.01,0.0855 0.0109,0.0176 0.007,0.0238 -0.008,0.0142 -0.0343,-0.0212 -0.18002,0.30772 -0.15545,0.35076 0.01,0.0171 0.007,0.0211 -0.007,0.009 -0.0281,-0.0256 -0.24031,0.41702 -0.21759,0.45377 0.008,0.0134 0.003,0.0244 -0.012,0.0244 -0.0149,0 -0.0417,0.0443 -0.0596,0.0984 -0.0381,0.11551 -4.1e-4,0.23774 0.0934,0.30353 0.0658,0.0461 0.25455,0.0543 0.28056,0.0123 z m 2.34928,-0.52311 c -0.23176,-0.0383 -0.47021,-0.10845 -0.66391,-0.19535 -0.10142,-0.0455 -0.19596,-0.0756 -0.21011,-0.0668 -0.0141,0.009 -0.0223,3.1e-4 -0.0181,-0.0187 0.0165,-0.0753 -0.13416,-0.0919 -0.34902,-0.0384 -0.11381,0.0283 -0.20077,0.0615 -0.19323,0.0737 0.008,0.0122 -0.004,0.0156 -0.0246,0.008 -0.0211,-0.008 -0.13316,0.0113 -0.24912,0.0431 -0.26172,0.0718 -0.3236,0.0839 -0.3236,0.0635 0,-0.009 0.0193,-0.0303 0.043,-0.0475 0.0237,-0.0173 0.046,-0.0498 0.0497,-0.0721 0.004,-0.0224 0.0222,-0.069 0.0412,-0.10347 0.019,-0.0345 0.0258,-0.0769 0.0151,-0.0941 -0.0109,-0.0177 -0.007,-0.0238 0.009,-0.014 0.0366,0.0226 0.20156,-0.3505 0.20156,-0.45592 0,-0.0489 -0.0269,-0.10753 -0.0685,-0.14909 -0.0377,-0.0377 -0.0688,-0.0744 -0.0691,-0.0817 -3.1e-4,-0.007 -8.1e-4,-0.0264 -8.1e-4,-0.0425 0,-0.0161 -0.0144,-0.0204 -0.0319,-0.01 -0.0204,0.0126 -0.0244,0.008 -0.0111,-0.0139 0.0114,-0.0185 0.003,-0.0546 -0.0184,-0.0803 -0.0703,-0.0835 -0.18913,-0.38677 -0.25806,-0.65851 -0.11906,-0.46936 -0.085,-1.06864 0.0866,-1.52461 0.0367,-0.0976 0.0587,-0.19044 0.0488,-0.2064 -0.01,-0.016 -0.006,-0.0217 0.009,-0.0126 0.0146,0.009 0.0503,-0.0295 0.0793,-0.0856 0.029,-0.0561 0.0881,-0.15494 0.13126,-0.21968 0.0432,-0.0647 0.0707,-0.13035 0.0611,-0.1458 -0.01,-0.0154 -8.2e-4,-0.0247 0.0192,-0.0205 0.0202,0.004 0.0332,-0.009 0.029,-0.029 -0.004,-0.0202 0.003,-0.0299 0.0167,-0.0216 0.0326,0.0202 0.1491,-0.10609 0.12244,-0.13275 -0.0115,-0.0115 -0.009,-0.0169 0.007,-0.012 0.0152,0.005 0.068,-0.0271 0.11725,-0.0712 0.0742,-0.0663 0.0839,-0.0878 0.0566,-0.12418 -0.0274,-0.0366 -0.0265,-0.0383 0.005,-0.0101 0.0308,0.0274 0.0598,0.0164 0.1507,-0.0568 0.73531,-0.59247 1.84672,-0.70431 2.70558,-0.27226 0.13977,0.0703 0.26955,0.12648 0.28839,0.12481 0.0188,-0.002 0.0278,0.007 0.0199,0.0202 -0.008,0.0128 0.0168,0.0395 0.0547,0.0594 0.0963,0.0505 0.50256,0.45328 0.6009,0.59586 0.0463,0.0671 0.0945,0.10999 0.11162,0.0994 0.0168,-0.0104 0.0224,-0.006 0.0125,0.01 -0.01,0.0157 0.0376,0.13861 0.10503,0.27307 0.0675,0.13445 0.13695,0.30384 0.15436,0.37641 0.0174,0.0726 0.0398,0.12706 0.0496,0.12109 0.0288,-0.0174 0.0457,0.24189 0.0448,0.68821 -8.1e-4,0.47181 -0.0472,0.68818 -0.22671,1.06131 -0.0556,0.11562 -0.1,0.22659 -0.0985,0.24661 0.002,0.02 -0.004,0.0298 -0.0121,0.0217 -0.0192,-0.0192 -0.14826,0.16179 -0.21134,0.29662 -0.0272,0.0582 -0.0565,0.099 -0.065,0.0905 -0.008,-0.008 -0.11005,0.0695 -0.22569,0.17333 -0.11564,0.10381 -0.23905,0.2039 -0.27424,0.22242 -0.055,0.0289 -0.0589,0.0402 -0.0276,0.0801 0.0319,0.0408 0.0309,0.0422 -0.008,0.0118 -0.0371,-0.029 -0.0784,-0.017 -0.24878,0.0716 -0.11236,0.0585 -0.23539,0.11534 -0.2734,0.12642 -0.39686,0.11569 -0.48068,0.13039 -0.80161,0.14051 -0.19004,0.006 -0.40772,4.1e-4 -0.48373,-0.0119 z m 1.58245,-1.23007 c 0.2126,-0.11207 0.3663,-0.3202 0.3663,-0.49603 0,-0.12743 -0.11952,-0.24469 -0.39108,-0.38369 -0.26471,-0.13549 -0.37078,-0.13697 -0.50851,-0.007 -0.0625,0.059 -0.0958,0.11204 -0.0861,0.13732 0.009,0.0226 0.002,0.0498 -0.0149,0.0602 -0.0197,0.0122 -0.0235,0.005 -0.0106,-0.0199 0.0111,-0.0213 -0.007,-0.005 -0.0395,0.0372 -0.0328,0.0418 -0.0866,0.0757 -0.11953,0.0754 -0.0842,-8.2e-4 -0.26338,-0.0865 -0.45977,-0.2199 -0.0922,-0.0626 -0.17907,-0.10687 -0.19297,-0.0983 -0.0139,0.009 -0.0343,10e-4 -0.0453,-0.0168 -0.0125,-0.0202 -0.008,-0.025 0.0119,-0.0127 0.069,0.0427 0.0254,-0.0151 -0.10654,-0.14121 -0.14753,-0.14094 -0.33145,-0.41401 -0.33145,-0.4921 0,-0.0259 0.0355,-0.0925 0.0789,-0.14786 0.11437,-0.14597 0.14221,-0.20905 0.14221,-0.32232 0,-0.11333 -0.13751,-0.45087 -0.23864,-0.58578 -0.1805,-0.24079 -0.58673,-0.0756 -0.71806,0.29205 -0.14788,0.41392 0.0957,0.99667 0.66585,1.59335 0.1017,0.10643 0.19319,0.19369 0.20333,0.19392 0.0101,2.1e-4 0.051,0.0313 0.0908,0.0691 0.14224,0.13507 0.23559,0.19559 0.50815,0.32943 0.29508,0.14491 0.49311,0.2099 0.54392,0.17849 0.0183,-0.0113 0.0237,-0.007 0.0129,0.0105 -0.0276,0.0446 0.0556,0.0593 0.2863,0.0507 0.16321,-0.006 0.23818,-0.024 0.35239,-0.0842 z m -1.69184,-0.51109 c -0.009,-0.0142 -0.005,-0.0323 0.008,-0.0402 0.0129,-0.008 0.0235,0.004 0.0235,0.0257 0,0.0466 -0.009,0.0507 -0.0311,0.0145 z m 1.83348,-0.1332 c -0.0344,-0.0439 -0.0334,-0.0448 0.0104,-0.0105 0.046,0.0361 0.0607,0.0588 0.0379,0.0588 -0.006,0 -0.0275,-0.0218 -0.0484,-0.0484 z m -1.36455,-0.007 c -0.01,-0.0157 0.001,-0.0203 0.026,-0.0108 0.0479,0.0184 0.0566,0.0382 0.0169,0.0382 -0.0143,0 -0.0336,-0.0123 -0.0429,-0.0273 z m 0.80161,-0.24877 c -0.01,-0.0157 0.001,-0.0203 0.026,-0.0109 0.0479,0.0184 0.0566,0.0382 0.0169,0.0382 -0.0143,0 -0.0336,-0.0123 -0.0429,-0.0273 z m 0.15184,2.04518 c -0.0249,-0.0161 -0.0283,-0.0269 -0.009,-0.0272 0.0181,-2.1e-4 0.0406,0.012 0.05,0.0272 0.0212,0.0343 0.0116,0.0343 -0.0415,0 z m 4.36222,3.13228 c 0.0199,-0.008 0.0438,-0.007 0.053,0.002 0.009,0.009 -0.007,0.0157 -0.0363,0.0145 -0.0322,-0.001 -0.0387,-0.008 -0.0167,-0.0167 z m 0.005,-0.14861 c 0,-0.0161 0.0125,-0.0216 0.0276,-0.0122 0.0152,0.009 0.0276,0.0226 0.0276,0.0293 0,0.007 -0.0124,0.0122 -0.0276,0.0122 -0.0152,0 -0.0276,-0.0132 -0.0276,-0.0293 z m -0.86787,-1.21 c -0.008,-0.0127 0.003,-0.023 0.0248,-0.023 0.0215,0 0.0326,0.0104 0.0248,0.023 -0.008,0.0127 -0.019,0.0231 -0.0248,0.0231 -0.006,0 -0.0169,-0.0104 -0.0248,-0.0231 z m -9.42559,-7.859972 c 0.008,-0.0129 0.0261,-0.0163 0.0403,-0.008 0.0362,0.0224 0.0321,0.0311 -0.0145,0.0311 -0.0221,0 -0.0337,-0.0106 -0.0257,-0.0235 z m 9.2119,-0.84495 c -0.0344,-0.0438 -0.0334,-0.0448 0.0104,-0.0104 0.0266,0.0209 0.0484,0.0426 0.0484,0.0484 0,0.0227 -0.0227,0.008 -0.0588,-0.0379 z m -0.84218,-0.70486 -0.0526,-0.0622 0.0622,0.0527 c 0.0584,0.0495 0.0748,0.0717 0.0527,0.0717 -0.005,0 -0.0333,-0.028 -0.0622,-0.0622 z"
       style="fill:#ffffff;fill-opacity:1;stroke-width:0.0276418"
       id="path5907" />
  </g>
</svg>
