<?xml version="1.0" encoding="UTF-8" standalone="no"?>
<!-- Created with Inkscape (http://www.inkscape.org/) -->

<svg
   width="12.129858mm"
   height="12.129874mm"
   viewBox="0 0 12.129858 12.129874"
   version="1.1"
   id="svg5969"
   sodipodi:docname="youtube.svg"
   inkscape:version="1.2 (dc2aedaf03, 2022-05-15)"
   xmlns:inkscape="http://www.inkscape.org/namespaces/inkscape"
   xmlns:sodipodi="http://sodipodi.sourceforge.net/DTD/sodipodi-0.dtd"
   xmlns="http://www.w3.org/2000/svg"
   xmlns:svg="http://www.w3.org/2000/svg">
  <sodipodi:namedview
     id="namedview5971"
     pagecolor="#ffffff"
     bordercolor="#666666"
     borderopacity="1.0"
     inkscape:showpageshadow="2"
     inkscape:pageopacity="0.0"
     inkscape:pagecheckerboard="0"
     inkscape:deskcolor="#d1d1d1"
     inkscape:document-units="mm"
     showgrid="false"
     inkscape:zoom="1.1893044"
     inkscape:cx="141.25904"
     inkscape:cy="-105.10345"
     inkscape:window-width="1366"
     inkscape:window-height="705"
     inkscape:window-x="-8"
     inkscape:window-y="-8"
     inkscape:window-maximized="1"
     inkscape:current-layer="layer1" />
  <defs
     id="defs5966" />
  <g
     inkscape:label="Capa 1"
     inkscape:groupmode="layer"
     id="layer1"
     transform="translate(-111.44128,-95.544819)">
    <path
       d="m 116.79319,107.64052 c -0.64202,-0.0756 -1.40457,-0.29372 -1.87938,-0.53765 -0.0607,-0.0312 -0.12661,-0.0504 -0.14655,-0.0428 -0.0222,0.009 -0.0286,0.002 -0.0165,-0.0181 0.0134,-0.0216 0.004,-0.0261 -0.0277,-0.0138 -0.0283,0.0109 -0.0406,0.007 -0.0304,-0.009 0.009,-0.0152 -0.006,-0.036 -0.0331,-0.0464 -0.0875,-0.0329 -0.45675,-0.26219 -0.68589,-0.42585 -0.24667,-0.17618 -0.26813,-0.19328 -0.40797,-0.32508 -0.0999,-0.0942 -0.19769,-0.10061 -0.12548,-0.008 0.0322,0.0411 0.0308,0.0419 -0.0128,0.008 -0.0337,-0.0265 -0.0403,-0.0484 -0.0213,-0.0713 0.0362,-0.0436 -0.11764,-0.19614 -0.16703,-0.16561 -0.023,0.0142 -0.0271,0.01 -0.0127,-0.0137 0.0139,-0.0225 -0.0236,-0.078 -0.1063,-0.15726 -0.0703,-0.0674 -0.1278,-0.13214 -0.1278,-0.14398 0,-0.0118 -0.0359,-0.0559 -0.0799,-0.098 -0.0589,-0.0564 -0.0842,-0.0669 -0.0965,-0.0397 -0.009,0.0202 -0.0105,0.0113 -0.003,-0.0197 0.01,-0.0396 -0.0195,-0.091 -0.097,-0.1717 -0.0609,-0.0633 -0.11064,-0.12734 -0.11064,-0.14222 0,-0.0149 -0.0144,-0.036 -0.0319,-0.0468 -0.0211,-0.0131 -0.0244,-0.007 -0.01,0.0165 0.0149,0.0241 0.0116,0.0295 -0.01,0.0162 -0.0178,-0.011 -0.0265,-0.0295 -0.0192,-0.0412 0.007,-0.0117 -0.0553,-0.12586 -0.13887,-0.25378 -0.41719,-0.63837 -0.74364,-1.48958 -0.88424,-2.3057 -0.0587,-0.34078 -0.0825,-1.23014 -0.0429,-1.6062 0.1141,-1.084658 0.51578,-2.119958 1.15529,-2.977648 0.11143,-0.14945 0.2026,-0.27638 0.2026,-0.2821 0,-0.0244 0.71174,-0.72852 0.78064,-0.77233 0.0421,-0.0268 0.0678,-0.0622 0.0578,-0.0797 -0.01,-0.0173 -0.008,-0.0226 0.004,-0.0116 0.0316,0.0285 0.18463,-0.0873 0.16255,-0.12304 -0.0113,-0.0183 -0.005,-0.0217 0.0155,-0.009 0.0196,0.0121 0.0593,-0.002 0.0941,-0.0337 0.0331,-0.0301 0.0885,-0.0693 0.12312,-0.0872 0.0349,-0.018 0.0546,-0.0461 0.0441,-0.063 -0.0108,-0.0175 -0.006,-0.0228 0.0105,-0.0124 0.0162,0.01 0.0955,-0.0254 0.1764,-0.0787 0.0809,-0.0532 0.15736,-0.0968 0.17,-0.0968 0.0127,0 0.0141,-0.0144 0.003,-0.0319 -0.0116,-0.0188 -0.008,-0.0244 0.01,-0.0138 0.0161,0.01 0.10198,-0.0229 0.19085,-0.0729 0.52758,-0.29711 1.24203,-0.529 1.99367,-0.64707 0.36383,-0.0572 1.26116,-0.0644 1.62315,-0.0131 0.26919,0.0381 0.95397,0.18922 1.06421,0.23478 0.0228,0.009 0.1598,0.0595 0.30444,0.11118 0.14464,0.0517 0.3764,0.15102 0.51503,0.22065 0.13864,0.0696 0.25974,0.1189 0.26913,0.10951 0.009,-0.009 0.0171,-0.004 0.0171,0.0109 0,0.0154 0.10884,0.0943 0.24187,0.1753 0.13302,0.081 0.32116,0.20711 0.41808,0.28019 0.0969,0.0731 0.18741,0.12594 0.20109,0.11748 0.0137,-0.008 0.0215,-0.003 0.0173,0.011 -0.0111,0.0387 0.24913,0.26102 0.28185,0.2408 0.0153,-0.009 0.0215,-8.2e-4 0.0139,0.0191 -0.008,0.0199 0.0157,0.0548 0.052,0.0774 0.0362,0.0226 0.14328,0.13142 0.23789,0.24168 0.0946,0.11027 0.18524,0.19231 0.20141,0.18231 0.0162,-0.01 0.0216,-0.006 0.0122,0.01 -0.01,0.0154 0.0236,0.0764 0.0734,0.13557 0.0499,0.0592 0.1349,0.16634 0.18893,0.23806 0.054,0.0717 0.10718,0.12148 0.11809,0.11057 0.0109,-0.0109 0.0157,-0.005 0.0106,0.0123 -0.005,0.0177 0.0459,0.12076 0.11334,0.22906 0.0892,0.14336 0.13433,0.19243 0.16586,0.18044 0.0332,-0.0127 0.0357,-0.009 0.0108,0.0163 -0.0249,0.0251 -0.002,0.0914 0.0988,0.28497 0.2795,0.53667 0.4607,1.07428 0.58807,1.744858 0.0553,0.29093 0.063,0.41834 0.063,1.03656 0,0.74765 -0.0345,1.04521 -0.18278,1.57559 -0.0319,0.11402 -0.0601,0.22619 -0.0626,0.24926 -0.002,0.0231 -0.0127,0.0549 -0.0225,0.0707 -0.0393,0.0636 -0.18177,0.48166 -0.16425,0.48206 0.0104,2.1e-4 0.005,0.01 -0.0125,0.0207 -0.0488,0.0316 -0.20517,0.39596 -0.18506,0.43116 0.01,0.0173 0.008,0.022 -0.005,0.0106 -0.0282,-0.0256 -0.16116,0.19057 -0.1391,0.22627 0.009,0.0141 0.001,0.0347 -0.0165,0.0457 -0.0213,0.0131 -0.0258,0.007 -0.0132,-0.0188 0.0248,-0.0503 -0.0175,0.0118 -0.20688,0.3034 -0.0852,0.13117 -0.17549,0.25564 -0.20074,0.2766 -0.0355,0.0294 -0.0387,0.0468 -0.014,0.0765 0.0249,0.0301 0.0234,0.0352 -0.007,0.0234 -0.0461,-0.0177 -0.25147,0.21463 -0.22266,0.25183 0.0104,0.0135 0.009,0.0168 -0.004,0.007 -0.0125,-0.009 -0.13272,0.0962 -0.26716,0.23478 -0.16743,0.1726 -0.23428,0.25939 -0.21222,0.27551 0.0197,0.0144 0.0118,0.0168 -0.0205,0.006 -0.0601,-0.0196 -0.19135,0.0855 -0.16334,0.13085 0.01,0.0154 0.005,0.0202 -0.0106,0.0106 -0.033,-0.0204 -0.21902,0.13972 -0.20801,0.17913 0.004,0.0149 -0.006,0.019 -0.022,0.009 -0.0381,-0.0235 -0.17222,0.0635 -0.15094,0.098 0.009,0.0144 -0.003,0.0188 -0.0265,0.01 -0.0251,-0.01 -0.0496,0.002 -0.0596,0.0278 -0.009,0.0243 -0.0281,0.0373 -0.0417,0.0289 -0.0136,-0.008 -0.0247,-0.002 -0.0247,0.014 0,0.0161 -0.0146,0.0293 -0.0324,0.0293 -0.0178,0 -0.052,0.0176 -0.076,0.0391 -0.024,0.0215 -0.12449,0.0834 -0.22331,0.13748 -0.0988,0.0541 -0.17625,0.11202 -0.17207,0.12875 0.004,0.0168 -0.004,0.0231 -0.019,0.014 -0.0373,-0.0231 -0.31217,0.10754 -0.28627,0.13603 0.0117,0.0129 0.006,0.0147 -0.0124,0.004 -0.0185,-0.0106 -0.0869,0.008 -0.15203,0.0412 -0.12797,0.0653 -0.69337,0.26517 -0.85094,0.30072 -0.84103,0.18977 -1.55323,0.23708 -2.28044,0.15147 z m 2.67603,-3.99196 c 0.27439,-0.0283 0.44569,-0.0865 0.56709,-0.19256 0.0354,-0.0309 0.0569,-0.0681 0.0479,-0.0827 -0.009,-0.0146 -0.002,-0.0355 0.016,-0.0465 0.0216,-0.0134 0.0249,-0.008 0.01,0.0162 -0.0139,0.0225 -0.0115,0.0295 0.006,0.0184 0.0519,-0.0321 0.14939,-0.27249 0.19146,-0.47208 0.0542,-0.2573 0.0822,-1.74829 0.0417,-2.21801 -0.0382,-0.44236 -0.15908,-0.837288 -0.25016,-0.817448 -0.0192,0.004 -0.0279,-0.004 -0.0193,-0.0176 0.021,-0.034 -0.057,-0.096 -0.0929,-0.0739 -0.016,0.01 -0.0223,0.002 -0.0143,-0.0194 0.0301,-0.0785 -0.22513,-0.16185 -0.59369,-0.194 -0.45446,-0.0396 -3.27734,-0.0393 -3.73709,4e-4 -0.48333,0.0418 -0.67314,0.14297 -0.82064,0.43743 -0.1337,0.266928 -0.15684,0.503108 -0.15684,1.600888 0,1.07054 0.0146,1.24827 0.12771,1.55048 0.0635,0.16983 0.18046,0.32461 0.2246,0.29732 0.017,-0.0105 0.0213,-0.005 0.0103,0.0127 -0.0215,0.0349 0.19093,0.15489 0.2307,0.1303 0.0136,-0.008 0.0317,-0.004 0.0402,0.01 0.0489,0.0791 0.88693,0.11162 2.5453,0.0989 0.74495,-0.006 1.47648,-0.023 1.62563,-0.0385 z m -2.55181,-1.27654 c -0.001,-0.26263 -0.002,-1.67589 -4.1e-4,-1.69644 8.2e-4,-0.0152 0.0106,-0.0132 0.0218,0.004 0.0112,0.0176 0.11706,0.0841 0.23525,0.1479 0.18682,0.10077 0.22112,0.11104 0.26255,0.0786 0.0439,-0.0344 0.0444,-0.0332 0.006,0.0162 -0.0378,0.0489 -0.0371,0.0519 0.008,0.0349 0.0274,-0.0103 0.0429,-0.007 0.0344,0.006 -0.008,0.0137 0.13081,0.10272 0.30953,0.19778 0.17873,0.0951 0.38093,0.20411 0.44934,0.24233 0.0684,0.0382 0.15426,0.0851 0.19076,0.10416 0.0646,0.0337 0.0614,0.0371 -0.11591,0.12456 -0.10026,0.0494 -0.17486,0.10193 -0.16577,0.11664 0.009,0.0147 0.003,0.0184 -0.0134,0.008 -0.0165,-0.0102 -0.0941,0.0193 -0.17258,0.0656 -0.0784,0.0462 -0.28145,0.15667 -0.45113,0.24538 -0.3668,0.19177 -0.51739,0.27545 -0.56419,0.31348 -0.0245,0.0199 -0.0346,0.017 -0.0347,-0.01 z m -4.82465,2.10246 c -0.01,-0.0162 -0.0123,-0.0354 -0.005,-0.0427 0.007,-0.007 0.0206,0.006 0.0295,0.0295 0.0187,0.0487 0.003,0.0573 -0.0245,0.0132 z m 0.38352,-6.396028 c 0,-0.0222 0.0106,-0.0337 0.0235,-0.0257 0.0129,0.008 0.0163,0.0261 0.008,0.0403 -0.0224,0.0362 -0.0311,0.0321 -0.0311,-0.0145 z m 10.06936,-0.1307 c 0.008,-0.0129 0.0261,-0.0163 0.0403,-0.008 0.0362,0.0224 0.0321,0.0311 -0.0145,0.0311 -0.0221,0 -0.0337,-0.0106 -0.0257,-0.0235 z"
       style="fill:#ffffff;fill-opacity:1;stroke-width:0.0276418"
       id="path5930" />
  </g>
</svg>
